<svg xmlns="http://www.w3.org/2000/svg" xmlns:xlink="http://www.w3.org/1999/xlink" width="2560" zoomAndPan="magnify" viewBox="0 0 1920 1079.999946" height="1440" preserveAspectRatio="xMidYMid meet" version="1.0"><defs><g/><clipPath id="f26765285f"><path d="M 1368 385.003906 L 1646.972656 385.003906 L 1646.972656 694.753906 L 1368 694.753906 Z M 1368 385.003906 " clip-rule="nonzero"/></clipPath><clipPath id="b95258d926"><path d="M 1356.722656 510 L 1381 510 L 1381 517 L 1356.722656 517 Z M 1356.722656 510 " clip-rule="nonzero"/></clipPath><clipPath id="5f05b9943a"><path d="M 1356.722656 484 L 1381 484 L 1381 490 L 1356.722656 490 Z M 1356.722656 484 " clip-rule="nonzero"/></clipPath><clipPath id="deed085e26"><path d="M 1356.722656 457 L 1381 457 L 1381 464 L 1356.722656 464 Z M 1356.722656 457 " clip-rule="nonzero"/></clipPath><clipPath id="09bc983a9e"><path d="M 1356.722656 431 L 1381 431 L 1381 437 L 1356.722656 437 Z M 1356.722656 431 " clip-rule="nonzero"/></clipPath><clipPath id="24689bb8e7"><path d="M 1356.722656 404 L 1381 404 L 1381 411 L 1356.722656 411 Z M 1356.722656 404 " clip-rule="nonzero"/></clipPath><clipPath id="fbd644a8d7"><path d="M 1356.722656 537 L 1381 537 L 1381 543 L 1356.722656 543 Z M 1356.722656 537 " clip-rule="nonzero"/></clipPath><clipPath id="e2d6b19be1"><path d="M 1356.722656 563 L 1381 563 L 1381 570 L 1356.722656 570 Z M 1356.722656 563 " clip-rule="nonzero"/></clipPath><clipPath id="c79948313e"><path d="M 1356.722656 669 L 1381 669 L 1381 676 L 1356.722656 676 Z M 1356.722656 669 " clip-rule="nonzero"/></clipPath><clipPath id="3f26d2b4e8"><path d="M 1356.722656 643 L 1381 643 L 1381 649 L 1356.722656 649 Z M 1356.722656 643 " clip-rule="nonzero"/></clipPath><clipPath id="ee5766fdd3"><path d="M 1356.722656 616 L 1381 616 L 1381 623 L 1356.722656 623 Z M 1356.722656 616 " clip-rule="nonzero"/></clipPath><clipPath id="b082638ef8"><path d="M 1356.722656 590 L 1381 590 L 1381 596 L 1356.722656 596 Z M 1356.722656 590 " clip-rule="nonzero"/></clipPath></defs><rect x="-192" width="2304" fill="#ffffff" y="-107.999995" height="1295.999935" fill-opacity="1"/><rect x="-192" width="2304" fill="#97b0b0" y="-107.999995" height="1295.999935" fill-opacity="1"/><g fill="#000000" fill-opacity="1"><g transform="translate(686.523604, 497.249934)"><g><path d="M 95.515625 -79.4375 L 101.515625 -79.4375 L 71.765625 1.796875 L 69.84375 1.796875 L 51.484375 -47.40625 L 33.484375 1.796875 L 31.5625 1.796875 L 1.203125 -79.4375 L 14.28125 -79.4375 L 35.40625 -14.40625 L 48.84375 -54.484375 L 39.484375 -79.4375 L 52.5625 -79.4375 L 73.6875 -14.40625 Z M 95.515625 -79.4375 "/></g></g></g><g fill="#000000" fill-opacity="1"><g transform="translate(789.243645, 497.249934)"><g><path d="M 34.203125 -12.71875 L 34.203125 -25.078125 C 28.441406 -24.679688 23.71875 -23.398438 20.03125 -21.234375 C 16.351562 -19.078125 14.515625 -16.757812 14.515625 -14.28125 C 14.515625 -11.800781 15.15625 -9.660156 16.4375 -7.859375 C 17.71875 -6.054688 19.359375 -4.796875 21.359375 -4.078125 C 23.992188 -4.554688 26.789062 -5.875 29.75 -8.03125 C 32.71875 -10.195312 34.203125 -11.757812 34.203125 -12.71875 Z M 44.046875 -15.953125 C 44.046875 -10.273438 46.125 -5.957031 50.28125 -3 L 44.046875 1.5625 L 34.3125 -7.203125 C 28 -1.441406 22.160156 1.4375 16.796875 1.4375 C 13.273438 1.4375 10.253906 0.316406 7.734375 -1.921875 C 5.210938 -4.160156 3.953125 -6.976562 3.953125 -10.375 C 3.953125 -13.78125 4.972656 -16.601562 7.015625 -18.84375 C 9.054688 -21.082031 11.757812 -22.800781 15.125 -24 C 20.882812 -26.15625 27.242188 -27.515625 34.203125 -28.078125 L 34.203125 -39.359375 C 34.203125 -45.992188 30.363281 -49.3125 22.6875 -49.3125 C 18.28125 -49.3125 13.078125 -48.351562 7.078125 -46.4375 L 6 -49.4375 C 7.601562 -50.71875 10.382812 -52.078125 14.34375 -53.515625 C 18.300781 -54.960938 22.078125 -55.6875 25.671875 -55.6875 C 29.273438 -55.6875 32.296875 -55.203125 34.734375 -54.234375 C 37.179688 -53.273438 38.984375 -52.195312 40.140625 -51 C 41.296875 -49.800781 42.191406 -48.160156 42.828125 -46.078125 C 43.472656 -43.992188 43.835938 -42.351562 43.921875 -41.15625 C 44.003906 -39.957031 44.046875 -38.359375 44.046875 -36.359375 Z M 44.046875 -15.953125 "/></g></g></g><g fill="#000000" fill-opacity="1"><g transform="translate(842.52367, 497.249934)"><g><path d="M 20.28125 -50.640625 C 18.195312 -50.640625 16.492188 -49.859375 15.171875 -48.296875 C 13.859375 -46.734375 13.203125 -44.972656 13.203125 -43.015625 C 13.203125 -41.054688 14.140625 -39.175781 16.015625 -37.375 C 17.898438 -35.582031 20.179688 -33.984375 22.859375 -32.578125 C 25.535156 -31.179688 28.191406 -29.722656 30.828125 -28.203125 C 33.472656 -26.679688 35.734375 -24.71875 37.609375 -22.3125 C 39.492188 -19.914062 40.4375 -17.238281 40.4375 -14.28125 C 40.4375 -9.800781 38.632812 -6.0625 35.03125 -3.0625 C 31.4375 -0.0625 26.539062 1.4375 20.34375 1.4375 C 14.144531 1.4375 8.484375 0 3.359375 -2.875 L 3.359375 -7.4375 C 8.796875 -4.71875 13.710938 -3.359375 18.109375 -3.359375 C 22.515625 -3.359375 25.71875 -4.238281 27.71875 -6 C 29.71875 -7.757812 30.71875 -9.78125 30.71875 -12.0625 C 30.71875 -14.34375 29.816406 -16.378906 28.015625 -18.171875 C 26.210938 -19.972656 24.007812 -21.550781 21.40625 -22.90625 C 18.8125 -24.269531 16.234375 -25.710938 13.671875 -27.234375 C 11.117188 -28.753906 8.941406 -30.710938 7.140625 -33.109375 C 5.335938 -35.515625 4.4375 -38.414062 4.4375 -41.8125 C 4.4375 -45.21875 5.816406 -48.378906 8.578125 -51.296875 C 11.335938 -54.222656 15.597656 -55.6875 21.359375 -55.6875 C 27.117188 -55.6875 32.640625 -54.644531 37.921875 -52.5625 L 36.71875 -44.640625 C 30.800781 -47.835938 25.320312 -49.835938 20.28125 -50.640625 Z M 20.28125 -50.640625 "/></g></g></g><g fill="#000000" fill-opacity="1"><g transform="translate(887.163692, 497.249934)"><g/></g><g transform="translate(917.163689, 497.249934)"><g><path d="M 9 0 L 9 -54.234375 L 18.953125 -54.234375 L 18.953125 0 Z M 7.796875 -70.984375 C 7.796875 -72.703125 8.375 -74.160156 9.53125 -75.359375 C 10.695312 -76.554688 12.140625 -77.15625 13.859375 -77.15625 C 15.578125 -77.15625 17.054688 -76.554688 18.296875 -75.359375 C 19.535156 -74.160156 20.15625 -72.71875 20.15625 -71.03125 C 20.15625 -69.351562 19.535156 -67.875 18.296875 -66.59375 C 17.054688 -65.320312 15.597656 -64.6875 13.921875 -64.6875 C 12.242188 -64.6875 10.800781 -65.304688 9.59375 -66.546875 C 8.394531 -67.785156 7.796875 -69.265625 7.796875 -70.984375 Z M 7.796875 -70.984375 "/></g></g></g><g fill="#000000" fill-opacity="1"><g transform="translate(945.123708, 497.249934)"><g><path d="M 20.28125 -50.640625 C 18.195312 -50.640625 16.492188 -49.859375 15.171875 -48.296875 C 13.859375 -46.734375 13.203125 -44.972656 13.203125 -43.015625 C 13.203125 -41.054688 14.140625 -39.175781 16.015625 -37.375 C 17.898438 -35.582031 20.179688 -33.984375 22.859375 -32.578125 C 25.535156 -31.179688 28.191406 -29.722656 30.828125 -28.203125 C 33.472656 -26.679688 35.734375 -24.71875 37.609375 -22.3125 C 39.492188 -19.914062 40.4375 -17.238281 40.4375 -14.28125 C 40.4375 -9.800781 38.632812 -6.0625 35.03125 -3.0625 C 31.4375 -0.0625 26.539062 1.4375 20.34375 1.4375 C 14.144531 1.4375 8.484375 0 3.359375 -2.875 L 3.359375 -7.4375 C 8.796875 -4.71875 13.710938 -3.359375 18.109375 -3.359375 C 22.515625 -3.359375 25.71875 -4.238281 27.71875 -6 C 29.71875 -7.757812 30.71875 -9.78125 30.71875 -12.0625 C 30.71875 -14.34375 29.816406 -16.378906 28.015625 -18.171875 C 26.210938 -19.972656 24.007812 -21.550781 21.40625 -22.90625 C 18.8125 -24.269531 16.234375 -25.710938 13.671875 -27.234375 C 11.117188 -28.753906 8.941406 -30.710938 7.140625 -33.109375 C 5.335938 -35.515625 4.4375 -38.414062 4.4375 -41.8125 C 4.4375 -45.21875 5.816406 -48.378906 8.578125 -51.296875 C 11.335938 -54.222656 15.597656 -55.6875 21.359375 -55.6875 C 27.117188 -55.6875 32.640625 -54.644531 37.921875 -52.5625 L 36.71875 -44.640625 C 30.800781 -47.835938 25.320312 -49.835938 20.28125 -50.640625 Z M 20.28125 -50.640625 "/></g></g></g><g fill="#000000" fill-opacity="1"><g transform="translate(989.763719, 497.249934)"><g><path d="M 21 -10.5625 C 21 -8.15625 21.476562 -6.351562 22.4375 -5.15625 C 23.394531 -3.957031 24.992188 -3.359375 27.234375 -3.359375 C 29.472656 -3.359375 32.15625 -3.957031 35.28125 -5.15625 L 35.28125 -1.796875 C 30.632812 0.359375 26.472656 1.4375 22.796875 1.4375 C 19.117188 1.4375 16.21875 0.414062 14.09375 -1.625 C 11.976562 -3.664062 10.921875 -6.84375 10.921875 -11.15625 L 10.921875 -49.921875 L 1.203125 -51.84375 L 1.203125 -54.234375 L 10.921875 -54.234375 L 10.921875 -58.5625 L 21 -65.875 L 21 -54.234375 L 35.28125 -54.234375 L 35.28125 -49.921875 L 21 -49.921875 Z M 21 -10.5625 "/></g></g></g><g fill="#000000" fill-opacity="1"><g transform="translate(1029.243727, 497.249934)"><g/></g><g transform="translate(1059.243724, 497.249934)"><g><path d="M 12.59375 -29.515625 C 12.59375 -20.878906 14.53125 -14.660156 18.40625 -10.859375 C 22.289062 -7.054688 27.015625 -5.15625 32.578125 -5.15625 C 38.140625 -5.15625 43.28125 -6.238281 48 -8.40625 L 48 -4.203125 C 41.4375 -0.441406 35.15625 1.4375 29.15625 1.4375 C 21.394531 1.4375 15.113281 -0.921875 10.3125 -5.640625 C 5.519531 -10.359375 3.125 -17.195312 3.125 -26.15625 C 3.125 -35.113281 5.78125 -42.273438 11.09375 -47.640625 C 16.414062 -53.003906 22.835938 -55.6875 30.359375 -55.6875 C 36.203125 -55.6875 41.082031 -53.382812 45 -48.78125 C 48.914062 -44.175781 50.875 -37.753906 50.875 -29.515625 Z M 24.234375 -50.046875 C 21.441406 -48.679688 19.046875 -46.5 17.046875 -43.5 C 15.046875 -40.5 13.722656 -37.039062 13.078125 -33.125 L 41.15625 -33.125 C 40.914062 -36.476562 40.132812 -39.351562 38.8125 -41.75 C 37.5 -44.15625 35.921875 -45.921875 34.078125 -47.046875 C 30.796875 -49.046875 27.515625 -50.046875 24.234375 -50.046875 Z M 24.234375 -50.046875 "/></g></g></g><g fill="#000000" fill-opacity="1"><g transform="translate(1115.523748, 497.249934)"><g><path d="M 9 0 L 9 -54.234375 L 18.953125 -54.234375 L 18.953125 0 Z M 7.796875 -70.984375 C 7.796875 -72.703125 8.375 -74.160156 9.53125 -75.359375 C 10.695312 -76.554688 12.140625 -77.15625 13.859375 -77.15625 C 15.578125 -77.15625 17.054688 -76.554688 18.296875 -75.359375 C 19.535156 -74.160156 20.15625 -72.71875 20.15625 -71.03125 C 20.15625 -69.351562 19.535156 -67.875 18.296875 -66.59375 C 17.054688 -65.320312 15.597656 -64.6875 13.921875 -64.6875 C 12.242188 -64.6875 10.800781 -65.304688 9.59375 -66.546875 C 8.394531 -67.785156 7.796875 -69.265625 7.796875 -70.984375 Z M 7.796875 -70.984375 "/></g></g></g><g fill="#000000" fill-opacity="1"><g transform="translate(1143.483767, 497.249934)"><g><path d="M 19.4375 -46.5625 C 22.800781 -49.757812 25.742188 -52.078125 28.265625 -53.515625 C 30.785156 -54.960938 33.765625 -55.6875 37.203125 -55.6875 C 40.640625 -55.6875 43.816406 -54.320312 46.734375 -51.59375 C 49.660156 -48.875 51.125 -44.195312 51.125 -37.5625 L 51.125 0 L 40.921875 0 L 40.921875 -36.359375 C 40.921875 -40.273438 40.21875 -43.210938 38.8125 -45.171875 C 37.414062 -47.140625 35.015625 -48.125 31.609375 -48.125 C 28.210938 -48.125 24.273438 -45.882812 19.796875 -41.40625 L 19.796875 0 L 9.59375 0 L 9.59375 -37.6875 C 9.59375 -43.125 7.554688 -47.484375 3.484375 -50.765625 L 9.59375 -55.3125 Z M 19.4375 -46.5625 "/></g></g></g><g fill="#000000" fill-opacity="1"><g transform="translate(1203.472779, 497.249934)"><g/></g></g><g fill="#000000" fill-opacity="1"><g transform="translate(641.453295, 665.999919)"><g><path d="M 64.203125 -58.796875 C 64.203125 -51.117188 61.378906 -45.300781 55.734375 -41.34375 C 50.097656 -37.382812 42.441406 -35.40625 32.765625 -35.40625 L 22.4375 -35.40625 L 22.4375 0 L 10.796875 0 L 10.796875 -79.4375 L 36.59375 -79.4375 C 44.675781 -79.4375 51.296875 -77.597656 56.453125 -73.921875 C 61.617188 -70.242188 64.203125 -65.203125 64.203125 -58.796875 Z M 22.4375 -38.875 L 33.125 -38.875 C 36.882812 -38.875 40.101562 -39.59375 42.78125 -41.03125 C 45.457031 -42.476562 47.394531 -44.320312 48.59375 -46.5625 C 50.757812 -50.5625 51.84375 -54.441406 51.84375 -58.203125 C 51.84375 -60.035156 51.363281 -62.234375 50.40625 -64.796875 C 48.476562 -70.078125 44.515625 -73.519531 38.515625 -75.125 C 32.753906 -75.125 27.394531 -74.441406 22.4375 -73.078125 Z M 22.4375 -38.875 "/></g></g></g><g fill="#000000" fill-opacity="1"><g transform="translate(706.973324, 665.999919)"><g><path d="M 32.15625 -55.6875 C 39.195312 -55.6875 45.015625 -53.285156 49.609375 -48.484375 C 54.210938 -43.679688 56.515625 -37.082031 56.515625 -28.6875 C 56.515625 -23.320312 55.59375 -18.597656 53.75 -14.515625 C 51.914062 -10.441406 49.519531 -7.285156 46.5625 -5.046875 C 40.882812 -0.722656 34.546875 1.4375 27.546875 1.4375 C 20.546875 1.4375 14.742188 -0.957031 10.140625 -5.75 C 5.535156 -10.550781 3.234375 -17.15625 3.234375 -25.5625 C 3.234375 -30.914062 4.132812 -35.632812 5.9375 -39.71875 C 7.738281 -43.800781 10.117188 -46.960938 13.078125 -49.203125 C 18.753906 -53.523438 25.113281 -55.6875 32.15625 -55.6875 Z M 29.765625 -2.640625 C 33.285156 -2.640625 36.285156 -4 38.765625 -6.71875 C 43.242188 -11.519531 45.484375 -17.898438 45.484375 -25.859375 C 45.484375 -33.816406 44.117188 -40.015625 41.390625 -44.453125 C 38.671875 -48.898438 34.234375 -51.125 28.078125 -51.125 C 23.515625 -49.363281 20.050781 -46.257812 17.6875 -41.8125 C 15.332031 -37.375 14.15625 -32.015625 14.15625 -25.734375 C 14.15625 -19.453125 15.4375 -14.03125 18 -9.46875 C 20.5625 -4.914062 24.484375 -2.640625 29.765625 -2.640625 Z M 29.765625 -2.640625 "/></g></g></g><g fill="#000000" fill-opacity="1"><g transform="translate(766.973353, 665.999919)"><g><path d="M 12.59375 -29.515625 C 12.59375 -20.878906 14.53125 -14.660156 18.40625 -10.859375 C 22.289062 -7.054688 27.015625 -5.15625 32.578125 -5.15625 C 38.140625 -5.15625 43.28125 -6.238281 48 -8.40625 L 48 -4.203125 C 41.4375 -0.441406 35.15625 1.4375 29.15625 1.4375 C 21.394531 1.4375 15.113281 -0.921875 10.3125 -5.640625 C 5.519531 -10.359375 3.125 -17.195312 3.125 -26.15625 C 3.125 -35.113281 5.78125 -42.273438 11.09375 -47.640625 C 16.414062 -53.003906 22.835938 -55.6875 30.359375 -55.6875 C 36.203125 -55.6875 41.082031 -53.382812 45 -48.78125 C 48.914062 -44.175781 50.875 -37.753906 50.875 -29.515625 Z M 24.234375 -50.046875 C 21.441406 -48.679688 19.046875 -46.5 17.046875 -43.5 C 15.046875 -40.5 13.722656 -37.039062 13.078125 -33.125 L 41.15625 -33.125 C 40.914062 -36.476562 40.132812 -39.351562 38.8125 -41.75 C 37.5 -44.15625 35.921875 -45.921875 34.078125 -47.046875 C 30.796875 -49.046875 27.515625 -50.046875 24.234375 -50.046875 Z M 24.234375 -50.046875 "/></g></g></g><g fill="#000000" fill-opacity="1"><g transform="translate(823.253377, 665.999919)"><g><path d="M 21 -10.5625 C 21 -8.15625 21.476562 -6.351562 22.4375 -5.15625 C 23.394531 -3.957031 24.992188 -3.359375 27.234375 -3.359375 C 29.472656 -3.359375 32.15625 -3.957031 35.28125 -5.15625 L 35.28125 -1.796875 C 30.632812 0.359375 26.472656 1.4375 22.796875 1.4375 C 19.117188 1.4375 16.21875 0.414062 14.09375 -1.625 C 11.976562 -3.664062 10.921875 -6.84375 10.921875 -11.15625 L 10.921875 -49.921875 L 1.203125 -51.84375 L 1.203125 -54.234375 L 10.921875 -54.234375 L 10.921875 -58.5625 L 21 -65.875 L 21 -54.234375 L 35.28125 -54.234375 L 35.28125 -49.921875 L 21 -49.921875 Z M 21 -10.5625 "/></g></g></g><g fill="#000000" fill-opacity="1"><g transform="translate(862.733396, 665.999919)"><g><path d="M 17.765625 0 L 7.6875 0 L 7.6875 -54.234375 L 14.640625 -54.234375 L 17.40625 -44.15625 C 19 -46.957031 21.535156 -49.597656 25.015625 -52.078125 C 28.492188 -54.554688 32.078125 -56.078125 35.765625 -56.640625 L 36.953125 -48.359375 C 33.992188 -48.359375 30.65625 -47.4375 26.9375 -45.59375 C 23.21875 -43.757812 20.160156 -41.722656 17.765625 -39.484375 Z M 17.765625 0 "/></g></g></g><g fill="#000000" fill-opacity="1"><g transform="translate(900.893396, 665.999919)"><g><path d="M 45.84375 -54.234375 L 50.40625 -54.234375 L 29.875 1.796875 C 27.238281 9.160156 23.28125 15.082031 18 19.5625 C 12.71875 24.039062 6.914062 26.320312 0.59375 26.40625 L 1.796875 20.40625 C 12.597656 20 21 13 27 -0.59375 L 2.640625 -54.234375 L 13.3125 -54.234375 L 31.6875 -13.5625 Z M 45.84375 -54.234375 "/></g></g></g><g fill="#000000" fill-opacity="1"><g transform="translate(953.813435, 665.999919)"><g/></g><g transform="translate(983.813433, 665.999919)"><g><path d="M 19.4375 -65.640625 C 19.4375 -62.117188 20.816406 -58.859375 23.578125 -55.859375 C 26.335938 -52.859375 29.695312 -50.21875 33.65625 -47.9375 C 37.613281 -45.65625 41.550781 -43.332031 45.46875 -40.96875 C 49.394531 -38.613281 52.738281 -35.71875 55.5 -32.28125 C 58.257812 -28.84375 59.640625 -25.039062 59.640625 -20.875 C 59.640625 -14.320312 57.21875 -8.960938 52.375 -4.796875 C 47.539062 -0.640625 41.003906 1.4375 32.765625 1.4375 C 24.523438 1.4375 16.363281 -0.117188 8.28125 -3.234375 L 8.28125 -8.875 C 16.4375 -4.800781 23.375 -2.765625 29.09375 -2.765625 C 34.820312 -2.765625 39.285156 -4.160156 42.484375 -6.953125 C 45.679688 -9.753906 47.28125 -13.632812 47.28125 -18.59375 C 47.28125 -21.957031 45.957031 -25.019531 43.3125 -27.78125 C 40.675781 -30.539062 37.476562 -32.941406 33.71875 -34.984375 C 29.957031 -37.023438 26.195312 -39.125 22.4375 -41.28125 C 18.675781 -43.4375 15.472656 -46.175781 12.828125 -49.5 C 10.191406 -52.820312 8.875 -56.84375 8.875 -61.5625 C 8.875 -66.28125 10.972656 -70.675781 15.171875 -74.75 C 19.378906 -78.832031 25.640625 -80.875 33.953125 -80.875 C 39.398438 -80.875 46.28125 -79.632812 54.59375 -77.15625 L 53.40625 -69 C 42.601562 -73.632812 33.363281 -75.953125 25.6875 -75.953125 C 21.519531 -73.953125 19.4375 -70.515625 19.4375 -65.640625 Z M 19.4375 -65.640625 "/></g></g></g><g fill="#000000" fill-opacity="1"><g transform="translate(1050.533489, 665.999919)"><g><path d="M 19.078125 -81.953125 L 19.078125 0 L 9 0 L 9 -81.953125 Z M 19.078125 -81.953125 "/></g></g></g><g fill="#000000" fill-opacity="1"><g transform="translate(1078.613488, 665.999919)"><g><path d="M 34.203125 -12.71875 L 34.203125 -25.078125 C 28.441406 -24.679688 23.71875 -23.398438 20.03125 -21.234375 C 16.351562 -19.078125 14.515625 -16.757812 14.515625 -14.28125 C 14.515625 -11.800781 15.15625 -9.660156 16.4375 -7.859375 C 17.71875 -6.054688 19.359375 -4.796875 21.359375 -4.078125 C 23.992188 -4.554688 26.789062 -5.875 29.75 -8.03125 C 32.71875 -10.195312 34.203125 -11.757812 34.203125 -12.71875 Z M 44.046875 -15.953125 C 44.046875 -10.273438 46.125 -5.957031 50.28125 -3 L 44.046875 1.5625 L 34.3125 -7.203125 C 28 -1.441406 22.160156 1.4375 16.796875 1.4375 C 13.273438 1.4375 10.253906 0.316406 7.734375 -1.921875 C 5.210938 -4.160156 3.953125 -6.976562 3.953125 -10.375 C 3.953125 -13.78125 4.972656 -16.601562 7.015625 -18.84375 C 9.054688 -21.082031 11.757812 -22.800781 15.125 -24 C 20.882812 -26.15625 27.242188 -27.515625 34.203125 -28.078125 L 34.203125 -39.359375 C 34.203125 -45.992188 30.363281 -49.3125 22.6875 -49.3125 C 18.28125 -49.3125 13.078125 -48.351562 7.078125 -46.4375 L 6 -49.4375 C 7.601562 -50.71875 10.382812 -52.078125 14.34375 -53.515625 C 18.300781 -54.960938 22.078125 -55.6875 25.671875 -55.6875 C 29.273438 -55.6875 32.296875 -55.203125 34.734375 -54.234375 C 37.179688 -53.273438 38.984375 -52.195312 40.140625 -51 C 41.296875 -49.800781 42.191406 -48.160156 42.828125 -46.078125 C 43.472656 -43.992188 43.835938 -42.351562 43.921875 -41.15625 C 44.003906 -39.957031 44.046875 -38.359375 44.046875 -36.359375 Z M 44.046875 -15.953125 "/></g></g></g><g fill="#000000" fill-opacity="1"><g transform="translate(1131.893512, 665.999919)"><g><path d="M 70.5625 -55.6875 C 80 -55.6875 84.71875 -48.523438 84.71875 -34.203125 L 84.71875 0 L 74.640625 0 L 74.640625 -35.15625 C 74.640625 -41.875 73.359375 -45.957031 70.796875 -47.40625 C 69.515625 -48.125 67.734375 -48.484375 65.453125 -48.484375 C 63.179688 -48.484375 60.742188 -47.78125 58.140625 -46.375 C 55.535156 -44.976562 53.632812 -43.398438 52.4375 -41.640625 L 52.4375 0 L 42.234375 0 L 42.234375 -35.765625 C 42.234375 -40.003906 41.59375 -43.179688 40.3125 -45.296875 C 39.039062 -47.421875 37.160156 -48.484375 34.671875 -48.484375 C 32.191406 -48.484375 29.8125 -47.921875 27.53125 -46.796875 C 25.257812 -45.679688 23.441406 -44.5625 22.078125 -43.4375 C 20.722656 -42.320312 20.046875 -41.644531 20.046875 -41.40625 L 20.046875 0 L 9.953125 0 L 9.953125 -37.6875 C 9.953125 -43.125 7.914062 -47.484375 3.84375 -50.765625 L 9.953125 -55.3125 L 19.5625 -46.5625 C 23.320312 -49.675781 26.597656 -51.972656 29.390625 -53.453125 C 32.191406 -54.941406 35.113281 -55.6875 38.15625 -55.6875 C 45.113281 -55.6875 49.4375 -52.441406 51.125 -45.953125 C 53.914062 -49.160156 57.113281 -51.582031 60.71875 -53.21875 C 64.320312 -54.863281 67.601562 -55.6875 70.5625 -55.6875 Z M 70.5625 -55.6875 "/></g></g></g><g fill="#000000" fill-opacity="1"><g transform="translate(1225.253535, 665.999919)"><g><path d="M 18.71875 -5.09375 C 18.71875 -7.0625 19.359375 -8.664062 20.640625 -9.90625 C 21.921875 -11.144531 23.457031 -11.765625 25.25 -11.765625 C 27.050781 -11.765625 28.59375 -11.125 29.875 -9.84375 C 31.15625 -8.5625 31.796875 -6.976562 31.796875 -5.09375 C 31.796875 -3.21875 31.113281 -1.738281 29.75 -0.65625 C 28.394531 0.414062 26.914062 0.953125 25.3125 0.953125 C 23.71875 0.953125 22.21875 0.4375 20.8125 -0.59375 C 19.414062 -1.632812 18.71875 -3.132812 18.71875 -5.09375 Z M 24.84375 -78.59375 C 33.800781 -78.59375 40.21875 -76.613281 44.09375 -72.65625 C 47.976562 -68.695312 49.921875 -63.976562 49.921875 -58.5 C 49.921875 -53.019531 47.578125 -46.78125 42.890625 -39.78125 C 38.210938 -32.78125 32.554688 -25.921875 25.921875 -19.203125 L 22.4375 -21.953125 C 27.632812 -27.554688 31.851562 -33.5 35.09375 -39.78125 C 38.332031 -46.0625 39.953125 -51.757812 39.953125 -56.875 C 39.953125 -64.15625 36.515625 -69.15625 29.640625 -71.875 C 24.203125 -71.875 18.484375 -70.992188 12.484375 -69.234375 L 12.484375 -76.796875 C 17.117188 -77.992188 21.238281 -78.59375 24.84375 -78.59375 Z M 24.84375 -78.59375 "/></g></g></g><g clip-path="url(#f26765285f)"><path fill="#336666" d="M 1382.984375 385.003906 L 1632.507812 385.003906 C 1633.453125 385.003906 1634.386719 385.097656 1635.316406 385.28125 C 1636.242188 385.464844 1637.140625 385.738281 1638.015625 386.101562 C 1638.886719 386.460938 1639.714844 386.90625 1640.5 387.429688 C 1641.285156 387.953125 1642.011719 388.550781 1642.679688 389.21875 C 1643.347656 389.886719 1643.945312 390.613281 1644.472656 391.394531 C 1644.996094 392.179688 1645.4375 393.007812 1645.800781 393.882812 C 1646.160156 394.753906 1646.433594 395.652344 1646.617188 396.578125 C 1646.804688 397.503906 1646.894531 398.441406 1646.894531 399.382812 L 1646.894531 680.378906 C 1646.894531 681.320312 1646.804688 682.257812 1646.617188 683.183594 C 1646.433594 684.109375 1646.160156 685.007812 1645.800781 685.878906 C 1645.4375 686.75 1644.996094 687.578125 1644.46875 688.363281 C 1643.945312 689.148438 1643.347656 689.875 1642.679688 690.542969 C 1642.011719 691.210938 1641.285156 691.804688 1640.5 692.332031 C 1639.714844 692.855469 1638.886719 693.296875 1638.011719 693.660156 C 1637.140625 694.019531 1636.242188 694.292969 1635.316406 694.476562 C 1634.386719 694.660156 1633.453125 694.753906 1632.507812 694.753906 L 1382.984375 694.753906 C 1382.042969 694.753906 1381.105469 694.660156 1380.179688 694.476562 C 1379.253906 694.292969 1378.355469 694.019531 1377.480469 693.660156 C 1376.609375 693.296875 1375.777344 692.855469 1374.992188 692.332031 C 1374.207031 691.808594 1373.480469 691.210938 1372.8125 690.542969 C 1372.144531 689.875 1371.550781 689.148438 1371.023438 688.363281 C 1370.5 687.582031 1370.058594 686.75 1369.695312 685.878906 C 1369.332031 685.007812 1369.0625 684.109375 1368.875 683.183594 C 1368.691406 682.257812 1368.601562 681.320312 1368.601562 680.378906 L 1368.601562 399.382812 C 1368.601562 398.441406 1368.691406 397.503906 1368.875 396.578125 C 1369.0625 395.652344 1369.332031 394.753906 1369.695312 393.882812 C 1370.058594 393.007812 1370.5 392.179688 1371.023438 391.394531 C 1371.550781 390.609375 1372.144531 389.882812 1372.8125 389.21875 C 1373.480469 388.550781 1374.207031 387.953125 1374.992188 387.429688 C 1375.777344 386.902344 1376.609375 386.460938 1377.480469 386.101562 C 1378.355469 385.738281 1379.253906 385.464844 1380.179688 385.28125 C 1381.105469 385.097656 1382.042969 385.003906 1382.984375 385.003906 Z M 1382.984375 385.003906 " fill-opacity="1" fill-rule="nonzero"/></g><path fill="#252627" d="M 1385.65625 513.359375 C 1385.65625 513.738281 1385.621094 514.117188 1385.546875 514.488281 C 1385.472656 514.863281 1385.359375 515.222656 1385.214844 515.574219 C 1385.070312 515.925781 1384.890625 516.261719 1384.679688 516.578125 C 1384.46875 516.890625 1384.226562 517.183594 1383.957031 517.453125 C 1383.691406 517.722656 1383.398438 517.964844 1383.082031 518.175781 C 1382.765625 518.386719 1382.429688 518.5625 1382.078125 518.710938 C 1381.726562 518.855469 1381.363281 518.964844 1380.992188 519.039062 C 1380.617188 519.113281 1380.242188 519.152344 1379.859375 519.152344 C 1379.480469 519.152344 1379.101562 519.113281 1378.730469 519.039062 C 1378.355469 518.964844 1377.992188 518.855469 1377.640625 518.710938 C 1377.289062 518.5625 1376.957031 518.386719 1376.640625 518.175781 C 1376.324219 517.964844 1376.03125 517.722656 1375.761719 517.453125 C 1375.492188 517.183594 1375.25 516.890625 1375.039062 516.578125 C 1374.828125 516.261719 1374.648438 515.925781 1374.503906 515.574219 C 1374.359375 515.222656 1374.25 514.863281 1374.175781 514.488281 C 1374.101562 514.117188 1374.0625 513.738281 1374.0625 513.359375 C 1374.0625 512.976562 1374.101562 512.601562 1374.175781 512.226562 C 1374.25 511.855469 1374.359375 511.492188 1374.503906 511.140625 C 1374.648438 510.789062 1374.828125 510.457031 1375.039062 510.140625 C 1375.25 509.824219 1375.492188 509.53125 1375.761719 509.261719 C 1376.03125 508.992188 1376.324219 508.753906 1376.640625 508.542969 C 1376.957031 508.332031 1377.289062 508.152344 1377.640625 508.007812 C 1377.992188 507.863281 1378.355469 507.75 1378.730469 507.675781 C 1379.101562 507.601562 1379.480469 507.566406 1379.859375 507.566406 C 1380.242188 507.566406 1380.617188 507.601562 1380.992188 507.675781 C 1381.363281 507.75 1381.726562 507.863281 1382.078125 508.007812 C 1382.429688 508.152344 1382.765625 508.332031 1383.082031 508.542969 C 1383.398438 508.753906 1383.691406 508.992188 1383.957031 509.261719 C 1384.226562 509.53125 1384.46875 509.824219 1384.679688 510.140625 C 1384.890625 510.457031 1385.070312 510.789062 1385.214844 511.140625 C 1385.359375 511.492188 1385.472656 511.855469 1385.546875 512.226562 C 1385.621094 512.601562 1385.65625 512.976562 1385.65625 513.359375 Z M 1385.65625 513.359375 " fill-opacity="1" fill-rule="nonzero"/><g clip-path="url(#b95258d926)"><path fill="#336666" d="M 1358.621094 510.578125 L 1379.046875 510.578125 C 1379.285156 510.578125 1379.519531 510.625 1379.738281 510.714844 C 1379.960938 510.808594 1380.15625 510.9375 1380.328125 511.109375 C 1380.5 511.277344 1380.628906 511.472656 1380.722656 511.695312 C 1380.8125 511.917969 1380.859375 512.148438 1380.859375 512.390625 L 1380.859375 514.328125 C 1380.859375 514.566406 1380.8125 514.800781 1380.722656 515.019531 C 1380.628906 515.242188 1380.5 515.4375 1380.328125 515.609375 C 1380.15625 515.777344 1379.960938 515.910156 1379.738281 516 C 1379.519531 516.09375 1379.285156 516.140625 1379.046875 516.140625 L 1358.621094 516.140625 C 1358.382812 516.140625 1358.152344 516.09375 1357.929688 516 C 1357.707031 515.910156 1357.511719 515.777344 1357.339844 515.609375 C 1357.171875 515.4375 1357.039062 515.242188 1356.949219 515.019531 C 1356.855469 514.800781 1356.808594 514.566406 1356.808594 514.328125 L 1356.808594 512.390625 C 1356.808594 512.148438 1356.855469 511.917969 1356.949219 511.695312 C 1357.039062 511.472656 1357.171875 511.277344 1357.339844 511.109375 C 1357.511719 510.9375 1357.707031 510.808594 1357.929688 510.714844 C 1358.152344 510.625 1358.382812 510.578125 1358.621094 510.578125 Z M 1358.621094 510.578125 " fill-opacity="1" fill-rule="nonzero"/></g><path fill="#252627" d="M 1385.65625 486.882812 C 1385.65625 487.265625 1385.621094 487.640625 1385.546875 488.015625 C 1385.472656 488.386719 1385.359375 488.75 1385.214844 489.101562 C 1385.070312 489.453125 1384.890625 489.785156 1384.679688 490.101562 C 1384.46875 490.417969 1384.226562 490.710938 1383.957031 490.980469 C 1383.691406 491.25 1383.398438 491.488281 1383.082031 491.699219 C 1382.765625 491.910156 1382.429688 492.089844 1382.078125 492.234375 C 1381.726562 492.382812 1381.363281 492.492188 1380.992188 492.566406 C 1380.617188 492.640625 1380.242188 492.675781 1379.859375 492.675781 C 1379.480469 492.675781 1379.101562 492.640625 1378.730469 492.566406 C 1378.355469 492.492188 1377.992188 492.382812 1377.640625 492.234375 C 1377.289062 492.089844 1376.957031 491.910156 1376.640625 491.699219 C 1376.324219 491.488281 1376.03125 491.25 1375.761719 490.980469 C 1375.492188 490.710938 1375.25 490.417969 1375.039062 490.101562 C 1374.828125 489.785156 1374.648438 489.453125 1374.503906 489.101562 C 1374.359375 488.75 1374.25 488.386719 1374.175781 488.015625 C 1374.101562 487.640625 1374.0625 487.265625 1374.0625 486.882812 C 1374.0625 486.503906 1374.101562 486.128906 1374.175781 485.753906 C 1374.25 485.382812 1374.359375 485.019531 1374.503906 484.667969 C 1374.648438 484.316406 1374.828125 483.984375 1375.039062 483.667969 C 1375.25 483.351562 1375.492188 483.058594 1375.761719 482.789062 C 1376.03125 482.519531 1376.324219 482.28125 1376.640625 482.066406 C 1376.957031 481.855469 1377.289062 481.679688 1377.640625 481.53125 C 1377.992188 481.386719 1378.355469 481.277344 1378.730469 481.203125 C 1379.101562 481.128906 1379.480469 481.09375 1379.859375 481.09375 C 1380.242188 481.09375 1380.617188 481.128906 1380.992188 481.203125 C 1381.363281 481.277344 1381.726562 481.386719 1382.078125 481.53125 C 1382.429688 481.679688 1382.765625 481.855469 1383.082031 482.066406 C 1383.398438 482.28125 1383.691406 482.519531 1383.957031 482.789062 C 1384.226562 483.058594 1384.46875 483.351562 1384.679688 483.667969 C 1384.890625 483.984375 1385.070312 484.316406 1385.214844 484.667969 C 1385.359375 485.019531 1385.472656 485.382812 1385.546875 485.753906 C 1385.621094 486.128906 1385.65625 486.503906 1385.65625 486.882812 Z M 1385.65625 486.882812 " fill-opacity="1" fill-rule="nonzero"/><g clip-path="url(#5f05b9943a)"><path fill="#336666" d="M 1358.621094 484.101562 L 1379.046875 484.101562 C 1379.285156 484.101562 1379.519531 484.148438 1379.738281 484.242188 C 1379.960938 484.332031 1380.15625 484.464844 1380.328125 484.632812 C 1380.5 484.804688 1380.628906 485 1380.722656 485.222656 C 1380.8125 485.441406 1380.859375 485.675781 1380.859375 485.914062 L 1380.859375 487.855469 C 1380.859375 488.09375 1380.8125 488.324219 1380.722656 488.546875 C 1380.628906 488.769531 1380.5 488.964844 1380.328125 489.132812 C 1380.15625 489.304688 1379.960938 489.433594 1379.738281 489.527344 C 1379.519531 489.621094 1379.285156 489.664062 1379.046875 489.664062 L 1358.621094 489.664062 C 1358.382812 489.664062 1358.152344 489.621094 1357.929688 489.527344 C 1357.707031 489.433594 1357.511719 489.304688 1357.339844 489.132812 C 1357.171875 488.964844 1357.039062 488.769531 1356.949219 488.546875 C 1356.855469 488.324219 1356.808594 488.09375 1356.808594 487.855469 L 1356.808594 485.914062 C 1356.808594 485.675781 1356.855469 485.441406 1356.949219 485.222656 C 1357.039062 485 1357.171875 484.804688 1357.339844 484.632812 C 1357.511719 484.464844 1357.707031 484.332031 1357.929688 484.242188 C 1358.152344 484.148438 1358.382812 484.101562 1358.621094 484.101562 Z M 1358.621094 484.101562 " fill-opacity="1" fill-rule="nonzero"/></g><path fill="#252627" d="M 1385.65625 460.410156 C 1385.65625 460.789062 1385.621094 461.167969 1385.546875 461.539062 C 1385.472656 461.914062 1385.359375 462.273438 1385.214844 462.625 C 1385.070312 462.976562 1384.890625 463.3125 1384.679688 463.628906 C 1384.46875 463.945312 1384.226562 464.238281 1383.957031 464.503906 C 1383.691406 464.773438 1383.398438 465.015625 1383.082031 465.226562 C 1382.765625 465.4375 1382.429688 465.617188 1382.078125 465.761719 C 1381.726562 465.90625 1381.363281 466.015625 1380.992188 466.089844 C 1380.617188 466.164062 1380.242188 466.203125 1379.859375 466.203125 C 1379.480469 466.203125 1379.101562 466.164062 1378.730469 466.089844 C 1378.355469 466.015625 1377.992188 465.90625 1377.640625 465.761719 C 1377.289062 465.617188 1376.957031 465.4375 1376.640625 465.226562 C 1376.324219 465.015625 1376.03125 464.773438 1375.761719 464.503906 C 1375.492188 464.238281 1375.25 463.945312 1375.039062 463.628906 C 1374.828125 463.3125 1374.648438 462.976562 1374.503906 462.625 C 1374.359375 462.273438 1374.25 461.914062 1374.175781 461.539062 C 1374.101562 461.167969 1374.0625 460.789062 1374.0625 460.410156 C 1374.0625 460.03125 1374.101562 459.652344 1374.175781 459.28125 C 1374.25 458.90625 1374.359375 458.542969 1374.503906 458.195312 C 1374.648438 457.84375 1374.828125 457.507812 1375.039062 457.191406 C 1375.25 456.875 1375.492188 456.582031 1375.761719 456.3125 C 1376.03125 456.046875 1376.324219 455.804688 1376.640625 455.59375 C 1376.957031 455.382812 1377.289062 455.203125 1377.640625 455.058594 C 1377.992188 454.914062 1378.355469 454.804688 1378.730469 454.730469 C 1379.101562 454.65625 1379.480469 454.617188 1379.859375 454.617188 C 1380.242188 454.617188 1380.617188 454.65625 1380.992188 454.730469 C 1381.363281 454.804688 1381.726562 454.914062 1382.078125 455.058594 C 1382.429688 455.203125 1382.765625 455.382812 1383.082031 455.59375 C 1383.398438 455.804688 1383.691406 456.046875 1383.957031 456.3125 C 1384.226562 456.582031 1384.46875 456.875 1384.679688 457.191406 C 1384.890625 457.507812 1385.070312 457.84375 1385.214844 458.195312 C 1385.359375 458.542969 1385.472656 458.90625 1385.546875 459.28125 C 1385.621094 459.652344 1385.65625 460.03125 1385.65625 460.410156 Z M 1385.65625 460.410156 " fill-opacity="1" fill-rule="nonzero"/><g clip-path="url(#deed085e26)"><path fill="#336666" d="M 1358.621094 457.628906 L 1379.046875 457.628906 C 1379.285156 457.628906 1379.519531 457.675781 1379.738281 457.765625 C 1379.960938 457.859375 1380.15625 457.988281 1380.328125 458.160156 C 1380.5 458.328125 1380.628906 458.523438 1380.722656 458.746094 C 1380.8125 458.96875 1380.859375 459.199219 1380.859375 459.441406 L 1380.859375 461.378906 C 1380.859375 461.621094 1380.8125 461.851562 1380.722656 462.074219 C 1380.628906 462.292969 1380.5 462.492188 1380.328125 462.660156 C 1380.15625 462.832031 1379.960938 462.960938 1379.738281 463.054688 C 1379.519531 463.144531 1379.285156 463.191406 1379.046875 463.191406 L 1358.621094 463.191406 C 1358.382812 463.191406 1358.152344 463.144531 1357.929688 463.054688 C 1357.707031 462.960938 1357.511719 462.832031 1357.339844 462.660156 C 1357.171875 462.492188 1357.039062 462.292969 1356.949219 462.074219 C 1356.855469 461.851562 1356.808594 461.621094 1356.808594 461.378906 L 1356.808594 459.441406 C 1356.808594 459.199219 1356.855469 458.96875 1356.949219 458.746094 C 1357.039062 458.523438 1357.171875 458.328125 1357.339844 458.160156 C 1357.511719 457.988281 1357.707031 457.859375 1357.929688 457.765625 C 1358.152344 457.675781 1358.382812 457.628906 1358.621094 457.628906 Z M 1358.621094 457.628906 " fill-opacity="1" fill-rule="nonzero"/></g><path fill="#252627" d="M 1385.65625 433.9375 C 1385.65625 434.316406 1385.621094 434.691406 1385.546875 435.066406 C 1385.472656 435.4375 1385.359375 435.800781 1385.214844 436.152344 C 1385.070312 436.503906 1384.890625 436.835938 1384.679688 437.152344 C 1384.46875 437.46875 1384.226562 437.761719 1383.957031 438.03125 C 1383.691406 438.300781 1383.398438 438.539062 1383.082031 438.75 C 1382.765625 438.964844 1382.429688 439.140625 1382.078125 439.285156 C 1381.726562 439.433594 1381.363281 439.542969 1380.992188 439.617188 C 1380.617188 439.691406 1380.242188 439.726562 1379.859375 439.726562 C 1379.480469 439.726562 1379.101562 439.691406 1378.730469 439.617188 C 1378.355469 439.542969 1377.992188 439.433594 1377.640625 439.285156 C 1377.289062 439.140625 1376.957031 438.964844 1376.640625 438.75 C 1376.324219 438.539062 1376.03125 438.300781 1375.761719 438.03125 C 1375.492188 437.761719 1375.25 437.46875 1375.039062 437.152344 C 1374.828125 436.835938 1374.648438 436.503906 1374.503906 436.152344 C 1374.359375 435.800781 1374.25 435.4375 1374.175781 435.066406 C 1374.101562 434.691406 1374.0625 434.316406 1374.0625 433.9375 C 1374.0625 433.554688 1374.101562 433.179688 1374.175781 432.804688 C 1374.25 432.433594 1374.359375 432.070312 1374.503906 431.71875 C 1374.648438 431.367188 1374.828125 431.035156 1375.039062 430.71875 C 1375.25 430.402344 1375.492188 430.109375 1375.761719 429.839844 C 1376.03125 429.570312 1376.324219 429.332031 1376.640625 429.121094 C 1376.957031 428.910156 1377.289062 428.730469 1377.640625 428.585938 C 1377.992188 428.4375 1378.355469 428.328125 1378.730469 428.253906 C 1379.101562 428.179688 1379.480469 428.144531 1379.859375 428.144531 C 1380.242188 428.144531 1380.617188 428.179688 1380.992188 428.253906 C 1381.363281 428.328125 1381.726562 428.4375 1382.078125 428.585938 C 1382.429688 428.730469 1382.765625 428.910156 1383.082031 429.121094 C 1383.398438 429.332031 1383.691406 429.570312 1383.957031 429.839844 C 1384.226562 430.109375 1384.46875 430.402344 1384.679688 430.71875 C 1384.890625 431.035156 1385.070312 431.367188 1385.214844 431.71875 C 1385.359375 432.070312 1385.472656 432.433594 1385.546875 432.804688 C 1385.621094 433.179688 1385.65625 433.554688 1385.65625 433.9375 Z M 1385.65625 433.9375 " fill-opacity="1" fill-rule="nonzero"/><g clip-path="url(#09bc983a9e)"><path fill="#336666" d="M 1358.621094 431.15625 L 1379.046875 431.15625 C 1379.285156 431.15625 1379.519531 431.199219 1379.738281 431.292969 C 1379.960938 431.382812 1380.15625 431.515625 1380.328125 431.683594 C 1380.5 431.855469 1380.628906 432.050781 1380.722656 432.273438 C 1380.8125 432.496094 1380.859375 432.726562 1380.859375 432.964844 L 1380.859375 434.90625 C 1380.859375 435.144531 1380.8125 435.375 1380.722656 435.597656 C 1380.628906 435.820312 1380.5 436.015625 1380.328125 436.1875 C 1380.15625 436.355469 1379.960938 436.488281 1379.738281 436.578125 C 1379.519531 436.671875 1379.285156 436.71875 1379.046875 436.71875 L 1358.621094 436.71875 C 1358.382812 436.71875 1358.152344 436.671875 1357.929688 436.578125 C 1357.707031 436.488281 1357.511719 436.355469 1357.339844 436.1875 C 1357.171875 436.015625 1357.039062 435.820312 1356.949219 435.597656 C 1356.855469 435.375 1356.808594 435.144531 1356.808594 434.90625 L 1356.808594 432.964844 C 1356.808594 432.726562 1356.855469 432.496094 1356.949219 432.273438 C 1357.039062 432.050781 1357.171875 431.855469 1357.339844 431.683594 C 1357.511719 431.515625 1357.707031 431.382812 1357.929688 431.292969 C 1358.152344 431.199219 1358.382812 431.15625 1358.621094 431.15625 Z M 1358.621094 431.15625 " fill-opacity="1" fill-rule="nonzero"/></g><path fill="#252627" d="M 1385.65625 407.460938 C 1385.65625 407.84375 1385.621094 408.21875 1385.546875 408.589844 C 1385.472656 408.964844 1385.359375 409.328125 1385.214844 409.679688 C 1385.070312 410.03125 1384.890625 410.363281 1384.679688 410.679688 C 1384.46875 410.996094 1384.226562 411.289062 1383.957031 411.558594 C 1383.691406 411.828125 1383.398438 412.066406 1383.082031 412.277344 C 1382.765625 412.488281 1382.429688 412.667969 1382.078125 412.8125 C 1381.726562 412.957031 1381.363281 413.066406 1380.992188 413.140625 C 1380.617188 413.214844 1380.242188 413.253906 1379.859375 413.253906 C 1379.480469 413.253906 1379.101562 413.214844 1378.730469 413.140625 C 1378.355469 413.066406 1377.992188 412.957031 1377.640625 412.8125 C 1377.289062 412.667969 1376.957031 412.488281 1376.640625 412.277344 C 1376.324219 412.066406 1376.03125 411.828125 1375.761719 411.558594 C 1375.492188 411.289062 1375.25 410.996094 1375.039062 410.679688 C 1374.828125 410.363281 1374.648438 410.03125 1374.503906 409.679688 C 1374.359375 409.328125 1374.25 408.964844 1374.175781 408.589844 C 1374.101562 408.21875 1374.0625 407.84375 1374.0625 407.460938 C 1374.0625 407.082031 1374.101562 406.703125 1374.175781 406.332031 C 1374.25 405.957031 1374.359375 405.597656 1374.503906 405.246094 C 1374.648438 404.894531 1374.828125 404.558594 1375.039062 404.242188 C 1375.25 403.925781 1375.492188 403.636719 1375.761719 403.367188 C 1376.03125 403.097656 1376.324219 402.855469 1376.640625 402.644531 C 1376.957031 402.433594 1377.289062 402.257812 1377.640625 402.109375 C 1377.992188 401.964844 1378.355469 401.855469 1378.730469 401.78125 C 1379.101562 401.707031 1379.480469 401.667969 1379.859375 401.667969 C 1380.242188 401.667969 1380.617188 401.707031 1380.992188 401.78125 C 1381.363281 401.855469 1381.726562 401.964844 1382.078125 402.109375 C 1382.429688 402.257812 1382.765625 402.433594 1383.082031 402.644531 C 1383.398438 402.855469 1383.691406 403.097656 1383.957031 403.367188 C 1384.226562 403.636719 1384.46875 403.925781 1384.679688 404.242188 C 1384.890625 404.558594 1385.070312 404.894531 1385.214844 405.246094 C 1385.359375 405.597656 1385.472656 405.957031 1385.546875 406.332031 C 1385.621094 406.703125 1385.65625 407.082031 1385.65625 407.460938 Z M 1385.65625 407.460938 " fill-opacity="1" fill-rule="nonzero"/><g clip-path="url(#24689bb8e7)"><path fill="#336666" d="M 1358.621094 404.679688 L 1379.046875 404.679688 C 1379.285156 404.679688 1379.519531 404.726562 1379.738281 404.820312 C 1379.960938 404.910156 1380.15625 405.042969 1380.328125 405.210938 C 1380.5 405.382812 1380.628906 405.578125 1380.722656 405.800781 C 1380.8125 406.019531 1380.859375 406.25 1380.859375 406.492188 L 1380.859375 408.429688 C 1380.859375 408.671875 1380.8125 408.902344 1380.722656 409.125 C 1380.628906 409.347656 1380.5 409.542969 1380.328125 409.710938 C 1380.15625 409.882812 1379.960938 410.011719 1379.738281 410.105469 C 1379.519531 410.195312 1379.285156 410.242188 1379.046875 410.242188 L 1358.621094 410.242188 C 1358.382812 410.242188 1358.152344 410.195312 1357.929688 410.105469 C 1357.707031 410.011719 1357.511719 409.882812 1357.339844 409.710938 C 1357.171875 409.542969 1357.039062 409.347656 1356.949219 409.125 C 1356.855469 408.902344 1356.808594 408.671875 1356.808594 408.429688 L 1356.808594 406.492188 C 1356.808594 406.25 1356.855469 406.019531 1356.949219 405.800781 C 1357.039062 405.578125 1357.171875 405.382812 1357.339844 405.210938 C 1357.511719 405.042969 1357.707031 404.910156 1357.929688 404.820312 C 1358.152344 404.726562 1358.382812 404.679688 1358.621094 404.679688 Z M 1358.621094 404.679688 " fill-opacity="1" fill-rule="nonzero"/></g><path fill="#252627" d="M 1385.65625 539.832031 C 1385.65625 540.210938 1385.621094 540.589844 1385.546875 540.960938 C 1385.472656 541.335938 1385.359375 541.699219 1385.214844 542.050781 C 1385.070312 542.402344 1384.890625 542.734375 1384.679688 543.050781 C 1384.46875 543.367188 1384.226562 543.660156 1383.957031 543.929688 C 1383.691406 544.195312 1383.398438 544.4375 1383.082031 544.648438 C 1382.765625 544.859375 1382.429688 545.039062 1382.078125 545.183594 C 1381.726562 545.328125 1381.363281 545.4375 1380.992188 545.511719 C 1380.617188 545.585938 1380.242188 545.625 1379.859375 545.625 C 1379.480469 545.625 1379.101562 545.585938 1378.730469 545.511719 C 1378.355469 545.4375 1377.992188 545.328125 1377.640625 545.183594 C 1377.289062 545.039062 1376.957031 544.859375 1376.640625 544.648438 C 1376.324219 544.4375 1376.03125 544.195312 1375.761719 543.929688 C 1375.492188 543.660156 1375.25 543.367188 1375.039062 543.050781 C 1374.828125 542.734375 1374.648438 542.402344 1374.503906 542.050781 C 1374.359375 541.699219 1374.25 541.335938 1374.175781 540.960938 C 1374.101562 540.589844 1374.0625 540.210938 1374.0625 539.832031 C 1374.0625 539.453125 1374.101562 539.074219 1374.175781 538.703125 C 1374.25 538.328125 1374.359375 537.96875 1374.503906 537.617188 C 1374.648438 537.265625 1374.828125 536.929688 1375.039062 536.613281 C 1375.25 536.296875 1375.492188 536.003906 1375.761719 535.738281 C 1376.03125 535.46875 1376.324219 535.226562 1376.640625 535.015625 C 1376.957031 534.804688 1377.289062 534.625 1377.640625 534.480469 C 1377.992188 534.335938 1378.355469 534.226562 1378.730469 534.152344 C 1379.101562 534.078125 1379.480469 534.039062 1379.859375 534.039062 C 1380.242188 534.039062 1380.617188 534.078125 1380.992188 534.152344 C 1381.363281 534.226562 1381.726562 534.335938 1382.078125 534.480469 C 1382.429688 534.625 1382.765625 534.804688 1383.082031 535.015625 C 1383.398438 535.226562 1383.691406 535.46875 1383.957031 535.738281 C 1384.226562 536.003906 1384.46875 536.296875 1384.679688 536.613281 C 1384.890625 536.929688 1385.070312 537.265625 1385.214844 537.617188 C 1385.359375 537.96875 1385.472656 538.328125 1385.546875 538.703125 C 1385.621094 539.074219 1385.65625 539.453125 1385.65625 539.832031 Z M 1385.65625 539.832031 " fill-opacity="1" fill-rule="nonzero"/><g clip-path="url(#fbd644a8d7)"><path fill="#336666" d="M 1358.621094 537.050781 L 1379.046875 537.050781 C 1379.285156 537.050781 1379.519531 537.097656 1379.738281 537.1875 C 1379.960938 537.28125 1380.15625 537.414062 1380.328125 537.582031 C 1380.5 537.75 1380.628906 537.949219 1380.722656 538.167969 C 1380.8125 538.390625 1380.859375 538.621094 1380.859375 538.863281 L 1380.859375 540.800781 C 1380.859375 541.042969 1380.8125 541.273438 1380.722656 541.496094 C 1380.628906 541.71875 1380.5 541.914062 1380.328125 542.082031 C 1380.15625 542.253906 1379.960938 542.382812 1379.738281 542.476562 C 1379.519531 542.566406 1379.285156 542.613281 1379.046875 542.613281 L 1358.621094 542.613281 C 1358.382812 542.613281 1358.152344 542.566406 1357.929688 542.476562 C 1357.707031 542.382812 1357.511719 542.253906 1357.339844 542.082031 C 1357.171875 541.914062 1357.039062 541.71875 1356.949219 541.496094 C 1356.855469 541.273438 1356.808594 541.042969 1356.808594 540.800781 L 1356.808594 538.863281 C 1356.808594 538.621094 1356.855469 538.390625 1356.949219 538.167969 C 1357.039062 537.949219 1357.171875 537.75 1357.339844 537.582031 C 1357.511719 537.414062 1357.707031 537.28125 1357.929688 537.1875 C 1358.152344 537.097656 1358.382812 537.050781 1358.621094 537.050781 Z M 1358.621094 537.050781 " fill-opacity="1" fill-rule="nonzero"/></g><path fill="#252627" d="M 1385.65625 566.308594 C 1385.65625 566.6875 1385.621094 567.0625 1385.546875 567.4375 C 1385.472656 567.808594 1385.359375 568.171875 1385.214844 568.523438 C 1385.070312 568.875 1384.890625 569.207031 1384.679688 569.523438 C 1384.46875 569.839844 1384.226562 570.132812 1383.957031 570.402344 C 1383.691406 570.671875 1383.398438 570.910156 1383.082031 571.121094 C 1382.765625 571.335938 1382.429688 571.511719 1382.078125 571.65625 C 1381.726562 571.804688 1381.363281 571.914062 1380.992188 571.988281 C 1380.617188 572.0625 1380.242188 572.097656 1379.859375 572.097656 C 1379.480469 572.097656 1379.101562 572.0625 1378.730469 571.988281 C 1378.355469 571.914062 1377.992188 571.804688 1377.640625 571.65625 C 1377.289062 571.511719 1376.957031 571.335938 1376.640625 571.121094 C 1376.324219 570.910156 1376.03125 570.671875 1375.761719 570.402344 C 1375.492188 570.132812 1375.25 569.839844 1375.039062 569.523438 C 1374.828125 569.207031 1374.648438 568.875 1374.503906 568.523438 C 1374.359375 568.171875 1374.25 567.808594 1374.175781 567.4375 C 1374.101562 567.0625 1374.0625 566.6875 1374.0625 566.308594 C 1374.0625 565.925781 1374.101562 565.550781 1374.175781 565.175781 C 1374.25 564.804688 1374.359375 564.441406 1374.503906 564.089844 C 1374.648438 563.738281 1374.828125 563.40625 1375.039062 563.089844 C 1375.25 562.773438 1375.492188 562.480469 1375.761719 562.210938 C 1376.03125 561.941406 1376.324219 561.703125 1376.640625 561.492188 C 1376.957031 561.28125 1377.289062 561.101562 1377.640625 560.957031 C 1377.992188 560.808594 1378.355469 560.699219 1378.730469 560.625 C 1379.101562 560.550781 1379.480469 560.515625 1379.859375 560.515625 C 1380.242188 560.515625 1380.617188 560.550781 1380.992188 560.625 C 1381.363281 560.699219 1381.726562 560.808594 1382.078125 560.957031 C 1382.429688 561.101562 1382.765625 561.28125 1383.082031 561.492188 C 1383.398438 561.703125 1383.691406 561.941406 1383.957031 562.210938 C 1384.226562 562.480469 1384.46875 562.773438 1384.679688 563.089844 C 1384.890625 563.40625 1385.070312 563.738281 1385.214844 564.089844 C 1385.359375 564.441406 1385.472656 564.804688 1385.546875 565.175781 C 1385.621094 565.550781 1385.65625 565.925781 1385.65625 566.308594 Z M 1385.65625 566.308594 " fill-opacity="1" fill-rule="nonzero"/><g clip-path="url(#e2d6b19be1)"><path fill="#336666" d="M 1358.621094 563.527344 L 1379.046875 563.527344 C 1379.285156 563.527344 1379.519531 563.570312 1379.738281 563.664062 C 1379.960938 563.753906 1380.15625 563.886719 1380.328125 564.054688 C 1380.5 564.226562 1380.628906 564.421875 1380.722656 564.644531 C 1380.8125 564.867188 1380.859375 565.097656 1380.859375 565.335938 L 1380.859375 567.277344 C 1380.859375 567.515625 1380.8125 567.746094 1380.722656 567.96875 C 1380.628906 568.191406 1380.5 568.386719 1380.328125 568.558594 C 1380.15625 568.726562 1379.960938 568.859375 1379.738281 568.949219 C 1379.519531 569.042969 1379.285156 569.085938 1379.046875 569.089844 L 1358.621094 569.089844 C 1358.382812 569.085938 1358.152344 569.042969 1357.929688 568.949219 C 1357.707031 568.859375 1357.511719 568.726562 1357.339844 568.558594 C 1357.171875 568.386719 1357.039062 568.191406 1356.949219 567.96875 C 1356.855469 567.746094 1356.808594 567.515625 1356.808594 567.277344 L 1356.808594 565.335938 C 1356.808594 565.097656 1356.855469 564.867188 1356.949219 564.644531 C 1357.039062 564.421875 1357.171875 564.226562 1357.339844 564.054688 C 1357.511719 563.886719 1357.707031 563.753906 1357.929688 563.664062 C 1358.152344 563.570312 1358.382812 563.527344 1358.621094 563.527344 Z M 1358.621094 563.527344 " fill-opacity="1" fill-rule="nonzero"/></g><path fill="#252627" d="M 1385.65625 672.296875 C 1385.65625 672.679688 1385.621094 673.054688 1385.546875 673.425781 C 1385.472656 673.800781 1385.359375 674.164062 1385.214844 674.515625 C 1385.070312 674.867188 1384.890625 675.199219 1384.679688 675.515625 C 1384.46875 675.832031 1384.226562 676.125 1383.957031 676.394531 C 1383.691406 676.660156 1383.398438 676.902344 1383.082031 677.113281 C 1382.765625 677.324219 1382.429688 677.503906 1382.078125 677.648438 C 1381.726562 677.792969 1381.363281 677.902344 1380.992188 677.976562 C 1380.617188 678.050781 1380.242188 678.089844 1379.859375 678.089844 C 1379.480469 678.089844 1379.101562 678.050781 1378.730469 677.976562 C 1378.355469 677.902344 1377.992188 677.792969 1377.640625 677.648438 C 1377.289062 677.503906 1376.957031 677.324219 1376.640625 677.113281 C 1376.324219 676.902344 1376.03125 676.660156 1375.761719 676.394531 C 1375.492188 676.125 1375.25 675.832031 1375.039062 675.515625 C 1374.828125 675.199219 1374.648438 674.867188 1374.503906 674.515625 C 1374.359375 674.164062 1374.25 673.800781 1374.175781 673.425781 C 1374.101562 673.054688 1374.0625 672.679688 1374.0625 672.296875 C 1374.0625 671.917969 1374.101562 671.539062 1374.175781 671.167969 C 1374.25 670.792969 1374.359375 670.433594 1374.503906 670.082031 C 1374.648438 669.730469 1374.828125 669.394531 1375.039062 669.078125 C 1375.25 668.761719 1375.492188 668.472656 1375.761719 668.203125 C 1376.03125 667.933594 1376.324219 667.691406 1376.640625 667.480469 C 1376.957031 667.269531 1377.289062 667.09375 1377.640625 666.945312 C 1377.992188 666.800781 1378.355469 666.691406 1378.730469 666.617188 C 1379.101562 666.542969 1379.480469 666.503906 1379.859375 666.503906 C 1380.242188 666.503906 1380.617188 666.542969 1380.992188 666.617188 C 1381.363281 666.691406 1381.726562 666.800781 1382.078125 666.945312 C 1382.429688 667.09375 1382.765625 667.269531 1383.082031 667.480469 C 1383.398438 667.691406 1383.691406 667.933594 1383.957031 668.203125 C 1384.226562 668.472656 1384.46875 668.761719 1384.679688 669.078125 C 1384.890625 669.394531 1385.070312 669.730469 1385.214844 670.082031 C 1385.359375 670.433594 1385.472656 670.792969 1385.546875 671.167969 C 1385.621094 671.539062 1385.65625 671.917969 1385.65625 672.296875 Z M 1385.65625 672.296875 " fill-opacity="1" fill-rule="nonzero"/><g clip-path="url(#c79948313e)"><path fill="#336666" d="M 1358.621094 669.515625 L 1379.046875 669.515625 C 1379.285156 669.515625 1379.519531 669.558594 1379.738281 669.652344 C 1379.960938 669.742188 1380.15625 669.875 1380.328125 670.042969 C 1380.5 670.214844 1380.628906 670.410156 1380.722656 670.632812 C 1380.8125 670.855469 1380.859375 671.085938 1380.859375 671.324219 L 1380.859375 673.265625 C 1380.859375 673.503906 1380.8125 673.734375 1380.722656 673.957031 C 1380.628906 674.179688 1380.5 674.375 1380.328125 674.546875 C 1380.15625 674.714844 1379.960938 674.847656 1379.738281 674.9375 C 1379.519531 675.03125 1379.285156 675.078125 1379.046875 675.078125 L 1358.621094 675.078125 C 1358.382812 675.078125 1358.152344 675.03125 1357.929688 674.9375 C 1357.707031 674.847656 1357.511719 674.714844 1357.339844 674.546875 C 1357.171875 674.375 1357.039062 674.179688 1356.949219 673.957031 C 1356.855469 673.734375 1356.808594 673.503906 1356.808594 673.265625 L 1356.808594 671.324219 C 1356.808594 671.085938 1356.855469 670.855469 1356.949219 670.632812 C 1357.039062 670.410156 1357.171875 670.214844 1357.339844 670.042969 C 1357.511719 669.875 1357.707031 669.742188 1357.929688 669.652344 C 1358.152344 669.558594 1358.382812 669.515625 1358.621094 669.515625 Z M 1358.621094 669.515625 " fill-opacity="1" fill-rule="nonzero"/></g><path fill="#252627" d="M 1385.65625 645.820312 C 1385.65625 646.203125 1385.621094 646.578125 1385.546875 646.953125 C 1385.472656 647.324219 1385.359375 647.6875 1385.214844 648.039062 C 1385.070312 648.390625 1384.890625 648.722656 1384.679688 649.039062 C 1384.46875 649.355469 1384.226562 649.648438 1383.957031 649.917969 C 1383.691406 650.1875 1383.398438 650.425781 1383.082031 650.636719 C 1382.765625 650.847656 1382.429688 651.027344 1382.078125 651.171875 C 1381.726562 651.316406 1381.363281 651.429688 1380.992188 651.503906 C 1380.617188 651.578125 1380.242188 651.613281 1379.859375 651.613281 C 1379.480469 651.613281 1379.101562 651.578125 1378.730469 651.503906 C 1378.355469 651.429688 1377.992188 651.316406 1377.640625 651.171875 C 1377.289062 651.027344 1376.957031 650.847656 1376.640625 650.636719 C 1376.324219 650.425781 1376.03125 650.1875 1375.761719 649.917969 C 1375.492188 649.648438 1375.25 649.355469 1375.039062 649.039062 C 1374.828125 648.722656 1374.648438 648.390625 1374.503906 648.039062 C 1374.359375 647.6875 1374.25 647.324219 1374.175781 646.953125 C 1374.101562 646.578125 1374.0625 646.203125 1374.0625 645.820312 C 1374.0625 645.441406 1374.101562 645.0625 1374.175781 644.691406 C 1374.25 644.316406 1374.359375 643.957031 1374.503906 643.605469 C 1374.648438 643.253906 1374.828125 642.917969 1375.039062 642.601562 C 1375.25 642.285156 1375.492188 641.996094 1375.761719 641.726562 C 1376.03125 641.457031 1376.324219 641.214844 1376.640625 641.003906 C 1376.957031 640.792969 1377.289062 640.617188 1377.640625 640.46875 C 1377.992188 640.324219 1378.355469 640.214844 1378.730469 640.140625 C 1379.101562 640.066406 1379.480469 640.027344 1379.859375 640.027344 C 1380.242188 640.027344 1380.617188 640.066406 1380.992188 640.140625 C 1381.363281 640.214844 1381.726562 640.324219 1382.078125 640.46875 C 1382.429688 640.617188 1382.765625 640.792969 1383.082031 641.003906 C 1383.398438 641.214844 1383.691406 641.457031 1383.957031 641.726562 C 1384.226562 641.996094 1384.46875 642.285156 1384.679688 642.601562 C 1384.890625 642.917969 1385.070312 643.253906 1385.214844 643.605469 C 1385.359375 643.957031 1385.472656 644.316406 1385.546875 644.691406 C 1385.621094 645.0625 1385.65625 645.441406 1385.65625 645.820312 Z M 1385.65625 645.820312 " fill-opacity="1" fill-rule="nonzero"/><g clip-path="url(#3f26d2b4e8)"><path fill="#336666" d="M 1358.621094 643.039062 L 1379.046875 643.039062 C 1379.285156 643.039062 1379.519531 643.085938 1379.738281 643.179688 C 1379.960938 643.269531 1380.15625 643.402344 1380.328125 643.570312 C 1380.5 643.742188 1380.628906 643.9375 1380.722656 644.160156 C 1380.8125 644.378906 1380.859375 644.613281 1380.859375 644.851562 L 1380.859375 646.789062 C 1380.859375 647.03125 1380.8125 647.261719 1380.722656 647.484375 C 1380.628906 647.707031 1380.5 647.902344 1380.328125 648.070312 C 1380.15625 648.242188 1379.960938 648.371094 1379.738281 648.464844 C 1379.519531 648.554688 1379.285156 648.601562 1379.046875 648.601562 L 1358.621094 648.601562 C 1358.382812 648.601562 1358.152344 648.554688 1357.929688 648.464844 C 1357.707031 648.371094 1357.511719 648.242188 1357.339844 648.070312 C 1357.171875 647.902344 1357.039062 647.707031 1356.949219 647.484375 C 1356.855469 647.261719 1356.808594 647.03125 1356.808594 646.789062 L 1356.808594 644.851562 C 1356.808594 644.613281 1356.855469 644.378906 1356.949219 644.160156 C 1357.039062 643.9375 1357.171875 643.742188 1357.339844 643.570312 C 1357.511719 643.402344 1357.707031 643.269531 1357.929688 643.179688 C 1358.152344 643.085938 1358.382812 643.039062 1358.621094 643.039062 Z M 1358.621094 643.039062 " fill-opacity="1" fill-rule="nonzero"/></g><path fill="#252627" d="M 1385.65625 619.347656 C 1385.65625 619.726562 1385.621094 620.105469 1385.546875 620.476562 C 1385.472656 620.851562 1385.359375 621.210938 1385.214844 621.5625 C 1385.070312 621.914062 1384.890625 622.25 1384.679688 622.566406 C 1384.46875 622.882812 1384.226562 623.171875 1383.957031 623.441406 C 1383.691406 623.710938 1383.398438 623.953125 1383.082031 624.164062 C 1382.765625 624.375 1382.429688 624.550781 1382.078125 624.699219 C 1381.726562 624.84375 1381.363281 624.953125 1380.992188 625.027344 C 1380.617188 625.101562 1380.242188 625.140625 1379.859375 625.140625 C 1379.480469 625.140625 1379.101562 625.101562 1378.730469 625.027344 C 1378.355469 624.953125 1377.992188 624.84375 1377.640625 624.699219 C 1377.289062 624.550781 1376.957031 624.375 1376.640625 624.164062 C 1376.324219 623.953125 1376.03125 623.710938 1375.761719 623.441406 C 1375.492188 623.171875 1375.25 622.882812 1375.039062 622.566406 C 1374.828125 622.25 1374.648438 621.914062 1374.503906 621.5625 C 1374.359375 621.210938 1374.25 620.851562 1374.175781 620.476562 C 1374.101562 620.105469 1374.0625 619.726562 1374.0625 619.347656 C 1374.0625 618.964844 1374.101562 618.589844 1374.175781 618.21875 C 1374.25 617.84375 1374.359375 617.480469 1374.503906 617.128906 C 1374.648438 616.777344 1374.828125 616.445312 1375.039062 616.128906 C 1375.25 615.8125 1375.492188 615.519531 1375.761719 615.25 C 1376.03125 614.984375 1376.324219 614.742188 1376.640625 614.53125 C 1376.957031 614.320312 1377.289062 614.140625 1377.640625 613.996094 C 1377.992188 613.851562 1378.355469 613.742188 1378.730469 613.667969 C 1379.101562 613.59375 1379.480469 613.554688 1379.859375 613.554688 C 1380.242188 613.554688 1380.617188 613.59375 1380.992188 613.667969 C 1381.363281 613.742188 1381.726562 613.851562 1382.078125 613.996094 C 1382.429688 614.140625 1382.765625 614.320312 1383.082031 614.53125 C 1383.398438 614.742188 1383.691406 614.984375 1383.957031 615.25 C 1384.226562 615.519531 1384.46875 615.8125 1384.679688 616.128906 C 1384.890625 616.445312 1385.070312 616.777344 1385.214844 617.128906 C 1385.359375 617.480469 1385.472656 617.84375 1385.546875 618.21875 C 1385.621094 618.589844 1385.65625 618.964844 1385.65625 619.347656 Z M 1385.65625 619.347656 " fill-opacity="1" fill-rule="nonzero"/><g clip-path="url(#ee5766fdd3)"><path fill="#336666" d="M 1358.621094 616.566406 L 1379.046875 616.566406 C 1379.285156 616.566406 1379.519531 616.613281 1379.738281 616.703125 C 1379.960938 616.796875 1380.15625 616.925781 1380.328125 617.097656 C 1380.5 617.265625 1380.628906 617.460938 1380.722656 617.683594 C 1380.8125 617.90625 1380.859375 618.136719 1380.859375 618.378906 L 1380.859375 620.316406 C 1380.859375 620.558594 1380.8125 620.789062 1380.722656 621.011719 C 1380.628906 621.230469 1380.5 621.425781 1380.328125 621.597656 C 1380.15625 621.765625 1379.960938 621.898438 1379.738281 621.992188 C 1379.519531 622.082031 1379.285156 622.128906 1379.046875 622.128906 L 1358.621094 622.128906 C 1358.382812 622.128906 1358.152344 622.082031 1357.929688 621.992188 C 1357.707031 621.898438 1357.511719 621.765625 1357.339844 621.597656 C 1357.171875 621.425781 1357.039062 621.230469 1356.949219 621.011719 C 1356.855469 620.789062 1356.808594 620.558594 1356.808594 620.316406 L 1356.808594 618.378906 C 1356.808594 618.136719 1356.855469 617.90625 1356.949219 617.683594 C 1357.039062 617.460938 1357.171875 617.265625 1357.339844 617.097656 C 1357.511719 616.925781 1357.707031 616.796875 1357.929688 616.703125 C 1358.152344 616.613281 1358.382812 616.566406 1358.621094 616.566406 Z M 1358.621094 616.566406 " fill-opacity="1" fill-rule="nonzero"/></g><path fill="#252627" d="M 1385.65625 592.871094 C 1385.65625 593.253906 1385.621094 593.628906 1385.546875 594.003906 C 1385.472656 594.375 1385.359375 594.738281 1385.214844 595.089844 C 1385.070312 595.441406 1384.890625 595.773438 1384.679688 596.089844 C 1384.46875 596.40625 1384.226562 596.699219 1383.957031 596.96875 C 1383.691406 597.238281 1383.398438 597.476562 1383.082031 597.6875 C 1382.765625 597.898438 1382.429688 598.078125 1382.078125 598.222656 C 1381.726562 598.371094 1381.363281 598.480469 1380.992188 598.554688 C 1380.617188 598.628906 1380.242188 598.664062 1379.859375 598.664062 C 1379.480469 598.664062 1379.101562 598.628906 1378.730469 598.554688 C 1378.355469 598.480469 1377.992188 598.371094 1377.640625 598.222656 C 1377.289062 598.078125 1376.957031 597.898438 1376.640625 597.6875 C 1376.324219 597.476562 1376.03125 597.238281 1375.761719 596.96875 C 1375.492188 596.699219 1375.25 596.40625 1375.039062 596.089844 C 1374.828125 595.773438 1374.648438 595.441406 1374.503906 595.089844 C 1374.359375 594.738281 1374.25 594.375 1374.175781 594.003906 C 1374.101562 593.628906 1374.0625 593.253906 1374.0625 592.871094 C 1374.0625 592.492188 1374.101562 592.117188 1374.175781 591.742188 C 1374.25 591.371094 1374.359375 591.007812 1374.503906 590.65625 C 1374.648438 590.304688 1374.828125 589.972656 1375.039062 589.65625 C 1375.25 589.339844 1375.492188 589.046875 1375.761719 588.777344 C 1376.03125 588.507812 1376.324219 588.269531 1376.640625 588.058594 C 1376.957031 587.84375 1377.289062 587.667969 1377.640625 587.523438 C 1377.992188 587.375 1378.355469 587.265625 1378.730469 587.191406 C 1379.101562 587.117188 1379.480469 587.082031 1379.859375 587.082031 C 1380.242188 587.082031 1380.617188 587.117188 1380.992188 587.191406 C 1381.363281 587.265625 1381.726562 587.375 1382.078125 587.523438 C 1382.429688 587.667969 1382.765625 587.84375 1383.082031 588.058594 C 1383.398438 588.269531 1383.691406 588.507812 1383.957031 588.777344 C 1384.226562 589.046875 1384.46875 589.339844 1384.679688 589.65625 C 1384.890625 589.972656 1385.070312 590.304688 1385.214844 590.65625 C 1385.359375 591.007812 1385.472656 591.371094 1385.546875 591.742188 C 1385.621094 592.117188 1385.65625 592.492188 1385.65625 592.871094 Z M 1385.65625 592.871094 " fill-opacity="1" fill-rule="nonzero"/><g clip-path="url(#b082638ef8)"><path fill="#336666" d="M 1358.621094 590.089844 L 1379.046875 590.089844 C 1379.285156 590.089844 1379.519531 590.136719 1379.738281 590.230469 C 1379.960938 590.320312 1380.15625 590.453125 1380.328125 590.621094 C 1380.5 590.792969 1380.628906 590.988281 1380.722656 591.210938 C 1380.8125 591.433594 1380.859375 591.664062 1380.859375 591.902344 L 1380.859375 593.84375 C 1380.859375 594.082031 1380.8125 594.3125 1380.722656 594.535156 C 1380.628906 594.757812 1380.5 594.953125 1380.328125 595.125 C 1380.15625 595.292969 1379.960938 595.425781 1379.738281 595.515625 C 1379.519531 595.609375 1379.285156 595.652344 1379.046875 595.652344 L 1358.621094 595.652344 C 1358.382812 595.652344 1358.152344 595.609375 1357.929688 595.515625 C 1357.707031 595.425781 1357.511719 595.292969 1357.339844 595.125 C 1357.171875 594.953125 1357.039062 594.757812 1356.949219 594.535156 C 1356.855469 594.3125 1356.808594 594.082031 1356.808594 593.84375 L 1356.808594 591.902344 C 1356.808594 591.664062 1356.855469 591.433594 1356.949219 591.210938 C 1357.039062 590.988281 1357.171875 590.792969 1357.339844 590.621094 C 1357.511719 590.453125 1357.707031 590.320312 1357.929688 590.230469 C 1358.152344 590.136719 1358.382812 590.089844 1358.621094 590.089844 Z M 1358.621094 590.089844 " fill-opacity="1" fill-rule="nonzero"/></g><g fill="#97b0b0" fill-opacity="1"><g transform="translate(1424.704946, 572.621184)"><g><path d="M 22.703125 -64.578125 L 22.703125 0 L 16.046875 0 L 16.046875 -58.6875 L 0.828125 -58.6875 L 0.828125 -64.578125 Z M 22.703125 -64.578125 "/></g></g></g><g fill="#97b0b0" fill-opacity="1"><g transform="translate(1458.011428, 572.621184)"><g><path d="M 30.546875 0.546875 C 25.554688 0.546875 21.109375 -0.769531 17.203125 -3.40625 C 13.296875 -6.050781 10.25 -9.847656 8.0625 -14.796875 C 5.882812 -19.753906 4.796875 -25.585938 4.796875 -32.296875 C 4.796875 -38.992188 5.882812 -44.816406 8.0625 -49.765625 C 10.25 -54.722656 13.296875 -58.523438 17.203125 -61.171875 C 21.109375 -63.816406 25.554688 -65.140625 30.546875 -65.140625 C 35.523438 -65.140625 39.96875 -63.816406 43.875 -61.171875 C 47.78125 -58.523438 50.835938 -54.722656 53.046875 -49.765625 C 55.265625 -44.816406 56.375 -38.992188 56.375 -32.296875 C 56.375 -25.585938 55.265625 -19.753906 53.046875 -14.796875 C 50.835938 -9.847656 47.78125 -6.050781 43.875 -3.40625 C 39.96875 -0.769531 35.523438 0.546875 30.546875 0.546875 Z M 30.546875 -5.53125 C 34.296875 -5.53125 37.597656 -6.578125 40.453125 -8.671875 C 43.316406 -10.765625 45.546875 -13.804688 47.140625 -17.796875 C 48.742188 -21.796875 49.546875 -26.628906 49.546875 -32.296875 C 49.546875 -37.953125 48.742188 -42.78125 47.140625 -46.78125 C 45.546875 -50.78125 43.316406 -53.820312 40.453125 -55.90625 C 37.597656 -58 34.296875 -59.046875 30.546875 -59.046875 C 26.785156 -59.046875 23.472656 -58 20.609375 -55.90625 C 17.753906 -53.820312 15.523438 -50.78125 13.921875 -46.78125 C 12.328125 -42.78125 11.53125 -37.953125 11.53125 -32.296875 C 11.53125 -26.628906 12.328125 -21.796875 13.921875 -17.796875 C 15.523438 -13.804688 17.753906 -10.765625 20.609375 -8.671875 C 23.472656 -6.578125 26.785156 -5.53125 30.546875 -5.53125 Z M 30.546875 -5.53125 "/></g></g></g><g fill="#97b0b0" fill-opacity="1"><g transform="translate(1519.088689, 572.621184)"><g><path d="M 9.875 -9.59375 C 11.289062 -9.59375 12.457031 -9.113281 13.375 -8.15625 C 14.300781 -7.207031 14.765625 -6.023438 14.765625 -4.609375 C 14.765625 -3.867188 14.65625 -3.066406 14.4375 -2.203125 C 14.21875 -1.347656 13.894531 -0.367188 13.46875 0.734375 L 9.59375 13.46875 L 5.171875 13.46875 L 8.296875 0.09375 C 7.316406 -0.21875 6.519531 -0.785156 5.90625 -1.609375 C 5.289062 -2.441406 4.984375 -3.441406 4.984375 -4.609375 C 4.984375 -6.023438 5.441406 -7.207031 6.359375 -8.15625 C 7.285156 -9.113281 8.457031 -9.59375 9.875 -9.59375 Z M 9.875 -9.59375 "/></g></g></g><g fill="#97b0b0" fill-opacity="1"><g transform="translate(1538.648173, 572.621184)"><g><path d="M 30.546875 0.546875 C 25.554688 0.546875 21.109375 -0.769531 17.203125 -3.40625 C 13.296875 -6.050781 10.25 -9.847656 8.0625 -14.796875 C 5.882812 -19.753906 4.796875 -25.585938 4.796875 -32.296875 C 4.796875 -38.992188 5.882812 -44.816406 8.0625 -49.765625 C 10.25 -54.722656 13.296875 -58.523438 17.203125 -61.171875 C 21.109375 -63.816406 25.554688 -65.140625 30.546875 -65.140625 C 35.523438 -65.140625 39.96875 -63.816406 43.875 -61.171875 C 47.78125 -58.523438 50.835938 -54.722656 53.046875 -49.765625 C 55.265625 -44.816406 56.375 -38.992188 56.375 -32.296875 C 56.375 -25.585938 55.265625 -19.753906 53.046875 -14.796875 C 50.835938 -9.847656 47.78125 -6.050781 43.875 -3.40625 C 39.96875 -0.769531 35.523438 0.546875 30.546875 0.546875 Z M 30.546875 -5.53125 C 34.296875 -5.53125 37.597656 -6.578125 40.453125 -8.671875 C 43.316406 -10.765625 45.546875 -13.804688 47.140625 -17.796875 C 48.742188 -21.796875 49.546875 -26.628906 49.546875 -32.296875 C 49.546875 -37.953125 48.742188 -42.78125 47.140625 -46.78125 C 45.546875 -50.78125 43.316406 -53.820312 40.453125 -55.90625 C 37.597656 -58 34.296875 -59.046875 30.546875 -59.046875 C 26.785156 -59.046875 23.472656 -58 20.609375 -55.90625 C 17.753906 -53.820312 15.523438 -50.78125 13.921875 -46.78125 C 12.328125 -42.78125 11.53125 -37.953125 11.53125 -32.296875 C 11.53125 -26.628906 12.328125 -21.796875 13.921875 -17.796875 C 15.523438 -13.804688 17.753906 -10.765625 20.609375 -8.671875 C 23.472656 -6.578125 26.785156 -5.53125 30.546875 -5.53125 Z M 30.546875 -5.53125 "/></g></g></g></svg>