<svg xmlns="http://www.w3.org/2000/svg" xmlns:xlink="http://www.w3.org/1999/xlink" width="2560" zoomAndPan="magnify" viewBox="0 0 1920 1079.999946" height="1440" preserveAspectRatio="xMidYMid meet" version="1.0"><defs><g/></defs><rect x="-192" width="2304" fill="#ffffff" y="-107.999995" height="1295.999935" fill-opacity="1"/><rect x="-192" width="2304" fill="#97b0b0" y="-107.999995" height="1295.999935" fill-opacity="1"/><path fill="#336666" d="M 1687.964844 732.300781 L 1674.84375 571.304688 L 1676.367188 554.929688 L 1635.105469 562.855469 C 1634.097656 563.050781 1633.066406 563.148438 1632.042969 563.148438 L 1632.035156 563.148438 C 1624.289062 563.148438 1617.605469 557.617188 1616.140625 549.996094 C 1614.457031 541.214844 1620.222656 532.703125 1628.996094 531.019531 L 1674.84375 522.210938 C 1673.058594 512.328125 1670.910156 504.234375 1669.035156 499.019531 L 1672.453125 497.839844 C 1674.835938 504.472656 1677.269531 514.507812 1679.011719 525.09375 L 1629.675781 534.574219 C 1622.851562 535.882812 1618.382812 542.480469 1619.695312 549.3125 C 1620.851562 555.339844 1626.121094 559.53125 1632.035156 559.53125 C 1632.824219 559.527344 1633.621094 559.457031 1634.421875 559.300781 L 1695.472656 547.574219 C 1701.90625 546.339844 1706.3125 540.371094 1705.609375 533.855469 C 1705.542969 533.265625 1704.003906 519.21875 1700.605469 504.765625 C 1699.433594 499.78125 1698.03125 494.570312 1696.242188 489.648438 C 1691.925781 477.773438 1685.328125 467.609375 1674.113281 466.5625 C 1673.589844 466.515625 1673.074219 466.507812 1672.5625 466.523438 C 1672.503906 466.519531 1672.445312 466.503906 1672.386719 466.5 L 1611.882812 460.863281 C 1611.691406 460.847656 1611.503906 460.847656 1611.3125 460.839844 L 1556.855469 445.90625 L 1537.878906 401.652344 L 1540.980469 394.417969 C 1542.523438 390.824219 1542.570312 386.847656 1541.121094 383.21875 C 1539.671875 379.585938 1536.898438 376.738281 1533.308594 375.199219 C 1529.71875 373.65625 1525.742188 373.605469 1522.113281 375.054688 C 1521.363281 375.355469 1520.652344 375.726562 1519.972656 376.136719 C 1517.886719 375.910156 1515.714844 376.191406 1513.652344 377.078125 C 1507.265625 379.816406 1504.308594 387.21875 1507.050781 393.609375 L 1508.273438 396.464844 L 1487.808594 444.195312 L 1434.53125 458.800781 C 1434.378906 458.804688 1434.226562 458.8125 1434.078125 458.828125 L 1373.578125 464.460938 C 1373.480469 464.472656 1373.386719 464.492188 1373.289062 464.503906 C 1373.125 464.515625 1372.957031 464.511719 1372.792969 464.527344 C 1355.628906 466.125 1348.65625 486.621094 1344.5 504.296875 C 1341.03125 519.046875 1339.46875 533.492188 1339.453125 533.632812 C 1339.035156 537.507812 1340.207031 541.460938 1342.675781 544.480469 C 1345.144531 547.496094 1348.785156 549.429688 1352.664062 549.785156 L 1367.378906 551.128906 L 1369.253906 571.316406 L 1356.148438 732.136719 C 1355.1875 743.953125 1364.011719 754.351562 1375.820312 755.316406 C 1376.414062 755.363281 1377 755.386719 1377.582031 755.386719 C 1388.648438 755.386719 1398.074219 746.855469 1398.988281 735.628906 L 1410.230469 597.6875 L 1419.523438 596.824219 L 1443.1875 736.488281 C 1445.164062 748.175781 1456.277344 756.074219 1467.964844 754.089844 C 1479.648438 752.113281 1487.542969 740.988281 1485.5625 729.296875 L 1458.824219 571.523438 L 1450.746094 484.707031 L 1502.335938 470.5625 C 1506.65625 469.378906 1510.144531 466.335938 1511.910156 462.214844 L 1524.1875 433.585938 L 1536.117188 461.410156 C 1537.628906 464.933594 1540.660156 467.574219 1544.355469 468.589844 L 1597.597656 483.1875 L 1589.363281 571.714844 L 1562.605469 729.640625 C 1560.8125 740.238281 1567.941406 750.28125 1578.527344 752.074219 C 1589.113281 753.871094 1599.15625 746.742188 1600.949219 736.144531 L 1624.929688 594.609375 L 1637.820312 595.808594 L 1649.203125 735.464844 C 1650.074219 746.179688 1659.460938 754.148438 1670.164062 753.273438 C 1680.867188 752.402344 1688.835938 743.015625 1687.964844 732.300781 Z M 1446.359375 481.667969 L 1454.773438 572.058594 L 1481.53125 729.980469 C 1483.132812 739.449219 1476.742188 748.453125 1467.28125 750.058594 C 1457.816406 751.675781 1448.820312 745.265625 1447.21875 735.804688 L 1422.917969 592.394531 L 1406.433594 593.933594 L 1394.910156 735.296875 C 1394.132812 744.867188 1385.734375 752.039062 1376.152344 751.238281 C 1366.589844 750.457031 1359.445312 742.035156 1360.226562 732.46875 L 1373.347656 571.46875 L 1373.359375 571.289062 L 1368.125 515.003906 L 1364.039062 515.246094 L 1366.992188 546.988281 L 1353.035156 545.710938 C 1350.242188 545.453125 1347.617188 544.0625 1345.839844 541.886719 C 1344.0625 539.714844 1343.21875 536.867188 1343.519531 534.070312 C 1343.535156 533.929688 1345.070312 519.738281 1348.480469 505.234375 C 1351.007812 494.480469 1354.59375 482.605469 1360.902344 475.355469 C 1363.402344 472.136719 1367.066406 469.347656 1372.390625 468.796875 C 1372.429688 468.792969 1372.460938 468.796875 1372.5 468.792969 C 1372.976562 468.675781 1373.460938 468.582031 1373.957031 468.535156 L 1434.460938 462.902344 L 1490.789062 447.621094 L 1517.855469 384.488281 C 1518.964844 381.902344 1521.015625 379.902344 1523.632812 378.855469 C 1524.894531 378.351562 1526.21875 378.097656 1527.542969 378.097656 C 1528.953125 378.097656 1530.359375 378.386719 1531.695312 378.957031 C 1534.28125 380.070312 1536.28125 382.121094 1537.324219 384.734375 C 1538.371094 387.351562 1538.332031 390.214844 1537.222656 392.804688 L 1508.152344 460.605469 C 1506.882812 463.570312 1504.367188 465.761719 1501.253906 466.613281 Z M 1446.359375 481.667969 " fill-opacity="1" fill-rule="nonzero"/><path fill="#336666" d="M 1611.011719 416.210938 C 1609.199219 435.683594 1623.503906 452.9375 1642.964844 454.75 C 1662.421875 456.5625 1679.667969 442.25 1681.480469 422.777344 C 1683.292969 403.304688 1668.984375 386.050781 1649.523438 384.238281 C 1630.0625 382.425781 1612.820312 396.742188 1611.011719 416.210938 Z M 1621.183594 428.191406 C 1621.183594 428.191406 1645.851562 437.394531 1663.492188 430.011719 C 1663.492188 430.011719 1641.269531 461.277344 1621.183594 428.191406 Z M 1621.183594 428.191406 " fill-opacity="1" fill-rule="nonzero"/><path fill="#336666" d="M 1423.808594 390.667969 C 1416.113281 384.28125 1406.394531 381.277344 1396.4375 382.199219 C 1386.484375 383.128906 1377.484375 387.878906 1371.101562 395.578125 C 1364.714844 403.277344 1361.710938 413.003906 1362.636719 422.964844 C 1363.5625 432.929688 1368.3125 441.933594 1376.007812 448.320312 C 1382.785156 453.949219 1391.140625 456.953125 1399.839844 456.953125 C 1401.015625 456.953125 1402.195312 456.898438 1403.375 456.789062 C 1413.332031 455.863281 1422.332031 451.109375 1428.714844 443.410156 C 1435.097656 435.710938 1438.105469 425.984375 1437.175781 416.023438 C 1436.25 406.0625 1431.503906 397.054688 1423.808594 390.667969 Z M 1425.570312 440.796875 C 1419.882812 447.65625 1411.867188 451.890625 1402.996094 452.714844 C 1394.132812 453.539062 1385.472656 450.863281 1378.617188 445.171875 C 1371.761719 439.480469 1367.535156 431.460938 1366.707031 422.585938 C 1365.882812 413.714844 1368.558594 405.050781 1374.246094 398.191406 C 1379.933594 391.332031 1387.949219 387.101562 1396.816406 386.273438 C 1397.871094 386.175781 1398.921875 386.128906 1399.96875 386.128906 C 1407.71875 386.128906 1415.160156 388.804688 1421.195312 393.816406 C 1428.050781 399.507812 1432.28125 407.527344 1433.105469 416.402344 C 1433.929688 425.277344 1431.253906 433.941406 1425.570312 440.796875 Z M 1425.570312 440.796875 " fill-opacity="1" fill-rule="nonzero"/><path fill="#336666" d="M 1553.285156 383.707031 C 1554.195312 384.636719 1555.6875 384.65625 1556.621094 383.742188 L 1573.625 367.105469 L 1552.632812 367.113281 L 1560.546875 335.484375 L 1539.371094 352.164062 L 1532.488281 324 L 1520.335938 348.707031 L 1499.21875 326.402344 L 1503.144531 357.316406 L 1479.953125 350.292969 L 1491.363281 368.605469 L 1463.601562 370.773438 L 1488.628906 385.917969 C 1489.011719 386.148438 1489.433594 386.257812 1489.847656 386.257812 C 1490.648438 386.257812 1491.425781 385.855469 1491.871094 385.121094 C 1492.542969 384.003906 1492.1875 382.554688 1491.074219 381.878906 L 1478.609375 374.335938 L 1499.476562 372.707031 L 1490.59375 358.449219 L 1508.742188 363.945312 L 1505.71875 340.132812 L 1521.574219 356.878906 L 1530.988281 337.738281 L 1536.53125 360.410156 L 1552.617188 347.742188 L 1546.585938 371.839844 L 1562.046875 371.832031 L 1553.320312 380.367188 C 1552.390625 381.28125 1552.375 382.773438 1553.285156 383.707031 Z M 1553.285156 383.707031 " fill-opacity="1" fill-rule="nonzero"/><g fill="#000000" fill-opacity="1"><g transform="translate(592.73846, 581.624927)"><g><path d="M 23.046875 0 L 10.796875 0 L 10.796875 -79.4375 L 23.046875 -79.4375 L 23.046875 -40.3125 L 60.125 -79.4375 L 68.046875 -79.4375 L 30.484375 -42.484375 L 73.078125 0 L 57.71875 1.5625 L 23.046875 -39.125 Z M 23.046875 0 "/></g></g></g><g fill="#000000" fill-opacity="1"><g transform="translate(665.818489, 581.624927)"><g><path d="M 32.15625 -55.6875 C 39.195312 -55.6875 45.015625 -53.285156 49.609375 -48.484375 C 54.210938 -43.679688 56.515625 -37.082031 56.515625 -28.6875 C 56.515625 -23.320312 55.59375 -18.597656 53.75 -14.515625 C 51.914062 -10.441406 49.519531 -7.285156 46.5625 -5.046875 C 40.882812 -0.722656 34.546875 1.4375 27.546875 1.4375 C 20.546875 1.4375 14.742188 -0.957031 10.140625 -5.75 C 5.535156 -10.550781 3.234375 -17.15625 3.234375 -25.5625 C 3.234375 -30.914062 4.132812 -35.632812 5.9375 -39.71875 C 7.738281 -43.800781 10.117188 -46.960938 13.078125 -49.203125 C 18.753906 -53.523438 25.113281 -55.6875 32.15625 -55.6875 Z M 29.765625 -2.640625 C 33.285156 -2.640625 36.285156 -4 38.765625 -6.71875 C 43.242188 -11.519531 45.484375 -17.898438 45.484375 -25.859375 C 45.484375 -33.816406 44.117188 -40.015625 41.390625 -44.453125 C 38.671875 -48.898438 34.234375 -51.125 28.078125 -51.125 C 23.515625 -49.363281 20.050781 -46.257812 17.6875 -41.8125 C 15.332031 -37.375 14.15625 -32.015625 14.15625 -25.734375 C 14.15625 -19.453125 15.4375 -14.03125 18 -9.46875 C 20.5625 -4.914062 24.484375 -2.640625 29.765625 -2.640625 Z M 29.765625 -2.640625 "/></g></g></g><g fill="#000000" fill-opacity="1"><g transform="translate(725.818518, 581.624927)"><g><path d="M 32.15625 -55.6875 C 39.195312 -55.6875 45.015625 -53.285156 49.609375 -48.484375 C 54.210938 -43.679688 56.515625 -37.082031 56.515625 -28.6875 C 56.515625 -23.320312 55.59375 -18.597656 53.75 -14.515625 C 51.914062 -10.441406 49.519531 -7.285156 46.5625 -5.046875 C 40.882812 -0.722656 34.546875 1.4375 27.546875 1.4375 C 20.546875 1.4375 14.742188 -0.957031 10.140625 -5.75 C 5.535156 -10.550781 3.234375 -17.15625 3.234375 -25.5625 C 3.234375 -30.914062 4.132812 -35.632812 5.9375 -39.71875 C 7.738281 -43.800781 10.117188 -46.960938 13.078125 -49.203125 C 18.753906 -53.523438 25.113281 -55.6875 32.15625 -55.6875 Z M 29.765625 -2.640625 C 33.285156 -2.640625 36.285156 -4 38.765625 -6.71875 C 43.242188 -11.519531 45.484375 -17.898438 45.484375 -25.859375 C 45.484375 -33.816406 44.117188 -40.015625 41.390625 -44.453125 C 38.671875 -48.898438 34.234375 -51.125 28.078125 -51.125 C 23.515625 -49.363281 20.050781 -46.257812 17.6875 -41.8125 C 15.332031 -37.375 14.15625 -32.015625 14.15625 -25.734375 C 14.15625 -19.453125 15.4375 -14.03125 18 -9.46875 C 20.5625 -4.914062 24.484375 -2.640625 29.765625 -2.640625 Z M 29.765625 -2.640625 "/></g></g></g><g fill="#000000" fill-opacity="1"><g transform="translate(785.818536, 581.624927)"><g><path d="M 19.203125 -46.5625 C 22.554688 -49.757812 25.492188 -52.078125 28.015625 -53.515625 C 30.535156 -54.960938 33.132812 -55.6875 35.8125 -55.6875 C 38.5 -55.6875 40.898438 -55.242188 43.015625 -54.359375 C 45.140625 -53.484375 47.320312 -52.0625 49.5625 -50.09375 C 51.800781 -48.132812 53.617188 -45.09375 55.015625 -40.96875 C 56.421875 -36.851562 57.125 -32.335938 57.125 -27.421875 C 57.125 -22.503906 56.320312 -17.921875 54.71875 -13.671875 C 53.113281 -9.429688 50.59375 -5.75 47.15625 -2.625 C 43.71875 0.488281 39.578125 2.046875 34.734375 2.046875 C 29.898438 2.046875 24.722656 0.164062 19.203125 -3.59375 L 19.203125 25.4375 L 9 25.4375 L 9 -38.046875 C 9 -43.554688 6.921875 -47.914062 2.765625 -51.125 L 9 -55.6875 Z M 19.203125 -39.234375 L 19.203125 -7.078125 C 30.160156 -1.878906 37.921875 -2.71875 42.484375 -9.59375 C 44.960938 -13.519531 46.203125 -18.703125 46.203125 -25.140625 C 46.203125 -31.578125 45.179688 -37.09375 43.140625 -41.6875 C 41.097656 -46.289062 38.554688 -49.078125 35.515625 -50.046875 C 32.710938 -49.722656 29.972656 -48.71875 27.296875 -47.03125 C 24.617188 -45.351562 22.597656 -43.773438 21.234375 -42.296875 C 19.878906 -40.816406 19.203125 -39.796875 19.203125 -39.234375 Z M 19.203125 -39.234375 "/></g></g></g><g fill="#000000" fill-opacity="1"><g transform="translate(845.818576, 581.624927)"><g><path d="M 12.59375 -29.515625 C 12.59375 -20.878906 14.53125 -14.660156 18.40625 -10.859375 C 22.289062 -7.054688 27.015625 -5.15625 32.578125 -5.15625 C 38.140625 -5.15625 43.28125 -6.238281 48 -8.40625 L 48 -4.203125 C 41.4375 -0.441406 35.15625 1.4375 29.15625 1.4375 C 21.394531 1.4375 15.113281 -0.921875 10.3125 -5.640625 C 5.519531 -10.359375 3.125 -17.195312 3.125 -26.15625 C 3.125 -35.113281 5.78125 -42.273438 11.09375 -47.640625 C 16.414062 -53.003906 22.835938 -55.6875 30.359375 -55.6875 C 36.203125 -55.6875 41.082031 -53.382812 45 -48.78125 C 48.914062 -44.175781 50.875 -37.753906 50.875 -29.515625 Z M 24.234375 -50.046875 C 21.441406 -48.679688 19.046875 -46.5 17.046875 -43.5 C 15.046875 -40.5 13.722656 -37.039062 13.078125 -33.125 L 41.15625 -33.125 C 40.914062 -36.476562 40.132812 -39.351562 38.8125 -41.75 C 37.5 -44.15625 35.921875 -45.921875 34.078125 -47.046875 C 30.796875 -49.046875 27.515625 -50.046875 24.234375 -50.046875 Z M 24.234375 -50.046875 "/></g></g></g><g fill="#000000" fill-opacity="1"><g transform="translate(902.0986, 581.624927)"><g><path d="M 17.765625 0 L 7.6875 0 L 7.6875 -54.234375 L 14.640625 -54.234375 L 17.40625 -44.15625 C 19 -46.957031 21.535156 -49.597656 25.015625 -52.078125 C 28.492188 -54.554688 32.078125 -56.078125 35.765625 -56.640625 L 36.953125 -48.359375 C 33.992188 -48.359375 30.65625 -47.4375 26.9375 -45.59375 C 23.21875 -43.757812 20.160156 -41.722656 17.765625 -39.484375 Z M 17.765625 0 "/></g></g></g><g fill="#000000" fill-opacity="1"><g transform="translate(940.2586, 581.624927)"><g><path d="M 34.203125 -12.71875 L 34.203125 -25.078125 C 28.441406 -24.679688 23.71875 -23.398438 20.03125 -21.234375 C 16.351562 -19.078125 14.515625 -16.757812 14.515625 -14.28125 C 14.515625 -11.800781 15.15625 -9.660156 16.4375 -7.859375 C 17.71875 -6.054688 19.359375 -4.796875 21.359375 -4.078125 C 23.992188 -4.554688 26.789062 -5.875 29.75 -8.03125 C 32.71875 -10.195312 34.203125 -11.757812 34.203125 -12.71875 Z M 44.046875 -15.953125 C 44.046875 -10.273438 46.125 -5.957031 50.28125 -3 L 44.046875 1.5625 L 34.3125 -7.203125 C 28 -1.441406 22.160156 1.4375 16.796875 1.4375 C 13.273438 1.4375 10.253906 0.316406 7.734375 -1.921875 C 5.210938 -4.160156 3.953125 -6.976562 3.953125 -10.375 C 3.953125 -13.78125 4.972656 -16.601562 7.015625 -18.84375 C 9.054688 -21.082031 11.757812 -22.800781 15.125 -24 C 20.882812 -26.15625 27.242188 -27.515625 34.203125 -28.078125 L 34.203125 -39.359375 C 34.203125 -45.992188 30.363281 -49.3125 22.6875 -49.3125 C 18.28125 -49.3125 13.078125 -48.351562 7.078125 -46.4375 L 6 -49.4375 C 7.601562 -50.71875 10.382812 -52.078125 14.34375 -53.515625 C 18.300781 -54.960938 22.078125 -55.6875 25.671875 -55.6875 C 29.273438 -55.6875 32.296875 -55.203125 34.734375 -54.234375 C 37.179688 -53.273438 38.984375 -52.195312 40.140625 -51 C 41.296875 -49.800781 42.191406 -48.160156 42.828125 -46.078125 C 43.472656 -43.992188 43.835938 -42.351562 43.921875 -41.15625 C 44.003906 -39.957031 44.046875 -38.359375 44.046875 -36.359375 Z M 44.046875 -15.953125 "/></g></g></g><g fill="#000000" fill-opacity="1"><g transform="translate(993.538625, 581.624927)"><g><path d="M 21 -10.5625 C 21 -8.15625 21.476562 -6.351562 22.4375 -5.15625 C 23.394531 -3.957031 24.992188 -3.359375 27.234375 -3.359375 C 29.472656 -3.359375 32.15625 -3.957031 35.28125 -5.15625 L 35.28125 -1.796875 C 30.632812 0.359375 26.472656 1.4375 22.796875 1.4375 C 19.117188 1.4375 16.21875 0.414062 14.09375 -1.625 C 11.976562 -3.664062 10.921875 -6.84375 10.921875 -11.15625 L 10.921875 -49.921875 L 1.203125 -51.84375 L 1.203125 -54.234375 L 10.921875 -54.234375 L 10.921875 -58.5625 L 21 -65.875 L 21 -54.234375 L 35.28125 -54.234375 L 35.28125 -49.921875 L 21 -49.921875 Z M 21 -10.5625 "/></g></g></g><g fill="#000000" fill-opacity="1"><g transform="translate(1033.018632, 581.624927)"><g><path d="M 9 0 L 9 -54.234375 L 18.953125 -54.234375 L 18.953125 0 Z M 7.796875 -70.984375 C 7.796875 -72.703125 8.375 -74.160156 9.53125 -75.359375 C 10.695312 -76.554688 12.140625 -77.15625 13.859375 -77.15625 C 15.578125 -77.15625 17.054688 -76.554688 18.296875 -75.359375 C 19.535156 -74.160156 20.15625 -72.71875 20.15625 -71.03125 C 20.15625 -69.351562 19.535156 -67.875 18.296875 -66.59375 C 17.054688 -65.320312 15.597656 -64.6875 13.921875 -64.6875 C 12.242188 -64.6875 10.800781 -65.304688 9.59375 -66.546875 C 8.394531 -67.785156 7.796875 -69.265625 7.796875 -70.984375 Z M 7.796875 -70.984375 "/></g></g></g><g fill="#000000" fill-opacity="1"><g transform="translate(1060.978652, 581.624927)"><g><path d="M 32.15625 -55.6875 C 39.195312 -55.6875 45.015625 -53.285156 49.609375 -48.484375 C 54.210938 -43.679688 56.515625 -37.082031 56.515625 -28.6875 C 56.515625 -23.320312 55.59375 -18.597656 53.75 -14.515625 C 51.914062 -10.441406 49.519531 -7.285156 46.5625 -5.046875 C 40.882812 -0.722656 34.546875 1.4375 27.546875 1.4375 C 20.546875 1.4375 14.742188 -0.957031 10.140625 -5.75 C 5.535156 -10.550781 3.234375 -17.15625 3.234375 -25.5625 C 3.234375 -30.914062 4.132812 -35.632812 5.9375 -39.71875 C 7.738281 -43.800781 10.117188 -46.960938 13.078125 -49.203125 C 18.753906 -53.523438 25.113281 -55.6875 32.15625 -55.6875 Z M 29.765625 -2.640625 C 33.285156 -2.640625 36.285156 -4 38.765625 -6.71875 C 43.242188 -11.519531 45.484375 -17.898438 45.484375 -25.859375 C 45.484375 -33.816406 44.117188 -40.015625 41.390625 -44.453125 C 38.671875 -48.898438 34.234375 -51.125 28.078125 -51.125 C 23.515625 -49.363281 20.050781 -46.257812 17.6875 -41.8125 C 15.332031 -37.375 14.15625 -32.015625 14.15625 -25.734375 C 14.15625 -19.453125 15.4375 -14.03125 18 -9.46875 C 20.5625 -4.914062 24.484375 -2.640625 29.765625 -2.640625 Z M 29.765625 -2.640625 "/></g></g></g><g fill="#000000" fill-opacity="1"><g transform="translate(1120.978692, 581.624927)"><g><path d="M 19.4375 -46.5625 C 22.800781 -49.757812 25.742188 -52.078125 28.265625 -53.515625 C 30.785156 -54.960938 33.765625 -55.6875 37.203125 -55.6875 C 40.640625 -55.6875 43.816406 -54.320312 46.734375 -51.59375 C 49.660156 -48.875 51.125 -44.195312 51.125 -37.5625 L 51.125 0 L 40.921875 0 L 40.921875 -36.359375 C 40.921875 -40.273438 40.21875 -43.210938 38.8125 -45.171875 C 37.414062 -47.140625 35.015625 -48.125 31.609375 -48.125 C 28.210938 -48.125 24.273438 -45.882812 19.796875 -41.40625 L 19.796875 0 L 9.59375 0 L 9.59375 -37.6875 C 9.59375 -43.125 7.554688 -47.484375 3.484375 -50.765625 L 9.59375 -55.3125 Z M 19.4375 -46.5625 "/></g></g></g><g fill="#000000" fill-opacity="1"><g transform="translate(1180.978732, 581.624927)"><g><path d="M 12.59375 -29.515625 C 12.59375 -20.878906 14.53125 -14.660156 18.40625 -10.859375 C 22.289062 -7.054688 27.015625 -5.15625 32.578125 -5.15625 C 38.140625 -5.15625 43.28125 -6.238281 48 -8.40625 L 48 -4.203125 C 41.4375 -0.441406 35.15625 1.4375 29.15625 1.4375 C 21.394531 1.4375 15.113281 -0.921875 10.3125 -5.640625 C 5.519531 -10.359375 3.125 -17.195312 3.125 -26.15625 C 3.125 -35.113281 5.78125 -42.273438 11.09375 -47.640625 C 16.414062 -53.003906 22.835938 -55.6875 30.359375 -55.6875 C 36.203125 -55.6875 41.082031 -53.382812 45 -48.78125 C 48.914062 -44.175781 50.875 -37.753906 50.875 -29.515625 Z M 24.234375 -50.046875 C 21.441406 -48.679688 19.046875 -46.5 17.046875 -43.5 C 15.046875 -40.5 13.722656 -37.039062 13.078125 -33.125 L 41.15625 -33.125 C 40.914062 -36.476562 40.132812 -39.351562 38.8125 -41.75 C 37.5 -44.15625 35.921875 -45.921875 34.078125 -47.046875 C 30.796875 -49.046875 27.515625 -50.046875 24.234375 -50.046875 Z M 24.234375 -50.046875 "/></g></g></g><g fill="#000000" fill-opacity="1"><g transform="translate(1237.258756, 581.624927)"><g><path d="M 19.4375 -46.5625 C 22.800781 -49.757812 25.742188 -52.078125 28.265625 -53.515625 C 30.785156 -54.960938 33.765625 -55.6875 37.203125 -55.6875 C 40.640625 -55.6875 43.816406 -54.320312 46.734375 -51.59375 C 49.660156 -48.875 51.125 -44.195312 51.125 -37.5625 L 51.125 0 L 40.921875 0 L 40.921875 -36.359375 C 40.921875 -40.273438 40.21875 -43.210938 38.8125 -45.171875 C 37.414062 -47.140625 35.015625 -48.125 31.609375 -48.125 C 28.210938 -48.125 24.273438 -45.882812 19.796875 -41.40625 L 19.796875 0 L 9.59375 0 L 9.59375 -37.6875 C 9.59375 -43.125 7.554688 -47.484375 3.484375 -50.765625 L 9.59375 -55.3125 Z M 19.4375 -46.5625 "/></g></g></g><g fill="#000000" fill-opacity="1"><g transform="translate(1297.257923, 581.624927)"><g/></g></g></svg>