<svg xmlns="http://www.w3.org/2000/svg" xmlns:xlink="http://www.w3.org/1999/xlink" width="2560" zoomAndPan="magnify" viewBox="0 0 1920 1079.999946" height="1440" preserveAspectRatio="xMidYMid meet" version="1.0"><defs><g/><clipPath id="e7ad3b105a"><path d="M 1257 559 L 1297 559 L 1297 598.820312 L 1257 598.820312 Z M 1257 559 " clip-rule="nonzero"/></clipPath><clipPath id="7bc1f304d1"><path d="M 1371 559 L 1411 559 L 1411 598.820312 L 1371 598.820312 Z M 1371 559 " clip-rule="nonzero"/></clipPath><clipPath id="bd0a60faa3"><path d="M 1226.597656 500.570312 L 1435 500.570312 L 1435 583 L 1226.597656 583 Z M 1226.597656 500.570312 " clip-rule="nonzero"/></clipPath><clipPath id="2a11b1d8f3"><path d="M 1012 626.777344 L 1291 626.777344 L 1291 737 L 1012 737 Z M 1012 626.777344 " clip-rule="nonzero"/></clipPath><clipPath id="1a8d36461a"><path d="M 1020.027344 345.308594 L 1206.777344 345.308594 L 1206.777344 452.558594 L 1020.027344 452.558594 Z M 1020.027344 345.308594 " clip-rule="nonzero"/></clipPath></defs><rect x="-192" width="2304" fill="#ffffff" y="-107.999995" height="1295.999935" fill-opacity="1"/><rect x="-192" width="2304" fill="#97b0b0" y="-107.999995" height="1295.999935" fill-opacity="1"/><g fill="#000000" fill-opacity="1"><g transform="translate(761.640784, 581.625167)"><g><path d="M 1.203125 0 L 36.84375 -81.359375 L 38.640625 -81.359375 L 74.28125 0 L 61.203125 0 L 52.203125 -21.59375 L 16.5625 -21.59375 L 7.6875 0 Z M 18.359375 -26.15625 L 50.28125 -26.15625 L 34.4375 -65.046875 Z M 18.359375 -26.15625 "/></g></g></g><g fill="#000000" fill-opacity="1"><g transform="translate(837.120822, 581.625167)"><g><path d="M 19.4375 -46.5625 C 22.800781 -49.757812 25.742188 -52.078125 28.265625 -53.515625 C 30.785156 -54.960938 33.765625 -55.6875 37.203125 -55.6875 C 40.640625 -55.6875 43.816406 -54.320312 46.734375 -51.59375 C 49.660156 -48.875 51.125 -44.195312 51.125 -37.5625 L 51.125 0 L 40.921875 0 L 40.921875 -36.359375 C 40.921875 -40.273438 40.21875 -43.210938 38.8125 -45.171875 C 37.414062 -47.140625 35.015625 -48.125 31.609375 -48.125 C 28.210938 -48.125 24.273438 -45.882812 19.796875 -41.40625 L 19.796875 0 L 9.59375 0 L 9.59375 -37.6875 C 9.59375 -43.125 7.554688 -47.484375 3.484375 -50.765625 L 9.59375 -55.3125 Z M 19.4375 -46.5625 "/></g></g></g><g fill="#000000" fill-opacity="1"><g transform="translate(897.120851, 581.625167)"><g><path d="M 36.953125 -54.234375 L 36.953125 -49.921875 L 22.4375 -49.921875 L 22.4375 0 L 12.359375 0 L 12.359375 -49.921875 L 2.515625 -51.84375 L 2.515625 -54.234375 L 12.484375 -54.234375 C 12.960938 -62.710938 15.21875 -69.632812 19.25 -75 C 23.289062 -80.363281 28.753906 -83.046875 35.640625 -83.046875 C 37.878906 -83.046875 40.921875 -82.5625 44.765625 -81.59375 L 43.5625 -73.796875 C 41.800781 -74.753906 39.539062 -75.59375 36.78125 -76.3125 C 34.019531 -77.039062 31.921875 -77.40625 30.484375 -77.40625 C 27.765625 -76.039062 25.785156 -73 24.546875 -68.28125 C 23.304688 -63.5625 22.601562 -58.878906 22.4375 -54.234375 Z M 36.953125 -54.234375 "/></g></g></g><g fill="#000000" fill-opacity="1"><g transform="translate(937.080869, 581.625167)"><g><path d="M 34.203125 -12.71875 L 34.203125 -25.078125 C 28.441406 -24.679688 23.71875 -23.398438 20.03125 -21.234375 C 16.351562 -19.078125 14.515625 -16.757812 14.515625 -14.28125 C 14.515625 -11.800781 15.15625 -9.660156 16.4375 -7.859375 C 17.71875 -6.054688 19.359375 -4.796875 21.359375 -4.078125 C 23.992188 -4.554688 26.789062 -5.875 29.75 -8.03125 C 32.71875 -10.195312 34.203125 -11.757812 34.203125 -12.71875 Z M 44.046875 -15.953125 C 44.046875 -10.273438 46.125 -5.957031 50.28125 -3 L 44.046875 1.5625 L 34.3125 -7.203125 C 28 -1.441406 22.160156 1.4375 16.796875 1.4375 C 13.273438 1.4375 10.253906 0.316406 7.734375 -1.921875 C 5.210938 -4.160156 3.953125 -6.976562 3.953125 -10.375 C 3.953125 -13.78125 4.972656 -16.601562 7.015625 -18.84375 C 9.054688 -21.082031 11.757812 -22.800781 15.125 -24 C 20.882812 -26.15625 27.242188 -27.515625 34.203125 -28.078125 L 34.203125 -39.359375 C 34.203125 -45.992188 30.363281 -49.3125 22.6875 -49.3125 C 18.28125 -49.3125 13.078125 -48.351562 7.078125 -46.4375 L 6 -49.4375 C 7.601562 -50.71875 10.382812 -52.078125 14.34375 -53.515625 C 18.300781 -54.960938 22.078125 -55.6875 25.671875 -55.6875 C 29.273438 -55.6875 32.296875 -55.203125 34.734375 -54.234375 C 37.179688 -53.273438 38.984375 -52.195312 40.140625 -51 C 41.296875 -49.800781 42.191406 -48.160156 42.828125 -46.078125 C 43.472656 -43.992188 43.835938 -42.351562 43.921875 -41.15625 C 44.003906 -39.957031 44.046875 -38.359375 44.046875 -36.359375 Z M 44.046875 -15.953125 "/></g></g></g><g fill="#000000" fill-opacity="1"><g transform="translate(990.360894, 581.625167)"><g><path d="M 37.6875 -55.4375 C 41.363281 -55.4375 44.640625 -54.078125 47.515625 -51.359375 C 50.398438 -48.640625 51.84375 -43.957031 51.84375 -37.3125 L 51.84375 0 L 41.765625 0 L 41.765625 -36.125 C 41.765625 -40.039062 41.0625 -42.976562 39.65625 -44.9375 C 38.257812 -46.894531 35.582031 -47.875 31.625 -47.875 C 27.664062 -47.875 23.523438 -45.753906 19.203125 -41.515625 L 19.203125 0 L 9.125 0 L 9.125 -81.953125 L 18.84375 -81.953125 L 18.84375 -46.5625 C 25.15625 -52.476562 31.4375 -55.4375 37.6875 -55.4375 Z M 37.6875 -55.4375 "/></g></g></g><g fill="#000000" fill-opacity="1"><g transform="translate(1050.72092, 581.625167)"><g><path d="M 17.765625 0 L 7.6875 0 L 7.6875 -54.234375 L 14.640625 -54.234375 L 17.40625 -44.15625 C 19 -46.957031 21.535156 -49.597656 25.015625 -52.078125 C 28.492188 -54.554688 32.078125 -56.078125 35.765625 -56.640625 L 36.953125 -48.359375 C 33.992188 -48.359375 30.65625 -47.4375 26.9375 -45.59375 C 23.21875 -43.757812 20.160156 -41.722656 17.765625 -39.484375 Z M 17.765625 0 "/></g></g></g><g fill="#000000" fill-opacity="1"><g transform="translate(1088.880943, 581.625167)"><g><path d="M 21 -10.5625 C 21 -8.15625 21.476562 -6.351562 22.4375 -5.15625 C 23.394531 -3.957031 24.992188 -3.359375 27.234375 -3.359375 C 29.472656 -3.359375 32.15625 -3.957031 35.28125 -5.15625 L 35.28125 -1.796875 C 30.632812 0.359375 26.472656 1.4375 22.796875 1.4375 C 19.117188 1.4375 16.21875 0.414062 14.09375 -1.625 C 11.976562 -3.664062 10.921875 -6.84375 10.921875 -11.15625 L 10.921875 -49.921875 L 1.203125 -51.84375 L 1.203125 -54.234375 L 10.921875 -54.234375 L 10.921875 -58.5625 L 21 -65.875 L 21 -54.234375 L 35.28125 -54.234375 L 35.28125 -49.921875 L 21 -49.921875 Z M 21 -10.5625 "/></g></g></g><g fill="#000000" fill-opacity="1"><g transform="translate(1128.355598, 581.625167)"><g/></g></g><g clip-path="url(#e7ad3b105a)"><path fill="#336666" d="M 1276.953125 559.570312 C 1266.195312 559.570312 1257.398438 568.386719 1257.398438 579.160156 C 1257.398438 589.929688 1266.195312 598.746094 1276.953125 598.746094 C 1287.707031 598.746094 1296.507812 589.929688 1296.507812 579.160156 C 1296.507812 568.386719 1287.707031 559.570312 1276.953125 559.570312 Z M 1276.953125 592.214844 C 1269.78125 592.214844 1263.914062 586.339844 1263.914062 579.160156 C 1263.914062 571.976562 1269.78125 566.101562 1276.953125 566.101562 C 1284.125 566.101562 1289.988281 571.976562 1289.988281 579.160156 C 1289.988281 586.339844 1284.125 592.214844 1276.953125 592.214844 Z M 1276.953125 592.214844 " fill-opacity="1" fill-rule="nonzero"/></g><g clip-path="url(#7bc1f304d1)"><path fill="#336666" d="M 1391.03125 559.570312 C 1380.273438 559.570312 1371.472656 568.386719 1371.472656 579.160156 C 1371.472656 589.929688 1380.273438 598.746094 1391.03125 598.746094 C 1401.785156 598.746094 1410.585938 589.929688 1410.585938 579.160156 C 1410.585938 568.386719 1401.785156 559.570312 1391.03125 559.570312 Z M 1391.03125 592.214844 C 1383.859375 592.214844 1377.992188 586.339844 1377.992188 579.160156 C 1377.992188 571.976562 1383.859375 566.101562 1391.03125 566.101562 C 1398.199219 566.101562 1404.066406 571.976562 1404.066406 579.160156 C 1404.066406 586.339844 1398.199219 592.214844 1391.03125 592.214844 Z M 1391.03125 592.214844 " fill-opacity="1" fill-rule="nonzero"/></g><path fill="#336666" d="M 1342.140625 533.453125 L 1342.140625 517.128906 C 1342.140625 515.335938 1340.671875 513.867188 1338.878906 513.867188 L 1323.398438 513.867188 C 1313.132812 513.539062 1300.257812 529.535156 1298.789062 531.496094 C 1297.976562 532.472656 1297.8125 533.78125 1298.464844 534.921875 C 1298.953125 536.066406 1300.09375 536.71875 1301.398438 536.71875 L 1338.878906 536.71875 C 1340.671875 536.71875 1342.140625 535.25 1342.140625 533.453125 Z M 1335.621094 530.1875 L 1308.570312 530.1875 C 1313.457031 525.128906 1319.488281 520.230469 1323.398438 520.394531 L 1335.621094 520.394531 Z M 1335.621094 530.1875 " fill-opacity="1" fill-rule="nonzero"/><path fill="#336666" d="M 1387.769531 536.71875 C 1389.074219 536.71875 1390.378906 535.902344 1390.867188 534.597656 C 1391.355469 533.289062 1390.867188 531.820312 1389.890625 531.003906 C 1387.117188 528.71875 1385 526.109375 1382.554688 523.167969 C 1381.578125 522.027344 1380.761719 521.046875 1379.785156 519.90625 C 1376.363281 515.988281 1371.148438 513.867188 1364.464844 513.867188 L 1351.917969 513.867188 C 1350.125 513.867188 1348.660156 515.335938 1348.660156 517.128906 L 1348.660156 533.453125 C 1348.660156 535.25 1350.125 536.71875 1351.917969 536.71875 Z M 1355.175781 520.394531 L 1364.464844 520.394531 C 1367.726562 520.394531 1372.125 521.046875 1374.894531 524.3125 C 1375.710938 525.292969 1376.6875 526.433594 1377.503906 527.414062 C 1378.320312 528.394531 1379.132812 529.371094 1379.949219 530.1875 L 1355.175781 530.1875 Z M 1355.175781 520.394531 " fill-opacity="1" fill-rule="nonzero"/><path fill="#336666" d="M 1303.027344 575.894531 C 1303.191406 577.035156 1303.191406 578.015625 1303.191406 579.160156 C 1303.191406 580.300781 1303.027344 581.28125 1303.027344 582.421875 L 1364.957031 582.421875 C 1364.792969 581.28125 1364.792969 580.300781 1364.792969 579.160156 C 1364.792969 578.015625 1364.957031 577.035156 1364.957031 575.894531 Z M 1303.027344 575.894531 " fill-opacity="1" fill-rule="nonzero"/><g clip-path="url(#bd0a60faa3)"><path fill="#336666" d="M 1433.890625 568.222656 C 1433.890625 568.058594 1433.726562 567.894531 1433.726562 567.894531 C 1429.980469 559.082031 1431.445312 541.125 1431.609375 540.960938 C 1431.609375 540.796875 1431.609375 540.636719 1431.609375 540.472656 C 1430.957031 531.984375 1421.503906 530.679688 1415.476562 529.863281 C 1413.195312 529.535156 1410.910156 529.210938 1409.609375 528.71875 C 1403.089844 526.109375 1396.734375 520.558594 1392.332031 513.703125 C 1383.859375 500.644531 1368.378906 500.808594 1367.726562 500.808594 L 1319.488281 500.808594 C 1319.488281 500.808594 1319.324219 500.808594 1319.160156 500.808594 C 1305.796875 501.785156 1292.761719 516.640625 1291.292969 518.4375 C 1278.257812 531.332031 1261.308594 532.800781 1261.144531 532.800781 C 1248.921875 533.78125 1237.675781 538.023438 1232.953125 541.613281 C 1229.367188 544.390625 1226.921875 548.632812 1226.597656 553.203125 C 1226.597656 553.367188 1226.597656 553.367188 1226.597656 553.53125 C 1226.597656 554.019531 1226.597656 559.898438 1226.597656 566.101562 C 1226.597656 570.996094 1226.597656 576.058594 1226.597656 579.160156 C 1226.597656 580.953125 1228.0625 582.421875 1229.855469 582.421875 L 1251.203125 582.421875 C 1251.042969 581.28125 1251.042969 580.300781 1251.042969 579.160156 C 1251.042969 578.015625 1251.203125 577.035156 1251.203125 575.894531 L 1232.953125 575.894531 C 1232.953125 573.933594 1232.953125 571.648438 1232.953125 569.363281 L 1236.210938 569.363281 C 1238.003906 569.363281 1239.46875 567.894531 1239.46875 566.101562 C 1239.46875 564.304688 1238.003906 562.835938 1236.210938 562.835938 L 1232.953125 562.835938 C 1232.953125 558.265625 1232.953125 554.511719 1232.953125 553.695312 C 1233.277344 550.917969 1234.582031 548.46875 1236.863281 546.839844 C 1240.121094 544.226562 1250.0625 540.308594 1261.796875 539.328125 C 1262.613281 539.328125 1281.351562 537.535156 1296.183594 523.007812 C 1296.183594 523.007812 1296.347656 522.84375 1296.347656 522.84375 C 1299.605469 518.761719 1310.359375 508.316406 1319.648438 507.5 L 1367.886719 507.5 C 1368.050781 507.5 1380.4375 507.335938 1386.957031 517.292969 C 1392.171875 525.128906 1399.503906 531.496094 1407.164062 534.757812 C 1409.121094 535.574219 1411.726562 535.902344 1414.496094 536.390625 C 1420.363281 537.207031 1424.601562 538.023438 1425.089844 540.960938 C 1425.089844 541.777344 1424.925781 543.898438 1424.765625 546.839844 L 1421.992188 546.839844 C 1420.199219 546.839844 1418.734375 548.308594 1418.734375 550.101562 C 1418.734375 551.898438 1420.199219 553.367188 1421.992188 553.367188 L 1424.765625 553.367188 C 1424.925781 559.082031 1425.742188 565.609375 1427.535156 570.507812 C 1427.859375 572.140625 1428.347656 574.425781 1428.347656 576.21875 L 1416.777344 576.21875 C 1416.941406 577.363281 1416.941406 578.34375 1416.941406 579.484375 C 1416.941406 580.628906 1416.777344 581.605469 1416.777344 582.75 L 1431.28125 582.75 C 1432.75 582.75 1433.890625 581.769531 1434.378906 580.464844 C 1435.847656 576.058594 1434.214844 569.527344 1433.890625 568.222656 Z M 1433.890625 568.222656 " fill-opacity="1" fill-rule="nonzero"/></g><g clip-path="url(#2a11b1d8f3)"><path fill="#336666" d="M 1237.320312 632.023438 L 1239.074219 634.695312 L 1158.21875 634.695312 L 1160 632.023438 Z M 1263.761719 708.476562 L 1263.761719 702.835938 L 1272.609375 702.835938 L 1273.273438 708.503906 Z M 1263.761719 697.488281 L 1263.761719 656.796875 L 1267.960938 656.796875 L 1267.960938 664 C 1267.960938 664.101562 1267.960938 664.199219 1267.960938 664.296875 L 1271.917969 697.464844 Z M 1244.089844 656.796875 L 1258.449219 656.796875 L 1258.449219 719.171875 L 1244.066406 719.171875 Z M 1224.421875 656.796875 L 1238.753906 656.796875 L 1238.753906 719.171875 L 1224.421875 719.171875 Z M 1017.664062 716.621094 L 1017.664062 706.375 C 1019.738281 707.414062 1021.046875 709.515625 1021.074219 711.820312 L 1021.074219 716.867188 Z M 1017.664062 692.734375 L 1017.664062 689.34375 L 1019.367188 689.34375 C 1020.304688 689.34375 1021.074219 690.089844 1021.074219 691.027344 C 1021.074219 691.96875 1020.304688 692.734375 1019.367188 692.734375 Z M 1064.34375 716.917969 C 1064.367188 713.15625 1065.875 709.589844 1068.542969 706.96875 C 1071.210938 704.34375 1074.792969 702.882812 1078.527344 702.910156 C 1082.257812 702.933594 1085.816406 704.417969 1088.460938 707.089844 C 1091.078125 709.738281 1092.5625 713.328125 1092.539062 717.066406 C 1092.539062 720.804688 1091.054688 724.394531 1088.410156 727.039062 C 1085.742188 729.664062 1082.183594 731.148438 1078.453125 731.148438 C 1074.695312 731.148438 1071.089844 729.664062 1068.445312 726.992188 C 1065.800781 724.34375 1064.316406 720.730469 1064.34375 716.96875 Z M 1074.425781 656.796875 L 1106.523438 656.796875 L 1106.523438 688.378906 L 1074.425781 688.378906 Z M 1037.085938 688.378906 L 1037.085938 656.796875 L 1069.109375 656.796875 L 1069.109375 688.378906 Z M 1208.65625 656.796875 L 1208.65625 688.378906 L 1176.554688 688.378906 L 1176.554688 656.796875 Z M 1139.144531 656.796875 L 1171.21875 656.796875 L 1171.21875 688.378906 L 1139.144531 688.378906 Z M 1111.960938 719.21875 L 1111.960938 656.796875 L 1133.929688 656.796875 L 1133.929688 719.171875 Z M 1196.101562 697.539062 C 1190.566406 697.539062 1185.304688 699.914062 1181.621094 704.046875 C 1177.9375 708.207031 1176.210938 713.726562 1176.851562 719.21875 L 1139.144531 719.21875 L 1139.144531 693.703125 L 1211.273438 693.703125 C 1211.964844 693.703125 1212.660156 693.429688 1213.152344 692.910156 C 1213.671875 692.414062 1213.917969 691.746094 1213.917969 691.027344 L 1213.917969 654.199219 C 1213.917969 652.738281 1212.734375 651.550781 1211.273438 651.550781 L 1034.367188 651.550781 C 1032.910156 651.550781 1031.722656 652.738281 1031.722656 654.199219 L 1031.722656 691.078125 C 1031.722656 692.539062 1032.910156 693.726562 1034.367188 693.726562 L 1106.523438 693.726562 L 1106.523438 719.171875 L 1097.703125 719.171875 C 1098.296875 713.699219 1096.515625 708.230469 1092.832031 704.121094 C 1089.175781 700.039062 1083.9375 697.6875 1078.425781 697.6875 C 1072.917969 697.6875 1067.703125 700.039062 1064.019531 704.121094 C 1060.339844 708.230469 1058.558594 713.699219 1059.152344 719.171875 L 1058.734375 719.171875 L 1026.261719 717.191406 L 1026.261719 711.792969 C 1026.261719 709.246094 1025.398438 706.769531 1023.816406 704.742188 C 1022.234375 702.734375 1020.035156 701.324219 1017.539062 700.730469 L 1017.539062 698.105469 L 1019.242188 698.105469 C 1023.125 698.105469 1026.261719 694.964844 1026.261719 691.078125 C 1026.261719 687.191406 1023.125 684.046875 1019.242188 684.046875 L 1017.664062 684.046875 L 1017.664062 640.339844 L 1267.960938 640.339844 L 1267.960938 651.550781 L 1221.753906 651.550781 C 1220.292969 651.550781 1219.109375 652.738281 1219.109375 654.199219 L 1219.109375 719.269531 L 1215.277344 719.269531 C 1215.894531 713.75 1214.164062 708.230469 1210.484375 704.097656 C 1206.800781 699.9375 1201.539062 697.585938 1196.003906 697.585938 Z M 1182.015625 716.96875 C 1182.042969 713.230469 1183.523438 709.617188 1186.191406 706.992188 C 1188.863281 704.34375 1192.445312 702.882812 1196.199219 702.910156 C 1199.957031 702.933594 1203.515625 704.445312 1206.160156 707.117188 C 1208.777344 709.789062 1210.238281 713.378906 1210.238281 717.140625 C 1210.210938 720.878906 1208.679688 724.46875 1206.011719 727.089844 C 1203.34375 729.738281 1199.734375 731.199219 1196.003906 731.148438 C 1192.246094 731.148438 1188.664062 729.640625 1186.019531 726.992188 C 1183.375 724.316406 1181.894531 720.730469 1181.917969 716.96875 Z M 1276.09375 719.171875 L 1263.710938 719.171875 L 1263.710938 713.847656 L 1283.480469 713.847656 C 1282.9375 715.40625 1281.925781 716.746094 1280.589844 717.710938 C 1279.230469 718.652344 1277.625 719.171875 1275.96875 719.171875 Z M 1285.359375 668.183594 C 1284 667.640625 1282.8125 666.699219 1281.972656 665.484375 C 1281.132812 664.25 1280.6875 662.8125 1280.714844 661.328125 L 1280.714844 651.550781 L 1285.359375 651.550781 Z M 1288.027344 646.203125 L 1273.273438 646.203125 L 1273.273438 637.664062 C 1273.273438 636.179688 1272.089844 634.992188 1270.632812 634.992188 L 1245.597656 634.992188 L 1240.929688 627.964844 C 1240.433594 627.222656 1239.59375 626.777344 1238.703125 626.800781 L 1158.566406 626.800781 C 1157.675781 626.777344 1156.835938 627.222656 1156.339844 627.964844 L 1151.722656 635.117188 L 1015.019531 635.117188 C 1013.535156 635.117188 1012.347656 636.328125 1012.347656 637.789062 L 1012.347656 719.269531 C 1012.375 720.65625 1013.460938 721.769531 1014.84375 721.867188 L 1058.734375 724.46875 L 1060.660156 724.46875 C 1062.636719 729.195312 1066.417969 732.957031 1071.136719 734.910156 C 1075.882812 736.890625 1081.21875 736.890625 1085.964844 734.910156 C 1090.683594 732.957031 1094.464844 729.195312 1096.441406 724.46875 L 1178.136719 724.46875 C 1180.113281 729.195312 1183.871094 732.957031 1188.613281 734.910156 C 1193.335938 736.890625 1198.671875 736.890625 1203.417969 734.910156 C 1208.160156 732.957031 1211.917969 729.195312 1213.894531 724.46875 L 1277.527344 724.46875 C 1277.921875 724.46875 1278.316406 724.367188 1278.6875 724.195312 C 1281.703125 723.550781 1284.371094 721.917969 1286.296875 719.542969 C 1288.226562 717.164062 1289.289062 714.195312 1289.289062 711.125 C 1289.289062 709.664062 1288.078125 708.476562 1286.621094 708.476562 L 1278.613281 708.476562 L 1273.25 663.875 L 1273.25 651.476562 L 1275.398438 651.476562 L 1275.398438 661.277344 C 1275.398438 664.621094 1276.710938 667.835938 1279.082031 670.214844 C 1281.453125 672.589844 1284.667969 673.949219 1288.050781 673.949219 C 1288.746094 673.949219 1289.410156 673.652344 1289.929688 673.160156 C 1290.425781 672.664062 1290.695312 671.96875 1290.695312 671.277344 L 1290.695312 648.878906 C 1290.695312 647.417969 1289.511719 646.203125 1288.050781 646.203125 L 1288.027344 646.203125 " fill-opacity="1" fill-rule="nonzero"/></g><path fill="#336666" d="M 1200.996094 716.96875 C 1201.070312 714.914062 1199.882812 713.03125 1197.980469 712.191406 C 1196.101562 711.375 1193.925781 711.769531 1192.445312 713.207031 C 1190.960938 714.640625 1190.515625 716.820312 1191.285156 718.726562 C 1192.074219 720.628906 1193.953125 721.867188 1196.003906 721.867188 C 1198.722656 721.84375 1200.921875 719.691406 1200.996094 716.96875 " fill-opacity="1" fill-rule="nonzero"/><path fill="#336666" d="M 1083.46875 716.96875 C 1083.542969 714.914062 1082.355469 713.03125 1080.476562 712.191406 C 1078.601562 711.375 1076.402344 711.769531 1074.941406 713.179688 C 1073.460938 714.617188 1072.992188 716.792969 1073.757812 718.699219 C 1074.546875 720.605469 1076.375 721.867188 1078.453125 721.867188 C 1081.171875 721.867188 1083.394531 719.691406 1083.46875 716.96875 " fill-opacity="1" fill-rule="nonzero"/><g clip-path="url(#1a8d36461a)"><path fill="#336666" d="M 1084.535156 418.925781 L 1060.089844 414.972656 L 1075.496094 395.144531 C 1083.480469 402.042969 1084.476562 410.324219 1084.535156 418.925781 Z M 1091.257812 420.375 C 1091.296875 419.515625 1091.4375 418.136719 1091.4375 417.167969 C 1091.4375 407.355469 1088.234375 397.824219 1079.539062 389.898438 L 1088.59375 379.15625 L 1102.609375 421.515625 Z M 1145.054688 378.21875 L 1144.277344 375.859375 L 1094.359375 375.796875 L 1107.636719 415.675781 L 1108.210938 411.515625 L 1106.683594 411.515625 L 1106.875 408.867188 L 1113.554688 408.867188 L 1113.363281 411.328125 L 1111.644531 411.328125 L 1111.265625 415.867188 C 1111.265625 415.867188 1144.863281 378.402344 1145.050781 378.214844 Z M 1167.160156 416.527344 C 1160.457031 411.253906 1155.242188 406.226562 1151.476562 396.164062 C 1145.539062 401.5 1142.152344 409.222656 1142.152344 417.167969 C 1142.152344 432.941406 1155.136719 445.808594 1171.0625 445.808594 C 1186.984375 445.808594 1199.972656 432.941406 1199.972656 417.167969 C 1199.972656 401.390625 1186.984375 388.523438 1171.0625 388.523438 C 1165.980469 388.523438 1160.785156 389.976562 1156.597656 392.425781 C 1159.433594 401.304688 1162.191406 405.882812 1170.914062 412.839844 C 1173.03125 412.929688 1174.644531 414.613281 1174.644531 416.625 C 1174.644531 418.707031 1172.929688 420.40625 1170.824219 420.40625 C 1168.722656 420.40625 1167.160156 418.707031 1167.160156 416.527344 Z M 1083.515625 425.011719 C 1080.242188 437.082031 1068.609375 445.8125 1055.734375 445.8125 C 1039.8125 445.8125 1026.824219 432.945312 1026.824219 417.167969 C 1026.824219 401.390625 1039.8125 388.523438 1055.734375 388.523438 C 1060.820312 388.523438 1066.699219 389.710938 1070.988281 392.199219 L 1055.296875 412.839844 C 1053.378906 412.871094 1051.707031 414.570312 1051.707031 416.625 C 1051.707031 418.707031 1053.421875 420.40625 1055.523438 420.40625 C 1056.105469 420.40625 1056.71875 420.257812 1057.234375 420.015625 Z M 1154.535156 385.796875 L 1144.292969 357.804688 L 1147.539062 352.316406 L 1141.046875 345.320312 L 1127.113281 345.320312 L 1126.921875 349.292969 L 1139.140625 349.292969 L 1141.621094 351.941406 L 1138.757812 357.046875 L 1142.359375 369.691406 L 1092.347656 369.691406 L 1091.585938 367.378906 C 1095.605469 366.859375 1102.535156 364.40625 1104.191406 362.980469 C 1105.847656 361.554688 1104.398438 360.246094 1102.511719 360.183594 C 1092.640625 359.769531 1077.976562 358.949219 1075.191406 358.9375 C 1072.40625 358.925781 1072.121094 360.3125 1073.984375 362.335938 C 1075.847656 364.355469 1077.480469 366.175781 1084.542969 367.257812 L 1086.453125 372.367188 L 1074.617188 386.890625 C 1069.039062 383.535156 1062.292969 381.789062 1055.738281 381.789062 C 1036.074219 381.789062 1020.035156 397.679688 1020.035156 417.164062 C 1020.035156 436.648438 1036.074219 452.539062 1055.738281 452.539062 C 1071.917969 452.539062 1086.144531 441.484375 1090.324219 426.207031 L 1101.199219 428.144531 C 1101.664062 429.414062 1102.75 430.386719 1104.046875 431.148438 L 1102.105469 440.265625 L 1099.625 440.265625 L 1099.433594 442.722656 L 1107.261719 443.101562 L 1107.261719 440.453125 L 1105.351562 440.453125 L 1107.714844 431.34375 C 1111.234375 430.773438 1113.078125 427.789062 1112.03125 424.828125 L 1147.554688 385.023438 L 1149.144531 389.292969 C 1140.523438 396.023438 1135.363281 406.386719 1135.363281 417.164062 C 1135.363281 436.648438 1151.402344 452.539062 1171.066406 452.539062 C 1190.734375 452.539062 1206.773438 436.648438 1206.773438 417.164062 C 1206.773438 397.679688 1190.734375 381.789062 1171.066406 381.789062 C 1165.347656 381.789062 1159.492188 383.171875 1154.535156 385.792969 Z M 1154.535156 385.796875 " fill-opacity="1" fill-rule="evenodd"/></g></svg>