<svg xmlns="http://www.w3.org/2000/svg" xmlns:xlink="http://www.w3.org/1999/xlink" width="2560" zoomAndPan="magnify" viewBox="0 0 1920 1079.999946" height="1440" preserveAspectRatio="xMidYMid meet" version="1.0"><defs><g/><clipPath id="dd8e6b2b32"><path d="M 1276.15625 416.007812 L 1582.90625 416.007812 L 1582.90625 664.257812 L 1276.15625 664.257812 Z M 1276.15625 416.007812 " clip-rule="nonzero"/></clipPath></defs><rect x="-192" width="2304" fill="#ffffff" y="-107.999995" height="1295.999935" fill-opacity="1"/><rect x="-192" width="2304" fill="#97b0b0" y="-107.999995" height="1295.999935" fill-opacity="1"/><g clip-path="url(#dd8e6b2b32)"><path fill="#336666" d="M 1286.488281 425.933594 C 1285.664062 425.207031 1284.820312 424.480469 1283.964844 423.773438 C 1283.964844 426.558594 1284.003906 430.832031 1284.09375 436.617188 C 1284.09375 437.652344 1284.121094 438.359375 1284.121094 438.539062 L 1284.121094 445.746094 C 1284.132812 450.574219 1284.132812 455.394531 1284.121094 460.191406 C 1284.121094 462.273438 1283.84375 464.136719 1283.566406 465.9375 C 1283.195312 468.527344 1282.878906 470.753906 1283.375 473.164062 C 1284.210938 477.347656 1284.171875 481.121094 1284.132812 485.121094 C 1284.121094 485.988281 1284.121094 486.863281 1284.121094 487.75 L 1284.121094 541.414062 C 1284.121094 544.042969 1283.804688 546.671875 1283.503906 549.21875 C 1283.058594 552.933594 1282.648438 556.449219 1283.175781 559.722656 C 1283.882812 564.304688 1283.503906 568.714844 1283.15625 572.984375 C 1282.867188 576.539062 1282.570312 579.863281 1282.898438 583.199219 C 1283.476562 589.0625 1284.121094 596.898438 1284.121094 605.363281 L 1284.121094 656.007812 C 1284.667969 655.542969 1285.195312 655.054688 1285.722656 654.585938 C 1285.742188 654.554688 1285.765625 654.546875 1285.785156 654.527344 C 1285.484375 653.898438 1285.644531 653.132812 1286.230469 652.722656 C 1286.269531 652.683594 1286.332031 652.644531 1286.371094 652.605469 L 1286.371094 601.679688 C 1286.371094 593.882812 1285.765625 586.636719 1285.238281 581.179688 C 1284.878906 577.675781 1285.175781 574.171875 1285.464844 570.792969 C 1285.804688 566.832031 1286.113281 563.089844 1285.503906 559.285156 C 1284.9375 555.621094 1285.386719 551.859375 1285.824219 548.214844 C 1286.09375 545.824219 1286.371094 543.566406 1286.371094 541.355469 L 1286.371094 490.726562 C 1286.371094 489.863281 1286.390625 489.046875 1286.390625 488.199219 C 1286.429688 484.675781 1286.46875 481.320312 1285.742188 477.835938 C 1285.136719 474.816406 1285.523438 472.128906 1285.902344 469.542969 C 1286.132812 467.996094 1286.371094 466.386719 1286.371094 464.722656 C 1286.390625 460.191406 1286.390625 455.640625 1286.371094 451.121094 L 1286.371094 444.300781 C 1286.371094 444.144531 1286.371094 443.496094 1286.351562 442.550781 C 1286.191406 431.597656 1286.113281 427.507812 1286.488281 425.933594 Z M 1292.617188 431.558594 C 1291.484375 430.464844 1290.351562 429.378906 1289.1875 428.324219 C 1289.148438 430.652344 1289.167969 435.382812 1289.285156 442.492188 C 1289.304688 443.476562 1289.304688 444.144531 1289.304688 444.300781 L 1289.304688 451.101562 C 1289.324219 455.640625 1289.324219 460.191406 1289.304688 464.742188 C 1289.304688 466.605469 1289.058594 468.304688 1288.796875 469.96875 C 1288.441406 472.429688 1288.113281 474.738281 1288.621094 477.246094 C 1289.40625 481.03125 1289.367188 484.535156 1289.324219 488.238281 C 1289.324219 489.066406 1289.304688 489.882812 1289.304688 490.726562 L 1289.304688 541.355469 C 1289.304688 543.742188 1289.015625 546.191406 1288.738281 548.574219 C 1288.3125 552.15625 1287.894531 555.5625 1288.421875 558.835938 C 1289.078125 562.988281 1288.738281 567.089844 1288.390625 571.054688 C 1288.113281 574.4375 1287.832031 577.65625 1288.152344 580.890625 C 1288.679688 586.417969 1289.304688 593.761719 1289.304688 601.679688 L 1289.304688 650.363281 C 1290.230469 649.65625 1291.125 648.941406 1292.03125 648.214844 C 1291.632812 647.914062 1291.386719 647.46875 1291.386719 646.699219 L 1291.386719 597.875 C 1291.386719 590.585938 1290.796875 583.808594 1290.289062 578.710938 C 1289.953125 575.355469 1290.25 572.050781 1290.519531 568.851562 C 1290.839844 565.167969 1291.144531 561.714844 1290.578125 558.210938 C 1289.992188 554.6875 1290.441406 551.113281 1290.859375 547.667969 C 1291.125 545.425781 1291.386719 543.335938 1291.386719 541.292969 L 1291.386719 493.804688 C 1291.386719 493.019531 1291.40625 492.222656 1291.40625 491.453125 C 1291.445312 488.160156 1291.484375 485.042969 1290.796875 481.847656 C 1290.191406 478.910156 1290.558594 476.339844 1290.9375 473.851562 C 1291.167969 472.347656 1291.386719 470.933594 1291.386719 469.421875 C 1291.40625 465.171875 1291.40625 460.917969 1291.386719 456.667969 L 1291.386719 450.277344 C 1291.386719 450.117188 1291.386719 449.527344 1291.367188 448.625 C 1291.125 433.242188 1291.105469 431.847656 1292.617188 431.558594 Z M 1303.882812 495.925781 C 1303.921875 492.949219 1303.941406 490.121094 1303.335938 487.242188 C 1302.765625 484.535156 1303.117188 482.183594 1303.445312 479.914062 C 1303.664062 478.5625 1303.863281 477.265625 1303.863281 475.914062 C 1303.882812 472.050781 1303.882812 468.1875 1303.863281 464.3125 L 1303.863281 458.507812 C 1303.863281 458.371094 1303.863281 457.824219 1303.84375 457.035156 C 1303.722656 449.320312 1303.664062 445.4375 1303.882812 443.457031 C 1301.515625 440.6875 1299.015625 438 1296.460938 435.382812 C 1296 435.382812 1295.554688 435.382812 1295.1875 435.382812 C 1295.144531 437.59375 1295.1875 442.003906 1295.285156 448.574219 C 1295.304688 449.488281 1295.304688 450.117188 1295.304688 450.277344 L 1295.304688 456.667969 C 1295.316406 460.917969 1295.316406 465.171875 1295.304688 469.441406 C 1295.304688 471.222656 1295.046875 472.855469 1294.808594 474.441406 C 1294.480469 476.679688 1294.160156 478.789062 1294.640625 481.03125 C 1295.394531 484.65625 1295.355469 487.988281 1295.316406 491.496094 C 1295.316406 492.261719 1295.304688 493.019531 1295.304688 493.804688 L 1295.304688 541.292969 C 1295.304688 543.59375 1295.027344 545.90625 1294.75 548.132812 C 1294.339844 551.46875 1293.953125 554.605469 1294.441406 557.582031 C 1295.085938 561.566406 1294.75 565.449219 1294.417969 569.183594 C 1294.140625 572.339844 1293.890625 575.324219 1294.179688 578.320312 C 1294.707031 583.488281 1295.304688 590.417969 1295.304688 597.875 L 1295.304688 644.738281 C 1295.535156 644.738281 1295.8125 644.738281 1296.0625 644.738281 C 1298.789062 642.289062 1301.394531 639.722656 1303.863281 637.042969 C 1303.863281 637.023438 1303.863281 637.003906 1303.863281 636.984375 L 1303.863281 592.609375 C 1303.863281 586.007812 1303.335938 579.84375 1302.855469 575.226562 C 1302.546875 572.167969 1302.816406 569.140625 1303.074219 566.226562 C 1303.375 562.917969 1303.644531 559.753906 1303.117188 556.628906 C 1302.589844 553.390625 1302.996094 550.117188 1303.394531 546.980469 C 1303.625 544.957031 1303.863281 543.058594 1303.863281 541.214844 L 1303.863281 498.074219 C 1303.863281 497.339844 1303.863281 496.632812 1303.882812 495.925781 Z M 1334.664062 559.894531 C 1335.472656 553.761719 1335.101562 547.40625 1333.671875 541.273438 C 1333.53125 541.292969 1333.371094 541.292969 1333.222656 541.253906 C 1330.835938 540.648438 1328.148438 541.085938 1326.070312 542.390625 C 1323.960938 543.722656 1322.347656 546.054688 1321.878906 548.472656 C 1321.800781 548.78125 1321.640625 549.082031 1321.394531 549.289062 C 1319.902344 550.582031 1318.378906 551.917969 1317.332031 553.53125 C 1316.488281 554.816406 1316.257812 556.855469 1316.726562 558.617188 C 1316.886719 559.207031 1316.648438 559.832031 1316.160156 560.191406 C 1313.832031 561.914062 1312.359375 565.050781 1312.476562 567.867188 C 1313.59375 567.90625 1314.765625 568.085938 1315.902344 568.484375 C 1316.585938 568.714844 1317.234375 569.011719 1317.839844 569.359375 C 1318.746094 567.660156 1320.058594 566.523438 1321.113281 565.957031 C 1322.648438 565.148438 1323.703125 565.230469 1323.800781 565.558594 C 1323.941406 565.9375 1323.214844 566.484375 1322.328125 567.519531 C 1321.453125 568.515625 1320.40625 570.128906 1320.140625 572.070312 C 1320.039062 572.914062 1319.253906 573.492188 1318.429688 573.382812 C 1318.179688 573.34375 1317.960938 573.265625 1317.761719 573.125 L 1317.632812 573.023438 C 1316.804688 572.457031 1315.859375 571.96875 1314.828125 571.621094 C 1312.109375 570.636719 1309.402344 570.972656 1307.503906 571.5625 C 1307.195312 571.660156 1306.9375 571.75 1306.65625 571.832031 C 1306.636719 572.835938 1306.65625 573.832031 1306.757812 574.828125 C 1307.035156 577.613281 1307.34375 580.96875 1307.542969 584.632812 C 1314.300781 583.667969 1321.332031 585.988281 1326.128906 590.886719 L 1326.46875 591.214844 C 1327.222656 592.019531 1327.949219 592.789062 1328.734375 592.898438 C 1329.042969 592.957031 1329.460938 592.917969 1329.871094 592.878906 L 1334.097656 592.46875 C 1334.097656 589.214844 1334.039062 586.039062 1333.96875 582.980469 C 1333.769531 575.304688 1333.589844 568.027344 1334.664062 559.894531 Z M 1353.371094 528.890625 C 1351.929688 531.378906 1350.433594 533.808594 1348.964844 536.199219 C 1346.832031 539.710938 1344.625 543.335938 1342.605469 546.980469 C 1342.285156 547.566406 1341.621094 547.867188 1340.972656 547.707031 C 1340.328125 547.546875 1339.859375 546.980469 1339.859375 546.3125 C 1339.78125 542.949219 1339.699219 539.574219 1339.621094 536.199219 C 1339.550781 533.082031 1339.472656 529.964844 1339.410156 526.847656 C 1339.292969 526.769531 1339.191406 526.699219 1339.074219 526.621094 C 1338.992188 527.105469 1338.945312 527.574219 1338.863281 528.0625 C 1338.664062 529.335938 1338.464844 530.632812 1338.328125 531.925781 C 1338.296875 532.265625 1338.199219 533.28125 1337.234375 533.808594 C 1336.785156 534.066406 1335.871094 534.335938 1334.683594 533.398438 C 1334.535156 533.28125 1334.398438 533.160156 1334.238281 533.042969 C 1337.570312 541.691406 1338.785156 551.230469 1337.589844 560.292969 C 1336.527344 568.1875 1336.707031 575.34375 1336.902344 582.902344 C 1336.984375 585.910156 1337.042969 589.003906 1337.042969 592.179688 L 1337.957031 592.101562 C 1338.097656 592.101562 1338.199219 592.101562 1338.328125 592.121094 C 1337.609375 582.753906 1338 573.285156 1339.550781 563.976562 C 1339.640625 563.308594 1339.757812 562.601562 1339.859375 561.894531 C 1340.40625 558.289062 1341.011719 554.207031 1342.894531 550.980469 C 1345.230469 546.980469 1347.382812 542.808594 1349.320312 538.585938 C 1350.792969 535.410156 1352.136719 532.164062 1353.371094 528.890625 Z M 1359.898438 595.328125 C 1359.898438 594.839844 1359.796875 594.371094 1359.589844 593.960938 C 1359.089844 592.957031 1358.625 592.410156 1358.035156 592.199219 C 1357.6875 592.082031 1357.390625 591.820312 1357.230469 591.472656 C 1356.644531 590.277344 1356.5625 589.023438 1356.503906 587.910156 C 1356.484375 587.53125 1356.464844 587.183594 1356.433594 586.824219 C 1356.335938 586.355469 1355.140625 585.28125 1354.097656 584.734375 C 1352.496094 586.457031 1350.496094 587.371094 1348.914062 587.589844 C 1346.753906 587.890625 1345.558594 587.164062 1345.640625 586.746094 C 1345.699219 586.277344 1346.8125 586.078125 1348.246094 585.339844 C 1349.648438 584.632812 1351.441406 583.28125 1352.574219 581.257812 C 1353.289062 579.964844 1353.707031 578.589844 1353.957031 577.316406 C 1354.039062 575.046875 1353.589844 572.636719 1352.59375 570.65625 C 1351.441406 571.679688 1350.226562 572.269531 1349.222656 572.636719 C 1347.121094 573.363281 1345.808594 573.363281 1345.640625 572.964844 C 1345.441406 572.539062 1346.535156 571.710938 1348.148438 570.554688 C 1349.6875 569.460938 1351.730469 567.679688 1351.949219 565.429688 C 1352.085938 564.304688 1351.789062 563.089844 1351.320312 562.054688 C 1350.851562 561.019531 1350.207031 560.070312 1349.628906 559.285156 C 1348.457031 557.703125 1347.660156 556.605469 1347.96875 556.25 C 1348.246094 555.921875 1349.519531 556.328125 1351.28125 557.644531 C 1351.441406 557.761719 1351.589844 557.890625 1351.75 558.011719 C 1351.90625 554.367188 1350.414062 550.683594 1347.789062 548.175781 C 1347.011719 549.609375 1346.246094 551.050781 1345.441406 552.445312 C 1343.839844 555.214844 1343.292969 558.835938 1342.753906 562.320312 C 1342.664062 563.050781 1342.546875 563.777344 1342.445312 564.460938 C 1340.914062 573.691406 1340.527344 583.082031 1341.292969 592.371094 C 1341.5 592.390625 1341.71875 592.410156 1341.917969 592.449219 C 1343.03125 592.609375 1344.085938 592.769531 1345.171875 592.789062 C 1349.609375 591.921875 1355.3125 592.957031 1359.898438 595.328125 Z M 1375.25 524.050781 C 1375.367188 521.691406 1374.554688 519.03125 1372.820312 516.363281 C 1372.472656 515.835938 1372.535156 515.128906 1372.941406 514.621094 C 1374.503906 512.742188 1375.308594 509.84375 1375.019531 507.234375 C 1374.960938 506.855469 1374.882812 506.488281 1374.78125 506.128906 C 1374.3125 506.019531 1373.628906 504.726562 1372.234375 503.152344 C 1370.734375 501.449219 1368.207031 499.449219 1364.953125 498.335938 C 1361.679688 497.21875 1358.386719 497.078125 1355.996094 497.078125 C 1353.589844 497.078125 1352.007812 497.160156 1351.886719 496.691406 C 1351.769531 496.273438 1353.160156 495.398438 1355.707031 494.769531 C 1357.738281 494.261719 1360.644531 493.984375 1363.796875 494.609375 C 1363.855469 494.550781 1363.878906 494.472656 1363.925781 494.410156 C 1365.011719 493.476562 1365.578125 492.101562 1365.660156 490.199219 C 1365.71875 488.578125 1365.089844 486.882812 1363.945312 485.710938 C 1363.578125 485.339844 1363.441406 484.792969 1363.578125 484.277344 C 1364.027344 482.734375 1364.464844 481.109375 1364.464844 479.496094 C 1364.464844 478.34375 1364.324219 477.457031 1364.046875 476.738281 C 1363.757812 475.914062 1363.269531 475.285156 1362.671875 474.9375 C 1362.027344 474.578125 1361.777344 473.792969 1362.046875 473.105469 C 1362.972656 470.875 1361.636719 467.898438 1359.835938 466.078125 C 1358.195312 464.421875 1355.816406 463.25 1352.355469 462.351562 C 1349.339844 461.585938 1346.875 461.347656 1344.625 461.605469 C 1341.3125 461.953125 1338.199219 463.46875 1335.847656 465.816406 C 1334.316406 467.371094 1333.203125 469.261719 1332.476562 471.304688 C 1333.003906 471.175781 1333.550781 471.074219 1334.136719 471.054688 C 1335.183594 470.996094 1336.238281 471.203125 1337.191406 471.582031 C 1338.484375 469.054688 1340.746094 467.679688 1342.386719 467.269531 C 1344.527344 466.722656 1345.777344 467.289062 1345.738281 467.621094 C 1345.71875 468.007812 1344.605469 468.226562 1343.152344 469.132812 C 1341.738281 469.949219 1339.957031 471.742188 1339.570312 474.132812 C 1339.429688 474.988281 1338.625 475.566406 1337.78125 475.425781 C 1337.550781 475.386719 1337.332031 475.304688 1337.152344 475.167969 L 1337.042969 475.085938 C 1336.316406 474.597656 1335.332031 474.308594 1334.277344 474.359375 C 1333.183594 474.378906 1332.160156 474.796875 1331.300781 475.425781 C 1331.261719 475.484375 1331.222656 475.566406 1331.144531 475.59375 C 1329.035156 477.347656 1327.871094 480.710938 1328.328125 483.828125 C 1328.386719 484.355469 1328.1875 484.875 1327.761719 485.203125 C 1324.1875 487.949219 1322.109375 492.949219 1322.527344 497.417969 C 1322.894531 497.398438 1323.292969 497.429688 1323.703125 497.46875 C 1324.109375 495.886719 1325.015625 494.589844 1325.929688 493.664062 C 1327.261719 492.339844 1328.695312 491.613281 1329.871094 491.136719 C 1332.257812 490.261719 1333.769531 490.179688 1333.929688 490.546875 C 1334.117188 490.988281 1332.824219 491.84375 1330.945312 493.136719 C 1330.007812 493.804688 1328.964844 494.609375 1328.148438 495.644531 C 1327.324219 496.710938 1326.695312 498.046875 1326.734375 499.328125 C 1326.753906 500.234375 1326.03125 500.984375 1325.132812 501.023438 C 1324.976562 501.023438 1324.835938 501.003906 1324.695312 500.960938 L 1324.617188 500.941406 C 1324.386719 500.882812 1324.148438 500.824219 1323.921875 500.785156 C 1322.835938 500.605469 1321.761719 500.683594 1320.765625 500.921875 C 1320.585938 501.082031 1320.40625 501.210938 1320.199219 501.371094 C 1319.820312 501.667969 1319.492188 501.917969 1319.394531 502.019531 C 1318.488281 502.863281 1317.632812 503.839844 1316.824219 504.90625 C 1315.253906 507.015625 1314 509.34375 1313.144531 511.816406 C 1311.972656 515.210938 1312.597656 520.367188 1315.253906 523.285156 C 1315.671875 522.378906 1316.199219 521.621094 1316.746094 521.082031 C 1318.078125 519.800781 1319.273438 519.601562 1319.492188 519.949219 C 1319.761719 520.347656 1319.195312 521.183594 1318.648438 522.457031 C 1318.078125 523.710938 1317.574219 525.535156 1317.820312 527.417969 C 1318.101562 529.296875 1319.074219 530.929688 1319.960938 531.984375 C 1320.847656 533.0625 1321.621094 533.707031 1321.472656 534.167969 C 1321.351562 534.574219 1320.140625 534.714844 1318.507812 533.808594 C 1317.066406 533.042969 1315.355469 531.238281 1314.726562 528.671875 C 1314.417969 529.675781 1314.300781 530.671875 1314.4375 531.578125 C 1314.695312 533.480469 1315.769531 535.300781 1317.3125 536.4375 C 1317.800781 536.785156 1318.019531 537.433594 1317.839844 538.019531 C 1317.613281 538.886719 1318.121094 540 1318.585938 540.789062 C 1319.09375 541.613281 1319.960938 542.222656 1320.90625 542.410156 C 1321.113281 542.449219 1321.292969 542.550781 1321.472656 542.667969 C 1322.308594 541.59375 1323.332031 540.648438 1324.507812 539.902344 C 1326.953125 538.359375 1330.027344 537.75 1332.882812 538.199219 C 1331.75 534.355469 1330.167969 530.652344 1328.1875 527.207031 C 1326.972656 527.792969 1325.761719 528.042969 1324.734375 528.0625 C 1322.109375 528.121094 1320.804688 527.046875 1320.957031 526.660156 C 1321.09375 526.203125 1322.507812 526.339844 1324.40625 525.753906 C 1326.289062 525.226562 1328.578125 523.730469 1329.582031 521.0625 C 1329.871094 520.289062 1330.027344 519.480469 1330.070312 518.714844 L 1330.070312 518.585938 C 1330.109375 517.71875 1330.84375 517.050781 1331.710938 517.089844 C 1332.089844 517.113281 1332.398438 517.25 1332.65625 517.460938 C 1334.15625 518.734375 1336.316406 518.832031 1337.691406 518.546875 C 1339.113281 518.265625 1339.957031 517.699219 1340.265625 517.976562 C 1340.546875 518.167969 1340.199219 519.402344 1338.464844 520.4375 C 1337.628906 520.933594 1336.445312 521.34375 1335.082031 521.363281 C 1334.417969 521.382812 1333.710938 521.304688 1332.984375 521.082031 C 1332.882812 521.480469 1332.804688 521.871094 1332.65625 522.269531 C 1332.199219 523.445312 1331.511719 524.460938 1330.714844 525.324219 C 1332.179688 527.128906 1333.789062 528.808594 1335.570312 530.324219 C 1335.691406 529.398438 1335.820312 528.519531 1335.960938 527.613281 C 1336.15625 526.339844 1336.355469 525.046875 1336.496094 523.753906 C 1336.527344 523.265625 1336.84375 522.816406 1337.292969 522.597656 C 1337.71875 522.359375 1338.257812 522.378906 1338.683594 522.636719 C 1339.273438 522.984375 1339.820312 523.421875 1340.328125 523.851562 C 1340.785156 524.210938 1341.210938 524.558594 1341.601562 524.796875 C 1342.039062 525.046875 1342.308594 525.515625 1342.328125 526.03125 C 1342.386719 529.398438 1342.484375 532.773438 1342.566406 536.136719 C 1342.605469 537.75 1342.644531 539.351562 1342.683594 540.964844 C 1343.929688 538.824219 1345.203125 536.734375 1346.457031 534.675781 C 1348.414062 531.457031 1350.433594 528.164062 1352.296875 524.835938 C 1351.023438 524.945312 1349.828125 524.816406 1348.933594 524.519531 C 1346.773438 523.832031 1345.929688 522.617188 1346.167969 522.289062 C 1346.425781 521.871094 1347.601562 522.25 1349.320312 522.230469 C 1351.023438 522.25 1353.410156 521.761719 1355.230469 520.207031 C 1355.917969 519.601562 1356.980469 519.679688 1357.570312 520.386719 C 1357.796875 520.636719 1357.917969 520.953125 1357.957031 521.28125 L 1357.957031 521.34375 L 1357.976562 521.460938 C 1358.214844 523.832031 1359.796875 525.59375 1361.25 526.402344 C 1362.734375 527.265625 1363.96875 527.417969 1364.027344 527.894531 C 1364.105469 528.300781 1362.773438 529.089844 1360.445312 528.589844 C 1359.429688 528.363281 1358.253906 527.792969 1357.210938 526.847656 C 1355.6875 531.21875 1353.9375 535.589844 1352.007812 539.8125 C 1351.847656 540.140625 1351.667969 540.46875 1351.511719 540.808594 C 1353.769531 542.339844 1356.523438 543.097656 1359.25 542.917969 C 1360.585938 542.847656 1362.144531 542.371094 1362.605469 541.316406 C 1362.832031 540.808594 1363.320312 540.46875 1363.878906 540.4375 C 1365.816406 540.339844 1367.617188 538.296875 1368.515625 537.082031 C 1369.589844 535.648438 1370.316406 533.75 1370.753906 531.320312 C 1370.84375 530.8125 1371.179688 530.402344 1371.628906 530.203125 C 1373.957031 529.257812 1375.109375 526.441406 1375.25 524.050781 Z M 1397.1875 618.792969 C 1397.207031 618.792969 1397.207031 618.792969 1397.226562 618.792969 C 1393.824219 615.050781 1389.339844 612.699219 1385.050781 612.5 C 1384.460938 612.480469 1383.925781 612.09375 1383.738281 611.546875 C 1383.238281 610.191406 1381.496094 609.246094 1380.035156 608.816406 C 1377.738281 608.128906 1375.449219 607.992188 1373.039062 607.820312 C 1372.273438 607.78125 1371.507812 607.722656 1370.734375 607.640625 C 1371.261719 608.128906 1371.726562 608.617188 1372.074219 609.097656 C 1373.328125 610.796875 1373.589844 612.132812 1373.21875 612.339844 C 1372.800781 612.601562 1371.886719 611.792969 1370.433594 610.757812 C 1368.960938 609.722656 1366.890625 608.46875 1364.34375 607.761719 C 1361.835938 606.996094 1359.351562 606.996094 1357.707031 607.132812 C 1356.214844 607.222656 1355.75 608.109375 1355.289062 608.109375 C 1355.082031 608.109375 1354.824219 607.722656 1355.003906 606.996094 C 1355.140625 606.308594 1355.898438 605.363281 1357.003906 604.894531 C 1358.585938 604.226562 1360.722656 603.859375 1363.050781 604.136719 C 1361.917969 602.585938 1361.109375 600.742188 1360.464844 599.191406 L 1360.34375 598.960938 C 1356.117188 596.171875 1349.988281 594.800781 1345.601562 595.683594 C 1345.519531 595.707031 1345.421875 595.726562 1345.320312 595.726562 C 1343.976562 595.726562 1342.726562 595.527344 1341.5 595.355469 C 1340.328125 595.175781 1339.230469 595.019531 1338.097656 595.019531 L 1331.570312 595.664062 C 1332.199219 596.332031 1332.765625 597.058594 1333.222656 597.90625 C 1334.058594 599.367188 1334.535156 600.980469 1334.726562 602.523438 C 1337.003906 602.015625 1339.035156 602.347656 1340.367188 602.894531 C 1342.167969 603.621094 1342.875 604.546875 1342.703125 604.816406 C 1342.503906 605.132812 1341.519531 604.816406 1339.9375 604.695312 C 1338.367188 604.566406 1336.078125 604.734375 1334 605.96875 C 1333.300781 606.386719 1332.378906 606.148438 1331.96875 605.441406 C 1331.828125 605.234375 1331.769531 604.972656 1331.75 604.734375 L 1331.75 604.585938 C 1331.730469 602.953125 1331.261719 601.152344 1330.335938 599.507812 C 1328.476562 596.113281 1325.09375 594.53125 1322.527344 594.121094 C 1319.921875 593.644531 1318.160156 594.082031 1317.980469 593.585938 C 1317.800781 593.234375 1319.433594 591.902344 1322.667969 591.78125 C 1322.6875 591.78125 1322.726562 591.78125 1322.734375 591.78125 C 1318.628906 588.359375 1312.964844 586.746094 1307.683594 587.570312 C 1307.742188 589.214844 1307.773438 590.90625 1307.773438 592.609375 L 1307.773438 622.867188 C 1307.992188 622.816406 1308.230469 622.816406 1308.4375 622.84375 C 1312.199219 623.75 1316.21875 623.890625 1320.019531 623.261719 C 1320.277344 623.222656 1320.546875 623.242188 1320.785156 623.34375 C 1323.175781 624.257812 1326.070312 624.519531 1329.890625 624.140625 C 1330.617188 624.070312 1331.441406 623.949219 1332.089844 623.613281 C 1332.617188 623.34375 1333.003906 622.90625 1333.101562 622.496094 C 1333.261719 621.710938 1334.019531 621.203125 1334.804688 621.363281 C 1337.53125 621.910156 1340.953125 622.050781 1344 621.769531 C 1346.992188 621.5 1349.5 620.246094 1350.851562 618.324219 C 1351.183594 617.878906 1351.730469 617.660156 1352.257812 617.738281 C 1356.277344 618.324219 1359.570312 618.144531 1363.617188 617.171875 C 1367.5 616.226562 1371.46875 616.691406 1375.308594 617.152344 C 1377.148438 617.359375 1378.890625 617.558594 1380.621094 617.617188 C 1383.089844 617.71875 1385.597656 617.945312 1388.042969 618.1875 C 1391.058594 618.484375 1394.171875 618.792969 1397.1875 618.792969 Z M 1405.457031 537.351562 C 1404.808594 536.15625 1403.816406 535.082031 1402.5625 534.277344 C 1400.621094 533.042969 1398.152344 532.414062 1395.226562 532.375 C 1392.292969 532.355469 1388.570312 532.632812 1386.042969 533.101562 C 1385.496094 533.179688 1384.949219 532.980469 1384.613281 532.554688 C 1382.8125 530.242188 1380.183594 528.628906 1377.328125 527.992188 C 1376.601562 529.804688 1375.367188 531.558594 1373.488281 532.574219 C 1372.960938 535.121094 1372.09375 537.203125 1370.863281 538.84375 C 1369.527344 540.628906 1367.460938 542.75 1364.871094 543.257812 C 1363.855469 544.769531 1361.917969 545.707031 1359.449219 545.863281 C 1359.132812 545.882812 1358.824219 545.882812 1358.484375 545.882812 C 1355.570312 545.882812 1352.664062 545.019531 1350.226562 543.457031 C 1349.886719 544.140625 1349.558594 544.820312 1349.222656 545.488281 C 1350.882812 546.921875 1352.195312 548.722656 1353.140625 550.722656 C 1355.75 550.195312 1358.445312 550.078125 1361.070312 550.453125 C 1366.710938 547.097656 1373.140625 545.746094 1378.800781 546.742188 C 1380.222656 546.980469 1381.636719 547.367188 1383.011719 547.867188 L 1397.328125 538.4375 C 1398.273438 537.808594 1399.347656 537.082031 1400.660156 536.765625 C 1402.34375 536.375 1403.964844 536.734375 1405.457031 537.351562 Z M 1442.019531 588.179688 C 1441.414062 588.179688 1440.808594 588.136719 1440.21875 588.117188 C 1435.753906 588.019531 1431.664062 587.589844 1427.703125 587.203125 C 1421.394531 586.554688 1415.464844 585.949219 1408.609375 586.636719 C 1404.671875 587.023438 1400.34375 585.988281 1395.816406 583.527344 C 1393.289062 582.164062 1390.921875 580.511719 1388.652344 578.910156 C 1387.578125 578.164062 1386.492188 577.414062 1385.398438 576.6875 C 1385.277344 576.707031 1385.179688 576.730469 1385.070312 576.730469 C 1384.441406 576.730469 1383.847656 576.320312 1383.675781 575.691406 C 1383.65625 575.652344 1383.675781 575.632812 1383.65625 575.613281 C 1375.128906 570.328125 1365.5 566.792969 1355.570312 565.378906 C 1355.507812 566.523438 1355.25 567.617188 1354.84375 568.59375 C 1355.648438 569.96875 1356.195312 571.523438 1356.542969 573.144531 C 1358.742188 572.835938 1361.417969 572.675781 1363.757812 573.910156 C 1365.925781 575.066406 1367.5 577.394531 1367.964844 580.042969 C 1369.609375 580.589844 1371.140625 581.628906 1372.195312 582.902344 C 1373.160156 584.085938 1373.828125 585.511719 1374.09375 587.023438 C 1375.230469 587.042969 1376.484375 587.242188 1377.609375 587.53125 C 1378.421875 586.355469 1379.617188 585.511719 1380.929688 585.261719 C 1382.464844 584.941406 1384.105469 585.300781 1385.378906 586.195312 C 1387.121094 586.007812 1389.21875 586.765625 1389.984375 587.121094 C 1392.390625 588.257812 1394.371094 590.300781 1395.425781 592.75 C 1397.605469 592.707031 1400.015625 593.136719 1401.792969 593.703125 C 1403.835938 592.160156 1407.019531 591.492188 1409.664062 592.0625 C 1412.53125 590.300781 1417.167969 590.585938 1419.652344 591.414062 C 1422.359375 592.328125 1424.570312 594.101562 1426.390625 595.804688 C 1426.828125 595.707031 1427.234375 595.585938 1427.664062 595.464844 C 1428.898438 595.117188 1430.289062 594.730469 1431.902344 595.199219 C 1432.738281 594.917969 1433.625 594.667969 1434.5 594.410156 C 1435.304688 594.171875 1436.109375 593.960938 1436.886719 593.703125 C 1437.972656 591.535156 1439.8125 589.511719 1442.019531 588.179688 Z M 1422.949219 571.5625 C 1430.328125 571.96875 1437.890625 572.359375 1445.3125 571.910156 C 1439.414062 568.046875 1431.992188 566.125 1424.949219 566.691406 C 1424.570312 566.710938 1424.199219 566.613281 1423.921875 566.382812 C 1417.972656 561.695312 1409.945312 560.050781 1402.96875 562.09375 C 1402.421875 562.253906 1401.835938 562.074219 1401.4375 561.644531 C 1399.4375 559.367188 1396.351562 558.109375 1393.785156 558.539062 C 1393.25 558.617188 1392.722656 558.429688 1392.390625 557.992188 C 1390.003906 554.996094 1386.789062 552.625 1383.238281 551.132812 C 1382.640625 551.3125 1381.976562 551.113281 1381.597656 550.542969 C 1381.578125 550.523438 1381.578125 550.503906 1381.578125 550.484375 C 1380.503906 550.136719 1379.410156 549.828125 1378.285156 549.628906 C 1373.179688 548.742188 1367.300781 550.054688 1362.144531 553.230469 C 1361.835938 553.410156 1361.480469 553.492188 1361.132812 553.429688 C 1358.84375 553.054688 1356.464844 553.09375 1354.15625 553.511719 C 1354.722656 555.621094 1354.863281 557.84375 1354.515625 559.992188 C 1354.882812 560.738281 1355.140625 561.546875 1355.332031 562.363281 C 1366.164062 563.816406 1376.683594 567.679688 1385.90625 573.542969 C 1397.972656 570.226562 1410.667969 570.894531 1422.949219 571.5625 Z M 1454.359375 535.242188 L 1446.628906 519.300781 C 1446.179688 518.386719 1445.664062 517.351562 1445.492188 516.144531 C 1445.253906 514.601562 1445.640625 513.167969 1446.546875 512.171875 C 1447.839844 510.820312 1449.921875 510.472656 1452.40625 511.1875 C 1452.695312 511.265625 1452.976562 511.367188 1453.261719 511.464844 C 1453.8125 511.644531 1454.359375 511.816406 1454.875 511.914062 C 1454.070312 505.640625 1451.988281 499.507812 1448.796875 494.0625 L 1448.347656 493.296875 C 1447.3125 491.554688 1446.199219 489.652344 1445.703125 487.570312 C 1445.472656 488.050781 1445.253906 488.605469 1445.046875 489.265625 C 1444.160156 491.902344 1442.847656 495.925781 1439.535156 497.925781 C 1438.378906 498.621094 1437.144531 498.980469 1435.953125 499.328125 C 1435.285156 499.527344 1434.597656 499.726562 1433.953125 499.996094 C 1430.679688 501.351562 1428.46875 504.425781 1426.121094 507.703125 C 1424.0625 510.558594 1421.941406 513.488281 1418.988281 515.347656 L 1419.027344 515.390625 C 1427.136719 523.730469 1434.25 530.242188 1442.667969 534.941406 C 1444.585938 536.027344 1446.605469 537.003906 1448.585938 537.960938 C 1448.746094 537.570312 1448.933594 537.203125 1449.253906 536.882812 C 1449.859375 536.316406 1450.585938 536.039062 1451.203125 535.847656 C 1452.230469 535.53125 1453.285156 535.339844 1454.359375 535.242188 Z M 1470.972656 566.832031 C 1470.792969 566.773438 1470.617188 566.734375 1470.445312 566.683594 C 1469.441406 566.402344 1468.445312 566.144531 1467.441406 565.917969 C 1464.585938 565.289062 1461.859375 564.132812 1459.242188 563.007812 C 1457.871094 562.441406 1456.496094 561.855469 1455.125 561.347656 L 1436.757812 554.6875 C 1426.847656 551.050781 1416.578125 547.328125 1407.335938 541.691406 C 1405.296875 540.457031 1403.226562 539.183594 1401.335938 539.632812 C 1400.519531 539.832031 1399.714844 540.359375 1398.929688 540.886719 L 1386.203125 549.269531 C 1389.238281 550.84375 1391.953125 552.953125 1394.171875 555.542969 C 1397.269531 555.3125 1400.582031 556.628906 1403.007812 559.035156 C 1410.492188 557.15625 1418.886719 558.917969 1425.277344 563.714844 C 1433.871094 563.167969 1442.867188 565.996094 1449.484375 571.300781 C 1449.5625 571.363281 1449.601562 571.441406 1449.683594 571.523438 C 1450.070312 571.480469 1450.488281 571.441406 1450.894531 571.402344 C 1457.632812 570.515625 1464.386719 568.675781 1470.972656 566.832031 Z M 1471.839844 592.917969 C 1473.300781 592.199219 1474.972656 591.375 1476.59375 590.925781 C 1471.621094 590.238281 1466.347656 589.652344 1460.554688 589.175781 C 1458.160156 588.984375 1455.75 588.84375 1453.34375 588.6875 C 1455.523438 590.277344 1457.164062 592.609375 1457.808594 595.238281 L 1463.292969 594.898438 C 1465.71875 593.257812 1468.734375 593.296875 1470.585938 593.523438 C 1470.972656 593.355469 1471.382812 593.136719 1471.839844 592.917969 Z M 1473.769531 606.308594 L 1381.558594 606.230469 C 1382.890625 606.714844 1384.96875 607.742188 1386.066406 609.644531 C 1391.84375 610.210938 1397.527344 613.777344 1401.398438 619.300781 C 1401.695312 619.738281 1401.753906 620.296875 1401.515625 620.773438 C 1401.308594 621.261719 1400.828125 621.570312 1400.300781 621.609375 C 1396.152344 621.949219 1391.886719 621.519531 1387.746094 621.125 C 1385.359375 620.894531 1382.890625 620.636719 1380.523438 620.554688 C 1378.664062 620.496094 1376.78125 620.285156 1374.980469 620.066406 C 1371.21875 619.621094 1367.679688 619.203125 1364.324219 620.027344 C 1360.144531 621.023438 1356.722656 621.261719 1352.683594 620.753906 C 1350.753906 622.945312 1347.75 624.378906 1344.265625 624.71875 C 1341.351562 624.964844 1338.175781 624.886719 1335.410156 624.457031 C 1334.964844 625.183594 1334.277344 625.792969 1333.433594 626.21875 C 1332.335938 626.789062 1331.125 626.988281 1330.1875 627.066406 C 1328.953125 627.175781 1327.808594 627.234375 1326.753906 627.234375 C 1324.207031 627.234375 1322.039062 626.90625 1320.121094 626.21875 C 1316.039062 626.847656 1311.773438 626.667969 1307.773438 625.710938 L 1307.773438 635.023438 C 1310.378906 635.023438 1314.925781 635.023438 1317.085938 635.023438 L 1332.746094 635.023438 C 1334.617188 635.023438 1336.4375 635.242188 1338.199219 635.429688 C 1340.855469 635.730469 1343.351562 636.015625 1345.800781 635.609375 C 1349.222656 635.023438 1352.515625 635.023438 1355.707031 635.023438 L 1400.679688 635.023438 C 1402.164062 632.003906 1405.257812 629.863281 1408.609375 629.554688 C 1409.4375 627.175781 1411.058594 625.363281 1413.117188 624.519531 C 1414.269531 621.96875 1416.339844 619.808594 1418.929688 618.554688 C 1421.34375 617.398438 1424.121094 617.070312 1426.75 617.617188 C 1428.132812 615.757812 1430.679688 614.890625 1432.855469 615.070312 C 1436.617188 612.621094 1441.046875 611.085938 1445.703125 610.679688 C 1448.957031 610.398438 1451.929688 610.71875 1454.578125 611.636719 C 1457.304688 612.601562 1459.671875 614.222656 1461.332031 616.304688 C 1463.023438 616.085938 1464.804688 616.542969 1466.1875 617.417969 C 1466.804688 614.679688 1468.753906 612.253906 1471.402344 611.1875 C 1472.089844 609.5625 1472.875 607.871094 1473.769531 606.308594 Z M 1480.902344 530.285156 L 1471.113281 519.113281 C 1470.445312 518.324219 1469.660156 517.460938 1469.253906 516.285156 C 1468.644531 514.5625 1468.992188 512.859375 1469.3125 511.347656 C 1469.402344 510.898438 1469.5 510.449219 1469.582031 509.992188 C 1470.046875 506.71875 1468.714844 503.273438 1466.136719 501.191406 C 1465.71875 500.863281 1465.5625 500.355469 1465.628906 499.859375 L 1451.152344 487.183594 C 1450.289062 486.417969 1449.3125 485.648438 1448.386719 485.480469 C 1448.386719 487.589844 1449.640625 489.730469 1450.875 491.78125 L 1451.324219 492.570312 C 1455.003906 498.863281 1457.304688 506.019531 1457.96875 513.25 C 1458.050781 513.996094 1457.53125 514.683594 1456.816406 514.832031 C 1455.183594 515.171875 1453.703125 514.683594 1452.367188 514.273438 C 1452.109375 514.175781 1451.832031 514.09375 1451.582031 514.015625 C 1451.074219 513.855469 1449.394531 513.449219 1448.707031 514.195312 C 1448.40625 514.503906 1448.289062 515.070312 1448.386719 515.699219 C 1448.507812 516.445312 1448.894531 517.25 1449.273438 518.007812 L 1457.589844 535.183594 C 1462.984375 531.964844 1469.9375 531.417969 1475.441406 533.769531 C 1476.964844 532.265625 1478.84375 531.078125 1480.902344 530.285156 Z M 1473.320312 517.171875 L 1481.023438 525.953125 C 1480.394531 523.582031 1479.390625 521.324219 1478.046875 519.28125 L 1477.609375 518.632812 C 1476.4375 516.890625 1475.082031 514.910156 1475.339844 512.5 C 1475.519531 510.898438 1476.375 509.605469 1477.121094 508.46875 C 1477.382812 508.089844 1477.609375 507.722656 1477.828125 507.34375 C 1479.261719 504.835938 1479.339844 501.898438 1479.160156 499.859375 C 1478.964844 497.765625 1478.414062 495.664062 1477.808594 493.613281 L 1469.5 500.414062 C 1471.859375 503.132812 1473.011719 506.855469 1472.484375 510.429688 C 1472.40625 510.9375 1472.308594 511.445312 1472.1875 511.953125 C 1471.929688 513.1875 1471.679688 514.363281 1472.007812 515.308594 C 1472.246094 515.9375 1472.792969 516.5625 1473.320312 517.171875 Z M 1483.777344 563.25 C 1484.234375 562.988281 1484.722656 562.71875 1485.210938 562.460938 C 1483.429688 561.546875 1481.667969 560.839844 1479.949219 560.191406 C 1476.753906 558.976562 1473.441406 557.722656 1470.089844 554.914062 C 1464.445312 550.214844 1458.277344 546.132812 1451.742188 542.789062 C 1450.429688 542.121094 1449.09375 541.492188 1447.78125 540.847656 C 1445.621094 539.8125 1443.394531 538.726562 1441.246094 537.511719 C 1432.507812 532.632812 1425.195312 525.972656 1416.9375 517.421875 L 1416.777344 517.269531 C 1416.558594 517.050781 1416.339844 516.832031 1416.132812 516.625 C 1415.464844 516.703125 1414.796875 516.324219 1414.558594 515.65625 C 1414.492188 515.449219 1414.492188 515.230469 1414.5 515.011719 C 1413.117188 513.695312 1411.664062 512.480469 1410.023438 511.644531 C 1407.882812 510.558594 1404.75 509.953125 1402.382812 511.484375 C 1400.828125 512.460938 1399.933594 514.929688 1399.046875 517.3125 C 1397.773438 520.695312 1396.371094 524.539062 1392.582031 524.816406 L 1389.179688 525.046875 C 1386.453125 525.246094 1383.675781 525.445312 1381.070312 526.132812 C 1383.089844 527.046875 1384.910156 528.402344 1386.375 530.0625 C 1389 529.65625 1392.433594 529.398438 1395.246094 529.4375 C 1398.742188 529.476562 1401.734375 530.261719 1404.121094 531.808594 C 1406.9375 533.597656 1408.789062 536.394531 1409.175781 539.351562 C 1418.113281 544.75 1428.101562 548.394531 1437.773438 551.917969 L 1456.128906 558.578125 C 1457.550781 559.117188 1458.964844 559.703125 1460.378906 560.3125 C 1462.882812 561.367188 1465.492188 562.460938 1468.089844 563.050781 C 1469.132812 563.289062 1470.167969 563.566406 1471.222656 563.855469 C 1473.203125 564.382812 1475.242188 564.910156 1477.242188 565.070312 C 1479.261719 564.523438 1481.292969 563.996094 1483.332031 563.507812 C 1483.488281 563.425781 1483.628906 563.347656 1483.777344 563.25 Z M 1488.972656 589.292969 C 1487.878906 588.804688 1486.664062 588.605469 1485.488281 588.824219 C 1483.660156 589.164062 1481.410156 590.964844 1480.574219 592.769531 C 1480.296875 593.375 1479.648438 593.703125 1478.964844 593.585938 C 1477.589844 593.335938 1474.914062 594.667969 1473.144531 595.546875 C 1472.496094 595.863281 1471.890625 596.171875 1471.382812 596.390625 C 1471.132812 596.511719 1470.835938 596.550781 1470.566406 596.492188 C 1469.152344 596.273438 1466.527344 596.09375 1464.707031 597.507812 C 1464.464844 597.6875 1464.199219 597.785156 1463.898438 597.804688 L 1456.675781 598.253906 C 1455.871094 598.292969 1455.203125 597.726562 1455.125 596.941406 C 1454.757812 593.355469 1451.679688 590.140625 1448.140625 589.59375 C 1444.566406 589.0625 1440.6875 592.21875 1439.304688 595.484375 C 1439.144531 595.863281 1438.808594 596.171875 1438.417969 596.292969 C 1437.425781 596.632812 1436.359375 596.941406 1435.324219 597.226562 C 1434.308594 597.527344 1433.285156 597.824219 1432.328125 598.132812 C 1431.992188 598.253906 1431.625 598.234375 1431.304688 598.09375 C 1430.46875 597.765625 1429.761719 597.914062 1428.488281 598.292969 C 1427.761719 598.503906 1426.96875 598.722656 1426.0625 598.820312 C 1426 598.820312 1425.960938 598.820312 1425.902344 598.820312 C 1425.535156 598.820312 1425.175781 598.683594 1424.886719 598.433594 C 1423.195312 596.800781 1421.148438 595.019531 1418.71875 594.191406 C 1416.359375 593.414062 1412.449219 593.496094 1410.898438 594.777344 C 1410.53125 595.117188 1409.984375 595.238281 1409.503906 595.058594 C 1407.496094 594.390625 1404.480469 595.019531 1403.207031 596.390625 C 1402.789062 596.820312 1402.164062 596.960938 1401.617188 596.742188 C 1399.457031 595.925781 1396.5 595.507812 1394.601562 595.746094 C 1393.894531 595.84375 1393.226562 595.394531 1393.019531 594.730469 C 1392.371094 592.570312 1390.769531 590.726562 1388.75 589.792969 C 1387.667969 589.273438 1386.042969 588.964844 1385.515625 589.164062 C 1384.96875 589.371094 1384.382812 589.234375 1383.964844 588.84375 C 1383.339844 588.238281 1382.363281 587.9375 1381.519531 588.136719 C 1381.089844 588.21875 1380.683594 588.488281 1380.324219 588.84375 C 1381.03125 589.273438 1381.738281 589.742188 1382.34375 590.417969 C 1383.695312 591.882812 1384.402344 593.785156 1384.472656 595.585938 C 1386.023438 595.355469 1387.417969 595.445312 1388.414062 595.664062 C 1389.867188 596.003906 1390.589844 596.53125 1390.53125 596.839844 C 1390.394531 597.527344 1387.140625 597.039062 1383.359375 598.859375 C 1382.640625 599.191406 1381.796875 598.902344 1381.457031 598.175781 C 1381.328125 597.90625 1381.289062 597.605469 1381.328125 597.328125 L 1381.367188 597.160156 C 1381.578125 595.746094 1381.109375 593.960938 1379.894531 592.648438 C 1378.882812 591.535156 1377.429688 590.867188 1376.015625 590.585938 C 1374.621094 590.300781 1373.28125 590.386719 1372.117188 590.628906 C 1369.808594 591.09375 1368.355469 591.863281 1368.066406 591.453125 C 1367.808594 591.15625 1368.753906 589.671875 1371.300781 588.457031 C 1371.261719 587.144531 1370.773438 585.789062 1369.925781 584.761719 C 1369.082031 583.746094 1367.699219 582.921875 1366.304688 582.632812 C 1365.660156 582.492188 1365.191406 581.925781 1365.152344 581.257812 C 1365.03125 579.199219 1363.945312 577.335938 1362.386719 576.5 C 1360.871094 575.714844 1358.992188 575.792969 1356.902344 576.0625 C 1357.003906 578.300781 1356.664062 580.511719 1355.859375 582.355469 C 1357.429688 583.28125 1359.171875 584.84375 1359.351562 586.496094 C 1359.390625 586.902344 1359.410156 587.3125 1359.449219 587.730469 C 1359.488281 588.457031 1359.519531 589.164062 1359.699219 589.722656 C 1361.011719 590.46875 1361.757812 591.722656 1362.226562 592.667969 C 1362.890625 594.023438 1363.011719 595.605469 1362.625 597.058594 C 1362.691406 597.179688 1362.832031 597.25 1362.871094 597.386719 L 1363.152344 598.035156 C 1363.96875 599.957031 1364.890625 602.039062 1366.226562 603.273438 L 1475.808594 603.371094 C 1476.046875 603.074219 1476.257812 602.742188 1476.535156 602.484375 C 1478.21875 600.78125 1480.765625 598.78125 1483.9375 597.765625 C 1483.9375 597.667969 1483.898438 597.566406 1483.917969 597.46875 C 1483.996094 596.472656 1484.347656 595.546875 1484.664062 594.730469 L 1484.84375 594.230469 C 1485.578125 592.160156 1487.09375 590.417969 1488.972656 589.292969 Z M 1509.070312 523.691406 C 1509.167969 523.753906 1509.25 523.8125 1509.339844 523.851562 C 1509.050781 523.246094 1508.621094 522.636719 1508.046875 522.089844 C 1507.03125 521.082031 1505.699219 520.328125 1504.425781 519.582031 L 1492.085938 512.421875 C 1489.113281 510.679688 1487.25 508.371094 1485.289062 505.902344 L 1484.914062 505.433594 C 1483.859375 504.136719 1482.960938 502.726562 1482.117188 501.269531 C 1482.15625 504.117188 1481.589844 506.699219 1480.375 508.816406 C 1480.136719 509.246094 1479.847656 509.664062 1479.570312 510.09375 C 1478.941406 511.039062 1478.355469 511.914062 1478.277344 512.820312 C 1478.117188 514.175781 1479.0625 515.539062 1480.039062 516.992188 L 1480.496094 517.660156 C 1482.804688 521.144531 1484.195312 525.144531 1484.566406 529.296875 C 1485.621094 529.148438 1486.703125 529.070312 1487.777344 529.109375 C 1492.515625 525.027344 1498.625 522.417969 1504.273438 522.128906 C 1506.34375 522.011719 1507.796875 522.914062 1509.070312 523.691406 Z M 1511.539062 570.226562 C 1512.265625 568.046875 1513.605469 566.164062 1515.378906 564.75 C 1513.519531 564.152344 1511.636719 564.09375 1509.636719 564.035156 C 1508.632812 564.015625 1507.636719 563.996094 1506.601562 563.914062 C 1499.101562 563.308594 1491.828125 564.460938 1484.445312 566.246094 C 1482.765625 567.191406 1480.941406 568.046875 1478.535156 568.085938 C 1478.457031 568.085938 1478.375 568.085938 1478.296875 568.085938 C 1478.046875 568.085938 1477.789062 568.046875 1477.53125 568.046875 C 1476.148438 568.425781 1474.734375 568.832031 1473.300781 569.222656 C 1466.15625 571.242188 1458.753906 573.34375 1451.273438 574.300781 C 1441.851562 575.535156 1432.152344 575.007812 1422.789062 574.5 C 1411.605469 573.890625 1400.082031 573.285156 1389.199219 575.734375 C 1389.566406 575.992188 1389.964844 576.242188 1390.332031 576.519531 C 1392.550781 578.042969 1394.839844 579.65625 1397.207031 580.949219 C 1401.226562 583.121094 1404.96875 584.046875 1408.3125 583.707031 C 1415.464844 582.980469 1421.554688 583.609375 1428 584.277344 C 1431.902344 584.671875 1435.929688 585.082031 1440.28125 585.179688 C 1447.09375 585.339844 1453.988281 585.6875 1460.785156 586.238281 C 1467.78125 586.804688 1474.046875 587.53125 1479.929688 588.4375 C 1480.019531 588.457031 1480.078125 588.488281 1480.15625 588.535156 C 1481.570312 587.210938 1483.3125 586.21875 1484.953125 585.929688 C 1487.597656 585.449219 1490.425781 586.257812 1492.433594 588 C 1492.496094 588 1492.535156 587.980469 1492.59375 587.980469 C 1492.632812 586.457031 1493.011719 584.652344 1493.398438 583.886719 C 1493.925781 582.882812 1494.734375 582.003906 1495.867188 581.160156 C 1499.726562 578.320312 1505.148438 577.894531 1509.4375 579.964844 C 1510.203125 579.335938 1511.050781 578.949219 1511.867188 578.671875 C 1510.929688 575.933594 1510.773438 572.558594 1511.539062 570.226562 Z M 1552.410156 602.058594 C 1552.371094 597.976562 1552.222656 593.902344 1551.722656 589.902344 C 1551.394531 587.101562 1551.355469 584.296875 1551.457031 581.519531 C 1550.46875 581.257812 1549.394531 581.097656 1548.300781 581.078125 C 1548.082031 581.160156 1547.875 581.21875 1547.632812 581.320312 C 1546.082031 581.847656 1544.09375 582.8125 1542.460938 584.472656 C 1540.839844 586.117188 1539.914062 588.136719 1539.40625 589.691406 C 1538.878906 591.253906 1538.679688 592.371094 1538.210938 592.429688 C 1537.804688 592.507812 1537.117188 591.394531 1537.097656 589.351562 C 1537.058594 587.75 1537.605469 585.511719 1539.019531 583.488281 C 1537.058594 582.753906 1534.917969 582.3125 1532.828125 582.304688 C 1531.4375 582.253906 1530.300781 582.453125 1529.378906 582.8125 C 1528.710938 583.082031 1527.835938 584.105469 1527.1875 585.339844 C 1526.949219 585.808594 1526.460938 586.117188 1525.933594 586.136719 C 1523.050781 586.238281 1520.351562 589.570312 1519.039062 592.628906 C 1518.800781 593.175781 1518.273438 593.523438 1517.648438 593.523438 C 1516.941406 593.515625 1516.273438 593.496094 1515.628906 593.453125 C 1512.632812 593.355469 1510.464844 593.257812 1507.578125 594.292969 C 1505.71875 594.976562 1503.875 598.703125 1503.46875 601.609375 C 1503.429688 601.957031 1503.25 602.277344 1503 602.484375 C 1504.136719 602.683594 1505.210938 602.992188 1506.226562 603.429688 C 1507.675781 601.210938 1509.90625 600.214844 1511.457031 600.015625 C 1513.4375 599.757812 1514.472656 600.40625 1514.414062 600.722656 C 1514.351562 601.089844 1513.339844 601.210938 1511.984375 601.878906 C 1510.671875 602.503906 1508.929688 603.898438 1508.363281 605.949219 C 1508.144531 606.757812 1507.308594 607.222656 1506.523438 607.015625 C 1506.445312 606.996094 1506.363281 606.957031 1506.285156 606.9375 L 1506.144531 606.855469 C 1504.992188 606.328125 1503.675781 605.921875 1502.253906 605.722656 C 1498.824219 605.214844 1495.539062 606.109375 1493.660156 607.222656 C 1491.699219 608.347656 1491.242188 609.773438 1490.773438 609.773438 C 1490.554688 609.761719 1490.34375 609.304688 1490.464844 608.449219 C 1490.554688 607.601562 1491.121094 606.429688 1492.207031 605.402344 C 1492.890625 604.734375 1493.769531 604.148438 1494.792969 603.640625 C 1494.652344 603.539062 1494.535156 603.429688 1494.433594 603.292969 C 1492.992188 600.980469 1489.886719 599.707031 1486.761719 600.097656 C 1483.25 600.542969 1480.394531 602.785156 1478.613281 604.566406 C 1477.140625 606.050781 1475.867188 608.429688 1474.921875 610.480469 C 1475.300781 610.441406 1475.667969 610.390625 1476.066406 610.390625 C 1482.097656 610.25 1486.566406 612.421875 1486.265625 613.269531 C 1486.015625 614.144531 1481.53125 613.554688 1476.148438 613.675781 C 1474.285156 613.714844 1472.753906 613.996094 1471.519531 614.441406 C 1470.207031 615.328125 1469.253906 616.773438 1468.992188 618.324219 C 1471.820312 618.503906 1474.394531 618.425781 1476.714844 618.007812 C 1479.46875 617.539062 1482.921875 618.914062 1484.992188 621.203125 C 1486.824219 620.925781 1488.933594 621.441406 1489.957031 621.808594 C 1491.28125 622.296875 1492.472656 623.183594 1493.339844 624.339844 C 1495.339844 623.949219 1497.546875 623.710938 1499.917969 623.671875 C 1502.5625 623.59375 1504.972656 624.140625 1506.929688 625.207031 C 1509.03125 623.992188 1511.179688 623.34375 1513.847656 623.085938 C 1514.792969 621.101562 1516.492188 619.300781 1518.492188 618.265625 C 1520.394531 617.25 1522.601562 616.890625 1524.742188 617.230469 C 1526.679688 613.972656 1530.023438 610.976562 1533.316406 609.582031 C 1535.375 606.328125 1538.859375 603.558594 1542.539062 602.304688 C 1545.695312 601.25 1549.207031 601.171875 1552.410156 602.058594 Z M 1552.222656 536.355469 L 1552.222656 530.8125 C 1548.359375 529.753906 1545.167969 527.285156 1542.074219 524.867188 C 1539.058594 522.519531 1536.210938 520.308594 1532.871094 519.363281 C 1528.324219 518.085938 1522.460938 519.859375 1519.269531 523.484375 C 1518.980469 523.8125 1518.53125 524.011719 1518.074219 523.972656 C 1515.707031 523.773438 1513.199219 525.027344 1511.785156 527.007812 C 1511.398438 527.574219 1510.691406 527.773438 1510.066406 527.535156 C 1509.070312 527.167969 1508.246094 526.660156 1507.519531 526.203125 C 1506.402344 525.496094 1505.617188 524.988281 1504.425781 525.066406 C 1499.328125 525.324219 1493.539062 527.875 1489.28125 531.695312 C 1488.992188 531.964844 1488.605469 532.105469 1488.1875 532.085938 C 1483.898438 531.765625 1479.46875 533.539062 1476.902344 536.515625 C 1476.457031 537.023438 1475.710938 537.183594 1475.121094 536.863281 C 1470.1875 534.355469 1463.550781 534.804688 1458.617188 537.980469 C 1458.316406 538.179688 1457.988281 538.257812 1457.632812 538.199219 C 1455.769531 537.960938 1453.851562 538.117188 1452.070312 538.667969 C 1451.902344 538.707031 1451.542969 538.824219 1451.34375 538.964844 C 1451.382812 539.085938 1451.382812 539.214844 1451.382812 539.351562 C 1451.949219 539.632812 1452.527344 539.882812 1453.074219 540.179688 C 1459.808594 543.625 1466.179688 547.824219 1471.96875 552.664062 C 1474.945312 555.152344 1477.867188 556.269531 1480.984375 557.445312 C 1483.488281 558.390625 1486.078125 559.40625 1488.792969 561.128906 C 1489.339844 561.167969 1489.816406 561.527344 1490.027344 562.054688 C 1495.570312 561.046875 1501.171875 560.519531 1506.832031 560.976562 C 1507.816406 561.046875 1508.773438 561.066406 1509.695312 561.085938 C 1511.777344 561.148438 1513.886719 561.226562 1516.085938 561.894531 C 1515.925781 559.464844 1516.613281 556.9375 1518.074219 554.804688 C 1518.09375 549.976562 1520.742188 545.039062 1524.640625 542.609375 C 1528.5 540.238281 1533.457031 539.921875 1537.585938 541.742188 C 1539.347656 540.300781 1541.683594 539.691406 1543.265625 539.433594 C 1544.910156 537.769531 1547.355469 536.554688 1549.941406 536.199219 C 1550.789062 536.078125 1551.535156 536.15625 1552.222656 536.355469 Z M 1552.222656 566.445312 L 1552.222656 539.832031 C 1552.003906 539.691406 1551.824219 539.511719 1551.703125 539.273438 C 1551.652344 539.164062 1551.117188 538.984375 1550.359375 539.105469 C 1548.28125 539.394531 1546.261719 540.4375 1545.105469 541.761719 C 1544.867188 542.0625 1544.539062 542.242188 1544.183594 542.28125 C 1542.582031 542.488281 1541.167969 542.96875 1540.113281 543.59375 C 1540.351562 543.644531 1540.601562 543.664062 1540.839844 543.742188 C 1542.359375 544.222656 1543.65625 545.136719 1544.621094 546.214844 C 1545.613281 545.277344 1546.699219 544.671875 1547.554688 544.410156 C 1548.847656 544.023438 1549.652344 544.171875 1549.734375 544.472656 C 1549.941406 545.117188 1547.226562 546.191406 1545.792969 549.328125 C 1545.476562 550.035156 1544.640625 550.355469 1543.933594 550.035156 C 1543.675781 549.917969 1543.484375 549.746094 1543.347656 549.546875 L 1543.207031 549.347656 C 1542.5 548.3125 1541.304688 547.347656 1539.835938 546.898438 C 1537.277344 546.042969 1534.878906 547.199219 1533.515625 548.554688 C 1532.125 549.847656 1531.65625 551.152344 1531.179688 551.089844 C 1530.769531 551.089844 1530.34375 549.390625 1531.664062 547.121094 C 1532.34375 546.003906 1533.457031 544.820312 1535.078125 544.0625 C 1535.117188 544.042969 1535.179688 544.042969 1535.21875 544.023438 C 1532.242188 543.117188 1528.808594 543.496094 1526.183594 545.117188 C 1523.050781 547.058594 1520.878906 551.3125 1521.019531 555.214844 C 1521.039062 555.542969 1520.941406 555.878906 1520.722656 556.148438 C 1519.140625 558.230469 1518.613281 560.878906 1519.257812 563.128906 C 1519.804688 563.007812 1520.351562 562.929688 1520.921875 562.929688 C 1522.523438 562.878906 1523.972656 563.109375 1525.289062 563.40625 C 1525.796875 561.445312 1526.96875 560.050781 1527.964844 559.34375 C 1529.316406 558.410156 1530.324219 558.410156 1530.441406 558.679688 C 1530.589844 558.996094 1529.945312 559.585938 1529.257812 560.640625 C 1528.570312 561.65625 1527.835938 563.347656 1528.023438 565.191406 C 1528.125 565.976562 1527.554688 566.683594 1526.769531 566.773438 C 1526.640625 566.773438 1526.523438 566.773438 1526.402344 566.753906 L 1526.222656 566.734375 C 1524.542969 566.484375 1522.761719 566.164062 1521.039062 566.246094 C 1519.40625 566.304688 1518.113281 566.734375 1517.039062 567.539062 C 1516.3125 568.046875 1515.726562 568.675781 1515.199219 569.300781 C 1514.839844 569.890625 1514.53125 570.496094 1514.332031 571.125 C 1513.628906 573.265625 1514.023438 576.789062 1515.199219 579.027344 C 1515.417969 579.4375 1515.417969 579.925781 1515.199219 580.351562 C 1515 580.769531 1514.59375 581.078125 1514.144531 581.160156 C 1512.511719 581.417969 1511.496094 581.90625 1510.8125 582.730469 C 1510.34375 583.28125 1509.539062 583.417969 1508.910156 583.019531 C 1505.476562 580.949219 1500.84375 581.140625 1497.609375 583.527344 C 1496.84375 584.105469 1496.316406 584.671875 1496.007812 585.261719 C 1495.6875 585.847656 1495.398438 588.277344 1495.570312 588.886719 C 1495.707031 589.332031 1495.609375 589.839844 1495.339844 590.21875 C 1495.042969 590.585938 1494.613281 590.867188 1494.125 590.828125 C 1491.359375 590.707031 1488.542969 592.609375 1487.597656 595.238281 L 1487.410156 595.765625 C 1487.230469 596.253906 1487.070312 596.699219 1486.953125 597.160156 C 1490.652344 596.859375 1494.265625 598.3125 1496.355469 600.921875 C 1497.042969 600.800781 1497.808594 600.664062 1498.574219 600.503906 C 1499.328125 600.363281 1500.074219 600.214844 1500.761719 600.097656 C 1501.449219 597.019531 1503.390625 592.6875 1506.582031 591.535156 C 1509.984375 590.300781 1512.652344 590.417969 1515.726562 590.507812 C 1516.066406 590.527344 1516.414062 590.546875 1516.761719 590.546875 C 1518.371094 587.3125 1521.289062 583.867188 1524.96875 583.28125 C 1525.617188 582.222656 1526.75 580.691406 1528.300781 580.082031 C 1529.597656 579.578125 1531.046875 579.335938 1532.871094 579.355469 C 1535.238281 579.378906 1537.644531 579.824219 1539.875 580.671875 C 1543.109375 578.164062 1547.753906 577.714844 1551.59375 578.539062 C 1551.652344 577.394531 1551.722656 576.261719 1551.804688 575.125 C 1552.003906 572.269531 1552.222656 569.300781 1552.222656 566.445312 Z M 1552.320312 612.222656 C 1552.371094 609.894531 1552.390625 607.542969 1552.410156 605.171875 C 1549.554688 604.1875 1546.339844 604.136719 1543.484375 605.09375 C 1540.332031 606.167969 1537.238281 608.679688 1535.566406 611.503906 C 1535.417969 611.792969 1535.136719 612.011719 1534.820312 612.132812 C 1531.804688 613.289062 1528.34375 616.484375 1526.789062 619.558594 C 1526.480469 620.1875 1525.753906 620.515625 1525.089844 620.316406 C 1523.347656 619.808594 1521.449219 620.007812 1519.867188 620.855469 C 1518.214844 621.710938 1516.800781 623.324219 1516.253906 624.945312 C 1516.066406 625.535156 1515.546875 625.921875 1514.941406 625.972656 C 1512.046875 626.121094 1509.894531 626.769531 1507.738281 628.160156 C 1507.230469 628.492188 1506.601562 628.472656 1506.105469 628.140625 C 1504.136719 626.808594 1501.707031 626.550781 1499.976562 626.609375 C 1497.707031 626.648438 1495.628906 626.90625 1493.726562 627.277344 C 1494.007812 628.003906 1494.164062 628.730469 1494.1875 629.457031 C 1497.21875 629.316406 1499.160156 629.476562 1499.21875 629.945312 C 1499.289062 630.472656 1496.824219 631.339844 1492.933594 632.195312 C 1492.265625 632.332031 1491.597656 631.925781 1491.441406 631.238281 C 1491.417969 631.117188 1491.398438 631 1491.417969 630.871094 L 1491.441406 630.632812 C 1491.519531 629.707031 1491.179688 628.589844 1490.425781 627.65625 C 1489.679688 626.707031 1488.484375 625.910156 1487.03125 625.363281 C 1483.410156 623.910156 1479.667969 624.476562 1477.261719 625.515625 C 1474.792969 626.527344 1473.441406 627.734375 1473.074219 627.394531 C 1472.734375 627.15625 1473.519531 625.285156 1476.148438 623.460938 C 1477.28125 622.65625 1478.863281 621.96875 1480.683594 621.609375 C 1479.511719 621.023438 1478.238281 620.734375 1477.203125 620.914062 C 1473.988281 621.480469 1470.328125 621.519531 1466.289062 621.042969 C 1465.898438 621.003906 1465.550781 620.792969 1465.3125 620.496094 C 1464.507812 619.460938 1462.527344 618.914062 1461.144531 619.320312 C 1460.535156 619.519531 1459.871094 619.28125 1459.492188 618.753906 C 1458.179688 616.832031 1456.089844 615.289062 1453.621094 614.421875 C 1451.363281 613.636719 1448.796875 613.367188 1445.960938 613.617188 C 1442.984375 613.875 1440.0625 614.703125 1437.425781 615.9375 C 1437.710938 616.066406 1437.992188 616.203125 1438.28125 616.363281 C 1440.964844 617.925781 1442.566406 620.109375 1443.839844 621.988281 C 1445.683594 620.835938 1447.640625 620.855469 1448.835938 621.203125 C 1450.429688 621.671875 1450.976562 622.496094 1450.816406 622.714844 C 1450.667969 622.984375 1449.859375 622.734375 1448.628906 622.824219 C 1447.453125 622.886719 1445.621094 623.441406 1444.628906 624.925781 C 1444.21875 625.535156 1443.375 625.691406 1442.765625 625.285156 C 1442.667969 625.207031 1442.566406 625.125 1442.5 625.027344 L 1442.378906 624.867188 C 1440.765625 622.925781 1439.007812 620.574219 1436.675781 619.242188 C 1434.996094 618.324219 1433.097656 618.027344 1431.703125 618.503906 C 1430.308594 618.914062 1429.273438 620.109375 1428.589844 621.261719 C 1427.316406 623.671875 1426.867188 625.671875 1426.351562 625.554688 C 1426.121094 625.535156 1425.960938 625.027344 1425.921875 624.140625 C 1425.882812 623.304688 1425.921875 622.089844 1426.390625 620.574219 C 1424.339844 620.085938 1422.121094 620.285156 1420.203125 621.203125 C 1418.09375 622.238281 1416.402344 624.070312 1415.585938 626.199219 C 1415.425781 626.628906 1415.066406 626.96875 1414.640625 627.085938 C 1412.957031 627.59375 1411.644531 629.15625 1411.15625 631.316406 C 1411 632.003906 1410.371094 632.492188 1409.664062 632.453125 C 1407.605469 632.414062 1405.496094 633.410156 1404.144531 635.023438 L 1464.425781 635.023438 C 1466.894531 635.023438 1469.363281 635.0625 1471.839844 635.121094 C 1476.695312 635.199219 1481.75 635.289062 1486.605469 635.023438 C 1492.972656 634.664062 1499.410156 634.78125 1505.65625 634.902344 C 1508.832031 634.960938 1511.984375 635.023438 1515.160156 635.023438 L 1552.222656 635.023438 L 1552.222656 620.734375 C 1552.222656 617.886719 1552.25 615.070312 1552.320312 612.222656 Z M 1552.628906 498.054688 C 1553.136719 495.566406 1552.878906 493.535156 1552.589844 491.15625 C 1552.429688 490.019531 1552.300781 488.867188 1552.222656 487.570312 C 1552.023438 484.335938 1552.082031 481.070312 1552.140625 477.894531 C 1552.179688 476.300781 1552.222656 474.738281 1552.222656 473.183594 L 1552.222656 445.160156 L 1495.964844 445.160156 C 1492.496094 445.160156 1489.011719 445.335938 1485.621094 445.515625 C 1481.449219 445.707031 1477.140625 445.945312 1472.835938 445.824219 C 1469.839844 445.746094 1466.835938 445.644531 1463.859375 445.546875 C 1458.007812 445.359375 1451.949219 445.160156 1446.019531 445.160156 L 1363.539062 445.160156 C 1361.976562 445.160156 1360.40625 445.117188 1358.824219 445.097656 C 1353.917969 444.980469 1348.855469 444.890625 1344.207031 445.84375 C 1340.386719 446.652344 1337.472656 446.164062 1334.097656 445.605469 C 1333.492188 445.515625 1332.84375 445.417969 1332.179688 445.316406 C 1328.964844 444.851562 1325.742188 444.949219 1322.328125 445.058594 C 1320.847656 445.117188 1319.332031 445.160156 1317.839844 445.160156 L 1317.175781 445.160156 C 1315.355469 445.160156 1310.378906 445.160156 1307.664062 445.160156 C 1307.644531 447.21875 1307.664062 451.171875 1307.753906 456.976562 C 1307.773438 457.804688 1307.773438 458.371094 1307.773438 458.507812 L 1307.773438 464.3125 C 1307.792969 468.1875 1307.792969 472.050781 1307.773438 475.933594 C 1307.773438 477.574219 1307.542969 479.070312 1307.324219 480.503906 C 1307.015625 482.59375 1306.738281 484.414062 1307.164062 486.417969 C 1307.851562 489.730469 1307.832031 492.769531 1307.792969 495.964844 C 1307.773438 496.671875 1307.773438 497.347656 1307.773438 498.074219 L 1307.773438 541.214844 C 1307.773438 543.296875 1307.523438 545.40625 1307.265625 547.449219 C 1306.898438 550.453125 1306.546875 553.292969 1306.996094 555.980469 C 1307.582031 559.625 1307.265625 563.148438 1306.976562 566.5625 C 1306.9375 567.089844 1306.898438 567.597656 1306.855469 568.105469 C 1307.703125 567.71875 1308.597656 567.417969 1309.503906 567.300781 C 1309.601562 564.035156 1311.164062 560.640625 1313.671875 558.429688 C 1313.304688 556.109375 1313.730469 553.679688 1314.867188 551.917969 C 1316.039062 550.117188 1317.632812 548.683594 1319.09375 547.386719 C 1319.292969 546.632812 1319.550781 545.882812 1319.902344 545.15625 C 1318.339844 544.730469 1316.925781 543.683594 1316.078125 542.320312 C 1315.203125 540.847656 1314.785156 539.472656 1314.847656 538.21875 C 1313.046875 536.617188 1311.851562 534.375 1311.523438 531.964844 C 1311.222656 529.804688 1311.792969 527.347656 1313.046875 525.285156 C 1309.601562 521.460938 1308.917969 515.050781 1310.378906 510.859375 C 1311.265625 508.308594 1312.519531 505.941406 1314.078125 503.71875 C 1314.199219 503.3125 1314.339844 502.882812 1314.558594 502.40625 C 1315.183594 501.101562 1316.359375 499.648438 1318.121094 498.644531 C 1318.585938 498.375 1319.074219 498.15625 1319.613281 497.964844 C 1319.003906 492.6875 1321.253906 486.925781 1325.304688 483.398438 C 1325.152344 481.167969 1325.601562 478.890625 1326.535156 476.929688 C 1326.875 476.03125 1327.34375 475.085938 1328.070312 474.210938 C 1328.308594 473.890625 1328.597656 473.601562 1328.914062 473.304688 C 1329.5 469.699219 1331.183594 466.34375 1333.769531 463.738281 C 1336.585938 460.917969 1340.328125 459.117188 1344.285156 458.660156 C 1346.914062 458.390625 1349.710938 458.640625 1353.082031 459.503906 C 1355.589844 460.152344 1359.25 461.308594 1361.9375 464.015625 C 1364.085938 466.195312 1365.847656 469.820312 1365.132812 473.125 C 1365.847656 473.792969 1366.445312 474.679688 1366.8125 475.714844 C 1367.199219 476.769531 1367.398438 477.972656 1367.398438 479.476562 C 1367.417969 481.191406 1367.050781 482.851562 1366.632812 484.316406 C 1367.964844 486.007812 1368.671875 488.160156 1368.59375 490.339844 C 1368.515625 492.140625 1368.066406 493.683594 1367.28125 494.960938 C 1369.101562 495.824219 1370.800781 496.878906 1372.375 498.113281 C 1372.613281 498.15625 1372.820312 498.253906 1373.039062 498.394531 C 1375.707031 500.394531 1377.546875 503.570312 1377.9375 506.875 C 1378.285156 509.933594 1377.488281 513.207031 1375.835938 515.65625 C 1377.488281 518.503906 1378.265625 521.28125 1378.175781 523.953125 C 1381.714844 522.636719 1385.539062 522.359375 1388.960938 522.109375 L 1392.371094 521.871094 C 1394.132812 521.761719 1395.039062 519.679688 1396.292969 516.285156 C 1397.347656 513.46875 1398.421875 510.519531 1400.789062 509.015625 C 1403.65625 507.175781 1407.703125 507.175781 1411.355469 509.035156 C 1413.464844 510.09375 1415.207031 511.605469 1416.859375 513.1875 C 1419.613281 511.726562 1421.632812 508.9375 1423.734375 506 C 1426.222656 502.527344 1428.777344 498.941406 1432.835938 497.277344 C 1433.582031 496.960938 1434.371094 496.75 1435.125 496.511719 C 1436.191406 496.195312 1437.183594 495.90625 1438.03125 495.417969 C 1440.199219 494.082031 1441.285156 491.296875 1442.257812 488.339844 C 1442.726562 486.882812 1444 483.050781 1447.3125 482.515625 C 1449.859375 482.125 1451.949219 483.96875 1453.085938 484.964844 L 1467.898438 497.945312 L 1478.675781 489.105469 C 1479.0625 488.765625 1479.628906 488.6875 1480.097656 488.867188 C 1480.59375 489.046875 1480.941406 489.472656 1481.042969 489.980469 C 1481.917969 494.960938 1484.058594 499.667969 1487.210938 503.582031 L 1487.578125 504.078125 C 1489.441406 506.410156 1491.050781 508.429688 1493.558594 509.882812 L 1505.917969 517.050781 C 1507.269531 517.839844 1508.8125 518.734375 1510.085938 519.96875 C 1510.96875 520.816406 1511.617188 521.769531 1512.046875 522.757812 C 1513.6875 521.660156 1515.605469 521.035156 1517.546875 521.015625 C 1521.585938 516.890625 1528.222656 515.011719 1533.644531 516.542969 C 1537.566406 517.640625 1540.78125 520.128906 1543.875 522.558594 C 1546.621094 524.699219 1549.238281 526.71875 1552.222656 527.734375 L 1552.222656 514.582031 C 1552.222656 513.148438 1552.160156 511.683594 1552.121094 510.210938 C 1551.984375 506.191406 1551.84375 502.039062 1552.628906 498.054688 Z M 1554.777344 441.355469 L 1560.441406 435.382812 L 1502.621094 435.382812 C 1498.800781 435.382812 1494.960938 435.582031 1491.242188 435.75 C 1486.644531 435.988281 1481.898438 436.226562 1477.164062 436.109375 C 1473.867188 436.027344 1470.59375 435.929688 1467.332031 435.808594 C 1460.863281 435.601562 1454.207031 435.382812 1447.660156 435.382812 L 1356.863281 435.382812 C 1355.160156 435.382812 1353.410156 435.34375 1351.6875 435.300781 C 1346.265625 435.183594 1340.683594 435.0625 1335.550781 436.148438 C 1331.382812 437.003906 1328.207031 436.496094 1324.507812 435.890625 C 1323.839844 435.769531 1323.132812 435.652344 1322.386719 435.550781 C 1318.824219 435.023438 1315.273438 435.144531 1311.503906 435.28125 C 1309.871094 435.320312 1308.230469 435.382812 1306.589844 435.382812 L 1305.863281 435.382812 C 1304.777344 435.382812 1302.707031 435.382812 1300.570312 435.382812 C 1302.371094 437.304688 1304.128906 439.265625 1305.84375 441.246094 C 1306.449219 441.246094 1308.597656 441.246094 1317.175781 441.246094 L 1317.839844 441.246094 C 1319.292969 441.246094 1320.746094 441.207031 1322.1875 441.144531 C 1325.640625 441.027344 1329.183594 440.90625 1332.765625 441.433594 C 1333.453125 441.535156 1334.097656 441.652344 1334.726562 441.753906 C 1337.839844 442.261719 1340.285156 442.648438 1343.402344 442.003906 C 1348.476562 440.945312 1353.789062 441.066406 1358.902344 441.175781 C 1360.464844 441.207031 1362.015625 441.246094 1363.539062 441.246094 L 1446.019531 441.246094 C 1452.03125 441.246094 1458.109375 441.433594 1463.980469 441.632812 C 1466.953125 441.722656 1469.9375 441.824219 1472.914062 441.902344 C 1477.101562 442.003906 1481.332031 441.792969 1485.429688 441.59375 C 1488.851562 441.414062 1492.394531 441.246094 1495.964844 441.246094 L 1554.171875 441.246094 C 1554.390625 441.246094 1554.589844 441.296875 1554.777344 441.355469 Z M 1523.753906 644.738281 L 1561.792969 644.738281 C 1559.34375 642.628906 1556.71875 640.6875 1553.960938 638.945312 L 1515.160156 638.945312 C 1511.964844 638.945312 1508.773438 638.886719 1505.578125 638.824219 C 1499.410156 638.707031 1493.03125 638.585938 1486.824219 638.945312 C 1481.828125 639.214844 1476.714844 639.113281 1471.757812 639.042969 C 1469.3125 638.984375 1466.863281 638.945312 1464.425781 638.945312 L 1355.707031 638.945312 C 1352.535156 638.945312 1349.558594 638.945312 1346.4375 639.472656 C 1345.320312 639.671875 1344.226562 639.742188 1343.132812 639.742188 C 1341.3125 639.742188 1339.511719 639.53125 1337.769531 639.332031 C 1336.019531 639.132812 1334.398438 638.945312 1332.746094 638.945312 L 1307.125 638.945312 C 1306.796875 638.945312 1306.46875 638.945312 1306.128906 638.925781 C 1304.289062 640.945312 1302.347656 642.867188 1300.351562 644.738281 C 1302.410156 644.738281 1304.46875 644.738281 1305.742188 644.738281 L 1322.976562 644.738281 C 1325.035156 644.738281 1327.035156 644.976562 1328.964844 645.195312 C 1331.890625 645.527344 1334.644531 645.84375 1337.371094 645.386719 C 1341.132812 644.738281 1344.753906 644.738281 1348.265625 644.738281 L 1467.9375 644.738281 C 1470.617188 644.738281 1473.339844 644.796875 1476.066406 644.839844 C 1481.429688 644.9375 1486.972656 645.039062 1492.324219 644.738281 C 1499.308594 644.351562 1506.421875 644.488281 1513.277344 644.609375 C 1516.761719 644.679688 1520.273438 644.738281 1523.753906 644.738281 Z M 1565.183594 493.84375 C 1565.753906 491.085938 1565.453125 488.804688 1565.125 486.179688 C 1564.988281 484.941406 1564.808594 483.648438 1564.738281 482.246094 C 1564.519531 478.691406 1564.578125 475.085938 1564.65625 471.601562 C 1564.699219 469.859375 1564.738281 468.128906 1564.738281 466.425781 L 1564.738281 435.382812 L 1564.5 435.382812 L 1556.132812 444.222656 L 1556.132812 473.183594 C 1556.132812 474.777344 1556.089844 476.359375 1556.050781 477.972656 C 1556.003906 481.070312 1555.941406 484.257812 1556.113281 487.324219 C 1556.191406 488.539062 1556.332031 489.632812 1556.46875 490.667969 C 1556.777344 493.277344 1557.097656 495.726562 1556.46875 498.820312 C 1555.761719 502.355469 1555.902344 506.289062 1556.042969 510.074219 C 1556.070312 511.605469 1556.132812 513.109375 1556.132812 514.582031 L 1556.132812 566.445312 C 1556.132812 569.441406 1555.921875 572.457031 1555.722656 575.394531 C 1555.375 580.261719 1555.058594 584.84375 1555.605469 589.433594 C 1556.550781 597.078125 1556.390625 604.816406 1556.230469 612.300781 C 1556.171875 615.109375 1556.132812 617.925781 1556.132812 620.734375 L 1556.132812 636.804688 C 1559.164062 638.785156 1562.050781 640.964844 1564.738281 643.386719 L 1564.738281 628.808594 C 1564.738281 625.691406 1564.789062 622.578125 1564.847656 619.460938 C 1565.007812 611.367188 1565.183594 602.972656 1564.179688 594.859375 C 1563.542969 589.433594 1563.910156 583.945312 1564.28125 578.628906 C 1564.5 575.472656 1564.738281 572.230469 1564.738281 569.074219 L 1564.738281 511.972656 C 1564.738281 510.410156 1564.679688 508.796875 1564.617188 507.175781 C 1564.480469 502.746094 1564.320312 498.175781 1565.183594 493.84375 Z M 1564.171875 431.457031 L 1567.632812 427.796875 L 1505.558594 427.796875 C 1501.589844 427.796875 1497.570312 428.015625 1493.6875 428.203125 C 1488.933594 428.441406 1483.996094 428.699219 1479.082031 428.582031 C 1475.667969 428.480469 1472.246094 428.382812 1468.816406 428.261719 C 1462.117188 428.023438 1455.183594 427.796875 1448.367188 427.796875 L 1353.917969 427.796875 C 1352.136719 427.796875 1350.355469 427.753906 1348.535156 427.714844 C 1342.894531 427.597656 1337.042969 427.457031 1331.632812 428.621094 C 1327.402344 429.515625 1324.128906 428.96875 1320.347656 428.34375 C 1319.652344 428.222656 1318.90625 428.105469 1318.140625 427.996094 C 1314.378906 427.425781 1310.65625 427.554688 1306.71875 427.675781 C 1305.015625 427.734375 1303.316406 427.796875 1301.601562 427.796875 L 1300.847656 427.796875 C 1299.335938 427.796875 1295.890625 427.796875 1292.925781 427.796875 C 1294.222656 429.007812 1295.496094 430.222656 1296.746094 431.457031 C 1298.628906 431.457031 1301.472656 431.457031 1305.863281 431.457031 L 1306.589844 431.457031 C 1308.171875 431.457031 1309.773438 431.398438 1311.382812 431.359375 C 1315.144531 431.230469 1319.054688 431.089844 1322.976562 431.679688 C 1323.722656 431.796875 1324.449219 431.90625 1325.132812 432.027344 C 1328.578125 432.574219 1331.300781 433.03125 1334.746094 432.304688 C 1340.308594 431.148438 1346.148438 431.261719 1351.769531 431.378906 C 1353.46875 431.417969 1355.171875 431.457031 1356.863281 431.457031 L 1447.660156 431.457031 C 1454.269531 431.457031 1460.964844 431.679688 1467.441406 431.886719 C 1470.714844 432.007812 1473.988281 432.105469 1477.261719 432.1875 C 1481.859375 432.304688 1486.523438 432.066406 1491.050781 431.847656 C 1494.8125 431.65625 1498.703125 431.457031 1502.621094 431.457031 Z M 1527.535156 652.285156 L 1569.09375 652.285156 C 1568.0625 651.03125 1567.007812 649.816406 1565.910156 648.660156 L 1523.753906 648.660156 C 1520.234375 648.660156 1516.730469 648.601562 1513.21875 648.523438 C 1506.421875 648.414062 1499.390625 648.273438 1492.554688 648.660156 C 1487.050781 648.960938 1481.429688 648.859375 1475.988281 648.761719 C 1473.28125 648.722656 1470.59375 648.660156 1467.9375 648.660156 L 1348.265625 648.660156 C 1344.753906 648.660156 1341.472656 648.660156 1338.019531 649.25 C 1336.804688 649.449219 1335.609375 649.527344 1334.417969 649.527344 C 1332.417969 649.527344 1330.4375 649.308594 1328.515625 649.089844 C 1326.597656 648.878906 1324.796875 648.660156 1322.976562 648.660156 L 1296.023438 648.660156 C 1295.335938 649.25 1294.617188 649.816406 1293.933594 650.402344 C 1293.363281 651.050781 1292.789062 651.679688 1292.199219 652.285156 L 1318.667969 652.285156 C 1320.765625 652.285156 1322.835938 652.523438 1324.835938 652.761719 C 1327.910156 653.113281 1330.835938 653.460938 1333.730469 652.953125 C 1337.609375 652.285156 1341.351562 652.285156 1344.972656 652.285156 L 1469.460938 652.285156 C 1472.265625 652.285156 1475.082031 652.324219 1477.929688 652.386719 C 1483.511719 652.484375 1489.28125 652.605469 1494.890625 652.265625 C 1502.136719 651.859375 1509.519531 652.015625 1516.652344 652.15625 C 1520.273438 652.207031 1523.914062 652.285156 1527.535156 652.285156 Z M 1571.214844 490.886719 C 1571.800781 487.832031 1571.511719 485.363281 1571.15625 482.492188 C 1571.007812 481.199219 1570.847656 479.835938 1570.746094 478.34375 C 1570.507812 474.597656 1570.589844 470.753906 1570.667969 467.050781 C 1570.707031 465.191406 1570.746094 463.347656 1570.746094 461.507812 L 1570.746094 428.789062 C 1570.46875 429.070312 1570.21875 429.347656 1569.941406 429.617188 L 1567.832031 431.878906 C 1568.320312 432.226562 1568.648438 432.773438 1568.648438 433.421875 L 1568.648438 466.425781 C 1568.648438 468.167969 1568.609375 469.910156 1568.566406 471.683594 C 1568.488281 475.085938 1568.4375 478.621094 1568.648438 482.007812 C 1568.726562 483.320312 1568.886719 484.535156 1569.027344 485.691406 C 1569.375 488.539062 1569.710938 491.214844 1569.027344 494.609375 C 1568.261719 498.511719 1568.398438 502.84375 1568.539062 507.035156 C 1568.589844 508.699219 1568.648438 510.371094 1568.648438 511.972656 L 1568.648438 569.074219 C 1568.648438 572.359375 1568.417969 575.691406 1568.199219 578.910156 C 1567.832031 584.253906 1567.472656 589.332031 1568.082031 594.371094 C 1569.09375 602.785156 1568.925781 611.304688 1568.765625 619.539062 C 1568.707031 622.636719 1568.648438 625.734375 1568.648438 628.808594 L 1568.648438 646.699219 C 1568.648438 646.859375 1568.589844 647 1568.546875 647.160156 C 1569.292969 647.933594 1570.039062 648.742188 1570.746094 649.585938 L 1570.746094 634.664062 C 1570.746094 631.359375 1570.808594 628.023438 1570.867188 624.71875 C 1571.035156 616.046875 1571.195312 607.09375 1570.179688 598.394531 C 1569.511719 592.667969 1569.902344 586.84375 1570.28125 581.199219 C 1570.507812 577.855469 1570.746094 574.359375 1570.746094 570.972656 L 1570.746094 510.09375 C 1570.746094 508.410156 1570.6875 506.6875 1570.628906 504.933594 C 1570.46875 500.277344 1570.320312 495.4375 1571.214844 490.886719 Z M 1573.035156 422.429688 L 1509.128906 422.429688 C 1504.992188 422.429688 1500.800781 422.636719 1496.761719 422.855469 C 1491.757812 423.105469 1486.566406 423.382812 1481.371094 423.246094 C 1477.789062 423.15625 1474.207031 423.027344 1470.636719 422.917969 C 1463.632812 422.675781 1456.359375 422.429688 1449.253906 422.429688 L 1350.355469 422.429688 C 1348.4375 422.429688 1346.515625 422.390625 1344.605469 422.328125 C 1339.878906 422.230469 1335.410156 422.109375 1330.964844 422.65625 C 1324.128906 423.503906 1318.320312 423.484375 1312.695312 422.597656 C 1308.894531 422.011719 1305.054688 422.148438 1300.996094 422.308594 C 1299.195312 422.367188 1297.394531 422.429688 1295.59375 422.429688 L 1294.789062 422.429688 C 1293.285156 422.429688 1289.914062 422.429688 1286.917969 422.429688 C 1287.863281 423.226562 1288.839844 424.03125 1289.773438 424.859375 C 1291.523438 424.859375 1294.75 424.859375 1300.847656 424.859375 L 1301.601562 424.859375 C 1303.273438 424.859375 1304.9375 424.796875 1306.617188 424.738281 C 1310.519531 424.617188 1314.558594 424.460938 1318.585938 425.085938 C 1319.375 425.207031 1320.121094 425.324219 1320.847656 425.445312 C 1324.46875 426.054688 1327.34375 426.539062 1331.023438 425.734375 C 1336.765625 424.519531 1342.773438 424.660156 1348.613281 424.777344 C 1350.394531 424.816406 1352.15625 424.859375 1353.917969 424.859375 L 1448.367188 424.859375 C 1455.242188 424.859375 1462.199219 425.085938 1468.914062 425.324219 C 1472.347656 425.445312 1475.75 425.566406 1479.160156 425.644531 C 1483.957031 425.753906 1488.832031 425.503906 1493.539062 425.265625 C 1497.449219 425.066406 1501.507812 424.859375 1505.558594 424.859375 L 1570.46875 424.859375 C 1571.292969 424.03125 1572.160156 423.207031 1573.035156 422.429688 Z M 1574.230469 657.621094 C 1573.820312 657.105469 1573.433594 656.578125 1573.035156 656.070312 C 1572.808594 655.800781 1572.566406 655.480469 1572.347656 655.203125 C 1572.289062 655.203125 1572.257812 655.234375 1572.210938 655.234375 L 1527.535156 655.234375 C 1523.894531 655.234375 1520.253906 655.152344 1516.59375 655.09375 C 1509.519531 654.933594 1502.195312 654.792969 1495.042969 655.203125 C 1489.339844 655.542969 1483.511719 655.421875 1477.867188 655.324219 C 1475.042969 655.261719 1472.246094 655.234375 1469.460938 655.234375 L 1344.972656 655.234375 C 1341.472656 655.234375 1337.859375 655.234375 1334.238281 655.859375 C 1333.003906 656.070312 1331.789062 656.148438 1330.578125 656.148438 C 1328.515625 656.148438 1326.488281 655.917969 1324.507812 655.679688 C 1322.585938 655.460938 1320.605469 655.234375 1318.667969 655.234375 L 1289.078125 655.234375 C 1288.09375 656.070312 1287.078125 656.875 1286.011719 657.621094 L 1313.453125 657.621094 C 1315.730469 657.621094 1317.941406 657.871094 1320.078125 658.128906 C 1323.214844 658.5 1326.148438 658.855469 1328.964844 658.367188 C 1333.144531 657.621094 1337.144531 657.621094 1340.972656 657.621094 L 1471.320312 657.621094 C 1474.265625 657.621094 1477.242188 657.683594 1480.195312 657.742188 C 1486.039062 657.839844 1492.046875 657.949219 1497.867188 657.621094 C 1505.5 657.164062 1513.257812 657.324219 1520.742188 657.464844 C 1524.542969 657.542969 1528.34375 657.621094 1532.125 657.621094 Z M 1576.089844 629.746094 C 1576.269531 620.617188 1576.449219 611.167969 1575.363281 602.015625 C 1574.648438 595.84375 1575.074219 589.613281 1575.464844 583.570312 C 1575.703125 580.023438 1575.960938 576.359375 1575.960938 572.796875 L 1575.960938 423.753906 C 1575.15625 424.441406 1574.347656 425.148438 1573.582031 425.894531 C 1573.640625 426.03125 1573.683594 426.171875 1573.683594 426.320312 L 1573.683594 461.507812 C 1573.683594 463.367188 1573.640625 465.230469 1573.601562 467.113281 C 1573.53125 470.753906 1573.453125 474.539062 1573.683594 478.164062 C 1573.761719 479.597656 1573.921875 480.890625 1574.082031 482.144531 C 1574.429688 485.121094 1574.785156 487.949219 1574.089844 491.433594 C 1573.273438 495.6875 1573.414062 500.335938 1573.5625 504.835938 C 1573.621094 506.628906 1573.683594 508.371094 1573.683594 510.09375 L 1573.683594 570.972656 C 1573.683594 574.457031 1573.453125 577.984375 1573.214844 581.417969 C 1572.835938 586.902344 1572.449219 592.589844 1573.09375 598.035156 C 1574.160156 606.957031 1573.980469 616.003906 1573.800781 624.765625 C 1573.742188 628.0625 1573.683594 631.378906 1573.683594 634.664062 L 1573.683594 653.25 C 1574.46875 654.226562 1575.234375 655.234375 1575.960938 656.269531 L 1575.960938 640.339844 C 1575.960938 636.804688 1576.011719 633.28125 1576.089844 629.746094 Z M 1581.203125 601.351562 C 1582.320312 610.878906 1582.148438 620.535156 1581.96875 629.863281 C 1581.890625 633.359375 1581.832031 636.84375 1581.832031 640.339844 L 1581.832031 660.558594 C 1581.832031 662.183594 1580.519531 663.496094 1578.894531 663.496094 L 1532.125 663.496094 C 1528.300781 663.496094 1524.460938 663.417969 1520.640625 663.347656 C 1513.257812 663.207031 1505.617188 663.046875 1498.195312 663.476562 C 1492.167969 663.835938 1486.039062 663.714844 1480.097656 663.617188 C 1477.164062 663.554688 1474.246094 663.496094 1471.320312 663.496094 L 1340.972656 663.496094 C 1337.210938 663.496094 1333.671875 663.496094 1329.988281 664.144531 C 1328.617188 664.382812 1327.242188 664.480469 1325.910156 664.480469 C 1323.679688 664.480469 1321.511719 664.222656 1319.394531 663.972656 C 1317.332031 663.734375 1315.394531 663.496094 1313.453125 663.496094 L 1281.175781 663.496094 C 1279.554688 663.496094 1278.242188 662.183594 1278.242188 660.558594 L 1278.242188 605.363281 C 1278.242188 597.160156 1277.59375 589.511719 1277.046875 583.746094 C 1276.671875 579.90625 1276.988281 576.140625 1277.296875 572.496094 C 1277.65625 568.40625 1277.964844 564.523438 1277.355469 560.640625 C 1276.710938 556.566406 1277.199219 552.464844 1277.675781 548.53125 C 1277.964844 546.042969 1278.242188 543.683594 1278.242188 541.414062 L 1278.242188 487.75 C 1278.242188 486.824219 1278.242188 485.949219 1278.261719 485.0625 C 1278.300781 481.378906 1278.339844 477.894531 1277.613281 474.339844 C 1276.910156 470.914062 1277.335938 467.957031 1277.773438 465.089844 C 1278.003906 463.429688 1278.242188 461.835938 1278.242188 460.171875 C 1278.261719 455.375 1278.261719 450.574219 1278.242188 445.746094 L 1278.242188 438.539062 C 1278.242188 438.359375 1278.222656 437.691406 1278.222656 436.695312 C 1277.921875 416.902344 1277.921875 416.902344 1280.847656 416.566406 C 1281.019531 416.542969 1281.039062 416.542969 1294.789062 416.542969 L 1295.59375 416.542969 C 1297.316406 416.542969 1299.066406 416.484375 1300.789062 416.425781 C 1304.9375 416.277344 1309.226562 416.125 1313.574219 416.804688 C 1318.667969 417.582031 1323.96875 417.582031 1330.269531 416.824219 C 1335.144531 416.226562 1340.019531 416.355469 1344.734375 416.445312 C 1346.613281 416.503906 1348.496094 416.542969 1350.355469 416.542969 L 1449.253906 416.542969 C 1456.457031 416.542969 1463.761719 416.804688 1470.835938 417.03125 C 1474.394531 417.152344 1477.949219 417.269531 1481.511719 417.371094 C 1486.484375 417.5 1491.558594 417.230469 1496.453125 416.972656 C 1500.5625 416.765625 1504.839844 416.542969 1509.128906 416.542969 L 1578.894531 416.542969 C 1580.519531 416.542969 1581.832031 417.859375 1581.832031 419.480469 L 1581.832031 572.796875 C 1581.832031 576.558594 1581.582031 580.324219 1581.34375 583.96875 C 1580.933594 590 1580.558594 595.683594 1581.203125 601.351562 " fill-opacity="1" fill-rule="nonzero"/></g><g fill="#000000" fill-opacity="1"><g transform="translate(637.738456, 581.624927)"><g><path d="M 1.921875 0 L 1.921875 -1.203125 L 47.765625 -73.078125 C 43.046875 -74.441406 38.6875 -75.125 34.6875 -75.125 L 9.953125 -71.40625 L 8.765625 -79.4375 L 64.921875 -79.4375 L 64.921875 -78.234375 L 17.640625 -4.796875 L 60.71875 -8.046875 L 61.921875 0 Z M 1.921875 0 "/></g></g></g><g fill="#000000" fill-opacity="1"><g transform="translate(706.258484, 581.624927)"><g><path d="M 12.59375 -29.515625 C 12.59375 -20.878906 14.53125 -14.660156 18.40625 -10.859375 C 22.289062 -7.054688 27.015625 -5.15625 32.578125 -5.15625 C 38.140625 -5.15625 43.28125 -6.238281 48 -8.40625 L 48 -4.203125 C 41.4375 -0.441406 35.15625 1.4375 29.15625 1.4375 C 21.394531 1.4375 15.113281 -0.921875 10.3125 -5.640625 C 5.519531 -10.359375 3.125 -17.195312 3.125 -26.15625 C 3.125 -35.113281 5.78125 -42.273438 11.09375 -47.640625 C 16.414062 -53.003906 22.835938 -55.6875 30.359375 -55.6875 C 36.203125 -55.6875 41.082031 -53.382812 45 -48.78125 C 48.914062 -44.175781 50.875 -37.753906 50.875 -29.515625 Z M 24.234375 -50.046875 C 21.441406 -48.679688 19.046875 -46.5 17.046875 -43.5 C 15.046875 -40.5 13.722656 -37.039062 13.078125 -33.125 L 41.15625 -33.125 C 40.914062 -36.476562 40.132812 -39.351562 38.8125 -41.75 C 37.5 -44.15625 35.921875 -45.921875 34.078125 -47.046875 C 30.796875 -49.046875 27.515625 -50.046875 24.234375 -50.046875 Z M 24.234375 -50.046875 "/></g></g></g><g fill="#000000" fill-opacity="1"><g transform="translate(762.538508, 581.624927)"><g><path d="M 9 0 L 9 -54.234375 L 18.953125 -54.234375 L 18.953125 0 Z M 7.796875 -70.984375 C 7.796875 -72.703125 8.375 -74.160156 9.53125 -75.359375 C 10.695312 -76.554688 12.140625 -77.15625 13.859375 -77.15625 C 15.578125 -77.15625 17.054688 -76.554688 18.296875 -75.359375 C 19.535156 -74.160156 20.15625 -72.71875 20.15625 -71.03125 C 20.15625 -69.351562 19.535156 -67.875 18.296875 -66.59375 C 17.054688 -65.320312 15.597656 -64.6875 13.921875 -64.6875 C 12.242188 -64.6875 10.800781 -65.304688 9.59375 -66.546875 C 8.394531 -67.785156 7.796875 -69.265625 7.796875 -70.984375 Z M 7.796875 -70.984375 "/></g></g></g><g fill="#000000" fill-opacity="1"><g transform="translate(790.498516, 581.624927)"><g><path d="M 27.359375 1.4375 C 20.398438 1.4375 14.617188 -0.941406 10.015625 -5.703125 C 5.421875 -10.460938 3.125 -17.203125 3.125 -25.921875 C 3.125 -34.640625 5.582031 -41.78125 10.5 -47.34375 C 15.414062 -52.90625 21.675781 -55.6875 29.28125 -55.6875 C 33.519531 -55.6875 38.28125 -54.644531 43.5625 -52.5625 L 42.359375 -44.640625 C 35.316406 -48.316406 29.273438 -50.15625 24.234375 -50.15625 C 20.078125 -48.082031 17.078125 -44.722656 15.234375 -40.078125 C 13.398438 -35.441406 12.484375 -30.882812 12.484375 -26.40625 C 12.484375 -20.320312 14.257812 -15.257812 17.8125 -11.21875 C 21.375 -7.175781 25.632812 -5.15625 30.59375 -5.15625 C 35.5625 -5.15625 40.125 -6.238281 44.28125 -8.40625 L 44.28125 -4.203125 C 38.519531 -0.441406 32.878906 1.4375 27.359375 1.4375 Z M 27.359375 1.4375 "/></g></g></g><g fill="#000000" fill-opacity="1"><g transform="translate(839.218539, 581.624927)"><g><path d="M 37.6875 -55.4375 C 41.363281 -55.4375 44.640625 -54.078125 47.515625 -51.359375 C 50.398438 -48.640625 51.84375 -43.957031 51.84375 -37.3125 L 51.84375 0 L 41.765625 0 L 41.765625 -36.125 C 41.765625 -40.039062 41.0625 -42.976562 39.65625 -44.9375 C 38.257812 -46.894531 35.582031 -47.875 31.625 -47.875 C 27.664062 -47.875 23.523438 -45.753906 19.203125 -41.515625 L 19.203125 0 L 9.125 0 L 9.125 -81.953125 L 18.84375 -81.953125 L 18.84375 -46.5625 C 25.15625 -52.476562 31.4375 -55.4375 37.6875 -55.4375 Z M 37.6875 -55.4375 "/></g></g></g><g fill="#000000" fill-opacity="1"><g transform="translate(899.578565, 581.624927)"><g><path d="M 19.4375 -46.5625 C 22.800781 -49.757812 25.742188 -52.078125 28.265625 -53.515625 C 30.785156 -54.960938 33.765625 -55.6875 37.203125 -55.6875 C 40.640625 -55.6875 43.816406 -54.320312 46.734375 -51.59375 C 49.660156 -48.875 51.125 -44.195312 51.125 -37.5625 L 51.125 0 L 40.921875 0 L 40.921875 -36.359375 C 40.921875 -40.273438 40.21875 -43.210938 38.8125 -45.171875 C 37.414062 -47.140625 35.015625 -48.125 31.609375 -48.125 C 28.210938 -48.125 24.273438 -45.882812 19.796875 -41.40625 L 19.796875 0 L 9.59375 0 L 9.59375 -37.6875 C 9.59375 -43.125 7.554688 -47.484375 3.484375 -50.765625 L 9.59375 -55.3125 Z M 19.4375 -46.5625 "/></g></g></g><g fill="#000000" fill-opacity="1"><g transform="translate(959.578605, 581.624927)"><g><path d="M 47.640625 -16.078125 C 47.640625 -10.554688 49.71875 -6.195312 53.875 -3 L 47.640625 1.4375 L 37.921875 -7.3125 C 34.640625 -4.195312 31.71875 -1.957031 29.15625 -0.59375 C 26.59375 0.757812 23.570312 1.4375 20.09375 1.4375 C 16.613281 1.4375 13.414062 0.0976562 10.5 -2.578125 C 7.582031 -5.253906 6.125 -9.875 6.125 -16.4375 L 6.125 -54.234375 L 16.3125 -54.234375 L 16.3125 -15.84375 C 16.3125 -12 17.007812 -9.097656 18.40625 -7.140625 C 19.8125 -5.179688 22.253906 -4.203125 25.734375 -4.203125 C 29.210938 -4.203125 33.113281 -6.757812 37.4375 -11.875 L 37.4375 -54.234375 L 47.640625 -54.234375 Z M 47.640625 -16.078125 "/></g></g></g><g fill="#000000" fill-opacity="1"><g transform="translate(1017.178637, 581.624927)"><g><path d="M 19.4375 -46.5625 C 22.800781 -49.757812 25.742188 -52.078125 28.265625 -53.515625 C 30.785156 -54.960938 33.765625 -55.6875 37.203125 -55.6875 C 40.640625 -55.6875 43.816406 -54.320312 46.734375 -51.59375 C 49.660156 -48.875 51.125 -44.195312 51.125 -37.5625 L 51.125 0 L 40.921875 0 L 40.921875 -36.359375 C 40.921875 -40.273438 40.21875 -43.210938 38.8125 -45.171875 C 37.414062 -47.140625 35.015625 -48.125 31.609375 -48.125 C 28.210938 -48.125 24.273438 -45.882812 19.796875 -41.40625 L 19.796875 0 L 9.59375 0 L 9.59375 -37.6875 C 9.59375 -43.125 7.554688 -47.484375 3.484375 -50.765625 L 9.59375 -55.3125 Z M 19.4375 -46.5625 "/></g></g></g><g fill="#000000" fill-opacity="1"><g transform="translate(1077.178677, 581.624927)"><g><path d="M 15.84375 -10.796875 C 15.84375 -9.273438 16.984375 -8.234375 19.265625 -7.671875 C 21.546875 -7.117188 25.925781 -6.84375 32.40625 -6.84375 C 38.882812 -6.84375 44.082031 -6.117188 48 -4.671875 C 51.914062 -3.234375 53.875 -0.515625 53.875 3.484375 C 53.875 9.398438 50.972656 14.738281 45.171875 19.5 C 39.378906 24.257812 32.28125 26.640625 23.875 26.640625 C 17.800781 26.640625 12.820312 25.5 8.9375 23.21875 C 5.0625 20.9375 3.125 17.675781 3.125 13.4375 C 3.125 7.4375 6.398438 3 12.953125 0.125 C 9.273438 -1.238281 7.4375 -3.78125 7.4375 -7.5 C 7.4375 -11.21875 10.316406 -15.28125 16.078125 -19.6875 C 10.078125 -22.800781 7.078125 -27.894531 7.078125 -34.96875 C 7.078125 -42.050781 9.296875 -47.273438 13.734375 -50.640625 C 18.179688 -54.003906 23.164062 -55.6875 28.6875 -55.6875 C 32.601562 -55.6875 36.359375 -54.601562 39.953125 -52.4375 L 50.515625 -55.4375 L 52.921875 -50.28125 L 45.484375 -46.5625 C 47.003906 -43.914062 47.765625 -40.832031 47.765625 -37.3125 C 47.765625 -33.800781 47.0625 -30.703125 45.65625 -28.015625 C 44.257812 -25.335938 42.441406 -23.28125 40.203125 -21.84375 C 35.722656 -18.957031 30.882812 -17.515625 25.6875 -17.515625 C 24.882812 -17.515625 23.757812 -17.597656 22.3125 -17.765625 C 20.957031 -17.359375 19.539062 -16.472656 18.0625 -15.109375 C 16.582031 -13.753906 15.84375 -12.316406 15.84375 -10.796875 Z M 38.28125 -36.234375 C 38.28125 -40.398438 37.179688 -44.019531 34.984375 -47.09375 C 32.785156 -50.175781 30.0625 -51.71875 26.8125 -51.71875 C 23.570312 -51.71875 20.992188 -50.316406 19.078125 -47.515625 C 17.160156 -44.710938 16.203125 -41.09375 16.203125 -36.65625 C 16.203125 -32.21875 17.28125 -28.535156 19.4375 -25.609375 C 21.601562 -22.691406 24.203125 -21.234375 27.234375 -21.234375 C 34.597656 -21.234375 38.28125 -26.234375 38.28125 -36.234375 Z M 25.796875 21.125 C 32.441406 21.125 38.082031 19.28125 42.71875 15.59375 C 47.363281 11.914062 49.6875 8.238281 49.6875 4.5625 C 45.601562 2.882812 39.898438 2.046875 32.578125 2.046875 C 25.253906 2.046875 20.195312 1.800781 17.40625 1.3125 C 13.882812 4.28125 12.125 7.441406 12.125 10.796875 C 12.125 17.679688 16.679688 21.125 25.796875 21.125 Z M 25.796875 21.125 "/></g></g></g><g fill="#000000" fill-opacity="1"><g transform="translate(1135.97869, 581.624927)"><g><path d="M 12.59375 -29.515625 C 12.59375 -20.878906 14.53125 -14.660156 18.40625 -10.859375 C 22.289062 -7.054688 27.015625 -5.15625 32.578125 -5.15625 C 38.140625 -5.15625 43.28125 -6.238281 48 -8.40625 L 48 -4.203125 C 41.4375 -0.441406 35.15625 1.4375 29.15625 1.4375 C 21.394531 1.4375 15.113281 -0.921875 10.3125 -5.640625 C 5.519531 -10.359375 3.125 -17.195312 3.125 -26.15625 C 3.125 -35.113281 5.78125 -42.273438 11.09375 -47.640625 C 16.414062 -53.003906 22.835938 -55.6875 30.359375 -55.6875 C 36.203125 -55.6875 41.082031 -53.382812 45 -48.78125 C 48.914062 -44.175781 50.875 -37.753906 50.875 -29.515625 Z M 24.234375 -50.046875 C 21.441406 -48.679688 19.046875 -46.5 17.046875 -43.5 C 15.046875 -40.5 13.722656 -37.039062 13.078125 -33.125 L 41.15625 -33.125 C 40.914062 -36.476562 40.132812 -39.351562 38.8125 -41.75 C 37.5 -44.15625 35.921875 -45.921875 34.078125 -47.046875 C 30.796875 -49.046875 27.515625 -50.046875 24.234375 -50.046875 Z M 24.234375 -50.046875 "/></g></g></g><g fill="#000000" fill-opacity="1"><g transform="translate(1192.258714, 581.624927)"><g><path d="M 19.4375 -46.5625 C 22.800781 -49.757812 25.742188 -52.078125 28.265625 -53.515625 C 30.785156 -54.960938 33.765625 -55.6875 37.203125 -55.6875 C 40.640625 -55.6875 43.816406 -54.320312 46.734375 -51.59375 C 49.660156 -48.875 51.125 -44.195312 51.125 -37.5625 L 51.125 0 L 40.921875 0 L 40.921875 -36.359375 C 40.921875 -40.273438 40.21875 -43.210938 38.8125 -45.171875 C 37.414062 -47.140625 35.015625 -48.125 31.609375 -48.125 C 28.210938 -48.125 24.273438 -45.882812 19.796875 -41.40625 L 19.796875 0 L 9.59375 0 L 9.59375 -37.6875 C 9.59375 -43.125 7.554688 -47.484375 3.484375 -50.765625 L 9.59375 -55.3125 Z M 19.4375 -46.5625 "/></g></g></g><g fill="#000000" fill-opacity="1"><g transform="translate(1252.257927, 581.624927)"><g/></g></g></svg>