<svg xmlns="http://www.w3.org/2000/svg" xmlns:xlink="http://www.w3.org/1999/xlink" width="2560" zoomAndPan="magnify" viewBox="0 0 1920 1079.999946" height="1440" preserveAspectRatio="xMidYMid meet" version="1.0"><defs><g/><clipPath id="734a65ca5b"><path d="M 1378 429 L 1713.824219 429 L 1713.824219 651.511719 L 1378 651.511719 Z M 1378 429 " clip-rule="nonzero"/></clipPath></defs><rect x="-192" width="2304" fill="#ffffff" y="-107.999995" height="1295.999935" fill-opacity="1"/><rect x="-192" width="2304" fill="#97b0b0" y="-107.999995" height="1295.999935" fill-opacity="1"/><g fill="#000000" fill-opacity="1"><g transform="translate(579.777523, 581.625167)"><g><path d="M 69.84375 -79.4375 L 69.84375 -30.71875 C 69.84375 -23.28125 69.039062 -17.679688 67.4375 -13.921875 C 66.71875 -12.242188 65.578125 -10.34375 64.015625 -8.21875 C 62.460938 -6.101562 60.644531 -4.40625 58.5625 -3.125 C 53.28125 -0.0820312 46.679688 1.4375 38.765625 1.4375 C 18.921875 1.4375 9 -8.757812 9 -29.15625 L 9 -79.4375 L 21.234375 -79.4375 L 21.234375 -28.203125 C 21.234375 -25.878906 21.273438 -24 21.359375 -22.5625 C 21.441406 -21.125 21.863281 -19.082031 22.625 -16.4375 C 23.382812 -13.800781 24.421875 -11.679688 25.734375 -10.078125 C 27.054688 -8.484375 29.132812 -7.046875 31.96875 -5.765625 C 34.8125 -4.484375 38.195312 -3.84375 42.125 -3.84375 C 57.082031 -3.84375 64.5625 -11.84375 64.5625 -27.84375 L 64.5625 -79.4375 Z M 69.84375 -79.4375 "/></g></g></g><g fill="#000000" fill-opacity="1"><g transform="translate(658.617558, 581.625167)"><g><path d="M 19.4375 -46.5625 C 22.800781 -49.757812 25.742188 -52.078125 28.265625 -53.515625 C 30.785156 -54.960938 33.765625 -55.6875 37.203125 -55.6875 C 40.640625 -55.6875 43.816406 -54.320312 46.734375 -51.59375 C 49.660156 -48.875 51.125 -44.195312 51.125 -37.5625 L 51.125 0 L 40.921875 0 L 40.921875 -36.359375 C 40.921875 -40.273438 40.21875 -43.210938 38.8125 -45.171875 C 37.414062 -47.140625 35.015625 -48.125 31.609375 -48.125 C 28.210938 -48.125 24.273438 -45.882812 19.796875 -41.40625 L 19.796875 0 L 9.59375 0 L 9.59375 -37.6875 C 9.59375 -43.125 7.554688 -47.484375 3.484375 -50.765625 L 9.59375 -55.3125 Z M 19.4375 -46.5625 "/></g></g></g><g fill="#000000" fill-opacity="1"><g transform="translate(718.617587, 581.625167)"><g><path d="M 20.28125 -50.640625 C 18.195312 -50.640625 16.492188 -49.859375 15.171875 -48.296875 C 13.859375 -46.734375 13.203125 -44.972656 13.203125 -43.015625 C 13.203125 -41.054688 14.140625 -39.175781 16.015625 -37.375 C 17.898438 -35.582031 20.179688 -33.984375 22.859375 -32.578125 C 25.535156 -31.179688 28.191406 -29.722656 30.828125 -28.203125 C 33.472656 -26.679688 35.734375 -24.71875 37.609375 -22.3125 C 39.492188 -19.914062 40.4375 -17.238281 40.4375 -14.28125 C 40.4375 -9.800781 38.632812 -6.0625 35.03125 -3.0625 C 31.4375 -0.0625 26.539062 1.4375 20.34375 1.4375 C 14.144531 1.4375 8.484375 0 3.359375 -2.875 L 3.359375 -7.4375 C 8.796875 -4.71875 13.710938 -3.359375 18.109375 -3.359375 C 22.515625 -3.359375 25.71875 -4.238281 27.71875 -6 C 29.71875 -7.757812 30.71875 -9.78125 30.71875 -12.0625 C 30.71875 -14.34375 29.816406 -16.378906 28.015625 -18.171875 C 26.210938 -19.972656 24.007812 -21.550781 21.40625 -22.90625 C 18.8125 -24.269531 16.234375 -25.710938 13.671875 -27.234375 C 11.117188 -28.753906 8.941406 -30.710938 7.140625 -33.109375 C 5.335938 -35.515625 4.4375 -38.414062 4.4375 -41.8125 C 4.4375 -45.21875 5.816406 -48.378906 8.578125 -51.296875 C 11.335938 -54.222656 15.597656 -55.6875 21.359375 -55.6875 C 27.117188 -55.6875 32.640625 -54.644531 37.921875 -52.5625 L 36.71875 -44.640625 C 30.800781 -47.835938 25.320312 -49.835938 20.28125 -50.640625 Z M 20.28125 -50.640625 "/></g></g></g><g fill="#000000" fill-opacity="1"><g transform="translate(763.257609, 581.625167)"><g><path d="M 12.59375 -29.515625 C 12.59375 -20.878906 14.53125 -14.660156 18.40625 -10.859375 C 22.289062 -7.054688 27.015625 -5.15625 32.578125 -5.15625 C 38.140625 -5.15625 43.28125 -6.238281 48 -8.40625 L 48 -4.203125 C 41.4375 -0.441406 35.15625 1.4375 29.15625 1.4375 C 21.394531 1.4375 15.113281 -0.921875 10.3125 -5.640625 C 5.519531 -10.359375 3.125 -17.195312 3.125 -26.15625 C 3.125 -35.113281 5.78125 -42.273438 11.09375 -47.640625 C 16.414062 -53.003906 22.835938 -55.6875 30.359375 -55.6875 C 36.203125 -55.6875 41.082031 -53.382812 45 -48.78125 C 48.914062 -44.175781 50.875 -37.753906 50.875 -29.515625 Z M 24.234375 -50.046875 C 21.441406 -48.679688 19.046875 -46.5 17.046875 -43.5 C 15.046875 -40.5 13.722656 -37.039062 13.078125 -33.125 L 41.15625 -33.125 C 40.914062 -36.476562 40.132812 -39.351562 38.8125 -41.75 C 37.5 -44.15625 35.921875 -45.921875 34.078125 -47.046875 C 30.796875 -49.046875 27.515625 -50.046875 24.234375 -50.046875 Z M 24.234375 -50.046875 "/></g></g></g><g fill="#000000" fill-opacity="1"><g transform="translate(819.537633, 581.625167)"><g><path d="M 17.765625 0 L 7.6875 0 L 7.6875 -54.234375 L 14.640625 -54.234375 L 17.40625 -44.15625 C 19 -46.957031 21.535156 -49.597656 25.015625 -52.078125 C 28.492188 -54.554688 32.078125 -56.078125 35.765625 -56.640625 L 36.953125 -48.359375 C 33.992188 -48.359375 30.65625 -47.4375 26.9375 -45.59375 C 23.21875 -43.757812 20.160156 -41.722656 17.765625 -39.484375 Z M 17.765625 0 "/></g></g></g><g fill="#000000" fill-opacity="1"><g transform="translate(857.697634, 581.625167)"><g><path d="M 12.59375 -29.515625 C 12.59375 -20.878906 14.53125 -14.660156 18.40625 -10.859375 C 22.289062 -7.054688 27.015625 -5.15625 32.578125 -5.15625 C 38.140625 -5.15625 43.28125 -6.238281 48 -8.40625 L 48 -4.203125 C 41.4375 -0.441406 35.15625 1.4375 29.15625 1.4375 C 21.394531 1.4375 15.113281 -0.921875 10.3125 -5.640625 C 5.519531 -10.359375 3.125 -17.195312 3.125 -26.15625 C 3.125 -35.113281 5.78125 -42.273438 11.09375 -47.640625 C 16.414062 -53.003906 22.835938 -55.6875 30.359375 -55.6875 C 36.203125 -55.6875 41.082031 -53.382812 45 -48.78125 C 48.914062 -44.175781 50.875 -37.753906 50.875 -29.515625 Z M 24.234375 -50.046875 C 21.441406 -48.679688 19.046875 -46.5 17.046875 -43.5 C 15.046875 -40.5 13.722656 -37.039062 13.078125 -33.125 L 41.15625 -33.125 C 40.914062 -36.476562 40.132812 -39.351562 38.8125 -41.75 C 37.5 -44.15625 35.921875 -45.921875 34.078125 -47.046875 C 30.796875 -49.046875 27.515625 -50.046875 24.234375 -50.046875 Z M 24.234375 -50.046875 "/></g></g></g><g fill="#000000" fill-opacity="1"><g transform="translate(913.977658, 581.625167)"><g/></g><g transform="translate(943.977655, 581.625167)"><g><path d="M 37.921875 0 L 26.28125 0 L 26.28125 -73.6875 C 23.5625 -74.320312 20.84375 -74.640625 18.125 -74.640625 L 1.921875 -70.921875 L 1.203125 -79.4375 L 63 -79.4375 L 62.40625 -70.921875 L 46.078125 -74.640625 C 43.359375 -74.640625 40.640625 -74.320312 37.921875 -73.6875 Z M 37.921875 0 "/></g></g></g><g fill="#000000" fill-opacity="1"><g transform="translate(1008.177677, 581.625167)"><g><path d="M 12.59375 -29.515625 C 12.59375 -20.878906 14.53125 -14.660156 18.40625 -10.859375 C 22.289062 -7.054688 27.015625 -5.15625 32.578125 -5.15625 C 38.140625 -5.15625 43.28125 -6.238281 48 -8.40625 L 48 -4.203125 C 41.4375 -0.441406 35.15625 1.4375 29.15625 1.4375 C 21.394531 1.4375 15.113281 -0.921875 10.3125 -5.640625 C 5.519531 -10.359375 3.125 -17.195312 3.125 -26.15625 C 3.125 -35.113281 5.78125 -42.273438 11.09375 -47.640625 C 16.414062 -53.003906 22.835938 -55.6875 30.359375 -55.6875 C 36.203125 -55.6875 41.082031 -53.382812 45 -48.78125 C 48.914062 -44.175781 50.875 -37.753906 50.875 -29.515625 Z M 24.234375 -50.046875 C 21.441406 -48.679688 19.046875 -46.5 17.046875 -43.5 C 15.046875 -40.5 13.722656 -37.039062 13.078125 -33.125 L 41.15625 -33.125 C 40.914062 -36.476562 40.132812 -39.351562 38.8125 -41.75 C 37.5 -44.15625 35.921875 -45.921875 34.078125 -47.046875 C 30.796875 -49.046875 27.515625 -50.046875 24.234375 -50.046875 Z M 24.234375 -50.046875 "/></g></g></g><g fill="#000000" fill-opacity="1"><g transform="translate(1064.457701, 581.625167)"><g><path d="M 17.765625 0 L 7.6875 0 L 7.6875 -54.234375 L 14.640625 -54.234375 L 17.40625 -44.15625 C 19 -46.957031 21.535156 -49.597656 25.015625 -52.078125 C 28.492188 -54.554688 32.078125 -56.078125 35.765625 -56.640625 L 36.953125 -48.359375 C 33.992188 -48.359375 30.65625 -47.4375 26.9375 -45.59375 C 23.21875 -43.757812 20.160156 -41.722656 17.765625 -39.484375 Z M 17.765625 0 "/></g></g></g><g fill="#000000" fill-opacity="1"><g transform="translate(1102.617701, 581.625167)"><g><path d="M 70.5625 -55.6875 C 80 -55.6875 84.71875 -48.523438 84.71875 -34.203125 L 84.71875 0 L 74.640625 0 L 74.640625 -35.15625 C 74.640625 -41.875 73.359375 -45.957031 70.796875 -47.40625 C 69.515625 -48.125 67.734375 -48.484375 65.453125 -48.484375 C 63.179688 -48.484375 60.742188 -47.78125 58.140625 -46.375 C 55.535156 -44.976562 53.632812 -43.398438 52.4375 -41.640625 L 52.4375 0 L 42.234375 0 L 42.234375 -35.765625 C 42.234375 -40.003906 41.59375 -43.179688 40.3125 -45.296875 C 39.039062 -47.421875 37.160156 -48.484375 34.671875 -48.484375 C 32.191406 -48.484375 29.8125 -47.921875 27.53125 -46.796875 C 25.257812 -45.679688 23.441406 -44.5625 22.078125 -43.4375 C 20.722656 -42.320312 20.046875 -41.644531 20.046875 -41.40625 L 20.046875 0 L 9.953125 0 L 9.953125 -37.6875 C 9.953125 -43.125 7.914062 -47.484375 3.84375 -50.765625 L 9.953125 -55.3125 L 19.5625 -46.5625 C 23.320312 -49.675781 26.597656 -51.972656 29.390625 -53.453125 C 32.191406 -54.941406 35.113281 -55.6875 38.15625 -55.6875 C 45.113281 -55.6875 49.4375 -52.441406 51.125 -45.953125 C 53.914062 -49.160156 57.113281 -51.582031 60.71875 -53.21875 C 64.320312 -54.863281 67.601562 -55.6875 70.5625 -55.6875 Z M 70.5625 -55.6875 "/></g></g></g><g fill="#000000" fill-opacity="1"><g transform="translate(1195.977724, 581.625167)"><g><path d="M 9 0 L 9 -54.234375 L 18.953125 -54.234375 L 18.953125 0 Z M 7.796875 -70.984375 C 7.796875 -72.703125 8.375 -74.160156 9.53125 -75.359375 C 10.695312 -76.554688 12.140625 -77.15625 13.859375 -77.15625 C 15.578125 -77.15625 17.054688 -76.554688 18.296875 -75.359375 C 19.535156 -74.160156 20.15625 -72.71875 20.15625 -71.03125 C 20.15625 -69.351562 19.535156 -67.875 18.296875 -66.59375 C 17.054688 -65.320312 15.597656 -64.6875 13.921875 -64.6875 C 12.242188 -64.6875 10.800781 -65.304688 9.59375 -66.546875 C 8.394531 -67.785156 7.796875 -69.265625 7.796875 -70.984375 Z M 7.796875 -70.984375 "/></g></g></g><g fill="#000000" fill-opacity="1"><g transform="translate(1223.937743, 581.625167)"><g><path d="M 19.4375 -46.5625 C 22.800781 -49.757812 25.742188 -52.078125 28.265625 -53.515625 C 30.785156 -54.960938 33.765625 -55.6875 37.203125 -55.6875 C 40.640625 -55.6875 43.816406 -54.320312 46.734375 -51.59375 C 49.660156 -48.875 51.125 -44.195312 51.125 -37.5625 L 51.125 0 L 40.921875 0 L 40.921875 -36.359375 C 40.921875 -40.273438 40.21875 -43.210938 38.8125 -45.171875 C 37.414062 -47.140625 35.015625 -48.125 31.609375 -48.125 C 28.210938 -48.125 24.273438 -45.882812 19.796875 -41.40625 L 19.796875 0 L 9.59375 0 L 9.59375 -37.6875 C 9.59375 -43.125 7.554688 -47.484375 3.484375 -50.765625 L 9.59375 -55.3125 Z M 19.4375 -46.5625 "/></g></g></g><g fill="#000000" fill-opacity="1"><g transform="translate(1283.937784, 581.625167)"><g><path d="M 12.59375 -29.515625 C 12.59375 -20.878906 14.53125 -14.660156 18.40625 -10.859375 C 22.289062 -7.054688 27.015625 -5.15625 32.578125 -5.15625 C 38.140625 -5.15625 43.28125 -6.238281 48 -8.40625 L 48 -4.203125 C 41.4375 -0.441406 35.15625 1.4375 29.15625 1.4375 C 21.394531 1.4375 15.113281 -0.921875 10.3125 -5.640625 C 5.519531 -10.359375 3.125 -17.195312 3.125 -26.15625 C 3.125 -35.113281 5.78125 -42.273438 11.09375 -47.640625 C 16.414062 -53.003906 22.835938 -55.6875 30.359375 -55.6875 C 36.203125 -55.6875 41.082031 -53.382812 45 -48.78125 C 48.914062 -44.175781 50.875 -37.753906 50.875 -29.515625 Z M 24.234375 -50.046875 C 21.441406 -48.679688 19.046875 -46.5 17.046875 -43.5 C 15.046875 -40.5 13.722656 -37.039062 13.078125 -33.125 L 41.15625 -33.125 C 40.914062 -36.476562 40.132812 -39.351562 38.8125 -41.75 C 37.5 -44.15625 35.921875 -45.921875 34.078125 -47.046875 C 30.796875 -49.046875 27.515625 -50.046875 24.234375 -50.046875 Z M 24.234375 -50.046875 "/></g></g></g><g clip-path="url(#734a65ca5b)"><path fill="#336666" d="M 1708.210938 459.59375 C 1707.839844 459.890625 1707.617188 460.339844 1707.617188 460.785156 C 1705.308594 484.46875 1702.925781 508.152344 1700.84375 531.832031 C 1698.757812 555.515625 1696.824219 579.125 1695.261719 602.804688 C 1694.441406 615.390625 1693.773438 627.976562 1693.179688 640.5625 L 1690.125 638.332031 L 1689.679688 638.03125 C 1689.753906 637.882812 1689.753906 637.734375 1689.828125 637.511719 C 1691.613281 623.136719 1693.179688 608.691406 1694.441406 594.242188 C 1694.515625 593.347656 1693.699219 592.605469 1692.878906 592.605469 C 1691.988281 592.605469 1691.390625 593.347656 1691.316406 594.242188 C 1690.050781 608.167969 1688.5625 622.09375 1686.851562 636.023438 C 1686.109375 635.425781 1685.363281 634.828125 1684.621094 634.234375 C 1684.546875 634.085938 1684.46875 634.011719 1684.320312 633.9375 C 1686.183594 619.785156 1687.96875 605.636719 1689.828125 591.410156 C 1691.691406 576.742188 1693.625 561.996094 1695.484375 547.324219 C 1696.082031 542.929688 1696.601562 538.535156 1697.195312 534.140625 C 1697.496094 531.980469 1697.792969 529.746094 1698.015625 527.589844 C 1699.726562 514.554688 1701.363281 501.449219 1702.480469 488.265625 C 1703 482.828125 1703.449219 477.320312 1703.96875 471.882812 C 1704.265625 469.125 1704.488281 466.371094 1704.863281 463.691406 C 1705.011719 462.347656 1705.160156 461.007812 1705.308594 459.667969 C 1705.382812 459.074219 1706.203125 456.09375 1705.828125 455.648438 C 1706.871094 456.914062 1707.617188 458.179688 1708.210938 459.59375 Z M 1696.230469 642.722656 C 1697.269531 619.042969 1698.832031 595.285156 1700.621094 571.601562 C 1702.480469 547.992188 1704.640625 524.3125 1706.871094 500.703125 C 1707.839844 490.5 1708.804688 480.222656 1709.847656 470.019531 C 1709.847656 471.882812 1709.699219 473.667969 1709.625 475.53125 C 1706.128906 530.714844 1702.554688 585.976562 1699.058594 641.234375 C 1698.984375 642.425781 1698.984375 643.617188 1699.132812 644.808594 C 1698.984375 644.734375 1698.832031 644.660156 1698.683594 644.585938 Z M 1686.40625 639.820312 C 1651.875 640.488281 1617.34375 640.863281 1582.886719 641.011719 C 1548.132812 641.160156 1513.378906 641.085938 1478.621094 640.789062 C 1469.171875 640.789062 1459.71875 640.640625 1450.269531 640.488281 C 1445.578125 640.488281 1440.816406 640.265625 1436.128906 640.191406 C 1431.515625 640.042969 1426.898438 640.191406 1422.285156 640.117188 C 1421.09375 640.117188 1420.054688 639.820312 1418.863281 639.820312 C 1418.863281 639.820312 1418.789062 639.820312 1418.789062 639.820312 C 1418.640625 639.746094 1418.414062 639.746094 1418.191406 639.746094 C 1418.042969 639.746094 1417.96875 639.746094 1417.894531 639.746094 C 1417.375 639.222656 1416.777344 638.703125 1416.480469 638.703125 C 1449.300781 639 1482.121094 639.074219 1514.867188 639 C 1550.734375 638.925781 1586.53125 638.628906 1622.328125 638.179688 C 1642.496094 637.957031 1662.738281 637.660156 1682.90625 637.289062 C 1682.90625 637.289062 1682.980469 637.289062 1682.980469 637.289062 C 1683.132812 637.4375 1683.28125 637.585938 1683.429688 637.734375 Z M 1422.0625 643.246094 C 1456.222656 643.839844 1490.382812 644.140625 1524.613281 644.214844 C 1559.371094 644.289062 1594.125 644.140625 1628.878906 643.765625 C 1648.449219 643.617188 1668.097656 643.320312 1687.671875 642.949219 C 1687.894531 642.949219 1688.117188 642.949219 1688.265625 642.875 C 1688.265625 642.875 1688.339844 642.875 1688.339844 642.875 C 1688.863281 642.796875 1689.457031 642.796875 1689.976562 642.722656 C 1690.050781 642.722656 1690.199219 642.722656 1690.351562 642.722656 L 1691.914062 643.914062 C 1693.328125 644.882812 1694.742188 645.925781 1696.15625 646.96875 C 1696.527344 647.191406 1696.898438 647.414062 1697.195312 647.714844 C 1662.144531 647.339844 1627.09375 646.96875 1592.039062 646.597656 C 1556.542969 646.222656 1521.117188 645.851562 1485.617188 645.480469 C 1482.417969 645.40625 1479.144531 645.40625 1475.941406 645.332031 C 1468.875 645.257812 1461.804688 645.183594 1454.734375 645.105469 C 1447.886719 645.03125 1440.964844 644.957031 1434.042969 644.882812 C 1432.480469 644.882812 1430.917969 644.882812 1429.429688 644.882812 C 1427.792969 644.808594 1424.890625 645.40625 1423.476562 644.4375 C 1422.957031 644.140625 1422.507812 643.691406 1422.0625 643.246094 Z M 1693.847656 582.550781 C 1692.953125 582.625 1692.359375 583.292969 1692.285156 584.113281 C 1692.136719 585.828125 1692.0625 587.613281 1691.914062 589.328125 C 1691.839844 590.144531 1692.65625 590.890625 1693.476562 590.890625 C 1694.367188 590.816406 1694.964844 590.144531 1695.039062 589.328125 L 1695.410156 584.113281 C 1695.484375 583.292969 1694.667969 582.550781 1693.847656 582.550781 Z M 1650.460938 496.757812 L 1648.375 496.757812 L 1648.449219 496.683594 C 1648.527344 496.234375 1648.601562 495.863281 1648.675781 495.414062 C 1648.75 495.265625 1648.75 495.042969 1648.75 494.820312 L 1650.683594 494.894531 C 1650.609375 495.488281 1650.535156 496.085938 1650.460938 496.757812 Z M 1645.175781 496.757812 L 1642.871094 496.757812 C 1642.871094 496.605469 1642.945312 496.53125 1642.945312 496.382812 L 1642.945312 494.746094 L 1645.324219 494.746094 L 1645.101562 495.789062 C 1645.027344 496.011719 1645.027344 496.234375 1645.101562 496.457031 C 1645.101562 496.53125 1645.101562 496.683594 1645.175781 496.757812 Z M 1639.519531 496.757812 L 1636.46875 496.757812 C 1636.542969 496.605469 1636.542969 496.53125 1636.542969 496.382812 L 1636.542969 494.597656 L 1639.519531 494.671875 L 1639.519531 496.382812 C 1639.519531 496.53125 1639.519531 496.605469 1639.519531 496.757812 Z M 1633.195312 496.757812 L 1630.441406 496.757812 L 1630.441406 496.605469 L 1630.367188 494.523438 L 1633.121094 494.597656 L 1633.121094 496.382812 C 1633.121094 496.53125 1633.121094 496.605469 1633.195312 496.757812 Z M 1627.019531 496.757812 L 1624.488281 496.757812 C 1624.488281 496.683594 1624.488281 496.605469 1624.488281 496.53125 L 1624.636719 494.449219 L 1626.941406 494.449219 L 1627.019531 496.605469 Z M 1621.0625 496.757812 L 1617.714844 496.757812 L 1617.863281 494.96875 C 1617.863281 494.746094 1617.789062 494.523438 1617.714844 494.375 L 1621.214844 494.375 L 1621.0625 496.53125 C 1621.0625 496.605469 1621.0625 496.683594 1621.0625 496.757812 Z M 1614.292969 496.757812 L 1611.316406 496.757812 C 1611.316406 496.683594 1611.316406 496.605469 1611.316406 496.53125 C 1611.390625 495.789062 1611.464844 495.117188 1611.464844 494.449219 L 1611.464844 494.296875 L 1614.589844 494.296875 C 1614.441406 494.523438 1614.441406 494.746094 1614.441406 494.96875 Z M 1607.890625 496.757812 L 1604.691406 496.757812 L 1604.839844 495.117188 C 1604.839844 494.894531 1604.765625 494.671875 1604.691406 494.449219 C 1604.617188 494.375 1604.617188 494.296875 1604.542969 494.222656 L 1608.039062 494.222656 L 1608.039062 494.449219 C 1608.039062 495.117188 1607.964844 495.789062 1607.890625 496.53125 C 1607.890625 496.605469 1607.890625 496.683594 1607.890625 496.757812 Z M 1601.269531 496.757812 L 1597.621094 496.757812 L 1597.917969 494.148438 L 1601.714844 494.148438 L 1601.640625 494.222656 C 1601.492188 494.523438 1601.417969 494.820312 1601.417969 495.117188 Z M 1594.199219 496.757812 L 1591.667969 496.757812 L 1591.964844 494.148438 L 1591.964844 494.074219 L 1594.496094 494.074219 L 1594.496094 494.148438 Z M 1588.246094 496.757812 L 1584.894531 496.757812 L 1585.191406 494 L 1588.542969 494.074219 L 1588.542969 494.148438 Z M 1581.472656 496.757812 L 1578.792969 496.757812 C 1578.71875 496.085938 1578.792969 495.414062 1578.867188 494.820312 C 1578.867188 494.746094 1578.867188 494.746094 1578.867188 494.746094 C 1578.941406 494.523438 1578.941406 494.296875 1578.867188 494.074219 L 1578.867188 494 L 1581.769531 494 Z M 1575.371094 496.757812 L 1572.691406 496.757812 C 1572.691406 496.160156 1572.691406 495.566406 1572.765625 494.96875 C 1572.765625 494.894531 1572.765625 494.894531 1572.765625 494.894531 C 1572.839844 494.671875 1572.839844 494.449219 1572.765625 494.222656 C 1572.765625 494.148438 1572.765625 494 1572.765625 493.925781 L 1575.519531 494 C 1575.371094 494.894531 1575.296875 495.863281 1575.371094 496.757812 Z M 1569.265625 496.757812 L 1567.183594 496.757812 L 1567.183594 494.449219 C 1567.183594 494.222656 1567.109375 494.074219 1567.109375 493.925781 L 1569.492188 493.925781 L 1569.492188 494 C 1569.339844 494.894531 1569.191406 495.863281 1569.265625 496.757812 Z M 1563.761719 496.757812 L 1561.15625 496.757812 L 1561.230469 496.605469 L 1561.527344 493.925781 L 1563.835938 493.925781 C 1563.761719 494.074219 1563.761719 494.222656 1563.761719 494.449219 Z M 1557.804688 496.757812 L 1555.5 496.757812 L 1555.5 496.605469 C 1555.574219 495.863281 1555.648438 495.042969 1555.796875 494.296875 C 1555.796875 494.148438 1555.796875 494 1555.722656 493.925781 L 1558.105469 493.925781 L 1557.804688 496.605469 Z M 1552.074219 496.757812 L 1549.472656 496.757812 L 1549.769531 493.925781 L 1552.375 493.925781 C 1552.375 494 1552.375 494.148438 1552.375 494.296875 C 1552.226562 495.042969 1552.148438 495.863281 1552.074219 496.605469 Z M 1546.046875 496.757812 L 1543.441406 496.832031 L 1543.816406 494.296875 C 1543.816406 494.148438 1543.890625 494.074219 1543.890625 493.925781 L 1546.34375 493.925781 Z M 1540.019531 496.832031 L 1537.488281 496.832031 L 1537.785156 494.296875 C 1537.785156 494.148438 1537.785156 494 1537.710938 493.925781 L 1540.390625 493.925781 L 1540.09375 496.160156 C 1540.019531 496.382812 1539.945312 496.605469 1540.019531 496.832031 Z M 1534.066406 496.832031 L 1531.238281 496.832031 L 1531.609375 494 L 1531.609375 493.925781 L 1534.363281 493.925781 C 1534.363281 494.074219 1534.363281 494.148438 1534.363281 494.296875 Z M 1527.816406 496.832031 L 1524.539062 496.832031 C 1524.6875 495.863281 1524.835938 494.894531 1524.914062 493.925781 L 1528.1875 493.925781 L 1528.1875 494 Z M 1521.042969 496.832031 L 1517.542969 496.832031 C 1517.617188 496.757812 1517.617188 496.605469 1517.695312 496.53125 C 1517.84375 495.714844 1517.992188 494.820312 1518.066406 494 L 1521.488281 494 C 1521.414062 494.296875 1521.414062 494.671875 1521.339844 494.96875 C 1521.265625 495.414062 1521.191406 495.863281 1521.117188 496.308594 C 1521.042969 496.457031 1521.042969 496.605469 1521.042969 496.832031 Z M 1514.417969 496.832031 L 1511.886719 496.832031 L 1512.1875 494.296875 C 1512.1875 494.222656 1512.1875 494.148438 1512.1875 494 L 1514.640625 494 L 1514.640625 494.222656 C 1514.566406 494.671875 1514.492188 495.191406 1514.34375 495.640625 C 1514.269531 496.011719 1514.269531 496.457031 1514.417969 496.832031 Z M 1508.464844 496.832031 L 1506.007812 496.832031 C 1506.160156 496.011719 1506.308594 495.265625 1506.53125 494.449219 C 1506.605469 494.375 1506.605469 494.222656 1506.605469 494.074219 L 1508.761719 494.074219 C 1508.761719 494.148438 1508.761719 494.222656 1508.761719 494.296875 Z M 1502.585938 496.832031 L 1499.386719 496.832031 C 1499.460938 496.53125 1499.460938 496.234375 1499.460938 495.9375 C 1499.535156 495.488281 1499.683594 495.042969 1499.757812 494.597656 C 1499.832031 494.449219 1499.832031 494.296875 1499.832031 494.148438 L 1503.105469 494.074219 C 1502.882812 494.96875 1502.734375 495.863281 1502.585938 496.832031 Z M 1495.960938 496.832031 L 1491.496094 496.832031 L 1491.796875 494.671875 C 1491.796875 494.523438 1491.796875 494.375 1491.71875 494.222656 L 1496.335938 494.148438 C 1496.113281 495.042969 1496.035156 495.9375 1495.960938 496.832031 Z M 1488.074219 496.832031 L 1485.171875 496.832031 L 1485.691406 495.042969 C 1485.765625 494.820312 1485.765625 494.523438 1485.691406 494.296875 L 1488.445312 494.222656 C 1488.371094 494.375 1488.371094 494.523438 1488.371094 494.671875 Z M 1481.671875 496.832031 L 1478.769531 496.832031 L 1478.996094 495.265625 C 1479.070312 495.042969 1479.070312 494.820312 1479.070312 494.597656 C 1479.070312 494.523438 1478.996094 494.449219 1478.996094 494.375 L 1482.34375 494.296875 Z M 1475.273438 496.832031 L 1472.59375 496.832031 L 1472.816406 494.820312 C 1472.816406 494.671875 1472.816406 494.597656 1472.742188 494.449219 L 1475.71875 494.375 L 1475.273438 496.757812 Z M 1469.171875 496.832031 L 1465.597656 496.832031 C 1465.597656 496.457031 1465.671875 496.160156 1465.671875 495.789062 C 1465.746094 495.566406 1465.746094 495.265625 1465.820312 495.042969 C 1465.898438 494.894531 1465.898438 494.671875 1465.898438 494.523438 L 1469.394531 494.523438 C 1469.394531 494.597656 1469.394531 494.746094 1469.394531 494.820312 Z M 1462.175781 496.832031 L 1459.125 496.832031 L 1459.347656 495.714844 C 1459.421875 495.488281 1459.421875 495.265625 1459.347656 495.042969 C 1459.347656 494.894531 1459.347656 494.746094 1459.273438 494.671875 L 1462.398438 494.597656 C 1462.324219 495.339844 1462.175781 496.085938 1462.175781 496.832031 Z M 1455.625 496.832031 L 1453.394531 496.832031 L 1453.914062 494.746094 C 1453.914062 494.746094 1453.988281 494.746094 1453.988281 494.746094 L 1456.074219 494.671875 L 1456 494.820312 C 1455.925781 495.414062 1455.773438 496.085938 1455.625 496.757812 Z M 1654.40625 494.074219 C 1654.40625 493.851562 1654.40625 493.628906 1654.332031 493.332031 C 1653.957031 490.648438 1649.046875 491.394531 1647.261719 491.394531 C 1643.019531 491.320312 1638.777344 491.246094 1634.535156 491.171875 C 1626.125 491.023438 1617.640625 490.871094 1609.230469 490.796875 C 1597.917969 490.648438 1586.605469 490.574219 1575.296875 490.574219 C 1549.324219 490.425781 1523.425781 490.5 1497.523438 490.722656 C 1486.660156 490.796875 1475.792969 490.949219 1464.929688 491.171875 C 1462.695312 491.171875 1460.464844 491.171875 1458.230469 491.246094 C 1457.113281 491.246094 1456.074219 491.246094 1454.957031 491.320312 C 1453.765625 491.320312 1452.574219 490.871094 1451.535156 491.617188 C 1450.714844 492.214844 1450.640625 493.480469 1450.492188 494.296875 C 1450.269531 495.265625 1449.96875 496.234375 1449.746094 497.128906 C 1449.597656 497.875 1449.152344 498.765625 1449.746094 499.4375 C 1450.34375 500.109375 1451.457031 499.957031 1452.277344 499.957031 C 1459.644531 500.183594 1466.9375 500.257812 1474.304688 500.257812 C 1479.960938 500.257812 1485.691406 500.257812 1491.347656 500.257812 C 1497.003906 500.257812 1502.734375 500.257812 1508.390625 500.257812 L 1522.308594 500.257812 C 1524.835938 500.257812 1527.367188 500.257812 1529.898438 500.257812 C 1530.046875 500.257812 1530.269531 500.257812 1530.417969 500.257812 C 1556.242188 500.183594 1582.066406 500.183594 1607.890625 500.183594 C 1615.558594 500.183594 1623.222656 500.183594 1630.886719 500.183594 C 1634.832031 500.183594 1638.703125 500.183594 1642.570312 500.183594 C 1644.507812 500.183594 1646.441406 500.183594 1648.375 500.183594 C 1649.714844 500.183594 1652.023438 500.628906 1653.066406 499.660156 C 1654.179688 498.691406 1654.40625 495.414062 1654.40625 494.074219 Z M 1409.78125 635.277344 C 1409.558594 635.277344 1409.410156 635.277344 1409.1875 635.277344 C 1408.964844 635.277344 1408.816406 634.605469 1408.742188 634.457031 C 1408.667969 634.160156 1408.59375 633.789062 1408.59375 633.488281 C 1408.59375 633.265625 1408.59375 632.746094 1408.816406 632.671875 C 1408.964844 632.597656 1409.261719 632.671875 1409.410156 632.671875 C 1409.632812 632.671875 1409.859375 632.671875 1410.007812 632.671875 C 1411.644531 632.671875 1413.28125 632.671875 1414.917969 632.671875 C 1418.191406 632.746094 1421.46875 632.746094 1424.742188 632.820312 C 1428.015625 632.820312 1431.289062 632.820312 1434.566406 632.894531 C 1437.839844 632.894531 1441.113281 632.894531 1444.3125 632.894531 C 1447.589844 632.96875 1450.863281 632.96875 1454.136719 632.96875 C 1457.414062 632.96875 1460.6875 632.96875 1463.960938 633.042969 C 1467.234375 633.042969 1470.511719 633.042969 1473.785156 633.042969 C 1477.058594 633.042969 1480.257812 633.042969 1483.535156 633.042969 C 1486.808594 633.042969 1490.082031 633.042969 1493.359375 633.042969 C 1496.632812 633.042969 1499.90625 633.042969 1503.179688 633.042969 C 1506.457031 632.96875 1509.730469 632.96875 1512.929688 632.96875 C 1516.203125 632.96875 1519.480469 632.96875 1522.753906 632.894531 C 1526.027344 632.894531 1529.304688 632.894531 1532.578125 632.894531 C 1535.851562 632.820312 1539.125 632.820312 1542.402344 632.820312 C 1545.675781 632.746094 1548.875 632.746094 1552.148438 632.671875 C 1555.425781 632.671875 1558.699219 632.597656 1561.972656 632.597656 C 1565.25 632.519531 1568.523438 632.519531 1571.796875 632.445312 C 1575.070312 632.445312 1578.347656 632.371094 1581.546875 632.296875 C 1584.820312 632.296875 1588.09375 632.222656 1591.371094 632.148438 C 1594.644531 632.148438 1597.917969 632.074219 1601.195312 632 C 1604.46875 631.925781 1607.742188 631.925781 1611.015625 631.851562 C 1614.21875 631.777344 1617.492188 631.703125 1620.765625 631.628906 C 1624.039062 631.554688 1627.316406 631.554688 1630.589844 631.480469 C 1633.863281 631.402344 1637.140625 631.328125 1640.414062 631.253906 C 1643.613281 631.179688 1646.886719 631.105469 1650.164062 630.957031 C 1653.4375 630.882812 1656.710938 630.808594 1659.984375 630.734375 C 1663.261719 630.660156 1666.535156 630.585938 1669.808594 630.511719 C 1671.074219 630.4375 1672.414062 630.4375 1673.753906 630.363281 C 1674.796875 630.363281 1675.988281 630.285156 1676.804688 629.542969 C 1677.550781 628.871094 1677.773438 627.828125 1677.996094 626.785156 C 1681.867188 606.902344 1685.660156 587.019531 1689.53125 567.207031 C 1686.628906 589.402344 1683.800781 611.667969 1680.898438 633.863281 C 1590.550781 635.5 1500.128906 635.945312 1409.78125 635.277344 Z M 1402.265625 629.09375 C 1402.714844 627.605469 1403.160156 626.117188 1403.53125 624.628906 C 1403.753906 623.882812 1404.050781 624.03125 1404.796875 624.03125 C 1405.617188 624.03125 1406.359375 624.03125 1407.105469 624.03125 C 1410.230469 624.03125 1413.28125 624.105469 1416.40625 624.105469 C 1422.507812 624.105469 1428.6875 624.179688 1434.863281 624.253906 C 1441.039062 624.328125 1447.140625 624.402344 1453.320312 624.476562 C 1459.496094 624.550781 1465.671875 624.628906 1471.851562 624.628906 C 1477.953125 624.628906 1484.128906 624.628906 1490.304688 624.628906 C 1496.484375 624.550781 1502.585938 624.476562 1508.761719 624.402344 C 1514.941406 624.253906 1521.042969 624.105469 1527.21875 623.808594 C 1533.394531 623.585938 1539.5 623.285156 1545.601562 622.839844 C 1551.777344 622.46875 1557.878906 621.945312 1564.058594 621.425781 C 1569.414062 620.902344 1574.773438 620.308594 1580.132812 619.636719 C 1601.566406 617.03125 1623.074219 612.933594 1642.496094 603.625 C 1661.921875 594.316406 1679.261719 579.125 1687.597656 559.238281 L 1674.5 626.9375 C 1583.777344 629.46875 1493.058594 630.210938 1402.265625 629.09375 Z M 1667.726562 582.402344 C 1659.09375 590.21875 1649.195312 596.625 1638.628906 601.6875 C 1622.253906 609.433594 1604.320312 613.753906 1586.382812 615.839844 C 1582.066406 616.359375 1577.675781 616.734375 1573.285156 617.03125 C 1579.460938 615.09375 1585.566406 612.710938 1591.445312 609.808594 C 1604.542969 603.328125 1616.449219 593.570312 1623 580.316406 C 1632.152344 585.082031 1644.65625 585.902344 1654.628906 585.230469 C 1659.242188 584.933594 1663.632812 583.964844 1667.726562 582.402344 Z M 1387.457031 616.734375 C 1400.777344 593.871094 1408.667969 568.027344 1416.035156 542.78125 C 1420.128906 528.855469 1423.476562 514.703125 1424.890625 500.257812 C 1426.304688 486.03125 1426.675781 471.734375 1427.347656 457.433594 C 1434.9375 457.507812 1442.527344 457.582031 1450.195312 457.65625 C 1450.640625 460.117188 1451.457031 462.574219 1452.722656 464.734375 C 1454.210938 467.265625 1456.371094 469.351562 1458.828125 470.839844 C 1458.601562 473.148438 1459.125 475.53125 1460.835938 477.167969 C 1463.070312 479.402344 1466.640625 479.851562 1469.394531 478.363281 C 1472.074219 476.945312 1473.710938 473.742188 1473.339844 470.691406 C 1472.742188 466 1467.980469 462.199219 1463.292969 463.988281 C 1461.207031 462.871094 1460.316406 459.816406 1459.792969 457.65625 C 1476.910156 457.808594 1494.101562 457.808594 1511.21875 457.808594 C 1511.515625 458.921875 1511.8125 460.039062 1512.261719 461.082031 C 1513.601562 464.359375 1515.683594 467.191406 1518.511719 469.351562 C 1518.957031 469.648438 1519.332031 469.945312 1519.777344 470.167969 C 1519.554688 472.179688 1520 474.117188 1521.339844 475.679688 C 1523.199219 478.0625 1526.402344 478.808594 1529.152344 477.691406 C 1530.566406 477.167969 1532.058594 476.351562 1532.800781 474.9375 C 1533.46875 473.445312 1533.546875 471.882812 1533.320312 470.316406 C 1533.097656 468.605469 1532.355469 466.96875 1531.3125 465.625 C 1530.195312 464.210938 1528.632812 463.988281 1527.144531 463.242188 C 1525.582031 462.425781 1524.167969 461.457031 1523.050781 460.117188 C 1522.457031 459.445312 1522.085938 458.625 1521.710938 457.808594 C 1538.234375 457.808594 1554.753906 457.730469 1571.277344 457.582031 C 1571.574219 458.773438 1571.945312 459.964844 1572.394531 461.082031 C 1573.730469 464.359375 1575.890625 467.191406 1578.644531 469.351562 C 1579.089844 469.648438 1579.460938 469.945312 1579.910156 470.167969 C 1579.6875 472.179688 1580.207031 474.117188 1581.472656 475.679688 C 1583.332031 478.0625 1586.53125 478.808594 1589.285156 477.691406 C 1590.773438 477.167969 1592.1875 476.351562 1592.933594 474.9375 C 1593.675781 473.445312 1593.75 471.882812 1593.527344 470.316406 C 1593.230469 468.605469 1592.488281 466.96875 1591.445312 465.625 C 1590.402344 464.210938 1588.839844 463.988281 1587.277344 463.242188 C 1585.789062 462.425781 1584.300781 461.457031 1583.183594 460.117188 C 1582.589844 459.371094 1582.140625 458.476562 1581.769531 457.507812 C 1598.8125 457.433594 1615.929688 457.210938 1632.972656 456.988281 C 1633.269531 458.402344 1633.714844 459.742188 1634.238281 461.082031 C 1635.5 464.359375 1637.660156 467.191406 1640.488281 469.351562 C 1640.859375 469.648438 1641.304688 469.945312 1641.753906 470.167969 C 1641.53125 472.179688 1641.976562 474.117188 1643.316406 475.679688 C 1645.175781 478.0625 1648.375 478.808594 1651.128906 477.691406 C 1652.542969 477.167969 1654.03125 476.351562 1654.777344 474.9375 C 1655.445312 473.445312 1655.519531 471.882812 1655.296875 470.316406 C 1655.074219 468.605469 1654.332031 466.96875 1653.289062 465.625 C 1652.171875 464.210938 1650.609375 463.988281 1649.121094 463.242188 C 1647.558594 462.425781 1646.144531 461.457031 1645.027344 460.117188 C 1644.210938 459.222656 1643.6875 458.03125 1643.316406 456.839844 C 1661.699219 456.539062 1680.152344 456.242188 1698.535156 455.796875 C 1698.3125 486.328125 1693.027344 516.417969 1685.066406 545.835938 C 1681.792969 557.898438 1677.699219 571.601562 1664.75 576.292969 C 1658.722656 578.527344 1652.171875 578.75 1645.773438 578.304688 C 1641.15625 578.007812 1636.46875 577.632812 1632.003906 576.441406 C 1628.953125 575.625 1620.171875 569.964844 1618.085938 574.65625 C 1605.882812 602.582031 1571.871094 612.5625 1544.1875 616.136719 C 1510.996094 620.382812 1476.984375 618 1443.644531 617.550781 C 1424.890625 617.253906 1406.210938 617.03125 1387.457031 616.734375 Z M 1469.691406 472.851562 C 1469.320312 474.5625 1467.535156 475.902344 1465.746094 475.828125 C 1464.484375 475.753906 1461.582031 474.042969 1462.25 472.402344 C 1464.855469 472.925781 1467.085938 473.371094 1469.691406 472.851562 Z M 1453.46875 449.6875 C 1453.988281 446.785156 1454.882812 444.027344 1456 441.347656 C 1456.964844 439.113281 1457.933594 436.65625 1459.941406 435.09375 C 1460.316406 434.792969 1460.761719 434.570312 1461.207031 434.347656 C 1460.761719 434.570312 1460.242188 435.761719 1460.015625 436.136719 C 1459.570312 436.804688 1459.199219 437.476562 1458.828125 438.144531 C 1458.15625 439.5625 1457.5625 440.976562 1457.039062 442.464844 C 1456.074219 445.445312 1455.550781 448.570312 1455.625 451.773438 C 1455.625 454.53125 1456 456.988281 1456.816406 459.667969 C 1457.414062 461.679688 1458.304688 463.765625 1459.71875 465.328125 C 1460.761719 466.519531 1462.546875 467.265625 1464.109375 467.414062 C 1464.332031 467.414062 1464.558594 467.339844 1464.855469 467.265625 C 1464.929688 467.191406 1465.003906 467.191406 1465.152344 467.191406 C 1465.003906 467.191406 1464.78125 467.265625 1465.078125 467.191406 C 1465.152344 467.191406 1465.226562 467.191406 1465.300781 467.191406 C 1466.640625 467.191406 1467.832031 467.710938 1468.722656 468.679688 C 1468.722656 468.753906 1468.800781 468.753906 1468.800781 468.828125 C 1468.949219 469.050781 1469.171875 469.351562 1469.246094 469.574219 C 1469.320312 469.648438 1469.320312 469.648438 1469.320312 469.648438 C 1469.023438 469.574219 1468.722656 469.574219 1468.425781 469.574219 C 1467.085938 469.796875 1465.671875 469.796875 1464.332031 469.425781 C 1462.398438 469.277344 1460.539062 468.085938 1459.125 466.890625 C 1458.007812 466.074219 1457.113281 465.105469 1456.371094 464.0625 C 1454.4375 461.308594 1453.246094 457.582031 1453.097656 454.15625 C 1453.023438 452.667969 1453.246094 451.179688 1453.46875 449.6875 Z M 1465.375 434.71875 C 1467.980469 435.613281 1469.394531 438.21875 1470.363281 440.679688 C 1471.703125 444.027344 1472.445312 447.453125 1472.445312 451.03125 C 1467.980469 451.03125 1463.515625 451.105469 1459.050781 451.105469 C 1459.050781 450.433594 1459.050781 449.839844 1459.125 449.167969 C 1459.570312 443.878906 1461.804688 438.742188 1465.375 434.71875 Z M 1469.988281 433.230469 C 1471.328125 433.527344 1472.148438 434.496094 1472.890625 435.539062 C 1476.316406 440.007812 1478.175781 445.445312 1478.324219 451.03125 L 1475.867188 451.03125 C 1475.867188 446.859375 1474.902344 442.6875 1473.339844 438.816406 C 1472.445312 436.804688 1471.179688 434.71875 1469.542969 433.230469 C 1469.691406 433.230469 1469.839844 433.230469 1469.988281 433.230469 Z M 1529.824219 472.703125 C 1529.152344 474.191406 1527.742188 475.160156 1525.730469 474.636719 C 1524.390625 474.265625 1523.5 473.148438 1523.199219 471.882812 C 1525.285156 472.625 1527.515625 472.925781 1529.824219 472.703125 Z M 1516.203125 440.601562 C 1517.542969 437.847656 1519.480469 435.167969 1522.234375 433.75 C 1520.746094 435.464844 1519.628906 437.476562 1518.882812 439.710938 C 1517.46875 443.359375 1516.800781 447.453125 1517.023438 451.328125 C 1517.246094 455.125 1517.992188 459.296875 1520.371094 462.273438 C 1521.265625 463.316406 1522.234375 464.285156 1523.347656 464.957031 C 1523.945312 465.253906 1524.539062 465.550781 1525.136719 465.851562 C 1525.804688 466.222656 1526.550781 466.519531 1527.144531 466.890625 C 1527.964844 467.414062 1528.855469 468.007812 1529.152344 468.976562 C 1529.152344 469.125 1529.230469 469.199219 1529.304688 469.351562 C 1527.441406 469.574219 1525.582031 469.277344 1523.871094 468.53125 C 1523.871094 468.53125 1523.871094 468.53125 1523.945312 468.53125 C 1523.796875 468.679688 1522.457031 467.859375 1522.308594 467.785156 C 1519.40625 466.148438 1517.023438 463.464844 1515.683594 460.488281 C 1514.34375 457.507812 1513.972656 453.933594 1513.824219 450.730469 C 1513.601562 447.15625 1514.640625 443.804688 1516.203125 440.601562 Z M 1526.402344 434.496094 C 1528.558594 435.984375 1529.972656 438.292969 1530.867188 440.828125 C 1531.980469 443.953125 1532.503906 447.304688 1532.355469 450.65625 C 1528.410156 450.65625 1524.390625 450.730469 1520.445312 450.730469 C 1520.296875 447.453125 1520.894531 444.253906 1521.933594 441.125 C 1522.828125 438.59375 1524.242188 436.136719 1526.402344 434.496094 Z M 1530.71875 433.304688 C 1532.652344 434.125 1534.140625 436.058594 1535.183594 437.699219 C 1536.375 439.5625 1537.191406 441.570312 1537.9375 443.65625 C 1538.753906 445.890625 1539.425781 448.199219 1539.351562 450.582031 C 1538.160156 450.582031 1536.96875 450.65625 1535.777344 450.65625 C 1535.925781 446.785156 1535.257812 442.835938 1533.917969 439.261719 C 1533.097656 436.953125 1531.757812 434.792969 1530.046875 433.082031 C 1530.269531 433.15625 1530.492188 433.230469 1530.71875 433.304688 Z M 1589.957031 472.703125 C 1589.359375 474.191406 1587.871094 475.160156 1585.863281 474.636719 C 1584.523438 474.265625 1583.628906 473.148438 1583.332031 471.882812 C 1585.417969 472.625 1587.722656 472.925781 1589.957031 472.703125 Z M 1576.335938 440.601562 C 1577.75 437.847656 1579.6875 435.167969 1582.441406 433.75 C 1580.875 435.464844 1579.835938 437.476562 1579.015625 439.710938 C 1577.675781 443.359375 1576.933594 447.453125 1577.15625 451.328125 C 1577.378906 455.125 1578.125 459.296875 1580.578125 462.273438 C 1581.398438 463.316406 1582.363281 464.285156 1583.554688 464.957031 C 1584.152344 465.253906 1584.746094 465.550781 1585.34375 465.851562 C 1586.011719 466.222656 1586.679688 466.519531 1587.351562 466.890625 C 1588.171875 467.414062 1588.988281 468.007812 1589.285156 468.976562 C 1589.359375 469.125 1589.359375 469.199219 1589.433594 469.351562 C 1587.574219 469.574219 1585.714844 469.277344 1584.003906 468.53125 C 1584.078125 468.53125 1584.078125 468.53125 1584.078125 468.53125 C 1584.003906 468.679688 1582.589844 467.859375 1582.441406 467.785156 C 1579.613281 466.148438 1577.230469 463.464844 1575.816406 460.488281 C 1574.476562 457.507812 1574.105469 453.933594 1573.957031 450.730469 C 1573.808594 447.15625 1574.847656 443.804688 1576.335938 440.601562 Z M 1586.53125 434.496094 C 1588.765625 435.984375 1590.179688 438.292969 1590.996094 440.828125 C 1592.039062 443.878906 1592.5625 447.082031 1592.488281 450.285156 C 1588.542969 450.285156 1584.523438 450.359375 1580.578125 450.359375 C 1580.503906 447.230469 1581.101562 444.105469 1582.140625 441.125 C 1582.960938 438.59375 1584.375 436.136719 1586.53125 434.496094 Z M 1590.921875 433.304688 C 1592.785156 434.125 1594.273438 436.058594 1595.3125 437.699219 C 1596.503906 439.5625 1597.324219 441.570312 1598.066406 443.65625 C 1598.8125 445.742188 1599.480469 447.976562 1599.554688 450.210938 C 1598.367188 450.210938 1597.175781 450.210938 1595.910156 450.285156 C 1596.058594 446.5625 1595.390625 442.761719 1594.125 439.261719 C 1593.230469 436.953125 1591.964844 434.792969 1590.179688 433.082031 C 1590.476562 433.15625 1590.699219 433.230469 1590.921875 433.304688 Z M 1651.800781 472.703125 C 1651.128906 474.191406 1649.714844 475.160156 1647.707031 474.636719 C 1646.292969 474.265625 1645.472656 473.148438 1645.175781 471.882812 C 1647.261719 472.625 1649.492188 472.925781 1651.800781 472.703125 Z M 1638.179688 440.601562 C 1639.519531 437.847656 1641.457031 435.167969 1644.210938 433.75 C 1642.71875 435.464844 1641.605469 437.476562 1640.785156 439.710938 C 1639.445312 443.359375 1638.777344 447.453125 1639 451.328125 C 1639.222656 455.125 1639.96875 459.296875 1642.347656 462.273438 C 1643.242188 463.316406 1644.210938 464.285156 1645.324219 464.957031 C 1645.921875 465.253906 1646.515625 465.550781 1647.113281 465.851562 C 1647.78125 466.222656 1648.527344 466.519531 1649.121094 466.890625 C 1649.9375 467.414062 1650.832031 468.007812 1651.128906 468.976562 C 1651.128906 469.125 1651.203125 469.199219 1651.277344 469.351562 C 1649.417969 469.574219 1647.558594 469.277344 1645.847656 468.53125 C 1645.773438 468.679688 1644.433594 467.859375 1644.285156 467.785156 C 1641.382812 466.148438 1639 463.464844 1637.660156 460.488281 C 1636.320312 457.507812 1635.949219 453.933594 1635.800781 450.730469 C 1635.574219 447.15625 1636.617188 443.804688 1638.179688 440.601562 Z M 1648.375 434.496094 C 1650.535156 435.984375 1651.949219 438.292969 1652.84375 440.828125 C 1653.808594 443.730469 1654.40625 446.785156 1654.332031 449.914062 C 1650.386719 449.914062 1646.367188 449.914062 1642.347656 449.988281 C 1642.347656 446.933594 1642.945312 443.953125 1643.910156 441.125 C 1644.804688 438.59375 1646.21875 436.136719 1648.375 434.496094 Z M 1652.691406 433.304688 C 1654.628906 434.125 1656.117188 436.058594 1657.160156 437.699219 C 1658.347656 439.5625 1659.167969 441.570312 1659.910156 443.65625 C 1660.582031 445.667969 1661.25 447.679688 1661.324219 449.839844 C 1660.136719 449.839844 1658.945312 449.839844 1657.753906 449.839844 C 1657.828125 446.261719 1657.160156 442.613281 1655.894531 439.261719 C 1655 436.953125 1653.734375 434.792969 1652.023438 433.082031 C 1652.246094 433.15625 1652.46875 433.230469 1652.691406 433.304688 Z M 1712.304688 460.339844 C 1712.230469 460.339844 1712.230469 460.265625 1712.230469 460.191406 C 1710.742188 455.347656 1707.09375 450.878906 1702.109375 449.914062 C 1700.695312 449.613281 1699.207031 449.613281 1697.71875 449.613281 L 1664.75 449.839844 C 1664.675781 447.304688 1664.003906 444.921875 1663.113281 442.539062 C 1662.292969 440.082031 1661.25 437.625 1659.761719 435.464844 C 1658.050781 432.859375 1655.59375 430.324219 1652.320312 429.730469 C 1650.683594 429.433594 1648.824219 429.65625 1647.113281 429.730469 C 1645.25 429.804688 1643.464844 430.175781 1641.902344 431.144531 C 1639.445312 432.632812 1637.511719 434.792969 1636.097656 437.253906 C 1633.863281 441.050781 1632.597656 445.519531 1632.449219 449.988281 C 1622.625 450.0625 1612.804688 450.136719 1602.980469 450.210938 C 1602.90625 447.605469 1602.234375 444.996094 1601.34375 442.539062 C 1600.449219 440.082031 1599.40625 437.625 1597.992188 435.464844 C 1596.207031 432.859375 1593.75 430.324219 1590.550781 429.730469 C 1588.839844 429.433594 1586.980469 429.65625 1585.34375 429.730469 C 1583.480469 429.804688 1581.695312 430.175781 1580.058594 431.144531 C 1577.675781 432.632812 1575.742188 434.792969 1574.253906 437.253906 C 1572.019531 441.125 1570.679688 445.742188 1570.605469 450.433594 C 1561.304688 450.507812 1552.074219 450.507812 1542.773438 450.582031 C 1542.847656 447.828125 1542.101562 445.144531 1541.210938 442.539062 C 1540.316406 440.082031 1539.277344 437.625 1537.785156 435.464844 C 1536.074219 432.859375 1533.621094 430.324219 1530.417969 429.730469 C 1528.707031 429.433594 1526.847656 429.65625 1525.210938 429.730469 C 1523.273438 429.804688 1521.488281 430.175781 1519.925781 431.144531 C 1517.46875 432.632812 1515.535156 434.792969 1514.121094 437.253906 C 1511.738281 441.273438 1510.476562 446.039062 1510.398438 450.804688 C 1500.875 450.878906 1491.347656 450.878906 1481.75 450.957031 C 1481.597656 445.070312 1479.738281 439.261719 1476.316406 434.421875 C 1475.421875 433.15625 1474.453125 431.816406 1473.117188 430.921875 C 1470.136719 428.761719 1465.898438 429.132812 1462.546875 430.175781 C 1455.402344 432.335938 1452.203125 440.082031 1450.640625 446.710938 C 1450.269531 448.199219 1450.042969 449.6875 1449.894531 451.179688 L 1431.960938 451.328125 C 1425.859375 451.328125 1421.09375 450.433594 1420.722656 457.285156 C 1420.277344 464.210938 1420.351562 471.210938 1419.90625 478.210938 C 1418.9375 492.140625 1417.078125 505.992188 1414.398438 519.695312 C 1409.113281 547.101562 1400.40625 573.835938 1388.574219 599.15625 C 1385.523438 605.710938 1382.246094 612.191406 1378.75 618.59375 C 1378.304688 619.414062 1377.855469 620.308594 1378.078125 621.203125 C 1378.378906 622.839844 1380.535156 623.210938 1382.246094 623.285156 C 1388.199219 623.511719 1394.15625 623.660156 1400.109375 623.808594 C 1400.109375 623.808594 1400.109375 623.882812 1400.109375 623.957031 C 1400.035156 624.03125 1400.035156 624.179688 1400.035156 624.328125 L 1398.398438 630.363281 C 1398.097656 631.480469 1398.917969 632.519531 1400.035156 632.519531 C 1401.820312 632.597656 1403.605469 632.597656 1405.316406 632.597656 C 1405.316406 632.671875 1405.316406 632.746094 1405.316406 632.820312 C 1405.242188 634.160156 1405.316406 635.5 1405.242188 636.839844 C 1405.167969 637.808594 1405.914062 638.703125 1406.878906 638.703125 C 1407.699219 638.703125 1408.445312 638.703125 1409.261719 638.703125 C 1409.859375 638.703125 1410.453125 638.628906 1411.046875 638.703125 C 1411.644531 638.777344 1411.792969 639.148438 1412.164062 639.523438 C 1412.460938 639.820312 1412.761719 640.117188 1413.058594 640.339844 C 1413.652344 640.863281 1414.324219 641.382812 1414.992188 641.90625 C 1416.257812 642.875 1417.449219 643.839844 1418.714844 644.808594 C 1420.054688 645.851562 1421.320312 646.894531 1422.65625 647.9375 C 1423.476562 648.609375 1424.59375 648.53125 1425.558594 648.382812 C 1427.496094 648.160156 1429.429688 648.308594 1431.363281 648.308594 C 1434.863281 648.308594 1438.359375 648.382812 1441.859375 648.382812 C 1448.855469 648.457031 1455.851562 648.53125 1462.84375 648.609375 L 1504.820312 649.054688 C 1514.121094 649.203125 1523.347656 649.277344 1532.578125 649.351562 C 1568.003906 649.726562 1603.5 650.097656 1638.925781 650.46875 C 1641.007812 650.542969 1643.167969 650.542969 1645.25 650.542969 C 1650.238281 650.617188 1655.222656 650.691406 1660.136719 650.691406 C 1666.089844 650.765625 1672.042969 650.839844 1677.996094 650.917969 C 1682.90625 650.992188 1687.894531 650.992188 1692.878906 651.066406 C 1694.964844 651.066406 1697.046875 651.511719 1699.132812 651.140625 C 1701.886719 650.617188 1702.035156 648.308594 1702.183594 645.925781 C 1702.257812 644.511719 1702.40625 643.097656 1702.480469 641.757812 C 1702.628906 638.925781 1702.851562 636.097656 1703 633.339844 C 1703.375 627.679688 1703.746094 622.09375 1704.042969 616.507812 L 1706.203125 582.847656 C 1706.945312 571.675781 1707.691406 560.429688 1708.359375 549.261719 L 1710.519531 515.597656 C 1711.261719 504.425781 1712.007812 493.179688 1712.675781 482.011719 L 1713.121094 475.605469 C 1713.421875 470.46875 1713.792969 465.253906 1712.304688 460.339844 Z M 1455.851562 551.941406 C 1452.203125 551.867188 1448.628906 551.867188 1444.984375 551.867188 C 1443.199219 551.867188 1441.488281 551.867188 1439.699219 551.867188 L 1437.171875 551.867188 C 1436.722656 551.867188 1436.277344 551.867188 1435.90625 551.867188 L 1435.832031 551.867188 C 1435.832031 551.792969 1435.90625 551.71875 1435.90625 551.644531 C 1435.980469 551.195312 1436.054688 550.824219 1436.128906 550.378906 C 1436.277344 549.335938 1436.5 548.292969 1436.648438 547.25 C 1437.019531 545.3125 1437.394531 543.300781 1437.765625 541.292969 C 1437.914062 540.398438 1437.46875 539.429688 1436.5 539.132812 C 1435.679688 538.910156 1434.566406 539.429688 1434.417969 540.398438 C 1433.894531 543.527344 1433.300781 546.726562 1432.777344 549.855469 C 1432.480469 551.195312 1431.8125 553.058594 1432.554688 554.25 C 1433.300781 555.589844 1435.234375 555.292969 1436.5 555.292969 C 1442.976562 555.292969 1449.375 555.292969 1455.851562 555.367188 C 1458.007812 555.367188 1458.007812 551.941406 1455.851562 551.941406 Z M 1601.417969 580.613281 C 1597.695312 580.835938 1594.050781 580.910156 1590.402344 580.984375 C 1588.542969 580.984375 1586.679688 580.984375 1584.894531 580.984375 C 1584.003906 580.984375 1583.183594 580.984375 1582.289062 580.910156 C 1581.84375 580.910156 1581.324219 580.984375 1580.800781 580.984375 C 1580.800781 580.761719 1580.800781 580.539062 1580.800781 580.316406 C 1580.800781 579.792969 1580.800781 579.273438 1580.800781 578.675781 C 1580.800781 577.558594 1580.875 576.515625 1581.027344 575.398438 C 1581.175781 573.164062 1581.546875 571.007812 1582.066406 568.847656 C 1582.515625 566.761719 1579.238281 565.792969 1578.71875 567.953125 C 1578.046875 571.230469 1577.527344 574.507812 1577.378906 577.859375 C 1577.304688 579.273438 1577.082031 581.132812 1577.453125 582.550781 C 1577.972656 584.1875 1579.613281 584.335938 1581.027344 584.335938 C 1587.796875 584.484375 1594.644531 584.410156 1601.417969 584.039062 C 1603.574219 583.890625 1603.574219 580.464844 1601.417969 580.613281 Z M 1563.984375 582.25 C 1560.335938 582.476562 1556.691406 582.550781 1552.96875 582.625 C 1551.109375 582.625 1549.324219 582.625 1547.460938 582.625 C 1546.644531 582.625 1545.75 582.625 1544.929688 582.550781 C 1544.484375 582.550781 1543.890625 582.625 1543.367188 582.625 C 1543.367188 582.402344 1543.367188 582.175781 1543.367188 581.953125 C 1543.367188 581.433594 1543.367188 580.910156 1543.367188 580.316406 C 1543.441406 579.199219 1543.515625 578.15625 1543.59375 577.039062 C 1543.816406 574.804688 1544.1875 572.644531 1544.632812 570.558594 C 1545.082031 568.398438 1541.804688 567.429688 1541.359375 569.589844 C 1540.613281 572.867188 1540.167969 576.144531 1540.019531 579.496094 C 1539.945312 580.910156 1539.648438 582.773438 1540.09375 584.1875 C 1540.539062 585.828125 1542.179688 585.976562 1543.667969 585.976562 C 1550.4375 586.125 1557.210938 586.050781 1563.984375 585.675781 C 1566.214844 585.527344 1566.214844 582.101562 1563.984375 582.25 Z M 1526.921875 582.402344 C 1521.117188 582.847656 1515.3125 583.21875 1509.507812 583.367188 C 1508.835938 583.367188 1508.09375 583.367188 1507.421875 583.367188 C 1507.199219 583.367188 1506.902344 583.367188 1506.679688 583.367188 C 1506.679688 583.21875 1506.679688 582.996094 1506.679688 582.921875 C 1506.753906 582.476562 1506.828125 582.027344 1506.828125 581.65625 L 1507.050781 579.570312 C 1507.421875 576.667969 1507.722656 573.761719 1508.09375 570.855469 C 1508.167969 569.964844 1507.199219 569.144531 1506.382812 569.144531 C 1505.339844 569.144531 1504.746094 569.964844 1504.667969 570.855469 C 1504.296875 574.207031 1503.925781 577.484375 1503.480469 580.835938 C 1503.332031 582.175781 1502.882812 583.816406 1503.40625 585.15625 C 1504.074219 586.644531 1505.488281 586.867188 1506.976562 586.792969 C 1513.601562 586.71875 1520.296875 586.347656 1526.921875 585.828125 C 1529.078125 585.601562 1529.078125 582.175781 1526.921875 582.402344 Z M 1491.570312 582.476562 L 1481.898438 582.550781 L 1477.207031 582.625 C 1476.390625 582.625 1475.570312 582.625 1474.828125 582.625 C 1474.453125 582.625 1473.933594 582.699219 1473.414062 582.699219 C 1473.488281 582.625 1473.488281 582.476562 1473.488281 582.402344 C 1473.488281 581.878906 1473.5625 581.359375 1473.636719 580.835938 C 1473.710938 579.867188 1473.859375 578.902344 1473.933594 577.933594 C 1474.230469 575.996094 1474.53125 573.984375 1474.976562 572.050781 C 1475.347656 569.890625 1472.074219 568.996094 1471.625 571.15625 C 1471.03125 574.058594 1470.585938 577.039062 1470.289062 580.015625 C 1470.136719 581.359375 1469.765625 582.921875 1470.0625 584.261719 C 1470.511719 585.902344 1471.925781 586.125 1473.414062 586.125 C 1479.515625 586.050781 1485.542969 585.976562 1491.570312 585.902344 C 1493.804688 585.902344 1493.804688 582.476562 1491.570312 582.476562 Z M 1452.945312 582.699219 C 1449.375 582.699219 1445.804688 582.699219 1442.15625 582.625 C 1440.371094 582.625 1438.585938 582.625 1436.871094 582.625 C 1435.980469 582.625 1435.160156 582.625 1434.269531 582.625 C 1433.894531 582.625 1433.449219 582.625 1433.003906 582.625 C 1433.003906 582.550781 1433.078125 582.476562 1433.078125 582.402344 C 1433.152344 581.953125 1433.226562 581.582031 1433.300781 581.132812 C 1433.449219 580.09375 1433.671875 579.125 1433.820312 578.082031 C 1434.191406 576.070312 1434.566406 574.058594 1434.863281 572.050781 C 1435.011719 571.15625 1434.640625 570.1875 1433.671875 569.964844 C 1432.855469 569.738281 1431.738281 570.1875 1431.589844 571.15625 C 1430.992188 574.28125 1430.472656 577.484375 1429.875 580.6875 C 1429.652344 581.953125 1428.984375 583.816406 1429.652344 585.007812 C 1430.472656 586.347656 1432.40625 586.050781 1433.671875 586.050781 C 1440.074219 586.050781 1446.546875 586.125 1452.945312 586.125 C 1455.179688 586.125 1455.179688 582.699219 1452.945312 582.699219 Z M 1600.820312 551.496094 C 1597.175781 551.644531 1593.453125 551.792969 1589.808594 551.867188 C 1587.945312 551.867188 1586.085938 551.867188 1584.300781 551.867188 C 1583.40625 551.867188 1582.589844 551.792969 1581.769531 551.792969 C 1581.25 551.792969 1580.726562 551.867188 1580.207031 551.792969 C 1580.207031 551.644531 1580.207031 551.417969 1580.207031 551.195312 C 1580.207031 550.675781 1580.207031 550.078125 1580.207031 549.558594 C 1580.28125 548.441406 1580.355469 547.324219 1580.429688 546.28125 C 1580.652344 544.046875 1580.953125 541.886719 1581.472656 539.726562 C 1581.917969 537.566406 1578.644531 536.675781 1578.125 538.832031 C 1577.453125 542.109375 1577.007812 545.386719 1576.859375 548.738281 C 1576.785156 550.152344 1576.484375 552.015625 1576.933594 553.355469 C 1577.378906 555.070312 1579.015625 555.144531 1580.503906 555.21875 C 1587.277344 555.367188 1594.050781 555.292969 1600.820312 554.921875 C 1602.980469 554.769531 1603.054688 551.34375 1600.820312 551.496094 Z M 1563.6875 551.644531 C 1557.957031 552.089844 1552.148438 552.460938 1546.34375 552.613281 C 1545.601562 552.613281 1544.929688 552.613281 1544.1875 552.613281 C 1544.039062 552.613281 1543.742188 552.613281 1543.515625 552.613281 C 1543.515625 552.386719 1543.515625 552.238281 1543.515625 552.089844 C 1543.59375 551.71875 1543.59375 551.269531 1543.667969 550.898438 L 1543.890625 548.8125 C 1544.1875 545.910156 1544.558594 543.003906 1544.855469 540.101562 C 1545.007812 539.207031 1544.039062 538.386719 1543.144531 538.386719 C 1542.179688 538.386719 1541.582031 539.207031 1541.433594 540.101562 L 1540.316406 550.078125 C 1540.167969 551.417969 1539.722656 553.058594 1540.242188 554.324219 C 1540.839844 555.886719 1542.328125 556.113281 1543.816406 556.035156 C 1550.4375 555.960938 1557.0625 555.589844 1563.6875 555.070312 C 1565.917969 554.84375 1565.917969 551.417969 1563.6875 551.644531 Z M 1528.410156 551.71875 L 1518.734375 551.792969 L 1513.972656 551.867188 C 1513.226562 551.867188 1512.410156 551.867188 1511.664062 551.867188 C 1511.21875 551.867188 1510.773438 551.941406 1510.25 551.941406 C 1510.25 551.867188 1510.25 551.71875 1510.25 551.570312 C 1510.324219 551.121094 1510.398438 550.601562 1510.398438 550.078125 C 1510.550781 549.109375 1510.625 548.144531 1510.773438 547.175781 C 1511.070312 545.238281 1511.367188 543.226562 1511.738281 541.292969 C 1512.1875 539.132812 1508.910156 538.164062 1508.464844 540.324219 C 1507.871094 543.300781 1507.421875 546.28125 1507.125 549.261719 C 1506.976562 550.601562 1506.53125 552.164062 1506.902344 553.429688 C 1507.347656 555.144531 1508.761719 555.367188 1510.25 555.292969 L 1528.410156 555.144531 C 1530.566406 555.144531 1530.566406 551.71875 1528.410156 551.71875 Z M 1489.785156 551.941406 C 1486.214844 551.867188 1482.566406 551.867188 1478.996094 551.867188 C 1477.207031 551.867188 1475.421875 551.867188 1473.636719 551.867188 C 1472.816406 551.867188 1472 551.867188 1471.105469 551.867188 C 1470.660156 551.867188 1470.289062 551.867188 1469.839844 551.867188 C 1469.839844 551.792969 1469.839844 551.71875 1469.839844 551.644531 L 1470.0625 550.378906 C 1470.289062 549.335938 1470.4375 548.292969 1470.660156 547.25 C 1471.03125 545.3125 1471.328125 543.300781 1471.703125 541.292969 C 1471.851562 540.398438 1471.476562 539.429688 1470.511719 539.132812 C 1469.691406 538.910156 1468.574219 539.429688 1468.425781 540.398438 C 1467.832031 543.527344 1467.308594 546.726562 1466.714844 549.855469 C 1466.492188 551.195312 1465.746094 553.058594 1466.492188 554.25 C 1467.308594 555.589844 1469.171875 555.292969 1470.511719 555.292969 C 1476.910156 555.292969 1483.386719 555.292969 1489.785156 555.367188 C 1492.019531 555.367188 1492.019531 551.941406 1489.785156 551.941406 Z M 1643.613281 521.929688 C 1639.96875 522.078125 1636.246094 522.226562 1632.597656 522.300781 C 1630.738281 522.300781 1628.953125 522.300781 1627.09375 522.300781 C 1626.273438 522.300781 1625.378906 522.226562 1624.5625 522.226562 C 1624.117188 522.226562 1623.519531 522.300781 1623 522.226562 C 1623 522.078125 1623 521.855469 1623 521.628906 C 1623 521.109375 1623 520.511719 1623 519.992188 C 1623.074219 518.875 1623.148438 517.757812 1623.222656 516.714844 C 1623.445312 514.480469 1623.816406 512.320312 1624.265625 510.160156 C 1624.710938 508 1621.4375 507.109375 1620.988281 509.269531 C 1620.246094 512.542969 1619.800781 515.820312 1619.648438 519.171875 C 1619.574219 520.585938 1619.277344 522.449219 1619.722656 523.789062 C 1620.171875 525.503906 1621.808594 525.578125 1623.296875 525.652344 C 1630.070312 525.800781 1636.839844 525.726562 1643.613281 525.355469 C 1645.847656 525.207031 1645.847656 521.78125 1643.613281 521.929688 Z M 1606.550781 522.078125 C 1600.746094 522.523438 1594.941406 522.894531 1589.136719 523.046875 C 1588.46875 523.046875 1587.722656 523.046875 1587.054688 523.046875 C 1586.832031 523.046875 1586.53125 523.046875 1586.308594 523.046875 C 1586.308594 522.820312 1586.308594 522.671875 1586.308594 522.523438 C 1586.382812 522.152344 1586.382812 521.703125 1586.457031 521.332031 L 1586.679688 519.246094 C 1587.054688 516.34375 1587.351562 513.4375 1587.722656 510.535156 C 1587.796875 509.640625 1586.832031 508.820312 1586.011719 508.820312 C 1584.96875 508.820312 1584.375 509.640625 1584.300781 510.535156 C 1583.929688 513.8125 1583.480469 517.160156 1583.109375 520.511719 C 1582.960938 521.855469 1582.515625 523.492188 1583.035156 524.757812 C 1583.703125 526.320312 1585.117188 526.546875 1586.605469 526.472656 C 1593.230469 526.398438 1599.929688 526.023438 1606.550781 525.503906 C 1608.710938 525.28125 1608.710938 521.855469 1606.550781 522.078125 Z M 1571.203125 522.152344 L 1561.527344 522.226562 L 1556.839844 522.300781 C 1556.019531 522.300781 1555.203125 522.300781 1554.457031 522.300781 C 1554.085938 522.300781 1553.5625 522.375 1553.042969 522.375 C 1553.042969 522.300781 1553.117188 522.152344 1553.117188 522.003906 C 1553.117188 521.554688 1553.191406 521.035156 1553.265625 520.511719 C 1553.339844 519.546875 1553.488281 518.578125 1553.5625 517.609375 C 1553.863281 515.671875 1554.160156 513.660156 1554.605469 511.726562 C 1554.976562 509.566406 1551.703125 508.597656 1551.257812 510.757812 C 1550.660156 513.734375 1550.214844 516.714844 1549.917969 519.695312 C 1549.769531 521.035156 1549.324219 522.597656 1549.695312 523.863281 C 1550.140625 525.578125 1551.554688 525.800781 1553.042969 525.726562 C 1559.070312 525.726562 1565.175781 525.652344 1571.203125 525.578125 C 1573.433594 525.578125 1573.433594 522.152344 1571.203125 522.152344 Z M 1532.578125 522.375 C 1529.003906 522.300781 1525.359375 522.300781 1521.785156 522.300781 C 1520 522.300781 1518.214844 522.300781 1516.503906 522.300781 C 1515.609375 522.300781 1514.792969 522.300781 1513.898438 522.300781 C 1513.527344 522.300781 1513.078125 522.300781 1512.632812 522.300781 C 1512.632812 522.226562 1512.707031 522.152344 1512.707031 522.078125 C 1512.78125 521.628906 1512.855469 521.257812 1512.929688 520.8125 C 1513.078125 519.769531 1513.300781 518.726562 1513.453125 517.683594 C 1513.824219 515.746094 1514.195312 513.734375 1514.492188 511.726562 C 1514.640625 510.832031 1514.269531 509.863281 1513.300781 509.566406 C 1512.484375 509.34375 1511.367188 509.863281 1511.21875 510.832031 C 1510.625 513.960938 1510.101562 517.160156 1509.507812 520.289062 C 1509.285156 521.628906 1508.613281 523.492188 1509.285156 524.683594 C 1510.101562 526.023438 1511.964844 525.726562 1513.300781 525.726562 C 1519.703125 525.726562 1526.175781 525.726562 1532.578125 525.800781 C 1534.808594 525.800781 1534.808594 522.375 1532.578125 522.375 Z M 1641.230469 551.496094 C 1637.585938 551.644531 1633.863281 551.792969 1630.21875 551.867188 C 1628.355469 551.867188 1626.570312 551.867188 1624.710938 551.867188 C 1623.816406 551.867188 1623 551.792969 1622.179688 551.792969 C 1621.734375 551.792969 1621.136719 551.867188 1620.617188 551.792969 C 1620.617188 551.644531 1620.617188 551.417969 1620.617188 551.195312 C 1620.617188 550.675781 1620.617188 550.078125 1620.617188 549.558594 C 1620.691406 548.441406 1620.765625 547.324219 1620.839844 546.28125 C 1621.0625 544.046875 1621.4375 541.886719 1621.882812 539.726562 C 1622.328125 537.566406 1619.054688 536.675781 1618.609375 538.832031 C 1617.863281 542.109375 1617.417969 545.386719 1617.269531 548.738281 C 1617.195312 550.152344 1616.898438 552.015625 1617.34375 553.355469 C 1617.789062 555.070312 1619.425781 555.144531 1620.914062 555.21875 C 1627.6875 555.367188 1634.460938 555.292969 1641.230469 554.921875 C 1643.390625 554.769531 1643.464844 551.34375 1641.230469 551.496094 Z M 1641.230469 551.496094 " fill-opacity="1" fill-rule="nonzero"/></g></svg>