<svg xmlns="http://www.w3.org/2000/svg" xmlns:xlink="http://www.w3.org/1999/xlink" width="2560" zoomAndPan="magnify" viewBox="0 0 1920 1079.999946" height="1440" preserveAspectRatio="xMidYMid meet" version="1.0"><defs><g/><clipPath id="e7c9e2c6a0"><path d="M 1643 611.773438 L 1675 611.773438 L 1675 643 L 1643 643 Z M 1643 611.773438 " clip-rule="nonzero"/></clipPath></defs><rect x="-192" width="2304" fill="#ffffff" y="-107.999995" height="1295.999935" fill-opacity="1"/><rect x="-192" width="2304" fill="#ffffff" y="-107.999995" height="1295.999935" fill-opacity="1"/><rect x="-192" width="2304" fill="#97b0b0" y="-107.999995" height="1295.999935" fill-opacity="1"/><path fill="#336666" d="M 1519.167969 675.542969 C 1519.167969 676.160156 1519.136719 676.773438 1519.074219 677.386719 C 1519.015625 678 1518.925781 678.609375 1518.804688 679.210938 C 1518.683594 679.816406 1518.535156 680.410156 1518.359375 681 C 1518.179688 681.589844 1517.972656 682.167969 1517.738281 682.738281 C 1517.5 683.308594 1517.238281 683.863281 1516.949219 684.40625 C 1516.660156 684.949219 1516.34375 685.476562 1516 685.988281 C 1515.660156 686.5 1515.292969 686.996094 1514.902344 687.472656 C 1514.511719 687.945312 1514.101562 688.402344 1513.664062 688.835938 C 1513.230469 689.273438 1512.777344 689.6875 1512.300781 690.078125 C 1511.824219 690.46875 1511.332031 690.832031 1510.820312 691.175781 C 1510.308594 691.519531 1509.78125 691.835938 1509.238281 692.125 C 1508.695312 692.414062 1508.140625 692.675781 1507.574219 692.914062 C 1507.003906 693.148438 1506.425781 693.355469 1505.839844 693.535156 C 1505.25 693.714844 1504.652344 693.863281 1504.050781 693.984375 C 1503.445312 694.101562 1502.839844 694.195312 1502.226562 694.253906 C 1501.617188 694.3125 1501 694.34375 1500.386719 694.34375 C 1499.773438 694.34375 1499.15625 694.3125 1498.546875 694.253906 C 1497.933594 694.195312 1497.328125 694.101562 1496.722656 693.984375 C 1496.121094 693.863281 1495.523438 693.714844 1494.933594 693.535156 C 1494.347656 693.355469 1493.769531 693.148438 1493.199219 692.914062 C 1492.632812 692.675781 1492.078125 692.414062 1491.535156 692.125 C 1490.992188 691.835938 1490.464844 691.519531 1489.953125 691.175781 C 1489.441406 690.832031 1488.949219 690.46875 1488.472656 690.078125 C 1487.996094 689.6875 1487.542969 689.273438 1487.109375 688.835938 C 1486.671875 688.402344 1486.261719 687.945312 1485.871094 687.472656 C 1485.480469 686.996094 1485.113281 686.5 1484.773438 685.988281 C 1484.429688 685.476562 1484.113281 684.949219 1483.824219 684.40625 C 1483.535156 683.863281 1483.273438 683.308594 1483.035156 682.738281 C 1482.800781 682.167969 1482.59375 681.589844 1482.414062 681 C 1482.238281 680.410156 1482.089844 679.816406 1481.96875 679.210938 C 1481.847656 678.609375 1481.757812 678 1481.699219 677.386719 C 1481.636719 676.773438 1481.605469 676.160156 1481.605469 675.542969 C 1481.605469 674.929688 1481.636719 674.3125 1481.699219 673.699219 C 1481.757812 673.089844 1481.847656 672.480469 1481.96875 671.875 C 1482.089844 671.273438 1482.238281 670.675781 1482.414062 670.085938 C 1482.59375 669.496094 1482.800781 668.917969 1483.035156 668.347656 C 1483.273438 667.78125 1483.535156 667.222656 1483.824219 666.679688 C 1484.113281 666.136719 1484.429688 665.609375 1484.773438 665.097656 C 1485.113281 664.585938 1485.480469 664.09375 1485.871094 663.617188 C 1486.261719 663.140625 1486.671875 662.683594 1487.109375 662.25 C 1487.542969 661.8125 1487.996094 661.402344 1488.472656 661.011719 C 1488.949219 660.621094 1489.441406 660.253906 1489.953125 659.910156 C 1490.464844 659.570312 1490.992188 659.253906 1491.535156 658.960938 C 1492.078125 658.671875 1492.632812 658.410156 1493.199219 658.171875 C 1493.769531 657.9375 1494.347656 657.730469 1494.933594 657.550781 C 1495.523438 657.375 1496.121094 657.222656 1496.722656 657.105469 C 1497.328125 656.984375 1497.933594 656.894531 1498.546875 656.832031 C 1499.15625 656.773438 1499.773438 656.742188 1500.386719 656.742188 C 1501 656.742188 1501.617188 656.773438 1502.226562 656.832031 C 1502.839844 656.894531 1503.445312 656.984375 1504.050781 657.105469 C 1504.652344 657.222656 1505.25 657.375 1505.839844 657.550781 C 1506.425781 657.730469 1507.003906 657.9375 1507.574219 658.171875 C 1508.140625 658.410156 1508.695312 658.671875 1509.238281 658.960938 C 1509.78125 659.253906 1510.308594 659.570312 1510.820312 659.910156 C 1511.332031 660.253906 1511.824219 660.621094 1512.300781 661.011719 C 1512.777344 661.402344 1513.230469 661.8125 1513.664062 662.25 C 1514.101562 662.683594 1514.511719 663.140625 1514.902344 663.617188 C 1515.292969 664.09375 1515.660156 664.585938 1516 665.097656 C 1516.34375 665.609375 1516.660156 666.136719 1516.949219 666.679688 C 1517.238281 667.222656 1517.5 667.78125 1517.738281 668.347656 C 1517.972656 668.917969 1518.179688 669.496094 1518.359375 670.085938 C 1518.535156 670.675781 1518.683594 671.273438 1518.804688 671.875 C 1518.925781 672.480469 1519.015625 673.089844 1519.074219 673.699219 C 1519.136719 674.3125 1519.167969 674.929688 1519.167969 675.542969 Z M 1519.167969 675.542969 " fill-opacity="1" fill-rule="nonzero"/><path fill="#336666" d="M 1615.359375 647.132812 C 1615.359375 647.75 1615.328125 648.363281 1615.269531 648.976562 C 1615.207031 649.589844 1615.117188 650.195312 1615 650.800781 C 1614.878906 651.40625 1614.730469 652 1614.550781 652.589844 C 1614.371094 653.179688 1614.164062 653.757812 1613.929688 654.328125 C 1613.695312 654.898438 1613.433594 655.453125 1613.140625 655.996094 C 1612.851562 656.539062 1612.535156 657.066406 1612.195312 657.578125 C 1611.851562 658.089844 1611.488281 658.585938 1611.097656 659.058594 C 1610.707031 659.535156 1610.292969 659.992188 1609.859375 660.425781 C 1609.425781 660.863281 1608.96875 661.277344 1608.492188 661.667969 C 1608.019531 662.058594 1607.523438 662.421875 1607.011719 662.765625 C 1606.5 663.109375 1605.976562 663.425781 1605.433594 663.714844 C 1604.890625 664.003906 1604.335938 664.265625 1603.765625 664.503906 C 1603.199219 664.738281 1602.621094 664.945312 1602.03125 665.125 C 1601.441406 665.304688 1600.847656 665.453125 1600.242188 665.574219 C 1599.640625 665.691406 1599.03125 665.785156 1598.421875 665.84375 C 1597.808594 665.902344 1597.195312 665.933594 1596.578125 665.933594 C 1595.964844 665.933594 1595.351562 665.902344 1594.738281 665.84375 C 1594.125 665.785156 1593.519531 665.691406 1592.914062 665.574219 C 1592.3125 665.453125 1591.71875 665.304688 1591.128906 665.125 C 1590.539062 664.945312 1589.960938 664.738281 1589.394531 664.503906 C 1588.824219 664.265625 1588.269531 664.003906 1587.726562 663.714844 C 1587.183594 663.425781 1586.65625 663.109375 1586.144531 662.765625 C 1585.636719 662.421875 1585.140625 662.058594 1584.667969 661.667969 C 1584.191406 661.277344 1583.734375 660.863281 1583.300781 660.425781 C 1582.867188 659.992188 1582.453125 659.535156 1582.0625 659.058594 C 1581.671875 658.585938 1581.308594 658.089844 1580.964844 657.578125 C 1580.625 657.066406 1580.308594 656.539062 1580.019531 655.996094 C 1579.726562 655.453125 1579.464844 654.898438 1579.230469 654.328125 C 1578.996094 653.757812 1578.789062 653.179688 1578.609375 652.589844 C 1578.429688 652 1578.28125 651.40625 1578.160156 650.800781 C 1578.039062 650.195312 1577.949219 649.589844 1577.890625 648.976562 C 1577.832031 648.363281 1577.800781 647.75 1577.800781 647.132812 C 1577.800781 646.515625 1577.832031 645.902344 1577.890625 645.289062 C 1577.949219 644.675781 1578.039062 644.070312 1578.160156 643.464844 C 1578.28125 642.863281 1578.429688 642.265625 1578.609375 641.675781 C 1578.789062 641.085938 1578.996094 640.507812 1579.230469 639.9375 C 1579.464844 639.371094 1579.726562 638.8125 1580.019531 638.269531 C 1580.308594 637.726562 1580.625 637.199219 1580.964844 636.6875 C 1581.308594 636.175781 1581.671875 635.683594 1582.0625 635.207031 C 1582.453125 634.730469 1582.867188 634.273438 1583.300781 633.839844 C 1583.734375 633.402344 1584.191406 632.992188 1584.667969 632.601562 C 1585.140625 632.210938 1585.636719 631.84375 1586.144531 631.5 C 1586.65625 631.160156 1587.183594 630.84375 1587.726562 630.550781 C 1588.269531 630.261719 1588.824219 630 1589.394531 629.761719 C 1589.960938 629.527344 1590.539062 629.320312 1591.128906 629.140625 C 1591.71875 628.964844 1592.3125 628.8125 1592.914062 628.695312 C 1593.519531 628.574219 1594.125 628.484375 1594.738281 628.421875 C 1595.351562 628.363281 1595.964844 628.332031 1596.578125 628.332031 C 1597.195312 628.332031 1597.808594 628.363281 1598.421875 628.421875 C 1599.03125 628.484375 1599.640625 628.574219 1600.242188 628.695312 C 1600.847656 628.8125 1601.441406 628.964844 1602.03125 629.140625 C 1602.621094 629.320312 1603.199219 629.527344 1603.765625 629.761719 C 1604.335938 630 1604.890625 630.261719 1605.433594 630.550781 C 1605.976562 630.84375 1606.5 631.160156 1607.011719 631.5 C 1607.523438 631.84375 1608.019531 632.210938 1608.492188 632.601562 C 1608.96875 632.992188 1609.425781 633.402344 1609.859375 633.839844 C 1610.292969 634.273438 1610.707031 634.730469 1611.097656 635.207031 C 1611.488281 635.683594 1611.851562 636.175781 1612.195312 636.6875 C 1612.535156 637.199219 1612.851562 637.726562 1613.140625 638.269531 C 1613.433594 638.8125 1613.695312 639.371094 1613.929688 639.9375 C 1614.164062 640.507812 1614.371094 641.085938 1614.550781 641.675781 C 1614.730469 642.265625 1614.878906 642.863281 1615 643.464844 C 1615.117188 644.070312 1615.207031 644.675781 1615.269531 645.289062 C 1615.328125 645.902344 1615.359375 646.515625 1615.359375 647.132812 Z M 1615.359375 647.132812 " fill-opacity="1" fill-rule="nonzero"/><path fill="#336666" d="M 1712.804688 663.84375 C 1712.804688 664.460938 1712.773438 665.074219 1712.714844 665.6875 C 1712.652344 666.300781 1712.5625 666.910156 1712.441406 667.511719 C 1712.324219 668.117188 1712.175781 668.714844 1711.996094 669.304688 C 1711.816406 669.890625 1711.609375 670.472656 1711.375 671.039062 C 1711.140625 671.609375 1710.875 672.164062 1710.585938 672.707031 C 1710.296875 673.25 1709.980469 673.777344 1709.640625 674.289062 C 1709.296875 674.800781 1708.929688 675.296875 1708.542969 675.773438 C 1708.152344 676.25 1707.738281 676.703125 1707.304688 677.140625 C 1706.867188 677.574219 1706.414062 677.988281 1705.9375 678.378906 C 1705.460938 678.769531 1704.96875 679.136719 1704.457031 679.476562 C 1703.945312 679.820312 1703.417969 680.136719 1702.878906 680.425781 C 1702.335938 680.714844 1701.78125 680.980469 1701.210938 681.214844 C 1700.644531 681.449219 1700.066406 681.65625 1699.476562 681.835938 C 1698.886719 682.015625 1698.292969 682.164062 1697.6875 682.285156 C 1697.085938 682.40625 1696.476562 682.496094 1695.867188 682.554688 C 1695.253906 682.617188 1694.640625 682.644531 1694.023438 682.644531 C 1693.410156 682.644531 1692.796875 682.617188 1692.183594 682.554688 C 1691.570312 682.496094 1690.964844 682.40625 1690.359375 682.285156 C 1689.757812 682.164062 1689.160156 682.015625 1688.574219 681.835938 C 1687.984375 681.65625 1687.40625 681.449219 1686.839844 681.214844 C 1686.269531 680.980469 1685.714844 680.714844 1685.171875 680.425781 C 1684.628906 680.136719 1684.101562 679.820312 1683.589844 679.476562 C 1683.078125 679.136719 1682.585938 678.769531 1682.109375 678.378906 C 1681.636719 677.988281 1681.179688 677.574219 1680.746094 677.140625 C 1680.308594 676.703125 1679.898438 676.25 1679.507812 675.773438 C 1679.117188 675.296875 1678.75 674.800781 1678.410156 674.289062 C 1678.066406 673.777344 1677.753906 673.25 1677.460938 672.707031 C 1677.171875 672.164062 1676.910156 671.609375 1676.675781 671.039062 C 1676.4375 670.472656 1676.230469 669.890625 1676.054688 669.304688 C 1675.875 668.714844 1675.726562 668.117188 1675.605469 667.511719 C 1675.484375 666.910156 1675.394531 666.300781 1675.335938 665.6875 C 1675.273438 665.074219 1675.246094 664.460938 1675.246094 663.84375 C 1675.246094 663.230469 1675.273438 662.613281 1675.335938 662.003906 C 1675.394531 661.390625 1675.484375 660.78125 1675.605469 660.175781 C 1675.726562 659.574219 1675.875 658.976562 1676.054688 658.386719 C 1676.230469 657.796875 1676.4375 657.21875 1676.675781 656.648438 C 1676.910156 656.082031 1677.171875 655.527344 1677.460938 654.984375 C 1677.753906 654.4375 1678.066406 653.910156 1678.410156 653.398438 C 1678.75 652.886719 1679.117188 652.394531 1679.507812 651.917969 C 1679.898438 651.441406 1680.308594 650.984375 1680.746094 650.550781 C 1681.179688 650.117188 1681.636719 649.703125 1682.109375 649.3125 C 1682.585938 648.921875 1683.078125 648.554688 1683.589844 648.210938 C 1684.101562 647.871094 1684.628906 647.554688 1685.171875 647.265625 C 1685.714844 646.972656 1686.269531 646.710938 1686.839844 646.476562 C 1687.40625 646.238281 1687.984375 646.03125 1688.574219 645.855469 C 1689.160156 645.675781 1689.757812 645.527344 1690.359375 645.40625 C 1690.964844 645.285156 1691.570312 645.195312 1692.183594 645.136719 C 1692.796875 645.074219 1693.410156 645.042969 1694.023438 645.042969 C 1694.640625 645.042969 1695.253906 645.074219 1695.867188 645.136719 C 1696.476562 645.195312 1697.085938 645.285156 1697.6875 645.40625 C 1698.292969 645.527344 1698.886719 645.675781 1699.476562 645.855469 C 1700.066406 646.03125 1700.644531 646.238281 1701.210938 646.476562 C 1701.78125 646.710938 1702.335938 646.972656 1702.878906 647.265625 C 1703.417969 647.554688 1703.945312 647.871094 1704.457031 648.210938 C 1704.96875 648.554688 1705.460938 648.921875 1705.9375 649.3125 C 1706.414062 649.703125 1706.867188 650.117188 1707.304688 650.550781 C 1707.738281 650.984375 1708.152344 651.441406 1708.542969 651.917969 C 1708.929688 652.394531 1709.296875 652.886719 1709.640625 653.398438 C 1709.980469 653.910156 1710.296875 654.4375 1710.585938 654.984375 C 1710.875 655.527344 1711.140625 656.082031 1711.375 656.648438 C 1711.609375 657.21875 1711.816406 657.796875 1711.996094 658.386719 C 1712.175781 658.976562 1712.324219 659.574219 1712.441406 660.175781 C 1712.5625 660.78125 1712.652344 661.390625 1712.714844 662.003906 C 1712.773438 662.613281 1712.804688 663.230469 1712.804688 663.84375 Z M 1712.804688 663.84375 " fill-opacity="1" fill-rule="nonzero"/><path fill="#336666" d="M 1732.304688 706.3125 L 1725.046875 706.3125 L 1734.878906 714.109375 C 1733.558594 711.71875 1732.671875 709.078125 1732.304688 706.3125 Z M 1732.304688 706.3125 " fill-opacity="1" fill-rule="nonzero"/><path fill="#336666" d="M 1763.773438 793.835938 L 1758.960938 819.957031 L 1771.507812 819.957031 L 1771.507812 853.378906 L 1781.800781 853.378906 L 1781.800781 779.289062 L 1771.507812 779.289062 L 1771.507812 779.542969 L 1770.140625 759.253906 L 1763.773438 793.824219 C 1763.773438 793.828125 1763.773438 793.832031 1763.773438 793.835938 Z M 1763.773438 793.835938 " fill-opacity="1" fill-rule="nonzero"/><path fill="#336666" d="M 1702.640625 839.621094 L 1702.929688 838.0625 L 1702.929688 819.953125 L 1706.265625 819.953125 L 1712 788.816406 C 1712 788.808594 1712 788.804688 1712 788.800781 L 1722.808594 730.117188 L 1706.585938 717.257812 C 1706.578125 717.351562 1706.558594 717.441406 1706.554688 717.539062 L 1702.390625 779.289062 L 1692.636719 779.289062 L 1692.636719 853.378906 L 1702.929688 853.378906 L 1702.929688 845.746094 C 1702.386719 843.808594 1702.253906 841.730469 1702.640625 839.621094 Z M 1702.640625 839.621094 " fill-opacity="1" fill-rule="nonzero"/><path fill="#336666" d="M 1520.761719 721.21875 C 1524.148438 718.738281 1527.328125 717.984375 1529.628906 717.839844 C 1527.011719 714.742188 1525.222656 710.921875 1524.617188 706.722656 C 1519.746094 708.011719 1516.050781 712.28125 1515.695312 717.539062 L 1515.039062 727.320312 C 1516.761719 724.800781 1518.667969 722.753906 1520.761719 721.21875 Z M 1520.761719 721.21875 " fill-opacity="1" fill-rule="nonzero"/><path fill="#336666" d="M 1572.273438 770.101562 L 1572.273438 782.636719 C 1573.429688 783.914062 1574.371094 785.429688 1574.992188 787.152344 L 1590.945312 831.375 L 1590.945312 779.289062 L 1580.652344 779.289062 L 1580.652344 779.542969 L 1579.96875 769.40625 C 1578.984375 769.757812 1577.945312 769.957031 1576.890625 769.984375 Z M 1572.273438 770.101562 " fill-opacity="1" fill-rule="nonzero"/><path fill="#336666" d="M 1563.847656 717.8125 C 1566.210938 717.8125 1569.8125 718.4375 1573.550781 721.410156 C 1574.777344 722.386719 1575.910156 723.554688 1576.96875 724.890625 L 1576.472656 717.539062 C 1576.136719 712.578125 1572.828125 708.5 1568.359375 706.96875 C 1567.722656 711.066406 1565.960938 714.789062 1563.398438 717.820312 C 1563.542969 717.816406 1563.6875 717.8125 1563.847656 717.8125 Z M 1563.847656 717.8125 " fill-opacity="1" fill-rule="nonzero"/><path fill="#336666" d="M 1549.296875 796.445312 C 1546.742188 789.351562 1550.421875 781.5 1557.503906 778.9375 C 1561.425781 777.519531 1565.574219 778.023438 1568.933594 779.949219 L 1568.933594 768.769531 L 1556.308594 769.089844 L 1549.984375 771.691406 C 1548.9375 772.121094 1547.839844 772.339844 1546.71875 772.339844 C 1543.21875 772.339844 1540.09375 770.242188 1538.765625 767 C 1537.902344 764.902344 1537.902344 762.597656 1538.753906 760.496094 L 1523.789062 764.328125 L 1523.789062 778.335938 C 1526.046875 777.941406 1528.433594 778.101562 1530.742188 778.9375 C 1537.824219 781.5 1541.507812 789.351562 1538.949219 796.441406 L 1530.464844 819.953125 L 1557.78125 819.953125 Z M 1549.296875 796.445312 " fill-opacity="1" fill-rule="nonzero"/><path fill="#336666" d="M 1513.257812 787.152344 C 1514.554688 783.554688 1517.21875 780.839844 1520.449219 779.367188 L 1520.449219 766.652344 L 1517.886719 767.308594 C 1517.074219 767.515625 1516.242188 767.621094 1515.40625 767.621094 C 1514.355469 767.621094 1513.332031 767.449219 1512.351562 767.132812 L 1511.53125 779.289062 L 1501.777344 779.289062 L 1501.777344 818.96875 Z M 1513.257812 787.152344 " fill-opacity="1" fill-rule="nonzero"/><path fill="#336666" d="M 1453.21875 722.40625 L 1453.21875 740.027344 L 1461.210938 730.414062 C 1458.5625 727.34375 1455.8125 724.59375 1453.21875 722.40625 Z M 1453.21875 722.40625 " fill-opacity="1" fill-rule="nonzero"/><path fill="#336666" d="M 1481.457031 723.703125 L 1481.042969 717.539062 C 1480.617188 711.222656 1475.371094 706.3125 1469.046875 706.3125 L 1465.269531 706.3125 C 1472.992188 712.519531 1478.90625 720.152344 1481.457031 723.703125 Z M 1481.457031 723.703125 " fill-opacity="1" fill-rule="nonzero"/><path fill="#336666" d="M 1427.308594 775.597656 L 1423.695312 819.953125 L 1430.921875 819.953125 Z M 1427.308594 775.597656 " fill-opacity="1" fill-rule="nonzero"/><path fill="#336666" d="M 1494.210938 839.9375 L 1495.515625 836.320312 L 1495.515625 779.289062 L 1485.222656 779.289062 L 1485.222656 779.542969 L 1482.308594 736.316406 C 1482.140625 736.5625 1481.964844 736.796875 1481.773438 737.027344 L 1457.988281 765.648438 C 1456.945312 766.898438 1455.617188 767.867188 1454.136719 768.484375 L 1458.328125 819.953125 L 1485.222656 819.953125 L 1485.222656 853.378906 L 1495.519531 853.378906 L 1495.519531 851.863281 C 1493.355469 848.417969 1492.726562 844.050781 1494.210938 839.9375 Z M 1494.210938 839.9375 " fill-opacity="1" fill-rule="nonzero"/><path fill="#336666" d="M 1554.128906 631.757812 C 1555.070312 632.148438 1555.96875 632.628906 1556.820312 633.199219 C 1557.667969 633.769531 1558.457031 634.414062 1559.179688 635.136719 C 1559.902344 635.863281 1560.546875 636.648438 1561.117188 637.5 C 1561.683594 638.351562 1562.164062 639.25 1562.554688 640.195312 C 1562.945312 641.140625 1563.242188 642.117188 1563.441406 643.121094 C 1563.640625 644.125 1563.742188 645.136719 1563.742188 646.160156 C 1563.742188 647.183594 1563.640625 648.199219 1563.441406 649.203125 C 1563.242188 650.207031 1562.945312 651.179688 1562.554688 652.128906 C 1562.164062 653.074219 1561.683594 653.972656 1561.117188 654.824219 C 1560.546875 655.671875 1559.902344 656.460938 1559.179688 657.183594 C 1558.457031 657.910156 1557.667969 658.554688 1556.820312 659.125 C 1555.96875 659.691406 1555.070312 660.171875 1554.128906 660.5625 C 1553.183594 660.957031 1552.210938 661.25 1551.207031 661.453125 C 1550.203125 661.652344 1549.191406 661.75 1548.167969 661.75 C 1547.144531 661.75 1546.132812 661.652344 1545.128906 661.453125 C 1544.128906 661.25 1543.152344 660.957031 1542.210938 660.5625 C 1541.265625 660.171875 1540.367188 659.691406 1539.515625 659.125 C 1538.667969 658.554688 1537.878906 657.910156 1537.15625 657.183594 C 1536.433594 656.460938 1535.789062 655.671875 1535.222656 654.824219 C 1534.652344 653.972656 1534.171875 653.074219 1533.78125 652.128906 C 1533.390625 651.179688 1533.09375 650.207031 1532.894531 649.203125 C 1532.695312 648.199219 1532.597656 647.183594 1532.597656 646.160156 C 1532.597656 645.136719 1532.695312 644.125 1532.894531 643.121094 C 1533.09375 642.117188 1533.390625 641.140625 1533.78125 640.195312 C 1534.171875 639.25 1534.652344 638.351562 1535.222656 637.5 C 1535.789062 636.648438 1536.433594 635.863281 1537.15625 635.136719 C 1537.878906 634.414062 1538.667969 633.769531 1539.515625 633.199219 C 1540.367188 632.628906 1541.265625 632.148438 1542.210938 631.757812 C 1543.152344 631.367188 1544.128906 631.070312 1545.128906 630.871094 C 1546.132812 630.671875 1547.144531 630.570312 1548.167969 630.570312 C 1549.191406 630.570312 1550.203125 630.671875 1551.207031 630.871094 C 1552.210938 631.070312 1553.183594 631.367188 1554.128906 631.757812 Z M 1554.128906 631.757812 " fill-opacity="1" fill-rule="nonzero"/><path fill="#336666" d="M 1479.574219 623.054688 C 1480.515625 623.449219 1481.414062 623.929688 1482.265625 624.496094 C 1483.113281 625.066406 1483.902344 625.710938 1484.625 626.4375 C 1485.347656 627.160156 1485.992188 627.949219 1486.5625 628.796875 C 1487.128906 629.648438 1487.609375 630.546875 1488 631.492188 C 1488.390625 632.4375 1488.6875 633.414062 1488.886719 634.417969 C 1489.085938 635.421875 1489.1875 636.4375 1489.1875 637.460938 C 1489.1875 638.484375 1489.085938 639.496094 1488.886719 640.5 C 1488.6875 641.503906 1488.390625 642.480469 1488 643.425781 C 1487.609375 644.371094 1487.128906 645.269531 1486.5625 646.121094 C 1485.992188 646.972656 1485.347656 647.757812 1484.625 648.484375 C 1483.902344 649.207031 1483.113281 649.851562 1482.265625 650.421875 C 1481.414062 650.992188 1480.515625 651.472656 1479.574219 651.863281 C 1478.628906 652.253906 1477.65625 652.550781 1476.652344 652.75 C 1475.648438 652.949219 1474.636719 653.050781 1473.613281 653.050781 C 1472.589844 653.050781 1471.578125 652.949219 1470.574219 652.75 C 1469.574219 652.550781 1468.597656 652.253906 1467.65625 651.863281 C 1466.710938 651.472656 1465.8125 650.992188 1464.960938 650.421875 C 1464.113281 649.851562 1463.324219 649.207031 1462.601562 648.484375 C 1461.878906 647.757812 1461.234375 646.972656 1460.667969 646.121094 C 1460.097656 645.269531 1459.617188 644.371094 1459.226562 643.425781 C 1458.835938 642.480469 1458.539062 641.503906 1458.339844 640.5 C 1458.140625 639.496094 1458.042969 638.484375 1458.042969 637.460938 C 1458.042969 636.4375 1458.140625 635.421875 1458.339844 634.417969 C 1458.539062 633.414062 1458.835938 632.4375 1459.226562 631.492188 C 1459.617188 630.546875 1460.097656 629.648438 1460.667969 628.796875 C 1461.234375 627.949219 1461.878906 627.160156 1462.601562 626.4375 C 1463.324219 625.710938 1464.113281 625.066406 1464.960938 624.496094 C 1465.8125 623.929688 1466.710938 623.449219 1467.65625 623.054688 C 1468.597656 622.664062 1469.574219 622.371094 1470.574219 622.167969 C 1471.578125 621.96875 1472.589844 621.871094 1473.613281 621.871094 C 1474.636719 621.871094 1475.648438 621.96875 1476.652344 622.167969 C 1477.65625 622.371094 1478.628906 622.664062 1479.574219 623.054688 Z M 1479.574219 623.054688 " fill-opacity="1" fill-rule="nonzero"/><path fill="#336666" d="M 1774.074219 654.9375 C 1774.074219 655.964844 1773.972656 656.976562 1773.773438 657.980469 C 1773.574219 658.984375 1773.277344 659.960938 1772.886719 660.90625 C 1772.496094 661.851562 1772.015625 662.75 1771.449219 663.601562 C 1770.878906 664.453125 1770.234375 665.238281 1769.511719 665.964844 C 1768.789062 666.6875 1768.003906 667.332031 1767.152344 667.902344 C 1766.300781 668.46875 1765.40625 668.949219 1764.460938 669.34375 C 1763.515625 669.734375 1762.542969 670.03125 1761.539062 670.230469 C 1760.535156 670.429688 1759.523438 670.527344 1758.5 670.527344 C 1757.476562 670.527344 1756.464844 670.429688 1755.464844 670.230469 C 1754.460938 670.03125 1753.488281 669.734375 1752.542969 669.34375 C 1751.597656 668.949219 1750.699219 668.46875 1749.847656 667.902344 C 1749 667.332031 1748.210938 666.6875 1747.488281 665.964844 C 1746.765625 665.238281 1746.121094 664.453125 1745.554688 663.601562 C 1744.984375 662.75 1744.503906 661.851562 1744.113281 660.90625 C 1743.722656 659.960938 1743.425781 658.984375 1743.226562 657.980469 C 1743.027344 656.976562 1742.929688 655.964844 1742.929688 654.9375 C 1742.929688 653.914062 1743.027344 652.902344 1743.226562 651.898438 C 1743.425781 650.894531 1743.722656 649.917969 1744.113281 648.972656 C 1744.503906 648.027344 1744.984375 647.128906 1745.554688 646.277344 C 1746.121094 645.425781 1746.765625 644.640625 1747.488281 643.914062 C 1748.210938 643.191406 1749 642.546875 1749.847656 641.976562 C 1750.699219 641.410156 1751.597656 640.929688 1752.542969 640.535156 C 1753.488281 640.144531 1754.460938 639.847656 1755.464844 639.648438 C 1756.464844 639.449219 1757.476562 639.351562 1758.5 639.351562 C 1759.523438 639.351562 1760.535156 639.449219 1761.539062 639.648438 C 1762.542969 639.847656 1763.515625 640.144531 1764.460938 640.535156 C 1765.40625 640.929688 1766.300781 641.410156 1767.152344 641.976562 C 1768.003906 642.546875 1768.789062 643.191406 1769.511719 643.914062 C 1770.234375 644.640625 1770.878906 645.425781 1771.449219 646.277344 C 1772.015625 647.128906 1772.496094 648.027344 1772.886719 648.972656 C 1773.277344 649.917969 1773.574219 650.894531 1773.773438 651.898438 C 1773.972656 652.902344 1774.074219 653.914062 1774.074219 654.9375 Z M 1774.074219 654.9375 " fill-opacity="1" fill-rule="nonzero"/><g clip-path="url(#e7c9e2c6a0)"><path fill="#336666" d="M 1674.332031 627.363281 C 1674.332031 628.386719 1674.234375 629.402344 1674.035156 630.40625 C 1673.835938 631.410156 1673.539062 632.386719 1673.148438 633.332031 C 1672.757812 634.277344 1672.277344 635.175781 1671.707031 636.027344 C 1671.140625 636.878906 1670.496094 637.664062 1669.773438 638.386719 C 1669.046875 639.113281 1668.261719 639.757812 1667.414062 640.328125 C 1666.5625 640.894531 1665.664062 641.375 1664.71875 641.769531 C 1663.773438 642.160156 1662.800781 642.457031 1661.796875 642.65625 C 1660.796875 642.855469 1659.785156 642.953125 1658.761719 642.953125 C 1657.738281 642.953125 1656.726562 642.855469 1655.722656 642.65625 C 1654.71875 642.457031 1653.746094 642.160156 1652.800781 641.769531 C 1651.855469 641.375 1650.960938 640.894531 1650.109375 640.328125 C 1649.257812 639.757812 1648.472656 639.113281 1647.75 638.386719 C 1647.027344 637.664062 1646.382812 636.878906 1645.8125 636.027344 C 1645.246094 635.175781 1644.765625 634.277344 1644.375 633.332031 C 1643.984375 632.386719 1643.6875 631.410156 1643.488281 630.40625 C 1643.289062 629.402344 1643.1875 628.386719 1643.1875 627.363281 C 1643.1875 626.339844 1643.289062 625.328125 1643.488281 624.324219 C 1643.6875 623.320312 1643.984375 622.34375 1644.375 621.398438 C 1644.765625 620.453125 1645.246094 619.554688 1645.8125 618.703125 C 1646.382812 617.851562 1647.027344 617.066406 1647.75 616.339844 C 1648.472656 615.617188 1649.257812 614.972656 1650.109375 614.402344 C 1650.960938 613.832031 1651.855469 613.351562 1652.800781 612.960938 C 1653.746094 612.570312 1654.71875 612.273438 1655.722656 612.074219 C 1656.726562 611.875 1657.738281 611.773438 1658.761719 611.773438 C 1659.785156 611.773438 1660.796875 611.875 1661.796875 612.074219 C 1662.800781 612.273438 1663.773438 612.570312 1664.71875 612.960938 C 1665.664062 613.351562 1666.5625 613.832031 1667.410156 614.402344 C 1668.261719 614.972656 1669.046875 615.617188 1669.773438 616.339844 C 1670.496094 617.066406 1671.140625 617.851562 1671.707031 618.703125 C 1672.277344 619.554688 1672.757812 620.453125 1673.148438 621.398438 C 1673.539062 622.34375 1673.835938 623.320312 1674.035156 624.324219 C 1674.234375 625.328125 1674.332031 626.339844 1674.332031 627.363281 Z M 1674.332031 627.363281 " fill-opacity="1" fill-rule="nonzero"/></g><path fill="#336666" d="M 1529.609375 782.082031 C 1524.25 780.144531 1518.332031 782.921875 1516.398438 788.289062 L 1497.351562 841.074219 C 1495.414062 846.441406 1498.191406 852.363281 1503.550781 854.300781 C 1508.910156 856.238281 1514.828125 853.460938 1516.765625 848.09375 L 1535.808594 795.308594 C 1537.746094 789.941406 1534.96875 784.019531 1529.609375 782.082031 Z M 1529.609375 782.082031 " fill-opacity="1" fill-rule="nonzero"/><path fill="#336666" d="M 1571.484375 848.09375 C 1573.421875 853.460938 1579.335938 856.238281 1584.695312 854.296875 C 1590.054688 852.359375 1592.832031 846.441406 1590.898438 841.074219 L 1571.851562 788.289062 C 1569.914062 782.917969 1564 780.144531 1558.640625 782.082031 C 1553.28125 784.019531 1550.503906 789.9375 1552.441406 795.308594 Z M 1571.484375 848.09375 " fill-opacity="1" fill-rule="nonzero"/><path fill="#336666" d="M 1576.804688 766.644531 C 1578.625 766.597656 1580.351562 765.804688 1581.574219 764.453125 C 1582.800781 763.101562 1583.421875 761.308594 1583.292969 759.488281 C 1581.976562 740.902344 1578.113281 729.304688 1571.476562 724.027344 C 1567.6875 721.015625 1564.171875 721.054688 1562.84375 721.210938 C 1562.722656 721.203125 1562.605469 721.191406 1562.484375 721.191406 L 1559.855469 721.191406 C 1556.140625 724.015625 1551.515625 725.691406 1546.507812 725.691406 C 1541.5 725.691406 1536.875 724.011719 1533.160156 721.191406 L 1531.390625 721.191406 C 1529.953125 721.054688 1526.554688 721.117188 1522.734375 723.917969 C 1516.03125 728.824219 1511.34375 739.816406 1508.804688 756.589844 C 1508.46875 758.808594 1509.265625 761.046875 1510.925781 762.550781 C 1512.167969 763.675781 1513.769531 764.277344 1515.40625 764.277344 C 1515.957031 764.277344 1516.515625 764.207031 1517.058594 764.066406 L 1538.773438 758.507812 C 1539.382812 758.351562 1539.960938 758.109375 1540.5 757.792969 C 1541.210938 757.046875 1542.054688 756.433594 1543.003906 755.980469 L 1548.203125 752.101562 C 1551.160156 749.894531 1551.773438 745.707031 1549.570312 742.746094 C 1547.367188 739.785156 1543.183594 739.171875 1540.226562 741.378906 L 1534.1875 745.882812 L 1524.015625 748.488281 C 1525.539062 742.589844 1527.203125 739.128906 1528.53125 737.117188 L 1530.402344 737.777344 C 1529.433594 739.136719 1528.105469 741.570312 1526.777344 745.796875 L 1533.34375 744.117188 L 1539.078125 739.839844 C 1540.574219 738.722656 1542.347656 738.132812 1544.210938 738.132812 C 1546.914062 738.132812 1549.492188 739.429688 1551.109375 741.597656 C 1553.753906 745.15625 1553.238281 750.109375 1550.054688 753.054688 L 1551.242188 752.566406 C 1552.214844 752.167969 1553.238281 751.949219 1554.289062 751.921875 L 1567.105469 751.59375 C 1565.886719 743.3125 1564.152344 739.265625 1563.027344 737.402344 L 1564.859375 736.75 C 1566.253906 739.222656 1568.121094 744.101562 1569.296875 753.460938 L 1554.335938 753.84375 C 1553.523438 753.863281 1552.722656 754.035156 1551.972656 754.34375 L 1544.179688 757.546875 C 1540.769531 758.949219 1539.140625 762.855469 1540.539062 766.269531 C 1541.601562 768.851562 1544.09375 770.414062 1546.71875 770.414062 C 1547.566406 770.414062 1548.425781 770.253906 1549.253906 769.914062 L 1555.90625 767.175781 Z M 1576.804688 766.644531 " fill-opacity="1" fill-rule="nonzero"/><path fill="#336666" d="M 1546.507812 722.351562 C 1556.878906 722.351562 1565.285156 713.933594 1565.285156 703.550781 C 1565.285156 693.164062 1556.878906 684.75 1546.507812 684.75 C 1536.136719 684.75 1527.726562 693.164062 1527.726562 703.550781 C 1527.726562 713.933594 1536.136719 722.351562 1546.507812 722.351562 Z M 1558.316406 708.433594 C 1558.492188 712.101562 1553.5 715.328125 1547.167969 715.632812 C 1540.835938 715.9375 1535.558594 713.210938 1535.382812 709.539062 C 1535.203125 705.867188 1540.515625 709.292969 1546.847656 708.988281 C 1553.179688 708.683594 1558.136719 704.761719 1558.316406 708.433594 Z M 1558.316406 708.433594 " fill-opacity="1" fill-rule="nonzero"/><path fill="#336666" d="M 1667.425781 819.953125 L 1676.078125 819.953125 L 1676.078125 853.378906 L 1686.375 853.378906 L 1686.375 779.289062 L 1676.078125 779.289062 L 1676.078125 779.542969 L 1671.964844 718.515625 L 1667.425781 717.742188 Z M 1667.425781 819.953125 " fill-opacity="1" fill-rule="nonzero"/><path fill="#336666" d="M 1615.597656 717.742188 L 1611.058594 718.519531 L 1606.960938 779.289062 L 1597.207031 779.289062 L 1597.207031 853.378906 L 1607.5 853.378906 L 1607.5 819.953125 L 1615.597656 819.953125 Z M 1615.597656 717.742188 " fill-opacity="1" fill-rule="nonzero"/><path fill="#336666" d="M 1446.085938 676.722656 C 1446.085938 666.335938 1437.679688 657.921875 1427.308594 657.921875 C 1416.9375 657.921875 1408.527344 666.335938 1408.527344 676.722656 C 1408.527344 687.105469 1416.9375 695.523438 1427.308594 695.523438 C 1437.679688 695.523438 1446.085938 687.105469 1446.085938 676.722656 Z M 1422.003906 683.351562 C 1422.003906 679.464844 1424.378906 676.316406 1427.308594 676.316406 C 1430.238281 676.316406 1432.609375 679.464844 1432.609375 683.351562 C 1432.609375 687.234375 1430.238281 690.382812 1427.308594 690.382812 C 1424.378906 690.382812 1422.003906 687.234375 1422.003906 683.351562 Z M 1422.003906 683.351562 " fill-opacity="1" fill-rule="nonzero"/><path fill="#336666" d="M 1450.574219 765.902344 C 1452.390625 765.824219 1454.164062 765.019531 1455.417969 763.507812 L 1479.207031 734.890625 C 1481.121094 732.585938 1481.269531 729.285156 1479.570312 726.816406 C 1477.742188 724.164062 1461.539062 701.371094 1444.367188 700.359375 C 1444.058594 700.316406 1443.75 700.285156 1443.429688 700.285156 L 1411.183594 700.285156 C 1410.835938 700.285156 1410.496094 700.320312 1410.164062 700.375 C 1410.109375 700.378906 1410.058594 700.378906 1410.003906 700.386719 L 1385.179688 703.828125 L 1391.304688 688.363281 L 1392.289062 687.789062 L 1394.121094 691.679688 C 1394.5 692.484375 1395.46875 692.832031 1396.273438 692.453125 C 1397.078125 692.074219 1397.425781 691.105469 1397.046875 690.300781 L 1395.09375 686.152344 L 1398.144531 684.375 C 1401.332031 682.515625 1394.609375 670.964844 1391.421875 672.824219 L 1382.589844 677.976562 C 1381.296875 678.730469 1380.292969 679.894531 1379.742188 681.289062 L 1368.542969 709.558594 C 1367.667969 711.769531 1368.03125 714.277344 1369.5 716.148438 C 1370.773438 717.777344 1372.71875 718.707031 1374.75 718.707031 C 1375.054688 718.707031 1375.359375 718.6875 1375.667969 718.644531 L 1404.734375 714.617188 L 1404.734375 757.382812 L 1397.613281 844.78125 C 1397.152344 850.46875 1401.382812 855.453125 1407.0625 855.914062 C 1412.742188 856.378906 1417.722656 852.148438 1418.183594 846.460938 L 1424.386719 770.351562 L 1430.230469 770.351562 L 1436.429688 846.460938 C 1436.894531 852.148438 1441.875 856.378906 1447.554688 855.914062 C 1453.234375 855.453125 1457.464844 850.46875 1457 844.78125 Z M 1449.882812 749.269531 L 1449.882812 715.890625 C 1455.492188 719.144531 1461.492188 725.382812 1465.558594 730.410156 Z M 1449.882812 749.269531 " fill-opacity="1" fill-rule="nonzero"/><path fill="#336666" d="M 1728.109375 776.746094 C 1722.503906 775.710938 1717.121094 779.421875 1716.089844 785.035156 L 1705.925781 840.226562 C 1704.890625 845.839844 1708.597656 851.226562 1714.203125 852.257812 C 1719.804688 853.292969 1725.1875 849.585938 1726.222656 843.972656 L 1736.386719 788.78125 C 1737.421875 783.167969 1733.710938 777.78125 1728.109375 776.746094 Z M 1728.109375 776.746094 " fill-opacity="1" fill-rule="nonzero"/><path fill="#336666" d="M 1752.210938 781.195312 C 1746.605469 780.160156 1741.226562 783.871094 1740.191406 789.484375 L 1730.023438 844.675781 C 1728.992188 850.289062 1732.699219 855.675781 1738.300781 856.707031 C 1743.90625 857.742188 1749.289062 854.035156 1750.324219 848.421875 L 1760.488281 793.230469 C 1761.523438 787.617188 1757.8125 782.230469 1752.210938 781.195312 Z M 1752.210938 781.195312 " fill-opacity="1" fill-rule="nonzero"/><path fill="#336666" d="M 1750.820312 721.886719 C 1761.019531 723.769531 1770.8125 717.019531 1772.691406 706.804688 C 1774.574219 696.59375 1767.832031 686.792969 1757.628906 684.90625 C 1747.429688 683.027344 1737.636719 689.777344 1735.757812 699.988281 C 1733.875 710.199219 1740.621094 720.003906 1750.820312 721.886719 Z M 1754.125 703.9375 C 1756.730469 704.421875 1758.292969 707.800781 1757.617188 711.488281 C 1756.9375 715.175781 1754.273438 717.773438 1751.667969 717.292969 C 1749.058594 716.8125 1747.496094 713.433594 1748.175781 709.746094 C 1748.855469 706.058594 1751.519531 703.457031 1754.125 703.9375 Z M 1754.125 703.9375 " fill-opacity="1" fill-rule="nonzero"/><path fill="#336666" d="M 1798.792969 687.183594 C 1798.082031 685.328125 1796.582031 683.886719 1794.703125 683.25 L 1783.460938 679.332031 C 1779.964844 678.144531 1775.679688 690.808594 1779.171875 691.992188 L 1781.4375 692.789062 L 1780.691406 696.835938 C 1780.535156 697.6875 1781.101562 698.511719 1781.949219 698.667969 C 1782.800781 698.824219 1783.621094 698.257812 1783.777344 697.40625 L 1784.433594 693.84375 L 1787.449219 694.902344 L 1795.292969 715.363281 L 1767.929688 723.992188 C 1767.550781 723.84375 1767.15625 723.726562 1766.742188 723.648438 L 1764.152344 723.171875 C 1759.992188 725.273438 1755.140625 726.082031 1750.214844 725.175781 C 1745.285156 724.265625 1741.042969 721.773438 1737.902344 718.328125 L 1735.03125 717.796875 C 1734.691406 717.734375 1734.359375 717.707031 1734.027344 717.699219 L 1711.59375 699.914062 L 1726.214844 683.597656 L 1729.40625 683.6875 L 1728.75 687.25 C 1728.589844 688.097656 1729.15625 688.921875 1730.007812 689.078125 C 1730.855469 689.238281 1731.679688 688.667969 1731.835938 687.820312 L 1732.582031 683.773438 L 1734.980469 683.835938 C 1738.667969 683.976562 1739.175781 670.617188 1735.484375 670.476562 L 1723.585938 670.121094 C 1721.601562 670.046875 1719.691406 670.859375 1718.367188 672.335938 L 1696.910156 696.277344 C 1695.679688 697.648438 1695.070312 699.46875 1695.226562 701.308594 C 1695.242188 701.453125 1695.265625 701.597656 1695.289062 701.746094 L 1697.960938 703.871094 C 1699.597656 705.175781 1700.726562 706.910156 1701.300781 708.808594 L 1726.453125 728.75 L 1717.332031 778.269531 C 1720.125 775.390625 1724.257812 773.914062 1728.484375 774.695312 C 1734.59375 775.824219 1738.824219 781.28125 1738.621094 787.320312 C 1740.582031 781.605469 1746.476562 778.015625 1752.585938 779.144531 C 1756.816406 779.925781 1760.148438 782.78125 1761.734375 786.464844 L 1770.824219 737.097656 L 1806.078125 725.980469 C 1807.835938 725.425781 1809.285156 724.171875 1810.085938 722.511719 C 1810.886719 720.847656 1810.964844 718.929688 1810.304688 717.207031 Z M 1798.792969 687.183594 " fill-opacity="1" fill-rule="nonzero"/><path fill="#336666" d="M 1623.082031 672.269531 C 1626.921875 673.128906 1629.800781 676.5625 1629.800781 680.660156 L 1629.800781 687.902344 C 1629.800781 688.726562 1629.675781 689.527344 1629.453125 690.296875 C 1632.714844 693.039062 1636.921875 694.691406 1641.511719 694.691406 C 1646.105469 694.691406 1650.308594 693.039062 1653.570312 690.300781 C 1653.351562 689.53125 1653.222656 688.726562 1653.222656 687.902344 L 1653.222656 680.660156 C 1653.222656 676.5625 1656.101562 673.128906 1659.941406 672.269531 C 1658.253906 663.617188 1650.648438 657.089844 1641.511719 657.089844 C 1632.378906 657.089844 1624.769531 663.617188 1623.082031 672.269531 Z M 1641.867188 682.6875 C 1647.175781 682.433594 1651.328125 679.148438 1651.480469 682.222656 C 1651.628906 685.300781 1647.445312 688.003906 1642.136719 688.257812 C 1636.828125 688.515625 1632.402344 686.226562 1632.253906 683.152344 C 1632.105469 680.074219 1636.558594 682.945312 1641.867188 682.6875 Z M 1641.867188 682.6875 " fill-opacity="1" fill-rule="nonzero"/><path fill="#336666" d="M 1695.882812 706.484375 L 1668.496094 684.679688 L 1668.496094 680.660156 C 1668.496094 676.96875 1665.503906 673.976562 1661.816406 673.976562 C 1658.128906 673.976562 1655.140625 676.96875 1655.140625 680.660156 L 1655.140625 687.902344 C 1655.140625 689.941406 1656.066406 691.867188 1657.660156 693.136719 L 1667.234375 700.757812 L 1659.949219 699.515625 C 1659.292969 699.402344 1658.644531 699.394531 1658.015625 699.472656 C 1657.886719 699.464844 1657.761719 699.453125 1657.636719 699.453125 L 1625.386719 699.453125 C 1625.261719 699.453125 1625.132812 699.464844 1625.007812 699.472656 C 1624.378906 699.394531 1623.730469 699.402344 1623.074219 699.515625 L 1615.785156 700.757812 L 1625.359375 693.136719 C 1626.953125 691.867188 1627.882812 689.941406 1627.882812 687.902344 L 1627.882812 680.660156 C 1627.882812 676.96875 1624.890625 673.976562 1621.207031 673.976562 C 1617.519531 673.976562 1614.527344 676.96875 1614.527344 680.660156 L 1614.527344 684.679688 L 1587.140625 706.488281 C 1584.753906 708.386719 1583.957031 711.660156 1585.199219 714.445312 C 1586.289062 716.882812 1588.695312 718.402344 1591.292969 718.402344 C 1591.667969 718.402344 1592.042969 718.371094 1592.417969 718.308594 L 1618.9375 713.785156 L 1618.9375 844.949219 C 1618.9375 850.65625 1623.558594 855.277344 1629.257812 855.277344 C 1634.957031 855.277344 1639.578125 850.65625 1639.578125 844.949219 L 1639.578125 769.515625 L 1643.445312 769.515625 L 1643.445312 844.949219 C 1643.445312 850.65625 1648.066406 855.277344 1653.765625 855.277344 C 1659.464844 855.277344 1664.085938 850.65625 1664.085938 844.949219 L 1664.085938 713.785156 L 1690.601562 718.308594 C 1690.980469 718.371094 1691.355469 718.402344 1691.726562 718.402344 C 1694.324219 718.402344 1696.734375 716.882812 1697.820312 714.445312 C 1699.066406 711.660156 1698.269531 708.386719 1695.882812 706.484375 Z M 1695.882812 706.484375 " fill-opacity="1" fill-rule="nonzero"/><g fill="#000000" fill-opacity="1"><g transform="translate(375.543167, 581.624927)"><g><path d="M 21.84375 -79.4375 L 21.84375 0 L 10.796875 0 L 10.796875 -79.4375 Z M 21.84375 -79.4375 "/></g></g></g><g fill="#000000" fill-opacity="1"><g transform="translate(408.183179, 581.624927)"><g><path d="M 19.4375 -46.5625 C 22.800781 -49.757812 25.742188 -52.078125 28.265625 -53.515625 C 30.785156 -54.960938 33.765625 -55.6875 37.203125 -55.6875 C 40.640625 -55.6875 43.816406 -54.320312 46.734375 -51.59375 C 49.660156 -48.875 51.125 -44.195312 51.125 -37.5625 L 51.125 0 L 40.921875 0 L 40.921875 -36.359375 C 40.921875 -40.273438 40.21875 -43.210938 38.8125 -45.171875 C 37.414062 -47.140625 35.015625 -48.125 31.609375 -48.125 C 28.210938 -48.125 24.273438 -45.882812 19.796875 -41.40625 L 19.796875 0 L 9.59375 0 L 9.59375 -37.6875 C 9.59375 -43.125 7.554688 -47.484375 3.484375 -50.765625 L 9.59375 -55.3125 Z M 19.4375 -46.5625 "/></g></g></g><g fill="#000000" fill-opacity="1"><g transform="translate(468.183208, 581.624927)"><g><path d="M 36.953125 -54.234375 L 36.953125 -49.921875 L 22.4375 -49.921875 L 22.4375 0 L 12.359375 0 L 12.359375 -49.921875 L 2.515625 -51.84375 L 2.515625 -54.234375 L 12.484375 -54.234375 C 12.960938 -62.710938 15.21875 -69.632812 19.25 -75 C 23.289062 -80.363281 28.753906 -83.046875 35.640625 -83.046875 C 37.878906 -83.046875 40.921875 -82.5625 44.765625 -81.59375 L 43.5625 -73.796875 C 41.800781 -74.753906 39.539062 -75.59375 36.78125 -76.3125 C 34.019531 -77.039062 31.921875 -77.40625 30.484375 -77.40625 C 27.765625 -76.039062 25.785156 -73 24.546875 -68.28125 C 23.304688 -63.5625 22.601562 -58.878906 22.4375 -54.234375 Z M 36.953125 -54.234375 "/></g></g></g><g fill="#000000" fill-opacity="1"><g transform="translate(508.143226, 581.624927)"><g><path d="M 32.15625 -55.6875 C 39.195312 -55.6875 45.015625 -53.285156 49.609375 -48.484375 C 54.210938 -43.679688 56.515625 -37.082031 56.515625 -28.6875 C 56.515625 -23.320312 55.59375 -18.597656 53.75 -14.515625 C 51.914062 -10.441406 49.519531 -7.285156 46.5625 -5.046875 C 40.882812 -0.722656 34.546875 1.4375 27.546875 1.4375 C 20.546875 1.4375 14.742188 -0.957031 10.140625 -5.75 C 5.535156 -10.550781 3.234375 -17.15625 3.234375 -25.5625 C 3.234375 -30.914062 4.132812 -35.632812 5.9375 -39.71875 C 7.738281 -43.800781 10.117188 -46.960938 13.078125 -49.203125 C 18.753906 -53.523438 25.113281 -55.6875 32.15625 -55.6875 Z M 29.765625 -2.640625 C 33.285156 -2.640625 36.285156 -4 38.765625 -6.71875 C 43.242188 -11.519531 45.484375 -17.898438 45.484375 -25.859375 C 45.484375 -33.816406 44.117188 -40.015625 41.390625 -44.453125 C 38.671875 -48.898438 34.234375 -51.125 28.078125 -51.125 C 23.515625 -49.363281 20.050781 -46.257812 17.6875 -41.8125 C 15.332031 -37.375 14.15625 -32.015625 14.15625 -25.734375 C 14.15625 -19.453125 15.4375 -14.03125 18 -9.46875 C 20.5625 -4.914062 24.484375 -2.640625 29.765625 -2.640625 Z M 29.765625 -2.640625 "/></g></g></g><g fill="#000000" fill-opacity="1"><g transform="translate(568.143255, 581.624927)"><g><path d="M 20.28125 -50.640625 C 18.195312 -50.640625 16.492188 -49.859375 15.171875 -48.296875 C 13.859375 -46.734375 13.203125 -44.972656 13.203125 -43.015625 C 13.203125 -41.054688 14.140625 -39.175781 16.015625 -37.375 C 17.898438 -35.582031 20.179688 -33.984375 22.859375 -32.578125 C 25.535156 -31.179688 28.191406 -29.722656 30.828125 -28.203125 C 33.472656 -26.679688 35.734375 -24.71875 37.609375 -22.3125 C 39.492188 -19.914062 40.4375 -17.238281 40.4375 -14.28125 C 40.4375 -9.800781 38.632812 -6.0625 35.03125 -3.0625 C 31.4375 -0.0625 26.539062 1.4375 20.34375 1.4375 C 14.144531 1.4375 8.484375 0 3.359375 -2.875 L 3.359375 -7.4375 C 8.796875 -4.71875 13.710938 -3.359375 18.109375 -3.359375 C 22.515625 -3.359375 25.71875 -4.238281 27.71875 -6 C 29.71875 -7.757812 30.71875 -9.78125 30.71875 -12.0625 C 30.71875 -14.34375 29.816406 -16.378906 28.015625 -18.171875 C 26.210938 -19.972656 24.007812 -21.550781 21.40625 -22.90625 C 18.8125 -24.269531 16.234375 -25.710938 13.671875 -27.234375 C 11.117188 -28.753906 8.941406 -30.710938 7.140625 -33.109375 C 5.335938 -35.515625 4.4375 -38.414062 4.4375 -41.8125 C 4.4375 -45.21875 5.816406 -48.378906 8.578125 -51.296875 C 11.335938 -54.222656 15.597656 -55.6875 21.359375 -55.6875 C 27.117188 -55.6875 32.640625 -54.644531 37.921875 -52.5625 L 36.71875 -44.640625 C 30.800781 -47.835938 25.320312 -49.835938 20.28125 -50.640625 Z M 20.28125 -50.640625 "/></g></g></g><g fill="#000000" fill-opacity="1"><g transform="translate(612.783289, 581.624927)"><g/></g><g transform="translate(642.783286, 581.624927)"><g><path d="M 36.953125 -54.234375 L 36.953125 -49.921875 L 22.4375 -49.921875 L 22.4375 0 L 12.359375 0 L 12.359375 -49.921875 L 2.515625 -51.84375 L 2.515625 -54.234375 L 12.484375 -54.234375 C 12.960938 -62.710938 15.21875 -69.632812 19.25 -75 C 23.289062 -80.363281 28.753906 -83.046875 35.640625 -83.046875 C 37.878906 -83.046875 40.921875 -82.5625 44.765625 -81.59375 L 43.5625 -73.796875 C 41.800781 -74.753906 39.539062 -75.59375 36.78125 -76.3125 C 34.019531 -77.039062 31.921875 -77.40625 30.484375 -77.40625 C 27.765625 -76.039062 25.785156 -73 24.546875 -68.28125 C 23.304688 -63.5625 22.601562 -58.878906 22.4375 -54.234375 Z M 36.953125 -54.234375 "/></g></g></g><g fill="#000000" fill-opacity="1"><g transform="translate(682.743304, 581.624927)"><g><path d="M 47.640625 -16.078125 C 47.640625 -10.554688 49.71875 -6.195312 53.875 -3 L 47.640625 1.4375 L 37.921875 -7.3125 C 34.640625 -4.195312 31.71875 -1.957031 29.15625 -0.59375 C 26.59375 0.757812 23.570312 1.4375 20.09375 1.4375 C 16.613281 1.4375 13.414062 0.0976562 10.5 -2.578125 C 7.582031 -5.253906 6.125 -9.875 6.125 -16.4375 L 6.125 -54.234375 L 16.3125 -54.234375 L 16.3125 -15.84375 C 16.3125 -12 17.007812 -9.097656 18.40625 -7.140625 C 19.8125 -5.179688 22.253906 -4.203125 25.734375 -4.203125 C 29.210938 -4.203125 33.113281 -6.757812 37.4375 -11.875 L 37.4375 -54.234375 L 47.640625 -54.234375 Z M 34.734375 -66.65625 C 33.578125 -67.820312 33 -69.242188 33 -70.921875 C 33 -72.597656 33.578125 -74.015625 34.734375 -75.171875 C 35.898438 -76.335938 37.320312 -76.921875 39 -76.921875 C 40.675781 -76.921875 42.09375 -76.335938 43.25 -75.171875 C 44.414062 -74.015625 45 -72.597656 45 -70.921875 C 45 -69.242188 44.414062 -67.820312 43.25 -66.65625 C 42.09375 -65.5 40.675781 -64.921875 39 -64.921875 C 37.320312 -64.921875 35.898438 -65.5 34.734375 -66.65625 Z M 15.359375 -64.921875 C 12.878906 -64.921875 11.117188 -65.921875 10.078125 -67.921875 C 10.078125 -68.003906 10 -68.125 9.84375 -68.28125 C 9.519531 -69.238281 9.359375 -69.957031 9.359375 -70.4375 L 9.359375 -70.921875 C 9.359375 -73.316406 10.359375 -75.035156 12.359375 -76.078125 C 12.921875 -76.640625 13.921875 -76.921875 15.359375 -76.921875 C 17.441406 -76.921875 19.003906 -76.160156 20.046875 -74.640625 C 20.921875 -73.441406 21.359375 -72.203125 21.359375 -70.921875 L 21.359375 -70.4375 C 21.359375 -69.082031 20.597656 -67.644531 19.078125 -66.125 C 18.753906 -65.957031 18.515625 -65.796875 18.359375 -65.640625 L 17.515625 -65.28125 L 16.3125 -64.921875 Z M 15.359375 -64.921875 "/></g></g></g><g fill="#000000" fill-opacity="1"><g transform="translate(742.743344, 581.624927)"><g><path d="M 17.765625 0 L 7.6875 0 L 7.6875 -54.234375 L 14.640625 -54.234375 L 17.40625 -44.15625 C 19 -46.957031 21.535156 -49.597656 25.015625 -52.078125 C 28.492188 -54.554688 32.078125 -56.078125 35.765625 -56.640625 L 36.953125 -48.359375 C 33.992188 -48.359375 30.65625 -47.4375 26.9375 -45.59375 C 23.21875 -43.757812 20.160156 -41.722656 17.765625 -39.484375 Z M 17.765625 0 "/></g></g></g><g fill="#000000" fill-opacity="1"><g transform="translate(780.903345, 581.624927)"><g/></g><g transform="translate(810.903342, 581.624927)"><g><path d="M 10.796875 0 L 10.796875 -79.4375 L 33.484375 -79.4375 C 42.679688 -79.4375 50 -77.875 55.4375 -74.75 C 60.875 -71.632812 63.59375 -66.957031 63.59375 -60.71875 C 63.59375 -56.320312 62.050781 -52.503906 58.96875 -49.265625 C 55.894531 -46.023438 51.597656 -43.5625 46.078125 -41.875 C 53.359375 -40.519531 58.859375 -38.0625 62.578125 -34.5 C 66.296875 -30.9375 68.15625 -27.035156 68.15625 -22.796875 C 68.15625 -18.554688 67.078125 -14.9375 64.921875 -11.9375 C 62.765625 -8.9375 60.003906 -6.640625 56.640625 -5.046875 C 49.835938 -1.679688 42.878906 0 35.765625 0 Z M 22.4375 -43.078125 L 31.078125 -43.078125 C 38.359375 -43.078125 43.578125 -44.695312 46.734375 -47.9375 C 49.898438 -51.175781 51.484375 -55.238281 51.484375 -60.125 C 51.484375 -63.40625 50.378906 -66.382812 48.171875 -69.0625 C 45.972656 -71.738281 42.597656 -73.757812 38.046875 -75.125 C 32.597656 -75.125 27.394531 -74.320312 22.4375 -72.71875 Z M 22.4375 -39.59375 L 22.4375 -5.40625 C 25 -4.601562 28.957031 -4.203125 34.3125 -4.203125 C 39.675781 -4.203125 44.4375 -5.679688 48.59375 -8.640625 C 52.757812 -11.597656 54.84375 -15.71875 54.84375 -21 C 54.84375 -26.28125 52.5625 -30.695312 48 -34.25 C 43.4375 -37.8125 37.957031 -39.59375 31.5625 -39.59375 Z M 22.4375 -39.59375 "/></g></g></g><g fill="#000000" fill-opacity="1"><g transform="translate(888.183364, 581.624927)"><g><path d="M 12.59375 -29.515625 C 12.59375 -20.878906 14.53125 -14.660156 18.40625 -10.859375 C 22.289062 -7.054688 27.015625 -5.15625 32.578125 -5.15625 C 38.140625 -5.15625 43.28125 -6.238281 48 -8.40625 L 48 -4.203125 C 41.4375 -0.441406 35.15625 1.4375 29.15625 1.4375 C 21.394531 1.4375 15.113281 -0.921875 10.3125 -5.640625 C 5.519531 -10.359375 3.125 -17.195312 3.125 -26.15625 C 3.125 -35.113281 5.78125 -42.273438 11.09375 -47.640625 C 16.414062 -53.003906 22.835938 -55.6875 30.359375 -55.6875 C 36.203125 -55.6875 41.082031 -53.382812 45 -48.78125 C 48.914062 -44.175781 50.875 -37.753906 50.875 -29.515625 Z M 24.234375 -50.046875 C 21.441406 -48.679688 19.046875 -46.5 17.046875 -43.5 C 15.046875 -40.5 13.722656 -37.039062 13.078125 -33.125 L 41.15625 -33.125 C 40.914062 -36.476562 40.132812 -39.351562 38.8125 -41.75 C 37.5 -44.15625 35.921875 -45.921875 34.078125 -47.046875 C 30.796875 -49.046875 27.515625 -50.046875 24.234375 -50.046875 Z M 24.234375 -50.046875 "/></g></g></g><g fill="#000000" fill-opacity="1"><g transform="translate(944.463388, 581.624927)"><g><path d="M 20.28125 -50.640625 C 18.195312 -50.640625 16.492188 -49.859375 15.171875 -48.296875 C 13.859375 -46.734375 13.203125 -44.972656 13.203125 -43.015625 C 13.203125 -41.054688 14.140625 -39.175781 16.015625 -37.375 C 17.898438 -35.582031 20.179688 -33.984375 22.859375 -32.578125 C 25.535156 -31.179688 28.191406 -29.722656 30.828125 -28.203125 C 33.472656 -26.679688 35.734375 -24.71875 37.609375 -22.3125 C 39.492188 -19.914062 40.4375 -17.238281 40.4375 -14.28125 C 40.4375 -9.800781 38.632812 -6.0625 35.03125 -3.0625 C 31.4375 -0.0625 26.539062 1.4375 20.34375 1.4375 C 14.144531 1.4375 8.484375 0 3.359375 -2.875 L 3.359375 -7.4375 C 8.796875 -4.71875 13.710938 -3.359375 18.109375 -3.359375 C 22.515625 -3.359375 25.71875 -4.238281 27.71875 -6 C 29.71875 -7.757812 30.71875 -9.78125 30.71875 -12.0625 C 30.71875 -14.34375 29.816406 -16.378906 28.015625 -18.171875 C 26.210938 -19.972656 24.007812 -21.550781 21.40625 -22.90625 C 18.8125 -24.269531 16.234375 -25.710938 13.671875 -27.234375 C 11.117188 -28.753906 8.941406 -30.710938 7.140625 -33.109375 C 5.335938 -35.515625 4.4375 -38.414062 4.4375 -41.8125 C 4.4375 -45.21875 5.816406 -48.378906 8.578125 -51.296875 C 11.335938 -54.222656 15.597656 -55.6875 21.359375 -55.6875 C 27.117188 -55.6875 32.640625 -54.644531 37.921875 -52.5625 L 36.71875 -44.640625 C 30.800781 -47.835938 25.320312 -49.835938 20.28125 -50.640625 Z M 20.28125 -50.640625 "/></g></g></g><g fill="#000000" fill-opacity="1"><g transform="translate(989.103399, 581.624927)"><g><path d="M 47.640625 -16.078125 C 47.640625 -10.554688 49.71875 -6.195312 53.875 -3 L 47.640625 1.4375 L 37.921875 -7.3125 C 34.640625 -4.195312 31.71875 -1.957031 29.15625 -0.59375 C 26.59375 0.757812 23.570312 1.4375 20.09375 1.4375 C 16.613281 1.4375 13.414062 0.0976562 10.5 -2.578125 C 7.582031 -5.253906 6.125 -9.875 6.125 -16.4375 L 6.125 -54.234375 L 16.3125 -54.234375 L 16.3125 -15.84375 C 16.3125 -12 17.007812 -9.097656 18.40625 -7.140625 C 19.8125 -5.179688 22.253906 -4.203125 25.734375 -4.203125 C 29.210938 -4.203125 33.113281 -6.757812 37.4375 -11.875 L 37.4375 -54.234375 L 47.640625 -54.234375 Z M 47.640625 -16.078125 "/></g></g></g><g fill="#000000" fill-opacity="1"><g transform="translate(1046.70343, 581.624927)"><g><path d="M 27.359375 1.4375 C 20.398438 1.4375 14.617188 -0.941406 10.015625 -5.703125 C 5.421875 -10.460938 3.125 -17.203125 3.125 -25.921875 C 3.125 -34.640625 5.582031 -41.78125 10.5 -47.34375 C 15.414062 -52.90625 21.675781 -55.6875 29.28125 -55.6875 C 33.519531 -55.6875 38.28125 -54.644531 43.5625 -52.5625 L 42.359375 -44.640625 C 35.316406 -48.316406 29.273438 -50.15625 24.234375 -50.15625 C 20.078125 -48.082031 17.078125 -44.722656 15.234375 -40.078125 C 13.398438 -35.441406 12.484375 -30.882812 12.484375 -26.40625 C 12.484375 -20.320312 14.257812 -15.257812 17.8125 -11.21875 C 21.375 -7.175781 25.632812 -5.15625 30.59375 -5.15625 C 35.5625 -5.15625 40.125 -6.238281 44.28125 -8.40625 L 44.28125 -4.203125 C 38.519531 -0.441406 32.878906 1.4375 27.359375 1.4375 Z M 27.359375 1.4375 "/></g></g></g><g fill="#000000" fill-opacity="1"><g transform="translate(1095.423442, 581.624927)"><g><path d="M 37.6875 -55.4375 C 41.363281 -55.4375 44.640625 -54.078125 47.515625 -51.359375 C 50.398438 -48.640625 51.84375 -43.957031 51.84375 -37.3125 L 51.84375 0 L 41.765625 0 L 41.765625 -36.125 C 41.765625 -40.039062 41.0625 -42.976562 39.65625 -44.9375 C 38.257812 -46.894531 35.582031 -47.875 31.625 -47.875 C 27.664062 -47.875 23.523438 -45.753906 19.203125 -41.515625 L 19.203125 0 L 9.125 0 L 9.125 -81.953125 L 18.84375 -81.953125 L 18.84375 -46.5625 C 25.15625 -52.476562 31.4375 -55.4375 37.6875 -55.4375 Z M 37.6875 -55.4375 "/></g></g></g><g fill="#000000" fill-opacity="1"><g transform="translate(1155.783514, 581.624927)"><g><path d="M 12.59375 -29.515625 C 12.59375 -20.878906 14.53125 -14.660156 18.40625 -10.859375 C 22.289062 -7.054688 27.015625 -5.15625 32.578125 -5.15625 C 38.140625 -5.15625 43.28125 -6.238281 48 -8.40625 L 48 -4.203125 C 41.4375 -0.441406 35.15625 1.4375 29.15625 1.4375 C 21.394531 1.4375 15.113281 -0.921875 10.3125 -5.640625 C 5.519531 -10.359375 3.125 -17.195312 3.125 -26.15625 C 3.125 -35.113281 5.78125 -42.273438 11.09375 -47.640625 C 16.414062 -53.003906 22.835938 -55.6875 30.359375 -55.6875 C 36.203125 -55.6875 41.082031 -53.382812 45 -48.78125 C 48.914062 -44.175781 50.875 -37.753906 50.875 -29.515625 Z M 24.234375 -50.046875 C 21.441406 -48.679688 19.046875 -46.5 17.046875 -43.5 C 15.046875 -40.5 13.722656 -37.039062 13.078125 -33.125 L 41.15625 -33.125 C 40.914062 -36.476562 40.132812 -39.351562 38.8125 -41.75 C 37.5 -44.15625 35.921875 -45.921875 34.078125 -47.046875 C 30.796875 -49.046875 27.515625 -50.046875 24.234375 -50.046875 Z M 24.234375 -50.046875 "/></g></g></g><g fill="#000000" fill-opacity="1"><g transform="translate(1212.063538, 581.624927)"><g><path d="M 17.765625 0 L 7.6875 0 L 7.6875 -54.234375 L 14.640625 -54.234375 L 17.40625 -44.15625 C 19 -46.957031 21.535156 -49.597656 25.015625 -52.078125 C 28.492188 -54.554688 32.078125 -56.078125 35.765625 -56.640625 L 36.953125 -48.359375 C 33.992188 -48.359375 30.65625 -47.4375 26.9375 -45.59375 C 23.21875 -43.757812 20.160156 -41.722656 17.765625 -39.484375 Z M 17.765625 0 "/></g></g></g><g fill="#000000" fill-opacity="1"><g transform="translate(1250.223538, 581.624927)"><g><path d="M 7.921875 -0.59375 C 6.640625 -1.875 6 -3.4375 6 -5.28125 C 6 -7.125 6.640625 -8.703125 7.921875 -10.015625 C 9.203125 -11.335938 10.757812 -12 12.59375 -12 C 14.4375 -12 16.015625 -11.335938 17.328125 -10.015625 C 18.648438 -8.703125 19.3125 -7.125 19.3125 -5.28125 C 19.3125 -3.4375 18.648438 -1.875 17.328125 -0.59375 C 16.015625 0.675781 14.4375 1.3125 12.59375 1.3125 C 10.757812 1.3125 9.203125 0.675781 7.921875 -0.59375 Z M 7.921875 -43.671875 C 6.640625 -44.953125 6 -46.515625 6 -48.359375 C 6 -50.203125 6.640625 -51.78125 7.921875 -53.09375 C 9.203125 -54.414062 10.757812 -55.078125 12.59375 -55.078125 C 14.4375 -55.078125 16.015625 -54.414062 17.328125 -53.09375 C 18.648438 -51.78125 19.3125 -50.203125 19.3125 -48.359375 C 19.3125 -46.515625 18.648438 -44.953125 17.328125 -43.671875 C 16.015625 -42.398438 14.4375 -41.765625 12.59375 -41.765625 C 10.757812 -41.765625 9.203125 -42.398438 7.921875 -43.671875 Z M 7.921875 -43.671875 "/></g></g></g><g fill="#000000" fill-opacity="1"><g transform="translate(1275.543544, 581.624927)"><g><path d="M 21.84375 -79.4375 L 21.84375 0 L 10.796875 0 L 10.796875 -79.4375 Z M 21.84375 -79.4375 "/></g></g></g><g fill="#000000" fill-opacity="1"><g transform="translate(1308.183556, 581.624927)"><g><path d="M 19.4375 -46.5625 C 22.800781 -49.757812 25.742188 -52.078125 28.265625 -53.515625 C 30.785156 -54.960938 33.765625 -55.6875 37.203125 -55.6875 C 40.640625 -55.6875 43.816406 -54.320312 46.734375 -51.59375 C 49.660156 -48.875 51.125 -44.195312 51.125 -37.5625 L 51.125 0 L 40.921875 0 L 40.921875 -36.359375 C 40.921875 -40.273438 40.21875 -43.210938 38.8125 -45.171875 C 37.414062 -47.140625 35.015625 -48.125 31.609375 -48.125 C 28.210938 -48.125 24.273438 -45.882812 19.796875 -41.40625 L 19.796875 0 L 9.59375 0 L 9.59375 -37.6875 C 9.59375 -43.125 7.554688 -47.484375 3.484375 -50.765625 L 9.59375 -55.3125 Z M 19.4375 -46.5625 "/></g></g><g transform="translate(1368.18355, 581.624927)"><g><path d="M 19.4375 -46.5625 C 22.800781 -49.757812 25.742188 -52.078125 28.265625 -53.515625 C 30.785156 -54.960938 33.765625 -55.6875 37.203125 -55.6875 C 40.640625 -55.6875 43.816406 -54.320312 46.734375 -51.59375 C 49.660156 -48.875 51.125 -44.195312 51.125 -37.5625 L 51.125 0 L 40.921875 0 L 40.921875 -36.359375 C 40.921875 -40.273438 40.21875 -43.210938 38.8125 -45.171875 C 37.414062 -47.140625 35.015625 -48.125 31.609375 -48.125 C 28.210938 -48.125 24.273438 -45.882812 19.796875 -41.40625 L 19.796875 0 L 9.59375 0 L 9.59375 -37.6875 C 9.59375 -43.125 7.554688 -47.484375 3.484375 -50.765625 L 9.59375 -55.3125 Z M 19.4375 -46.5625 "/></g></g><g transform="translate(1428.183545, 581.624927)"><g><path d="M 12.59375 -29.515625 C 12.59375 -20.878906 14.53125 -14.660156 18.40625 -10.859375 C 22.289062 -7.054688 27.015625 -5.15625 32.578125 -5.15625 C 38.140625 -5.15625 43.28125 -6.238281 48 -8.40625 L 48 -4.203125 C 41.4375 -0.441406 35.15625 1.4375 29.15625 1.4375 C 21.394531 1.4375 15.113281 -0.921875 10.3125 -5.640625 C 5.519531 -10.359375 3.125 -17.195312 3.125 -26.15625 C 3.125 -35.113281 5.78125 -42.273438 11.09375 -47.640625 C 16.414062 -53.003906 22.835938 -55.6875 30.359375 -55.6875 C 36.203125 -55.6875 41.082031 -53.382812 45 -48.78125 C 48.914062 -44.175781 50.875 -37.753906 50.875 -29.515625 Z M 24.234375 -50.046875 C 21.441406 -48.679688 19.046875 -46.5 17.046875 -43.5 C 15.046875 -40.5 13.722656 -37.039062 13.078125 -33.125 L 41.15625 -33.125 C 40.914062 -36.476562 40.132812 -39.351562 38.8125 -41.75 C 37.5 -44.15625 35.921875 -45.921875 34.078125 -47.046875 C 30.796875 -49.046875 27.515625 -50.046875 24.234375 -50.046875 Z M 24.234375 -50.046875 "/></g></g></g><g fill="#000000" fill-opacity="1"><g transform="translate(1484.46357, 581.624927)"><g><path d="M 19.4375 -46.5625 C 22.800781 -49.757812 25.742188 -52.078125 28.265625 -53.515625 C 30.785156 -54.960938 33.765625 -55.6875 37.203125 -55.6875 C 40.640625 -55.6875 43.816406 -54.320312 46.734375 -51.59375 C 49.660156 -48.875 51.125 -44.195312 51.125 -37.5625 L 51.125 0 L 40.921875 0 L 40.921875 -36.359375 C 40.921875 -40.273438 40.21875 -43.210938 38.8125 -45.171875 C 37.414062 -47.140625 35.015625 -48.125 31.609375 -48.125 C 28.210938 -48.125 24.273438 -45.882812 19.796875 -41.40625 L 19.796875 0 L 9.59375 0 L 9.59375 -37.6875 C 9.59375 -43.125 7.554688 -47.484375 3.484375 -50.765625 L 9.59375 -55.3125 Z M 19.4375 -46.5625 "/></g></g></g></svg>