<svg width="200" height="181" viewBox="0 0 200 181" fill="none" xmlns="http://www.w3.org/2000/svg">
<rect width="200" height="180" transform="matrix(1 0 0 -1 0 180)" fill="#336666"/>
<path d="M189 180.5C189 167.372 179.676 154.781 163.079 145.498C146.482 136.215 123.972 131 100.5 131C77.0283 131 54.518 136.215 37.9211 145.498C21.3241 154.781 12 167.372 12 180.5L100.5 180.5H189Z" fill="#97B0B0"/>
<rect x="72" y="140.284" width="40" height="40" rx="10" transform="rotate(-45 72 140.284)" fill="#F3E6B4"/>
<mask id="path-4-outside-1_347_45" maskUnits="userSpaceOnUse" x="55" y="35" width="90" height="60" fill="black">
<rect fill="white" x="55" y="35" width="90" height="60"/>
<path d="M140 90C140 76.7392 135.786 64.0215 128.284 54.6447C120.783 45.2678 110.609 40 100 40C89.3913 40 79.2172 45.2678 71.7157 54.6447C64.2143 64.0215 60 76.7392 60 90L100 90H140Z"/>
</mask>
<path d="M140 90C140 76.7392 135.786 64.0215 128.284 54.6447C120.783 45.2678 110.609 40 100 40C89.3913 40 79.2172 45.2678 71.7157 54.6447C64.2143 64.0215 60 76.7392 60 90L100 90H140Z" fill="#F7ECC7"/>
<path d="M140 90C140 76.7392 135.786 64.0215 128.284 54.6447C120.783 45.2678 110.609 40 100 40C89.3913 40 79.2172 45.2678 71.7157 54.6447C64.2143 64.0215 60 76.7392 60 90L100 90H140Z" stroke="black" stroke-width="10" mask="url(#path-4-outside-1_347_45)"/>
<ellipse cx="100" cy="90" rx="40" ry="50" fill="#F7ECC7"/>
<path d="M140 90C140 76.7392 135.786 64.0215 128.284 54.6447C120.783 45.2678 110.609 40 100 40C89.3913 40 79.2172 45.2678 71.7157 54.6447C64.2143 64.0215 60 76.7392 60 90L65.9866 90C65.9866 78.7238 69.5701 67.9095 75.9489 59.9361C82.3276 51.9627 90.9791 47.4832 100 47.4832C109.021 47.4832 117.672 51.9627 124.051 59.9361C130.43 67.9095 134.013 78.7239 134.013 90H140Z" fill="black"/>
<path d="M135 65C135 58.3696 131.313 52.0107 124.749 47.3223C118.185 42.6339 109.283 40 100 40C90.7174 40 81.815 42.6339 75.2513 47.3223C68.6875 52.0107 65 58.3696 65 65L100 65H135Z" fill="black"/>
</svg>
