<svg xmlns="http://www.w3.org/2000/svg" xmlns:xlink="http://www.w3.org/1999/xlink" width="2560" zoomAndPan="magnify" viewBox="0 0 1920 1079.999946" height="1440" preserveAspectRatio="xMidYMid meet" version="1.0"><defs><g/></defs><rect x="-192" width="2304" fill="#ffffff" y="-107.999995" height="1295.999935" fill-opacity="1"/><rect x="-192" width="2304" fill="#ffffff" y="-107.999995" height="1295.999935" fill-opacity="1"/><rect x="-192" width="2304" fill="#97b0b0" y="-107.999995" height="1295.999935" fill-opacity="1"/><path fill="#336666" d="M 1364.300781 502.394531 C 1362.917969 503.785156 1361.035156 504.597656 1359.039062 504.597656 C 1357.503906 504.597656 1356.027344 504.128906 1354.765625 503.238281 C 1354.082031 502.757812 1353.269531 502.183594 1352.367188 501.550781 C 1350.171875 500.003906 1347.429688 498.0625 1344.59375 495.980469 C 1347.007812 496.925781 1349.503906 498.148438 1352.097656 499.714844 C 1353.253906 500.414062 1354.429688 501.183594 1355.625 502.023438 C 1358.035156 503.734375 1361.277344 503.375 1363.277344 501.328125 C 1363.496094 501.101562 1363.703125 500.867188 1363.890625 500.601562 C 1365.78125 497.925781 1365.144531 494.214844 1362.46875 492.324219 C 1356.089844 487.789062 1349.769531 484.863281 1343.730469 483.179688 C 1343.171875 484.703125 1342.4375 486.121094 1341.546875 487.417969 C 1341.464844 487.535156 1341.382812 487.65625 1341.296875 487.773438 C 1340.398438 489.019531 1339.355469 490.140625 1338.191406 491.125 C 1338.171875 491.140625 1338.152344 491.160156 1338.128906 491.175781 C 1337.070312 492.0625 1335.914062 492.832031 1334.679688 493.464844 C 1332.074219 494.808594 1329.136719 495.566406 1326.03125 495.566406 C 1324.589844 495.566406 1323.144531 495.398438 1321.730469 495.066406 C 1321.230469 494.953125 1320.742188 494.8125 1320.257812 494.65625 C 1320.117188 494.613281 1319.972656 494.566406 1319.828125 494.519531 C 1317.929688 493.863281 1316.164062 492.914062 1314.589844 491.714844 C 1312.777344 490.335938 1311.207031 488.628906 1309.96875 486.632812 C 1309.835938 486.417969 1309.710938 486.199219 1309.585938 485.976562 C 1309.578125 485.964844 1309.570312 485.957031 1309.566406 485.945312 C 1308.433594 486.453125 1307.355469 486.976562 1306.339844 487.511719 C 1306.304688 487.53125 1306.273438 487.550781 1306.238281 487.566406 C 1305.03125 486.820312 1303.738281 486.097656 1302.359375 485.414062 C 1302.304688 485.386719 1302.246094 485.355469 1302.1875 485.328125 C 1302 485.238281 1301.808594 485.152344 1301.621094 485.0625 C 1301.160156 484.851562 1300.703125 484.640625 1300.246094 484.441406 C 1299.90625 484.296875 1299.566406 484.148438 1299.21875 484.007812 C 1299.140625 483.976562 1299.0625 483.945312 1298.984375 483.914062 C 1298.078125 483.554688 1297.136719 483.226562 1296.175781 482.917969 C 1296.011719 483.09375 1295.84375 483.265625 1295.671875 483.433594 C 1295.472656 483.628906 1295.269531 483.824219 1295.0625 484.011719 C 1292.0625 486.730469 1288.207031 488.46875 1283.984375 488.816406 C 1283.507812 488.855469 1283.027344 488.875 1282.542969 488.878906 C 1282.496094 488.878906 1282.453125 488.882812 1282.410156 488.882812 C 1280.96875 488.882812 1279.523438 488.714844 1278.109375 488.382812 C 1274.65625 487.582031 1271.574219 485.863281 1269.121094 483.429688 C 1268.949219 483.261719 1268.78125 483.089844 1268.617188 482.914062 C 1268.507812 482.800781 1268.40625 482.679688 1268.300781 482.5625 C 1264.699219 483.371094 1261.417969 484.523438 1258.496094 485.816406 C 1257.882812 486.085938 1257.289062 486.359375 1256.710938 486.640625 C 1256.128906 486.359375 1255.53125 486.085938 1254.921875 485.816406 C 1252.007812 484.527344 1248.734375 483.378906 1245.140625 482.566406 C 1244.875 482.867188 1244.59375 483.152344 1244.308594 483.433594 C 1240.875 486.835938 1236.179688 488.882812 1231.046875 488.882812 C 1230.988281 488.882812 1230.933594 488.878906 1230.875 488.878906 C 1230.398438 488.875 1229.921875 488.847656 1229.445312 488.804688 C 1228.539062 488.726562 1227.636719 488.59375 1226.746094 488.382812 C 1223.578125 487.644531 1220.71875 486.136719 1218.371094 484.007812 C 1217.984375 483.660156 1217.609375 483.296875 1217.253906 482.914062 C 1216.285156 483.222656 1215.335938 483.554688 1214.425781 483.917969 C 1214.359375 483.945312 1214.292969 483.96875 1214.230469 483.996094 C 1213.867188 484.140625 1213.515625 484.292969 1213.160156 484.445312 C 1212.714844 484.640625 1212.269531 484.84375 1211.824219 485.050781 C 1211.625 485.148438 1211.417969 485.238281 1211.21875 485.335938 C 1211.171875 485.355469 1211.128906 485.382812 1211.082031 485.402344 C 1209.695312 486.085938 1208.394531 486.816406 1207.179688 487.566406 C 1207.148438 487.550781 1207.113281 487.53125 1207.078125 487.515625 C 1206.0625 486.976562 1204.984375 486.453125 1203.851562 485.945312 C 1203.847656 485.957031 1203.839844 485.964844 1203.835938 485.976562 C 1203.710938 486.199219 1203.582031 486.417969 1203.449219 486.636719 C 1202.210938 488.628906 1200.640625 490.335938 1198.832031 491.714844 C 1197.253906 492.914062 1195.492188 493.863281 1193.589844 494.519531 C 1193.445312 494.566406 1193.300781 494.613281 1193.160156 494.660156 C 1192.675781 494.8125 1192.1875 494.953125 1191.691406 495.070312 C 1190.273438 495.398438 1188.828125 495.566406 1187.386719 495.566406 C 1184.285156 495.566406 1181.34375 494.808594 1178.738281 493.46875 C 1177.503906 492.832031 1176.347656 492.0625 1175.285156 491.175781 C 1175.265625 491.160156 1175.246094 491.140625 1175.226562 491.125 C 1174.0625 490.140625 1173.019531 489.019531 1172.117188 487.773438 C 1172.035156 487.65625 1171.953125 487.539062 1171.871094 487.417969 C 1170.980469 486.121094 1170.246094 484.703125 1169.6875 483.179688 C 1163.648438 484.863281 1157.328125 487.792969 1150.945312 492.324219 C 1148.273438 494.214844 1147.636719 497.925781 1149.527344 500.601562 C 1149.710938 500.867188 1149.921875 501.105469 1150.136719 501.328125 C 1152.140625 503.378906 1155.378906 503.734375 1157.792969 502.027344 C 1158.984375 501.183594 1160.164062 500.414062 1161.320312 499.714844 C 1163.914062 498.148438 1166.410156 496.925781 1168.824219 495.980469 C 1165.984375 498.0625 1163.246094 500.003906 1161.050781 501.550781 C 1160.148438 502.183594 1159.332031 502.757812 1158.648438 503.238281 C 1157.390625 504.128906 1155.910156 504.601562 1154.375 504.601562 C 1152.382812 504.601562 1150.496094 503.785156 1149.117188 502.394531 C 1140.140625 511.855469 1130 526.113281 1125.277344 545.40625 C 1124.5 548.59375 1126.445312 551.808594 1129.628906 552.589844 C 1130.101562 552.707031 1130.574219 552.761719 1131.042969 552.761719 C 1133.710938 552.761719 1136.136719 550.945312 1136.800781 548.234375 C 1140.925781 531.328125 1149.921875 518.726562 1157.949219 510.324219 C 1158.667969 509.570312 1159.375 508.863281 1160.074219 508.179688 L 1154.722656 544.578125 L 1136.464844 616.3125 C 1135.160156 621.441406 1138.253906 626.660156 1143.375 627.96875 C 1148.496094 629.277344 1153.707031 626.179688 1155.015625 621.050781 L 1172.203125 553.496094 L 1176.847656 554.183594 L 1176.847656 618.660156 C 1176.847656 623.957031 1181.132812 628.246094 1186.417969 628.246094 C 1191.703125 628.246094 1195.988281 623.957031 1195.988281 618.660156 L 1195.988281 551.539062 C 1196.035156 551.351562 1196.074219 551.160156 1196.101562 550.96875 L 1202.53125 507.246094 C 1203.054688 506.886719 1203.535156 506.445312 1203.933594 505.90625 C 1204.011719 505.804688 1204.410156 505.300781 1205.085938 504.558594 C 1205.476562 504.128906 1205.964844 503.621094 1206.539062 503.054688 C 1206.59375 503.046875 1206.648438 503.035156 1206.703125 503.027344 C 1206.679688 503.007812 1206.65625 502.988281 1206.628906 502.96875 C 1205.714844 502.242188 1204.664062 501.429688 1203.511719 500.582031 C 1202.375 499.75 1201.144531 498.886719 1199.867188 498.054688 C 1199.359375 497.722656 1198.839844 497.394531 1198.320312 497.074219 C 1197.789062 496.75 1197.253906 496.433594 1196.714844 496.128906 C 1196.1875 495.828125 1195.65625 495.539062 1195.128906 495.265625 C 1195.738281 495.472656 1196.332031 495.6875 1196.914062 495.914062 C 1197.402344 496.105469 1197.882812 496.300781 1198.351562 496.503906 C 1198.84375 496.714844 1199.332031 496.929688 1199.800781 497.152344 C 1200.929688 497.6875 1201.988281 498.242188 1202.972656 498.808594 C 1203.226562 498.949219 1203.46875 499.09375 1203.710938 499.238281 C 1205.277344 500.171875 1206.632812 501.101562 1207.742188 501.929688 C 1207.984375 502.109375 1208.210938 502.285156 1208.429688 502.457031 C 1208.902344 502.820312 1209.316406 503.160156 1209.671875 503.457031 C 1209.816406 503.578125 1209.953125 503.695312 1210.078125 503.804688 C 1210.082031 503.808594 1210.085938 503.8125 1210.089844 503.816406 L 1210.089844 619.035156 C 1210.089844 624.332031 1214.375 628.621094 1219.660156 628.621094 C 1224.945312 628.621094 1229.230469 624.332031 1229.230469 619.035156 L 1229.230469 557.605469 L 1232.820312 557.605469 L 1232.820312 619.035156 C 1232.820312 624.332031 1237.105469 628.621094 1242.390625 628.621094 C 1247.675781 628.621094 1251.960938 624.332031 1251.960938 619.035156 L 1251.960938 508.113281 C 1253.25 507.796875 1254.441406 507.054688 1255.296875 505.90625 L 1255.292969 505.90625 C 1255.421875 505.738281 1256.363281 504.550781 1257.992188 502.96875 C 1258.332031 502.636719 1258.703125 502.285156 1259.101562 501.925781 C 1260.082031 502.65625 1260.867188 503.304688 1261.4375 503.800781 C 1261.441406 503.804688 1261.445312 503.808594 1261.453125 503.8125 L 1261.453125 619.03125 C 1261.453125 624.328125 1265.738281 628.617188 1271.019531 628.617188 C 1276.308594 628.617188 1280.59375 624.328125 1280.59375 619.03125 L 1280.59375 557.601562 L 1284.179688 557.601562 L 1284.179688 619.03125 C 1284.179688 624.328125 1288.464844 628.617188 1293.75 628.617188 C 1299.039062 628.617188 1303.324219 624.328125 1303.324219 619.03125 L 1303.324219 503.8125 C 1303.328125 503.808594 1303.332031 503.804688 1303.335938 503.800781 C 1303.460938 503.691406 1303.59375 503.578125 1303.738281 503.457031 C 1304.09375 503.15625 1304.507812 502.820312 1304.980469 502.453125 C 1305.199219 502.28125 1305.429688 502.105469 1305.671875 501.925781 C 1306.78125 501.101562 1308.132812 500.167969 1309.703125 499.234375 C 1309.945312 499.09375 1310.1875 498.949219 1310.4375 498.804688 C 1311.425781 498.242188 1312.484375 497.683594 1313.609375 497.152344 C 1314.082031 496.929688 1314.566406 496.710938 1315.0625 496.5 C 1315.53125 496.296875 1316.007812 496.101562 1316.496094 495.914062 C 1317.078125 495.6875 1317.675781 495.46875 1318.285156 495.265625 C 1317.753906 495.535156 1317.226562 495.824219 1316.695312 496.125 C 1316.15625 496.429688 1315.621094 496.746094 1315.089844 497.074219 C 1314.570312 497.390625 1314.054688 497.71875 1313.542969 498.050781 C 1312.269531 498.886719 1311.035156 499.746094 1309.898438 500.582031 C 1308.746094 501.425781 1307.695312 502.238281 1306.785156 502.964844 C 1306.757812 502.984375 1306.734375 503.003906 1306.707031 503.023438 C 1306.761719 503.035156 1306.816406 503.046875 1306.871094 503.050781 C 1307.449219 503.617188 1307.933594 504.128906 1308.328125 504.558594 C 1309 505.296875 1309.402344 505.800781 1309.480469 505.90625 C 1309.878906 506.441406 1310.355469 506.882812 1310.878906 507.242188 L 1317.308594 550.964844 C 1317.339844 551.160156 1317.378906 551.347656 1317.421875 551.535156 L 1317.421875 618.660156 C 1317.421875 623.953125 1321.707031 628.246094 1326.992188 628.246094 C 1332.28125 628.246094 1336.5625 623.953125 1336.5625 618.660156 L 1336.5625 554.179688 L 1341.207031 553.496094 L 1358.398438 621.046875 C 1359.707031 626.175781 1364.917969 629.273438 1370.039062 627.964844 C 1375.160156 626.660156 1378.253906 621.441406 1376.945312 616.308594 L 1358.691406 544.578125 L 1353.339844 508.175781 C 1354.15625 508.980469 1354.992188 509.820312 1355.839844 510.71875 C 1363.773438 519.121094 1372.550781 531.59375 1376.613281 548.230469 C 1377.277344 550.945312 1379.699219 552.761719 1382.367188 552.761719 C 1382.835938 552.761719 1383.3125 552.707031 1383.785156 552.589844 C 1386.964844 551.808594 1388.910156 548.59375 1388.132812 545.40625 C 1383.414062 526.113281 1373.273438 511.855469 1364.300781 502.394531 Z M 1364.300781 502.394531 " fill-opacity="1" fill-rule="nonzero"/><path fill="#336666" d="M 1174.269531 488.089844 C 1174.929688 488.84375 1175.648438 489.539062 1176.421875 490.167969 C 1178.09375 491.527344 1180.007812 492.570312 1182.0625 493.238281 C 1184.535156 494.035156 1187.207031 494.289062 1189.914062 493.890625 C 1190.390625 493.820312 1190.867188 493.734375 1191.347656 493.621094 C 1191.347656 493.621094 1191.347656 493.621094 1191.351562 493.621094 C 1193.292969 493.167969 1195.082031 492.402344 1196.679688 491.394531 C 1199.101562 489.867188 1201.078125 487.78125 1202.480469 485.347656 C 1202.503906 485.308594 1202.527344 485.269531 1202.550781 485.230469 C 1204.632812 481.554688 1205.394531 477.117188 1204.359375 472.679688 C 1202.179688 463.296875 1192.816406 457.464844 1183.449219 459.648438 C 1174.085938 461.832031 1168.261719 471.207031 1170.441406 480.589844 C 1170.503906 480.863281 1170.578125 481.132812 1170.652344 481.402344 C 1170.789062 481.882812 1170.945312 482.347656 1171.117188 482.804688 C 1171.863281 484.78125 1172.9375 486.558594 1174.269531 488.089844 Z M 1174.269531 488.089844 " fill-opacity="1" fill-rule="nonzero"/><path fill="#336666" d="M 1310.933594 485.347656 C 1312.335938 487.777344 1314.3125 489.867188 1316.738281 491.394531 C 1318.332031 492.402344 1320.121094 493.167969 1322.066406 493.621094 C 1322.546875 493.734375 1323.023438 493.820312 1323.503906 493.890625 C 1326.207031 494.289062 1328.882812 494.035156 1331.351562 493.238281 C 1333.410156 492.570312 1335.320312 491.527344 1336.992188 490.167969 C 1337.765625 489.539062 1338.488281 488.84375 1339.144531 488.089844 C 1340.476562 486.558594 1341.550781 484.78125 1342.296875 482.804688 C 1342.46875 482.347656 1342.625 481.878906 1342.761719 481.402344 C 1342.835938 481.132812 1342.90625 480.863281 1342.972656 480.589844 C 1345.152344 471.207031 1339.328125 461.832031 1329.960938 459.648438 C 1320.59375 457.464844 1311.234375 463.296875 1309.054688 472.679688 C 1308.019531 477.117188 1308.785156 481.554688 1310.863281 485.230469 C 1310.886719 485.269531 1310.910156 485.308594 1310.933594 485.347656 Z M 1310.933594 485.347656 " fill-opacity="1" fill-rule="nonzero"/><path fill="#336666" d="M 1270.226562 482.4375 C 1270.390625 482.597656 1270.558594 482.75 1270.730469 482.90625 C 1272.847656 484.820312 1275.464844 486.246094 1278.441406 486.9375 C 1279.742188 487.242188 1281.042969 487.386719 1282.324219 487.390625 C 1282.769531 487.394531 1283.210938 487.382812 1283.652344 487.351562 C 1287.253906 487.089844 1290.640625 485.707031 1293.378906 483.476562 C 1293.605469 483.292969 1293.828125 483.101562 1294.046875 482.90625 C 1294.214844 482.753906 1294.382812 482.59375 1294.546875 482.4375 C 1294.582031 482.402344 1294.617188 482.371094 1294.652344 482.335938 C 1296.902344 480.101562 1298.578125 477.226562 1299.347656 473.90625 C 1301.53125 464.523438 1295.703125 455.148438 1286.339844 452.964844 C 1276.972656 450.78125 1267.609375 456.613281 1265.429688 465.996094 C 1264.152344 471.484375 1265.625 476.972656 1268.9375 481.019531 C 1269.273438 481.429688 1269.628906 481.828125 1270.003906 482.207031 C 1270.078125 482.28125 1270.152344 482.359375 1270.226562 482.4375 Z M 1270.226562 482.4375 " fill-opacity="1" fill-rule="nonzero"/><path fill="#336666" d="M 1220.035156 483.476562 C 1222.027344 485.105469 1224.410156 486.316406 1227.082031 486.9375 C 1227.976562 487.144531 1228.871094 487.28125 1229.757812 487.347656 C 1230.203125 487.378906 1230.648438 487.394531 1231.089844 487.390625 C 1235.4375 487.378906 1239.550781 485.730469 1242.683594 482.90625 C 1242.933594 482.679688 1243.179688 482.449219 1243.417969 482.207031 C 1243.789062 481.832031 1244.144531 481.433594 1244.484375 481.023438 C 1246.132812 479.015625 1247.359375 476.609375 1247.988281 473.90625 C 1250.171875 464.523438 1244.34375 455.148438 1234.980469 452.964844 C 1225.613281 450.78125 1216.25 456.613281 1214.070312 465.996094 C 1212.648438 472.105469 1214.628906 478.214844 1218.765625 482.332031 C 1218.800781 482.367188 1218.832031 482.402344 1218.867188 482.4375 C 1219.238281 482.800781 1219.628906 483.148438 1220.035156 483.476562 Z M 1220.035156 483.476562 " fill-opacity="1" fill-rule="nonzero"/><g fill="#000000" fill-opacity="1"><g transform="translate(811.433752, 581.624927)"><g><path d="M 37.921875 0 L 26.28125 0 L 26.28125 -73.6875 C 23.5625 -74.320312 20.84375 -74.640625 18.125 -74.640625 L 1.921875 -70.921875 L 1.203125 -79.4375 L 63 -79.4375 L 62.40625 -70.921875 L 46.078125 -74.640625 C 43.359375 -74.640625 40.640625 -74.320312 37.921875 -73.6875 Z M 37.921875 0 "/></g></g></g><g fill="#000000" fill-opacity="1"><g transform="translate(875.633785, 581.624927)"><g><path d="M 12.59375 -29.515625 C 12.59375 -20.878906 14.53125 -14.660156 18.40625 -10.859375 C 22.289062 -7.054688 27.015625 -5.15625 32.578125 -5.15625 C 38.140625 -5.15625 43.28125 -6.238281 48 -8.40625 L 48 -4.203125 C 41.4375 -0.441406 35.15625 1.4375 29.15625 1.4375 C 21.394531 1.4375 15.113281 -0.921875 10.3125 -5.640625 C 5.519531 -10.359375 3.125 -17.195312 3.125 -26.15625 C 3.125 -35.113281 5.78125 -42.273438 11.09375 -47.640625 C 16.414062 -53.003906 22.835938 -55.6875 30.359375 -55.6875 C 36.203125 -55.6875 41.082031 -53.382812 45 -48.78125 C 48.914062 -44.175781 50.875 -37.753906 50.875 -29.515625 Z M 24.234375 -50.046875 C 21.441406 -48.679688 19.046875 -46.5 17.046875 -43.5 C 15.046875 -40.5 13.722656 -37.039062 13.078125 -33.125 L 41.15625 -33.125 C 40.914062 -36.476562 40.132812 -39.351562 38.8125 -41.75 C 37.5 -44.15625 35.921875 -45.921875 34.078125 -47.046875 C 30.796875 -49.046875 27.515625 -50.046875 24.234375 -50.046875 Z M 24.234375 -50.046875 "/></g></g></g><g fill="#000000" fill-opacity="1"><g transform="translate(931.913809, 581.624927)"><g><path d="M 34.203125 -12.71875 L 34.203125 -25.078125 C 28.441406 -24.679688 23.71875 -23.398438 20.03125 -21.234375 C 16.351562 -19.078125 14.515625 -16.757812 14.515625 -14.28125 C 14.515625 -11.800781 15.15625 -9.660156 16.4375 -7.859375 C 17.71875 -6.054688 19.359375 -4.796875 21.359375 -4.078125 C 23.992188 -4.554688 26.789062 -5.875 29.75 -8.03125 C 32.71875 -10.195312 34.203125 -11.757812 34.203125 -12.71875 Z M 44.046875 -15.953125 C 44.046875 -10.273438 46.125 -5.957031 50.28125 -3 L 44.046875 1.5625 L 34.3125 -7.203125 C 28 -1.441406 22.160156 1.4375 16.796875 1.4375 C 13.273438 1.4375 10.253906 0.316406 7.734375 -1.921875 C 5.210938 -4.160156 3.953125 -6.976562 3.953125 -10.375 C 3.953125 -13.78125 4.972656 -16.601562 7.015625 -18.84375 C 9.054688 -21.082031 11.757812 -22.800781 15.125 -24 C 20.882812 -26.15625 27.242188 -27.515625 34.203125 -28.078125 L 34.203125 -39.359375 C 34.203125 -45.992188 30.363281 -49.3125 22.6875 -49.3125 C 18.28125 -49.3125 13.078125 -48.351562 7.078125 -46.4375 L 6 -49.4375 C 7.601562 -50.71875 10.382812 -52.078125 14.34375 -53.515625 C 18.300781 -54.960938 22.078125 -55.6875 25.671875 -55.6875 C 29.273438 -55.6875 32.296875 -55.203125 34.734375 -54.234375 C 37.179688 -53.273438 38.984375 -52.195312 40.140625 -51 C 41.296875 -49.800781 42.191406 -48.160156 42.828125 -46.078125 C 43.472656 -43.992188 43.835938 -42.351562 43.921875 -41.15625 C 44.003906 -39.957031 44.046875 -38.359375 44.046875 -36.359375 Z M 44.046875 -15.953125 "/></g></g></g><g fill="#000000" fill-opacity="1"><g transform="translate(985.193834, 581.624927)"><g><path d="M 70.5625 -55.6875 C 80 -55.6875 84.71875 -48.523438 84.71875 -34.203125 L 84.71875 0 L 74.640625 0 L 74.640625 -35.15625 C 74.640625 -41.875 73.359375 -45.957031 70.796875 -47.40625 C 69.515625 -48.125 67.734375 -48.484375 65.453125 -48.484375 C 63.179688 -48.484375 60.742188 -47.78125 58.140625 -46.375 C 55.535156 -44.976562 53.632812 -43.398438 52.4375 -41.640625 L 52.4375 0 L 42.234375 0 L 42.234375 -35.765625 C 42.234375 -40.003906 41.59375 -43.179688 40.3125 -45.296875 C 39.039062 -47.421875 37.160156 -48.484375 34.671875 -48.484375 C 32.191406 -48.484375 29.8125 -47.921875 27.53125 -46.796875 C 25.257812 -45.679688 23.441406 -44.5625 22.078125 -43.4375 C 20.722656 -42.320312 20.046875 -41.644531 20.046875 -41.40625 L 20.046875 0 L 9.953125 0 L 9.953125 -37.6875 C 9.953125 -43.125 7.914062 -47.484375 3.84375 -50.765625 L 9.953125 -55.3125 L 19.5625 -46.5625 C 23.320312 -49.675781 26.597656 -51.972656 29.390625 -53.453125 C 32.191406 -54.941406 35.113281 -55.6875 38.15625 -55.6875 C 45.113281 -55.6875 49.4375 -52.441406 51.125 -45.953125 C 53.914062 -49.160156 57.113281 -51.582031 60.71875 -53.21875 C 64.320312 -54.863281 67.601562 -55.6875 70.5625 -55.6875 Z M 70.5625 -55.6875 "/></g></g></g><g fill="#000000" fill-opacity="1"><g transform="translate(1078.550915, 581.624927)"><g/></g></g></svg>