<svg xmlns="http://www.w3.org/2000/svg" xmlns:xlink="http://www.w3.org/1999/xlink" width="2560" zoomAndPan="magnify" viewBox="0 0 1920 1079.999946" height="1440" preserveAspectRatio="xMidYMid meet" version="1.0"><defs><g/><clipPath id="d718f06053"><path d="M 1470 324 L 1661 324 L 1661 756 L 1470 756 Z M 1470 324 " clip-rule="nonzero"/></clipPath></defs><rect x="-192" width="2304" fill="#ffffff" y="-107.999995" height="1295.999935" fill-opacity="1"/><rect x="-192" width="2304" fill="#ffffff" y="-107.999995" height="1295.999935" fill-opacity="1"/><rect x="-192" width="2304" fill="#97b0b0" y="-107.999995" height="1295.999935" fill-opacity="1"/><g fill="#000000" fill-opacity="1"><g transform="translate(470.570498, 511.499933)"><g><path d="M 14.953125 -26.234375 L 14.953125 0 L 7.203125 0 L 7.203125 -52.953125 L 14.953125 -52.953125 L 14.953125 -29.28125 L 39.203125 -29.28125 L 39.203125 -52.953125 L 46.953125 -52.953125 L 46.953125 0 L 39.203125 0 L 39.203125 -26.234375 Z M 14.953125 -26.234375 "/></g></g></g><g fill="#000000" fill-opacity="1"><g transform="translate(524.72524, 511.499933)"><g><path d="M 22.796875 -8.484375 L 22.796875 -16.71875 C 18.960938 -16.445312 15.816406 -15.59375 13.359375 -14.15625 C 10.910156 -12.71875 9.6875 -11.171875 9.6875 -9.515625 C 9.6875 -7.867188 10.109375 -6.441406 10.953125 -5.234375 C 11.804688 -4.035156 12.898438 -3.195312 14.234375 -2.71875 C 15.992188 -3.039062 17.859375 -3.921875 19.828125 -5.359375 C 21.804688 -6.796875 22.796875 -7.835938 22.796875 -8.484375 Z M 29.359375 -10.640625 C 29.359375 -6.847656 30.742188 -3.96875 33.515625 -2 L 29.359375 1.046875 L 22.875 -4.796875 C 18.664062 -0.960938 14.773438 0.953125 11.203125 0.953125 C 8.859375 0.953125 6.84375 0.207031 5.15625 -1.28125 C 3.476562 -2.769531 2.640625 -4.644531 2.640625 -6.90625 C 2.640625 -9.175781 3.316406 -11.054688 4.671875 -12.546875 C 6.035156 -14.046875 7.835938 -15.195312 10.078125 -16 C 13.921875 -17.4375 18.160156 -18.34375 22.796875 -18.71875 L 22.796875 -26.234375 C 22.796875 -30.660156 20.238281 -32.875 15.125 -32.875 C 12.1875 -32.875 8.71875 -32.234375 4.71875 -30.953125 L 4 -32.953125 C 5.0625 -33.804688 6.910156 -34.710938 9.546875 -35.671875 C 12.191406 -36.640625 14.710938 -37.125 17.109375 -37.125 C 19.515625 -37.125 21.53125 -36.800781 23.15625 -36.15625 C 24.78125 -35.519531 25.976562 -34.800781 26.75 -34 C 27.53125 -33.195312 28.132812 -32.101562 28.5625 -30.71875 C 28.988281 -29.332031 29.226562 -28.238281 29.28125 -27.4375 C 29.332031 -26.632812 29.359375 -25.566406 29.359375 -24.234375 Z M 29.359375 -10.640625 "/></g></g></g><g fill="#000000" fill-opacity="1"><g transform="translate(560.241793, 511.499933)"><g><path d="M 12.71875 -54.640625 L 12.71875 0 L 6 0 L 6 -54.640625 Z M 12.71875 -54.640625 "/></g></g></g><g fill="#000000" fill-opacity="1"><g transform="translate(578.959977, 511.499933)"><g><path d="M 12.71875 -54.640625 L 12.71875 0 L 6 0 L 6 -54.640625 Z M 12.71875 -54.640625 "/></g></g></g><g fill="#000000" fill-opacity="1"><g transform="translate(597.678161, 511.499933)"><g><path d="M 21.4375 -37.125 C 26.132812 -37.125 30.015625 -35.519531 33.078125 -32.3125 C 36.148438 -29.113281 37.6875 -24.71875 37.6875 -19.125 C 37.6875 -15.550781 37.070312 -12.398438 35.84375 -9.671875 C 34.613281 -6.953125 33.015625 -4.847656 31.046875 -3.359375 C 27.253906 -0.484375 23.023438 0.953125 18.359375 0.953125 C 13.691406 0.953125 9.820312 -0.644531 6.75 -3.84375 C 3.6875 -7.039062 2.15625 -11.441406 2.15625 -17.046875 C 2.15625 -20.617188 2.753906 -23.765625 3.953125 -26.484375 C 5.160156 -29.203125 6.75 -31.304688 8.71875 -32.796875 C 12.507812 -35.679688 16.75 -37.125 21.4375 -37.125 Z M 19.84375 -1.765625 C 22.1875 -1.765625 24.1875 -2.671875 25.84375 -4.484375 C 28.820312 -7.679688 30.3125 -11.929688 30.3125 -17.234375 C 30.3125 -22.546875 29.40625 -26.679688 27.59375 -29.640625 C 25.78125 -32.597656 22.820312 -34.078125 18.71875 -34.078125 C 15.675781 -32.898438 13.367188 -30.832031 11.796875 -27.875 C 10.222656 -24.914062 9.4375 -21.34375 9.4375 -17.15625 C 9.4375 -12.96875 10.289062 -9.351562 12 -6.3125 C 13.707031 -3.28125 16.320312 -1.765625 19.84375 -1.765625 Z M 19.84375 -1.765625 "/></g></g></g><g fill="#000000" fill-opacity="1"><g transform="translate(637.674274, 511.499933)"><g><path d="M 14 -2.234375 C 14 3.523438 11.015625 8.054688 5.046875 11.359375 L 4.078125 9.84375 C 7.648438 7.007812 9.4375 3.832031 9.4375 0.3125 C 8.207031 0.3125 7.070312 -0.0820312 6.03125 -0.875 C 5 -1.675781 4.484375 -2.742188 4.484375 -4.078125 C 5.222656 -5.203125 6.421875 -6.203125 8.078125 -7.078125 C 9.734375 -7.960938 11.332031 -8.484375 12.875 -8.640625 C 13.625 -6.453125 14 -4.316406 14 -2.234375 Z M 14 -2.234375 "/></g></g></g><g fill="#000000" fill-opacity="1"><g transform="translate(656.472453, 511.499933)"><g/></g></g><g fill="#000000" fill-opacity="1"><g transform="translate(676.470521, 511.499933)"><g><path d="M 8.15625 -36.15625 L 18.796875 -7.921875 L 26 -27.59375 L 22.40625 -36.15625 L 29.765625 -36.15625 L 40.40625 -7.921875 L 50.796875 -36.15625 L 53.921875 -36.15625 L 39.28125 1.046875 L 38 1.046875 L 27.4375 -23.921875 L 17.59375 1.046875 L 16.40625 1.046875 L 0.796875 -36.15625 Z M 8.15625 -36.15625 "/></g></g></g><g fill="#000000" fill-opacity="1"><g transform="translate(731.185199, 511.499933)"><g><path d="M 6 0 L 6 -36.15625 L 12.640625 -36.15625 L 12.640625 0 Z M 5.203125 -47.3125 C 5.203125 -48.46875 5.585938 -49.441406 6.359375 -50.234375 C 7.128906 -51.035156 8.085938 -51.4375 9.234375 -51.4375 C 10.378906 -51.4375 11.363281 -51.035156 12.1875 -50.234375 C 13.019531 -49.441406 13.4375 -48.484375 13.4375 -47.359375 C 13.4375 -46.242188 13.019531 -45.257812 12.1875 -44.40625 C 11.363281 -43.550781 10.390625 -43.125 9.265625 -43.125 C 8.148438 -43.125 7.191406 -43.535156 6.390625 -44.359375 C 5.597656 -45.179688 5.203125 -46.164062 5.203125 -47.3125 Z M 5.203125 -47.3125 "/></g></g></g><g fill="#000000" fill-opacity="1"><g transform="translate(749.823389, 511.499933)"><g><path d="M 11.84375 0 L 5.125 0 L 5.125 -36.15625 L 9.765625 -36.15625 L 11.59375 -29.4375 C 12.664062 -31.300781 14.359375 -33.0625 16.671875 -34.71875 C 18.992188 -36.375 21.382812 -37.390625 23.84375 -37.765625 L 24.640625 -32.234375 C 22.671875 -32.234375 20.441406 -31.617188 17.953125 -30.390625 C 15.472656 -29.171875 13.4375 -27.8125 11.84375 -26.3125 Z M 11.84375 0 "/></g></g></g><g fill="#000000" fill-opacity="1"><g transform="translate(775.260902, 511.499933)"><g/></g></g><g fill="#000000" fill-opacity="1"><g transform="translate(795.258947, 511.499933)"><g><path d="M 13.515625 -33.765625 C 12.128906 -33.765625 10.992188 -33.242188 10.109375 -32.203125 C 9.234375 -31.160156 8.796875 -29.984375 8.796875 -28.671875 C 8.796875 -27.367188 9.421875 -26.117188 10.671875 -24.921875 C 11.929688 -23.722656 13.453125 -22.65625 15.234375 -21.71875 C 17.023438 -20.78125 18.800781 -19.804688 20.5625 -18.796875 C 22.320312 -17.785156 23.828125 -16.476562 25.078125 -14.875 C 26.328125 -13.28125 26.953125 -11.492188 26.953125 -9.515625 C 26.953125 -6.535156 25.753906 -4.046875 23.359375 -2.046875 C 20.960938 -0.046875 17.695312 0.953125 13.5625 0.953125 C 9.425781 0.953125 5.648438 -0.00390625 2.234375 -1.921875 L 2.234375 -4.953125 C 5.867188 -3.140625 9.148438 -2.234375 12.078125 -2.234375 C 15.015625 -2.234375 17.148438 -2.820312 18.484375 -4 C 19.816406 -5.175781 20.484375 -6.519531 20.484375 -8.03125 C 20.484375 -9.550781 19.878906 -10.910156 18.671875 -12.109375 C 17.472656 -13.316406 16.007812 -14.375 14.28125 -15.28125 C 12.550781 -16.1875 10.832031 -17.144531 9.125 -18.15625 C 7.414062 -19.175781 5.957031 -20.484375 4.75 -22.078125 C 3.550781 -23.679688 2.953125 -25.613281 2.953125 -27.875 C 2.953125 -30.144531 3.875 -32.253906 5.71875 -34.203125 C 7.5625 -36.148438 10.398438 -37.125 14.234375 -37.125 C 18.078125 -37.125 21.757812 -36.429688 25.28125 -35.046875 L 24.484375 -29.765625 C 20.535156 -31.890625 16.878906 -33.222656 13.515625 -33.765625 Z M 13.515625 -33.765625 "/></g></g></g><g fill="#000000" fill-opacity="1"><g transform="translate(825.016054, 511.499933)"><g><path d="M 6 0 L 6 -36.15625 L 12.640625 -36.15625 L 12.640625 0 Z M 5.203125 -47.3125 C 5.203125 -48.46875 5.585938 -49.441406 6.359375 -50.234375 C 7.128906 -51.035156 8.085938 -51.4375 9.234375 -51.4375 C 10.378906 -51.4375 11.363281 -51.035156 12.1875 -50.234375 C 13.019531 -49.441406 13.4375 -48.484375 13.4375 -47.359375 C 13.4375 -46.242188 13.019531 -45.257812 12.1875 -44.40625 C 11.363281 -43.550781 10.390625 -43.125 9.265625 -43.125 C 8.148438 -43.125 7.191406 -43.535156 6.390625 -44.359375 C 5.597656 -45.179688 5.203125 -46.164062 5.203125 -47.3125 Z M 5.203125 -47.3125 "/></g></g></g><g fill="#000000" fill-opacity="1"><g transform="translate(843.654244, 511.499933)"><g><path d="M 12.953125 -31.046875 C 15.191406 -33.171875 17.148438 -34.710938 18.828125 -35.671875 C 20.515625 -36.640625 22.503906 -37.125 24.796875 -37.125 C 27.085938 -37.125 29.207031 -36.21875 31.15625 -34.40625 C 33.101562 -32.59375 34.078125 -29.472656 34.078125 -25.046875 L 34.078125 0 L 27.28125 0 L 27.28125 -24.234375 C 27.28125 -26.847656 26.8125 -28.804688 25.875 -30.109375 C 24.945312 -31.421875 23.347656 -32.078125 21.078125 -32.078125 C 18.816406 -32.078125 16.191406 -30.582031 13.203125 -27.59375 L 13.203125 0 L 6.40625 0 L 6.40625 -25.125 C 6.40625 -28.75 5.039062 -31.65625 2.3125 -33.84375 L 6.40625 -36.875 Z M 12.953125 -31.046875 "/></g></g></g><g fill="#000000" fill-opacity="1"><g transform="translate(883.650358, 511.499933)"><g><path d="M 33.921875 -10.71875 C 33.921875 -7.039062 35.28125 -4.109375 38 -1.921875 L 33.921875 1.046875 L 27.359375 -4.796875 C 25.222656 -2.773438 23.300781 -1.3125 21.59375 -0.40625 C 19.894531 0.5 18.132812 0.953125 16.3125 0.953125 C 14.5 0.953125 12.898438 0.6875 11.515625 0.15625 C 10.128906 -0.375 8.675781 -1.265625 7.15625 -2.515625 C 5.632812 -3.773438 4.40625 -5.75 3.46875 -8.4375 C 2.539062 -11.132812 2.078125 -14.613281 2.078125 -18.875 C 2.078125 -23.144531 3.34375 -27.238281 5.875 -31.15625 C 8.414062 -35.082031 11.894531 -37.046875 16.3125 -37.046875 C 19.625 -37.046875 23.226562 -35.816406 27.125 -33.359375 L 27.125 -54.640625 L 33.921875 -54.640625 Z M 27.125 -8.078125 L 27.125 -30.40625 C 24.289062 -32.269531 21.703125 -33.203125 19.359375 -33.203125 C 16.265625 -33.203125 13.785156 -31.75 11.921875 -28.84375 C 10.054688 -25.9375 9.125 -22.296875 9.125 -17.921875 C 9.125 -13.546875 9.800781 -10.035156 11.15625 -7.390625 C 12.519531 -4.753906 14.210938 -3.171875 16.234375 -2.640625 C 18.109375 -2.796875 19.9375 -3.25 21.71875 -4 C 23.507812 -4.75 24.859375 -5.507812 25.765625 -6.28125 C 26.671875 -7.050781 27.125 -7.648438 27.125 -8.078125 Z M 27.125 -8.078125 "/></g></g></g><g fill="#000000" fill-opacity="1"><g transform="translate(923.646448, 511.499933)"><g/></g></g><g fill="#000000" fill-opacity="1"><g transform="translate(943.644493, 511.499933)"><g><path d="M 33.921875 -10.71875 C 33.921875 -7.039062 35.28125 -4.109375 38 -1.921875 L 33.921875 1.046875 L 27.359375 -4.796875 C 25.222656 -2.773438 23.300781 -1.3125 21.59375 -0.40625 C 19.894531 0.5 18.132812 0.953125 16.3125 0.953125 C 14.5 0.953125 12.898438 0.6875 11.515625 0.15625 C 10.128906 -0.375 8.675781 -1.265625 7.15625 -2.515625 C 5.632812 -3.773438 4.40625 -5.75 3.46875 -8.4375 C 2.539062 -11.132812 2.078125 -14.613281 2.078125 -18.875 C 2.078125 -23.144531 3.34375 -27.238281 5.875 -31.15625 C 8.414062 -35.082031 11.894531 -37.046875 16.3125 -37.046875 C 19.625 -37.046875 23.226562 -35.816406 27.125 -33.359375 L 27.125 -54.640625 L 33.921875 -54.640625 Z M 27.125 -8.078125 L 27.125 -30.40625 C 24.289062 -32.269531 21.703125 -33.203125 19.359375 -33.203125 C 16.265625 -33.203125 13.785156 -31.75 11.921875 -28.84375 C 10.054688 -25.9375 9.125 -22.296875 9.125 -17.921875 C 9.125 -13.546875 9.800781 -10.035156 11.15625 -7.390625 C 12.519531 -4.753906 14.210938 -3.171875 16.234375 -2.640625 C 18.109375 -2.796875 19.9375 -3.25 21.71875 -4 C 23.507812 -4.75 24.859375 -5.507812 25.765625 -6.28125 C 26.671875 -7.050781 27.125 -7.648438 27.125 -8.078125 Z M 27.125 -8.078125 "/></g></g></g><g fill="#000000" fill-opacity="1"><g transform="translate(983.640583, 511.499933)"><g><path d="M 8.40625 -19.6875 C 8.40625 -13.925781 9.695312 -9.773438 12.28125 -7.234375 C 14.863281 -4.703125 18.007812 -3.4375 21.71875 -3.4375 C 25.425781 -3.4375 28.851562 -4.15625 32 -5.59375 L 32 -2.796875 C 27.625 -0.296875 23.4375 0.953125 19.4375 0.953125 C 14.269531 0.953125 10.082031 -0.617188 6.875 -3.765625 C 3.675781 -6.910156 2.078125 -11.46875 2.078125 -17.4375 C 2.078125 -23.414062 3.847656 -28.191406 7.390625 -31.765625 C 10.941406 -35.335938 15.222656 -37.125 20.234375 -37.125 C 24.128906 -37.125 27.382812 -35.585938 30 -32.515625 C 32.613281 -29.453125 33.921875 -25.175781 33.921875 -19.6875 Z M 16.15625 -33.359375 C 14.289062 -32.453125 12.691406 -31 11.359375 -29 C 10.023438 -27 9.144531 -24.691406 8.71875 -22.078125 L 27.4375 -22.078125 C 27.28125 -24.316406 26.757812 -26.234375 25.875 -27.828125 C 25 -29.429688 23.945312 -30.609375 22.71875 -31.359375 C 20.53125 -32.691406 18.34375 -33.359375 16.15625 -33.359375 Z M 16.15625 -33.359375 "/></g></g></g><g fill="#000000" fill-opacity="1"><g transform="translate(1021.156922, 511.499933)"><g><path d="M 11.84375 0 L 5.125 0 L 5.125 -36.15625 L 9.765625 -36.15625 L 11.59375 -29.4375 C 12.664062 -31.300781 14.359375 -33.0625 16.671875 -34.71875 C 18.992188 -36.375 21.382812 -37.390625 23.84375 -37.765625 L 24.640625 -32.234375 C 22.671875 -32.234375 20.441406 -31.617188 17.953125 -30.390625 C 15.472656 -29.171875 13.4375 -27.8125 11.84375 -26.3125 Z M 11.84375 0 "/></g></g></g><g fill="#000000" fill-opacity="1"><g transform="translate(1046.594435, 511.499933)"><g/></g></g><g fill="#000000" fill-opacity="1"><g transform="translate(1066.592481, 511.499933)"><g><path d="M 12.953125 -43.765625 C 12.953125 -41.410156 13.875 -39.234375 15.71875 -37.234375 C 17.5625 -35.234375 19.800781 -33.472656 22.4375 -31.953125 C 25.082031 -30.441406 27.707031 -28.894531 30.3125 -27.3125 C 32.925781 -25.738281 35.15625 -23.804688 37 -21.515625 C 38.84375 -19.222656 39.765625 -16.691406 39.765625 -13.921875 C 39.765625 -9.546875 38.148438 -5.972656 34.921875 -3.203125 C 31.691406 -0.429688 27.328125 0.953125 21.828125 0.953125 C 16.335938 0.953125 10.898438 -0.0820312 5.515625 -2.15625 L 5.515625 -5.921875 C 10.960938 -3.203125 15.59375 -1.84375 19.40625 -1.84375 C 23.21875 -1.84375 26.1875 -2.773438 28.3125 -4.640625 C 30.445312 -6.503906 31.515625 -9.09375 31.515625 -12.40625 C 31.515625 -14.644531 30.632812 -16.679688 28.875 -18.515625 C 27.113281 -20.359375 24.976562 -21.957031 22.46875 -23.3125 C 19.96875 -24.675781 17.460938 -26.078125 14.953125 -27.515625 C 12.453125 -28.960938 10.320312 -30.789062 8.5625 -33 C 6.800781 -35.207031 5.921875 -37.882812 5.921875 -41.03125 C 5.921875 -44.1875 7.316406 -47.125 10.109375 -49.84375 C 12.910156 -52.5625 17.085938 -53.921875 22.640625 -53.921875 C 26.265625 -53.921875 30.851562 -53.09375 36.40625 -51.4375 L 35.59375 -46 C 28.394531 -49.09375 22.238281 -50.640625 17.125 -50.640625 C 14.34375 -49.304688 12.953125 -47.015625 12.953125 -43.765625 Z M 12.953125 -43.765625 "/></g></g></g><g fill="#000000" fill-opacity="1"><g transform="translate(1111.068154, 511.499933)"><g><path d="M 12.796875 -31.046875 C 15.035156 -33.171875 16.992188 -34.710938 18.671875 -35.671875 C 20.359375 -36.640625 22.09375 -37.125 23.875 -37.125 C 25.664062 -37.125 27.265625 -36.828125 28.671875 -36.234375 C 30.085938 -35.648438 31.539062 -34.703125 33.03125 -33.390625 C 34.53125 -32.085938 35.742188 -30.0625 36.671875 -27.3125 C 37.609375 -24.570312 38.078125 -21.5625 38.078125 -18.28125 C 38.078125 -15 37.539062 -11.941406 36.46875 -9.109375 C 35.40625 -6.285156 33.726562 -3.832031 31.4375 -1.75 C 29.144531 0.320312 26.382812 1.359375 23.15625 1.359375 C 19.925781 1.359375 16.472656 0.101562 12.796875 -2.40625 L 12.796875 16.953125 L 6 16.953125 L 6 -25.359375 C 6 -29.035156 4.613281 -31.941406 1.84375 -34.078125 L 6 -37.125 Z M 12.796875 -26.15625 L 12.796875 -4.71875 C 20.109375 -1.25 25.28125 -1.8125 28.3125 -6.40625 C 29.96875 -9.007812 30.796875 -12.457031 30.796875 -16.75 C 30.796875 -21.050781 30.113281 -24.734375 28.75 -27.796875 C 27.394531 -30.867188 25.707031 -32.722656 23.6875 -33.359375 C 21.8125 -33.148438 19.976562 -32.484375 18.1875 -31.359375 C 16.40625 -30.242188 15.0625 -29.191406 14.15625 -28.203125 C 13.25 -27.210938 12.796875 -26.53125 12.796875 -26.15625 Z M 12.796875 -26.15625 "/></g></g></g><g fill="#000000" fill-opacity="1"><g transform="translate(1151.064244, 511.499933)"><g><path d="M 11.84375 0 L 5.125 0 L 5.125 -36.15625 L 9.765625 -36.15625 L 11.59375 -29.4375 C 12.664062 -31.300781 14.359375 -33.0625 16.671875 -34.71875 C 18.992188 -36.375 21.382812 -37.390625 23.84375 -37.765625 L 24.640625 -32.234375 C 22.671875 -32.234375 20.441406 -31.617188 17.953125 -30.390625 C 15.472656 -29.171875 13.4375 -27.8125 11.84375 -26.3125 Z M 11.84375 0 "/></g></g></g><g fill="#000000" fill-opacity="1"><g transform="translate(1176.501757, 511.499933)"><g><path d="M 8.40625 -19.6875 C 8.40625 -13.925781 9.695312 -9.773438 12.28125 -7.234375 C 14.863281 -4.703125 18.007812 -3.4375 21.71875 -3.4375 C 25.425781 -3.4375 28.851562 -4.15625 32 -5.59375 L 32 -2.796875 C 27.625 -0.296875 23.4375 0.953125 19.4375 0.953125 C 14.269531 0.953125 10.082031 -0.617188 6.875 -3.765625 C 3.675781 -6.910156 2.078125 -11.46875 2.078125 -17.4375 C 2.078125 -23.414062 3.847656 -28.191406 7.390625 -31.765625 C 10.941406 -35.335938 15.222656 -37.125 20.234375 -37.125 C 24.128906 -37.125 27.382812 -35.585938 30 -32.515625 C 32.613281 -29.453125 33.921875 -25.175781 33.921875 -19.6875 Z M 16.15625 -33.359375 C 14.289062 -32.453125 12.691406 -31 11.359375 -29 C 10.023438 -27 9.144531 -24.691406 8.71875 -22.078125 L 27.4375 -22.078125 C 27.28125 -24.316406 26.757812 -26.234375 25.875 -27.828125 C 25 -29.429688 23.945312 -30.609375 22.71875 -31.359375 C 20.53125 -32.691406 18.34375 -33.359375 16.15625 -33.359375 Z M 16.15625 -33.359375 "/></g></g></g><g fill="#000000" fill-opacity="1"><g transform="translate(1214.018096, 511.499933)"><g><path d="M 18.234375 0.953125 C 13.597656 0.953125 9.742188 -0.628906 6.671875 -3.796875 C 3.609375 -6.972656 2.078125 -11.46875 2.078125 -17.28125 C 2.078125 -23.09375 3.71875 -27.851562 7 -31.5625 C 10.28125 -35.269531 14.453125 -37.125 19.515625 -37.125 C 22.347656 -37.125 25.523438 -36.429688 29.046875 -35.046875 L 28.234375 -29.765625 C 23.546875 -32.210938 19.519531 -33.4375 16.15625 -33.4375 C 13.382812 -32.050781 11.382812 -29.8125 10.15625 -26.71875 C 8.925781 -23.625 8.3125 -20.582031 8.3125 -17.59375 C 8.3125 -13.539062 9.5 -10.164062 11.875 -7.46875 C 14.25 -4.78125 17.085938 -3.4375 20.390625 -3.4375 C 23.703125 -3.4375 26.742188 -4.15625 29.515625 -5.59375 L 29.515625 -2.796875 C 25.679688 -0.296875 21.921875 0.953125 18.234375 0.953125 Z M 18.234375 0.953125 "/></g></g></g><g fill="#000000" fill-opacity="1"><g transform="translate(1246.49496, 511.499933)"><g><path d="M 25.125 -36.953125 C 27.570312 -36.953125 29.753906 -36.046875 31.671875 -34.234375 C 33.597656 -32.421875 34.5625 -29.300781 34.5625 -24.875 L 34.5625 0 L 27.84375 0 L 27.84375 -24.078125 C 27.84375 -26.691406 27.375 -28.648438 26.4375 -29.953125 C 25.507812 -31.265625 23.722656 -31.921875 21.078125 -31.921875 C 18.441406 -31.921875 15.679688 -30.507812 12.796875 -27.6875 L 12.796875 0 L 6.078125 0 L 6.078125 -54.640625 L 12.5625 -54.640625 L 12.5625 -31.046875 C 16.769531 -34.984375 20.957031 -36.953125 25.125 -36.953125 Z M 25.125 -36.953125 "/></g></g></g><g fill="#000000" fill-opacity="1"><g transform="translate(1286.73101, 511.499933)"><g><path d="M 0.796875 0 L 24.5625 -54.234375 L 25.765625 -54.234375 L 49.515625 0 L 40.796875 0 L 34.796875 -14.40625 L 11.046875 -14.40625 L 5.125 0 Z M 12.234375 -17.4375 L 33.515625 -17.4375 L 22.953125 -43.359375 Z M 12.234375 -17.4375 "/></g></g></g><g fill="#000000" fill-opacity="1"><g transform="translate(1337.046099, 511.499933)"><g><path d="M 12.71875 0 L 6 0 L 6 -54.640625 L 12.71875 -54.640625 L 12.71875 -20.796875 L 31.203125 -36.15625 L 36.484375 -36.15625 L 17.6875 -21.921875 L 37.6875 0 L 29.6875 1.046875 L 12.71875 -20.078125 Z M 12.71875 0 "/></g></g></g><g fill="#000000" fill-opacity="1"><g transform="translate(1376.482253, 511.499933)"><g><path d="M 14 -7.046875 C 14 -5.441406 14.316406 -4.238281 14.953125 -3.4375 C 15.597656 -2.632812 16.664062 -2.234375 18.15625 -2.234375 C 19.65625 -2.234375 21.441406 -2.632812 23.515625 -3.4375 L 23.515625 -1.203125 C 20.421875 0.234375 17.644531 0.953125 15.1875 0.953125 C 12.738281 0.953125 10.804688 0.273438 9.390625 -1.078125 C 7.984375 -2.441406 7.28125 -4.5625 7.28125 -7.4375 L 7.28125 -33.28125 L 0.796875 -34.5625 L 0.796875 -36.15625 L 7.28125 -36.15625 L 7.28125 -39.046875 L 14 -43.921875 L 14 -36.15625 L 23.515625 -36.15625 L 23.515625 -33.28125 L 14 -33.28125 Z M 14 -7.046875 "/></g></g></g><g fill="#000000" fill-opacity="1"><g transform="translate(1402.799725, 511.499933)"><g><path d="M 13.203125 -12.640625 L 10.796875 -52.234375 L 18.40625 -52.234375 L 16 -12.640625 Z M 18.953125 -3.234375 C 18.953125 -1.984375 18.5 -1.007812 17.59375 -0.3125 C 16.6875 0.375 15.6875 0.71875 14.59375 0.71875 C 13.5 0.71875 12.5 0.382812 11.59375 -0.28125 C 10.6875 -0.945312 10.234375 -1.929688 10.234375 -3.234375 C 10.234375 -4.546875 10.660156 -5.613281 11.515625 -6.4375 C 12.367188 -7.269531 13.394531 -7.6875 14.59375 -7.6875 C 15.800781 -7.6875 16.828125 -7.257812 17.671875 -6.40625 C 18.523438 -5.550781 18.953125 -4.492188 18.953125 -3.234375 Z M 18.953125 -3.234375 "/></g></g></g><g fill="#000000" fill-opacity="1"><g transform="translate(1429.433696, 511.499933)"><g/></g></g><g fill="#000000" fill-opacity="1"><g transform="translate(361.258008, 623.999923)"><g><path d="M 63.6875 -52.953125 L 67.6875 -52.953125 L 47.84375 1.203125 L 46.5625 1.203125 L 34.3125 -31.59375 L 22.3125 1.203125 L 21.046875 1.203125 L 0.796875 -52.953125 L 9.515625 -52.953125 L 23.59375 -9.59375 L 32.5625 -36.3125 L 26.3125 -52.953125 L 35.046875 -52.953125 L 49.125 -9.59375 Z M 63.6875 -52.953125 "/></g></g></g><g fill="#000000" fill-opacity="1"><g transform="translate(429.731357, 623.999923)"><g><path d="M 6 0 L 6 -36.15625 L 12.640625 -36.15625 L 12.640625 0 Z M 5.203125 -47.3125 C 5.203125 -48.46875 5.585938 -49.441406 6.359375 -50.234375 C 7.128906 -51.035156 8.085938 -51.4375 9.234375 -51.4375 C 10.378906 -51.4375 11.363281 -51.035156 12.1875 -50.234375 C 13.019531 -49.441406 13.4375 -48.484375 13.4375 -47.359375 C 13.4375 -46.242188 13.019531 -45.257812 12.1875 -44.40625 C 11.363281 -43.550781 10.390625 -43.125 9.265625 -43.125 C 8.148438 -43.125 7.191406 -43.535156 6.390625 -44.359375 C 5.597656 -45.179688 5.203125 -46.164062 5.203125 -47.3125 Z M 5.203125 -47.3125 "/></g></g></g><g fill="#000000" fill-opacity="1"><g transform="translate(448.369546, 623.999923)"><g><path d="M 11.84375 0 L 5.125 0 L 5.125 -36.15625 L 9.765625 -36.15625 L 11.59375 -29.4375 C 12.664062 -31.300781 14.359375 -33.0625 16.671875 -34.71875 C 18.992188 -36.375 21.382812 -37.390625 23.84375 -37.765625 L 24.640625 -32.234375 C 22.671875 -32.234375 20.441406 -31.617188 17.953125 -30.390625 C 15.472656 -29.171875 13.4375 -27.8125 11.84375 -26.3125 Z M 11.84375 0 "/></g></g></g><g fill="#000000" fill-opacity="1"><g transform="translate(493.805127, 623.999923)"><g><path d="M 47.046875 -37.125 C 53.335938 -37.125 56.484375 -32.347656 56.484375 -22.796875 L 56.484375 0 L 49.765625 0 L 49.765625 -23.4375 C 49.765625 -27.914062 48.910156 -30.632812 47.203125 -31.59375 C 46.347656 -32.070312 45.160156 -32.3125 43.640625 -32.3125 C 42.117188 -32.3125 40.488281 -31.84375 38.75 -30.90625 C 37.019531 -29.976562 35.753906 -28.929688 34.953125 -27.765625 L 34.953125 0 L 28.15625 0 L 28.15625 -23.84375 C 28.15625 -26.664062 27.726562 -28.78125 26.875 -30.1875 C 26.019531 -31.601562 24.765625 -32.3125 23.109375 -32.3125 C 21.460938 -32.3125 19.878906 -31.9375 18.359375 -31.1875 C 16.835938 -30.445312 15.625 -29.703125 14.71875 -28.953125 C 13.8125 -28.210938 13.359375 -27.757812 13.359375 -27.59375 L 13.359375 0 L 6.640625 0 L 6.640625 -25.125 C 6.640625 -28.75 5.28125 -31.65625 2.5625 -33.84375 L 6.640625 -36.875 L 13.046875 -31.046875 C 15.546875 -33.117188 17.726562 -34.648438 19.59375 -35.640625 C 21.46875 -36.628906 23.414062 -37.125 25.4375 -37.125 C 30.082031 -37.125 32.960938 -34.960938 34.078125 -30.640625 C 35.941406 -32.773438 38.070312 -34.390625 40.46875 -35.484375 C 42.875 -36.578125 45.066406 -37.125 47.046875 -37.125 Z M 47.046875 -37.125 "/></g></g></g><g fill="#000000" fill-opacity="1"><g transform="translate(556.039088, 623.999923)"><g><path d="M 22.796875 -8.484375 L 22.796875 -16.71875 C 18.960938 -16.445312 15.816406 -15.59375 13.359375 -14.15625 C 10.910156 -12.71875 9.6875 -11.171875 9.6875 -9.515625 C 9.6875 -7.867188 10.109375 -6.441406 10.953125 -5.234375 C 11.804688 -4.035156 12.898438 -3.195312 14.234375 -2.71875 C 15.992188 -3.039062 17.859375 -3.921875 19.828125 -5.359375 C 21.804688 -6.796875 22.796875 -7.835938 22.796875 -8.484375 Z M 29.359375 -10.640625 C 29.359375 -6.847656 30.742188 -3.96875 33.515625 -2 L 29.359375 1.046875 L 22.875 -4.796875 C 18.664062 -0.960938 14.773438 0.953125 11.203125 0.953125 C 8.859375 0.953125 6.84375 0.207031 5.15625 -1.28125 C 3.476562 -2.769531 2.640625 -4.644531 2.640625 -6.90625 C 2.640625 -9.175781 3.316406 -11.054688 4.671875 -12.546875 C 6.035156 -14.046875 7.835938 -15.195312 10.078125 -16 C 13.921875 -17.4375 18.160156 -18.34375 22.796875 -18.71875 L 22.796875 -26.234375 C 22.796875 -30.660156 20.238281 -32.875 15.125 -32.875 C 12.1875 -32.875 8.71875 -32.234375 4.71875 -30.953125 L 4 -32.953125 C 5.0625 -33.804688 6.910156 -34.710938 9.546875 -35.671875 C 12.191406 -36.640625 14.710938 -37.125 17.109375 -37.125 C 19.515625 -37.125 21.53125 -36.800781 23.15625 -36.15625 C 24.78125 -35.519531 25.976562 -34.800781 26.75 -34 C 27.53125 -33.195312 28.132812 -32.101562 28.5625 -30.71875 C 28.988281 -29.332031 29.226562 -28.238281 29.28125 -27.4375 C 29.332031 -26.632812 29.359375 -25.566406 29.359375 -24.234375 Z M 29.359375 -10.640625 "/></g></g></g><g fill="#000000" fill-opacity="1"><g transform="translate(591.555641, 623.999923)"><g><path d="M 18.234375 0.953125 C 13.597656 0.953125 9.742188 -0.628906 6.671875 -3.796875 C 3.609375 -6.972656 2.078125 -11.46875 2.078125 -17.28125 C 2.078125 -23.09375 3.71875 -27.851562 7 -31.5625 C 10.28125 -35.269531 14.453125 -37.125 19.515625 -37.125 C 22.347656 -37.125 25.523438 -36.429688 29.046875 -35.046875 L 28.234375 -29.765625 C 23.546875 -32.210938 19.519531 -33.4375 16.15625 -33.4375 C 13.382812 -32.050781 11.382812 -29.8125 10.15625 -26.71875 C 8.925781 -23.625 8.3125 -20.582031 8.3125 -17.59375 C 8.3125 -13.539062 9.5 -10.164062 11.875 -7.46875 C 14.25 -4.78125 17.085938 -3.4375 20.390625 -3.4375 C 23.703125 -3.4375 26.742188 -4.15625 29.515625 -5.59375 L 29.515625 -2.796875 C 25.679688 -0.296875 21.921875 0.953125 18.234375 0.953125 Z M 18.234375 0.953125 "/></g></g></g><g fill="#000000" fill-opacity="1"><g transform="translate(624.032483, 623.999923)"><g><path d="M 25.125 -36.953125 C 27.570312 -36.953125 29.753906 -36.046875 31.671875 -34.234375 C 33.597656 -32.421875 34.5625 -29.300781 34.5625 -24.875 L 34.5625 0 L 27.84375 0 L 27.84375 -24.078125 C 27.84375 -26.691406 27.375 -28.648438 26.4375 -29.953125 C 25.507812 -31.265625 23.722656 -31.921875 21.078125 -31.921875 C 18.441406 -31.921875 15.679688 -30.507812 12.796875 -27.6875 L 12.796875 0 L 6.078125 0 L 6.078125 -54.640625 L 12.5625 -54.640625 L 12.5625 -31.046875 C 16.769531 -34.984375 20.957031 -36.953125 25.125 -36.953125 Z M 25.125 -36.953125 "/></g></g></g><g fill="#000000" fill-opacity="1"><g transform="translate(664.268578, 623.999923)"><g><path d="M 8.40625 -19.6875 C 8.40625 -13.925781 9.695312 -9.773438 12.28125 -7.234375 C 14.863281 -4.703125 18.007812 -3.4375 21.71875 -3.4375 C 25.425781 -3.4375 28.851562 -4.15625 32 -5.59375 L 32 -2.796875 C 27.625 -0.296875 23.4375 0.953125 19.4375 0.953125 C 14.269531 0.953125 10.082031 -0.617188 6.875 -3.765625 C 3.675781 -6.910156 2.078125 -11.46875 2.078125 -17.4375 C 2.078125 -23.414062 3.847656 -28.191406 7.390625 -31.765625 C 10.941406 -35.335938 15.222656 -37.125 20.234375 -37.125 C 24.128906 -37.125 27.382812 -35.585938 30 -32.515625 C 32.613281 -29.453125 33.921875 -25.175781 33.921875 -19.6875 Z M 16.15625 -33.359375 C 14.289062 -32.453125 12.691406 -31 11.359375 -29 C 10.023438 -27 9.144531 -24.691406 8.71875 -22.078125 L 27.4375 -22.078125 C 27.28125 -24.316406 26.757812 -26.234375 25.875 -27.828125 C 25 -29.429688 23.945312 -30.609375 22.71875 -31.359375 C 20.53125 -32.691406 18.34375 -33.359375 16.15625 -33.359375 Z M 16.15625 -33.359375 "/></g></g></g><g fill="#000000" fill-opacity="1"><g transform="translate(701.78494, 623.999923)"><g><path d="M 12.953125 -31.046875 C 15.191406 -33.171875 17.148438 -34.710938 18.828125 -35.671875 C 20.515625 -36.640625 22.503906 -37.125 24.796875 -37.125 C 27.085938 -37.125 29.207031 -36.21875 31.15625 -34.40625 C 33.101562 -32.59375 34.078125 -29.472656 34.078125 -25.046875 L 34.078125 0 L 27.28125 0 L 27.28125 -24.234375 C 27.28125 -26.847656 26.8125 -28.804688 25.875 -30.109375 C 24.945312 -31.421875 23.347656 -32.078125 21.078125 -32.078125 C 18.816406 -32.078125 16.191406 -30.582031 13.203125 -27.59375 L 13.203125 0 L 6.40625 0 L 6.40625 -25.125 C 6.40625 -28.75 5.039062 -31.65625 2.3125 -33.84375 L 6.40625 -36.875 Z M 12.953125 -31.046875 "/></g></g></g><g fill="#000000" fill-opacity="1"><g transform="translate(761.779121, 623.999923)"><g><path d="M 42.796875 -39.203125 C 42.796875 -34.078125 40.914062 -30.191406 37.15625 -27.546875 C 33.394531 -24.910156 28.289062 -23.59375 21.84375 -23.59375 L 14.953125 -23.59375 L 14.953125 0 L 7.203125 0 L 7.203125 -52.953125 L 24.40625 -52.953125 C 29.789062 -52.953125 34.203125 -51.722656 37.640625 -49.265625 C 41.078125 -46.816406 42.796875 -43.460938 42.796875 -39.203125 Z M 14.953125 -25.921875 L 22.078125 -25.921875 C 24.585938 -25.921875 26.734375 -26.398438 28.515625 -27.359375 C 30.304688 -28.316406 31.601562 -29.546875 32.40625 -31.046875 C 33.84375 -33.710938 34.5625 -36.296875 34.5625 -38.796875 C 34.5625 -40.023438 34.238281 -41.492188 33.59375 -43.203125 C 32.320312 -46.722656 29.6875 -49.015625 25.6875 -50.078125 C 21.84375 -50.078125 18.265625 -49.625 14.953125 -48.71875 Z M 14.953125 -25.921875 "/></g></g></g><g fill="#000000" fill-opacity="1"><g transform="translate(805.454898, 623.999923)"><g><path d="M 21.4375 -37.125 C 26.132812 -37.125 30.015625 -35.519531 33.078125 -32.3125 C 36.148438 -29.113281 37.6875 -24.71875 37.6875 -19.125 C 37.6875 -15.550781 37.070312 -12.398438 35.84375 -9.671875 C 34.613281 -6.953125 33.015625 -4.847656 31.046875 -3.359375 C 27.253906 -0.484375 23.023438 0.953125 18.359375 0.953125 C 13.691406 0.953125 9.820312 -0.644531 6.75 -3.84375 C 3.6875 -7.039062 2.15625 -11.441406 2.15625 -17.046875 C 2.15625 -20.617188 2.753906 -23.765625 3.953125 -26.484375 C 5.160156 -29.203125 6.75 -31.304688 8.71875 -32.796875 C 12.507812 -35.679688 16.75 -37.125 21.4375 -37.125 Z M 19.84375 -1.765625 C 22.1875 -1.765625 24.1875 -2.671875 25.84375 -4.484375 C 28.820312 -7.679688 30.3125 -11.929688 30.3125 -17.234375 C 30.3125 -22.546875 29.40625 -26.679688 27.59375 -29.640625 C 25.78125 -32.597656 22.820312 -34.078125 18.71875 -34.078125 C 15.675781 -32.898438 13.367188 -30.832031 11.796875 -27.875 C 10.222656 -24.914062 9.4375 -21.34375 9.4375 -17.15625 C 9.4375 -12.96875 10.289062 -9.351562 12 -6.3125 C 13.707031 -3.28125 16.320312 -1.765625 19.84375 -1.765625 Z M 19.84375 -1.765625 "/></g></g></g><g fill="#000000" fill-opacity="1"><g transform="translate(845.450988, 623.999923)"><g><path d="M 8.40625 -19.6875 C 8.40625 -13.925781 9.695312 -9.773438 12.28125 -7.234375 C 14.863281 -4.703125 18.007812 -3.4375 21.71875 -3.4375 C 25.425781 -3.4375 28.851562 -4.15625 32 -5.59375 L 32 -2.796875 C 27.625 -0.296875 23.4375 0.953125 19.4375 0.953125 C 14.269531 0.953125 10.082031 -0.617188 6.875 -3.765625 C 3.675781 -6.910156 2.078125 -11.46875 2.078125 -17.4375 C 2.078125 -23.414062 3.847656 -28.191406 7.390625 -31.765625 C 10.941406 -35.335938 15.222656 -37.125 20.234375 -37.125 C 24.128906 -37.125 27.382812 -35.585938 30 -32.515625 C 32.613281 -29.453125 33.921875 -25.175781 33.921875 -19.6875 Z M 16.15625 -33.359375 C 14.289062 -32.453125 12.691406 -31 11.359375 -29 C 10.023438 -27 9.144531 -24.691406 8.71875 -22.078125 L 27.4375 -22.078125 C 27.28125 -24.316406 26.757812 -26.234375 25.875 -27.828125 C 25 -29.429688 23.945312 -30.609375 22.71875 -31.359375 C 20.53125 -32.691406 18.34375 -33.359375 16.15625 -33.359375 Z M 16.15625 -33.359375 "/></g></g></g><g fill="#000000" fill-opacity="1"><g transform="translate(882.967327, 623.999923)"><g><path d="M 14 -7.046875 C 14 -5.441406 14.316406 -4.238281 14.953125 -3.4375 C 15.597656 -2.632812 16.664062 -2.234375 18.15625 -2.234375 C 19.65625 -2.234375 21.441406 -2.632812 23.515625 -3.4375 L 23.515625 -1.203125 C 20.421875 0.234375 17.644531 0.953125 15.1875 0.953125 C 12.738281 0.953125 10.804688 0.273438 9.390625 -1.078125 C 7.984375 -2.441406 7.28125 -4.5625 7.28125 -7.4375 L 7.28125 -33.28125 L 0.796875 -34.5625 L 0.796875 -36.15625 L 7.28125 -36.15625 L 7.28125 -39.046875 L 14 -43.921875 L 14 -36.15625 L 23.515625 -36.15625 L 23.515625 -33.28125 L 14 -33.28125 Z M 14 -7.046875 "/></g></g></g><g fill="#000000" fill-opacity="1"><g transform="translate(909.284754, 623.999923)"><g><path d="M 11.84375 0 L 5.125 0 L 5.125 -36.15625 L 9.765625 -36.15625 L 11.59375 -29.4375 C 12.664062 -31.300781 14.359375 -33.0625 16.671875 -34.71875 C 18.992188 -36.375 21.382812 -37.390625 23.84375 -37.765625 L 24.640625 -32.234375 C 22.671875 -32.234375 20.441406 -31.617188 17.953125 -30.390625 C 15.472656 -29.171875 13.4375 -27.8125 11.84375 -26.3125 Z M 11.84375 0 "/></g></g></g><g fill="#000000" fill-opacity="1"><g transform="translate(934.722267, 623.999923)"><g><path d="M 30.5625 -36.15625 L 33.59375 -36.15625 L 19.921875 1.203125 C 18.160156 6.109375 15.519531 10.050781 12 13.03125 C 8.476562 16.019531 4.613281 17.539062 0.40625 17.59375 L 1.203125 13.59375 C 8.398438 13.332031 14 8.664062 18 -0.40625 L 1.765625 -36.15625 L 8.875 -36.15625 L 21.125 -9.046875 Z M 30.5625 -36.15625 "/></g></g></g><g fill="#000000" fill-opacity="1"><g transform="translate(989.996905, 623.999923)"><g><path d="M 12.953125 -43.765625 C 12.953125 -41.410156 13.875 -39.234375 15.71875 -37.234375 C 17.5625 -35.234375 19.800781 -33.472656 22.4375 -31.953125 C 25.082031 -30.441406 27.707031 -28.894531 30.3125 -27.3125 C 32.925781 -25.738281 35.15625 -23.804688 37 -21.515625 C 38.84375 -19.222656 39.765625 -16.691406 39.765625 -13.921875 C 39.765625 -9.546875 38.148438 -5.972656 34.921875 -3.203125 C 31.691406 -0.429688 27.328125 0.953125 21.828125 0.953125 C 16.335938 0.953125 10.898438 -0.0820312 5.515625 -2.15625 L 5.515625 -5.921875 C 10.960938 -3.203125 15.59375 -1.84375 19.40625 -1.84375 C 23.21875 -1.84375 26.1875 -2.773438 28.3125 -4.640625 C 30.445312 -6.503906 31.515625 -9.09375 31.515625 -12.40625 C 31.515625 -14.644531 30.632812 -16.679688 28.875 -18.515625 C 27.113281 -20.359375 24.976562 -21.957031 22.46875 -23.3125 C 19.96875 -24.675781 17.460938 -26.078125 14.953125 -27.515625 C 12.453125 -28.960938 10.320312 -30.789062 8.5625 -33 C 6.800781 -35.207031 5.921875 -37.882812 5.921875 -41.03125 C 5.921875 -44.1875 7.316406 -47.125 10.109375 -49.84375 C 12.910156 -52.5625 17.085938 -53.921875 22.640625 -53.921875 C 26.265625 -53.921875 30.851562 -53.09375 36.40625 -51.4375 L 35.59375 -46 C 28.394531 -49.09375 22.238281 -50.640625 17.125 -50.640625 C 14.34375 -49.304688 12.953125 -47.015625 12.953125 -43.765625 Z M 12.953125 -43.765625 "/></g></g></g><g fill="#000000" fill-opacity="1"><g transform="translate(1034.472578, 623.999923)"><g><path d="M 12.71875 -54.640625 L 12.71875 0 L 6 0 L 6 -54.640625 Z M 12.71875 -54.640625 "/></g></g></g><g fill="#000000" fill-opacity="1"><g transform="translate(1053.190762, 623.999923)"><g><path d="M 22.796875 -8.484375 L 22.796875 -16.71875 C 18.960938 -16.445312 15.816406 -15.59375 13.359375 -14.15625 C 10.910156 -12.71875 9.6875 -11.171875 9.6875 -9.515625 C 9.6875 -7.867188 10.109375 -6.441406 10.953125 -5.234375 C 11.804688 -4.035156 12.898438 -3.195312 14.234375 -2.71875 C 15.992188 -3.039062 17.859375 -3.921875 19.828125 -5.359375 C 21.804688 -6.796875 22.796875 -7.835938 22.796875 -8.484375 Z M 29.359375 -10.640625 C 29.359375 -6.847656 30.742188 -3.96875 33.515625 -2 L 29.359375 1.046875 L 22.875 -4.796875 C 18.664062 -0.960938 14.773438 0.953125 11.203125 0.953125 C 8.859375 0.953125 6.84375 0.207031 5.15625 -1.28125 C 3.476562 -2.769531 2.640625 -4.644531 2.640625 -6.90625 C 2.640625 -9.175781 3.316406 -11.054688 4.671875 -12.546875 C 6.035156 -14.046875 7.835938 -15.195312 10.078125 -16 C 13.921875 -17.4375 18.160156 -18.34375 22.796875 -18.71875 L 22.796875 -26.234375 C 22.796875 -30.660156 20.238281 -32.875 15.125 -32.875 C 12.1875 -32.875 8.71875 -32.234375 4.71875 -30.953125 L 4 -32.953125 C 5.0625 -33.804688 6.910156 -34.710938 9.546875 -35.671875 C 12.191406 -36.640625 14.710938 -37.125 17.109375 -37.125 C 19.515625 -37.125 21.53125 -36.800781 23.15625 -36.15625 C 24.78125 -35.519531 25.976562 -34.800781 26.75 -34 C 27.53125 -33.195312 28.132812 -32.101562 28.5625 -30.71875 C 28.988281 -29.332031 29.226562 -28.238281 29.28125 -27.4375 C 29.332031 -26.632812 29.359375 -25.566406 29.359375 -24.234375 Z M 29.359375 -10.640625 "/></g></g></g><g fill="#000000" fill-opacity="1"><g transform="translate(1088.707315, 623.999923)"><g><path d="M 47.046875 -37.125 C 53.335938 -37.125 56.484375 -32.347656 56.484375 -22.796875 L 56.484375 0 L 49.765625 0 L 49.765625 -23.4375 C 49.765625 -27.914062 48.910156 -30.632812 47.203125 -31.59375 C 46.347656 -32.070312 45.160156 -32.3125 43.640625 -32.3125 C 42.117188 -32.3125 40.488281 -31.84375 38.75 -30.90625 C 37.019531 -29.976562 35.753906 -28.929688 34.953125 -27.765625 L 34.953125 0 L 28.15625 0 L 28.15625 -23.84375 C 28.15625 -26.664062 27.726562 -28.78125 26.875 -30.1875 C 26.019531 -31.601562 24.765625 -32.3125 23.109375 -32.3125 C 21.460938 -32.3125 19.878906 -31.9375 18.359375 -31.1875 C 16.835938 -30.445312 15.625 -29.703125 14.71875 -28.953125 C 13.8125 -28.210938 13.359375 -27.757812 13.359375 -27.59375 L 13.359375 0 L 6.640625 0 L 6.640625 -25.125 C 6.640625 -28.75 5.28125 -31.65625 2.5625 -33.84375 L 6.640625 -36.875 L 13.046875 -31.046875 C 15.546875 -33.117188 17.726562 -34.648438 19.59375 -35.640625 C 21.46875 -36.628906 23.414062 -37.125 25.4375 -37.125 C 30.082031 -37.125 32.960938 -34.960938 34.078125 -30.640625 C 35.941406 -32.773438 38.070312 -34.390625 40.46875 -35.484375 C 42.875 -36.578125 45.066406 -37.125 47.046875 -37.125 Z M 47.046875 -37.125 "/></g></g></g><g fill="#000000" fill-opacity="1"><g transform="translate(1170.939333, 623.999923)"><g><path d="M 6 0 L 6 -36.15625 L 12.640625 -36.15625 L 12.640625 0 Z M 5.203125 -47.3125 C 5.203125 -48.46875 5.585938 -49.441406 6.359375 -50.234375 C 7.128906 -51.035156 8.085938 -51.4375 9.234375 -51.4375 C 10.378906 -51.4375 11.363281 -51.035156 12.1875 -50.234375 C 13.019531 -49.441406 13.4375 -48.484375 13.4375 -47.359375 C 13.4375 -46.242188 13.019531 -45.257812 12.1875 -44.40625 C 11.363281 -43.550781 10.390625 -43.125 9.265625 -43.125 C 8.148438 -43.125 7.191406 -43.535156 6.390625 -44.359375 C 5.597656 -45.179688 5.203125 -46.164062 5.203125 -47.3125 Z M 5.203125 -47.3125 "/></g></g></g><g fill="#000000" fill-opacity="1"><g transform="translate(1189.577545, 623.999923)"><g><path d="M 12.953125 -31.046875 C 15.191406 -33.171875 17.148438 -34.710938 18.828125 -35.671875 C 20.515625 -36.640625 22.503906 -37.125 24.796875 -37.125 C 27.085938 -37.125 29.207031 -36.21875 31.15625 -34.40625 C 33.101562 -32.59375 34.078125 -29.472656 34.078125 -25.046875 L 34.078125 0 L 27.28125 0 L 27.28125 -24.234375 C 27.28125 -26.847656 26.8125 -28.804688 25.875 -30.109375 C 24.945312 -31.421875 23.347656 -32.078125 21.078125 -32.078125 C 18.816406 -32.078125 16.191406 -30.582031 13.203125 -27.59375 L 13.203125 0 L 6.40625 0 L 6.40625 -25.125 C 6.40625 -28.75 5.039062 -31.65625 2.3125 -33.84375 L 6.40625 -36.875 Z M 12.953125 -31.046875 "/></g></g></g><g fill="#000000" fill-opacity="1"><g transform="translate(1249.571681, 623.999923)"><g><path d="M 7.203125 0 L 7.203125 -52.953125 L 15.046875 -52.953125 L 15.046875 -4.3125 C 18.296875 -3.351562 20.90625 -2.875 22.875 -2.875 L 37.359375 -5.359375 L 36.40625 0 Z M 7.203125 0 "/></g></g></g><g fill="#000000" fill-opacity="1"><g transform="translate(1288.527914, 623.999923)"><g><path d="M 22.796875 -8.484375 L 22.796875 -16.71875 C 18.960938 -16.445312 15.816406 -15.59375 13.359375 -14.15625 C 10.910156 -12.71875 9.6875 -11.171875 9.6875 -9.515625 C 9.6875 -7.867188 10.109375 -6.441406 10.953125 -5.234375 C 11.804688 -4.035156 12.898438 -3.195312 14.234375 -2.71875 C 15.992188 -3.039062 17.859375 -3.921875 19.828125 -5.359375 C 21.804688 -6.796875 22.796875 -7.835938 22.796875 -8.484375 Z M 29.359375 -10.640625 C 29.359375 -6.847656 30.742188 -3.96875 33.515625 -2 L 29.359375 1.046875 L 22.875 -4.796875 C 18.664062 -0.960938 14.773438 0.953125 11.203125 0.953125 C 8.859375 0.953125 6.84375 0.207031 5.15625 -1.28125 C 3.476562 -2.769531 2.640625 -4.644531 2.640625 -6.90625 C 2.640625 -9.175781 3.316406 -11.054688 4.671875 -12.546875 C 6.035156 -14.046875 7.835938 -15.195312 10.078125 -16 C 13.921875 -17.4375 18.160156 -18.34375 22.796875 -18.71875 L 22.796875 -26.234375 C 22.796875 -30.660156 20.238281 -32.875 15.125 -32.875 C 12.1875 -32.875 8.71875 -32.234375 4.71875 -30.953125 L 4 -32.953125 C 5.0625 -33.804688 6.910156 -34.710938 9.546875 -35.671875 C 12.191406 -36.640625 14.710938 -37.125 17.109375 -37.125 C 19.515625 -37.125 21.53125 -36.800781 23.15625 -36.15625 C 24.78125 -35.519531 25.976562 -34.800781 26.75 -34 C 27.53125 -33.195312 28.132812 -32.101562 28.5625 -30.71875 C 28.988281 -29.332031 29.226562 -28.238281 29.28125 -27.4375 C 29.332031 -26.632812 29.359375 -25.566406 29.359375 -24.234375 Z M 29.359375 -10.640625 "/></g></g></g><g fill="#000000" fill-opacity="1"><g transform="translate(1324.044421, 623.999923)"><g><path d="M 12.953125 -31.046875 C 15.191406 -33.171875 17.148438 -34.710938 18.828125 -35.671875 C 20.515625 -36.640625 22.503906 -37.125 24.796875 -37.125 C 27.085938 -37.125 29.207031 -36.21875 31.15625 -34.40625 C 33.101562 -32.59375 34.078125 -29.472656 34.078125 -25.046875 L 34.078125 0 L 27.28125 0 L 27.28125 -24.234375 C 27.28125 -26.847656 26.8125 -28.804688 25.875 -30.109375 C 24.945312 -31.421875 23.347656 -32.078125 21.078125 -32.078125 C 18.816406 -32.078125 16.191406 -30.582031 13.203125 -27.59375 L 13.203125 0 L 6.40625 0 L 6.40625 -25.125 C 6.40625 -28.75 5.039062 -31.65625 2.3125 -33.84375 L 6.40625 -36.875 Z M 12.953125 -31.046875 "/></g></g></g><g fill="#000000" fill-opacity="1"><g transform="translate(1364.040512, 623.999923)"><g><path d="M 33.921875 -10.71875 C 33.921875 -7.039062 35.28125 -4.109375 38 -1.921875 L 33.921875 1.046875 L 27.359375 -4.796875 C 25.222656 -2.773438 23.300781 -1.3125 21.59375 -0.40625 C 19.894531 0.5 18.132812 0.953125 16.3125 0.953125 C 14.5 0.953125 12.898438 0.6875 11.515625 0.15625 C 10.128906 -0.375 8.675781 -1.265625 7.15625 -2.515625 C 5.632812 -3.773438 4.40625 -5.75 3.46875 -8.4375 C 2.539062 -11.132812 2.078125 -14.613281 2.078125 -18.875 C 2.078125 -23.144531 3.34375 -27.238281 5.875 -31.15625 C 8.414062 -35.082031 11.894531 -37.046875 16.3125 -37.046875 C 19.625 -37.046875 23.226562 -35.816406 27.125 -33.359375 L 27.125 -54.640625 L 33.921875 -54.640625 Z M 27.125 -8.078125 L 27.125 -30.40625 C 24.289062 -32.269531 21.703125 -33.203125 19.359375 -33.203125 C 16.265625 -33.203125 13.785156 -31.75 11.921875 -28.84375 C 10.054688 -25.9375 9.125 -22.296875 9.125 -17.921875 C 9.125 -13.546875 9.800781 -10.035156 11.15625 -7.390625 C 12.519531 -4.753906 14.210938 -3.171875 16.234375 -2.640625 C 18.109375 -2.796875 19.9375 -3.25 21.71875 -4 C 23.507812 -4.75 24.859375 -5.507812 25.765625 -6.28125 C 26.671875 -7.050781 27.125 -7.648438 27.125 -8.078125 Z M 27.125 -8.078125 "/></g></g></g><g fill="#000000" fill-opacity="1"><g transform="translate(1404.036602, 623.999923)"><g><path d="M 13.515625 -33.765625 C 12.128906 -33.765625 10.992188 -33.242188 10.109375 -32.203125 C 9.234375 -31.160156 8.796875 -29.984375 8.796875 -28.671875 C 8.796875 -27.367188 9.421875 -26.117188 10.671875 -24.921875 C 11.929688 -23.722656 13.453125 -22.65625 15.234375 -21.71875 C 17.023438 -20.78125 18.800781 -19.804688 20.5625 -18.796875 C 22.320312 -17.785156 23.828125 -16.476562 25.078125 -14.875 C 26.328125 -13.28125 26.953125 -11.492188 26.953125 -9.515625 C 26.953125 -6.535156 25.753906 -4.046875 23.359375 -2.046875 C 20.960938 -0.046875 17.695312 0.953125 13.5625 0.953125 C 9.425781 0.953125 5.648438 -0.00390625 2.234375 -1.921875 L 2.234375 -4.953125 C 5.867188 -3.140625 9.148438 -2.234375 12.078125 -2.234375 C 15.015625 -2.234375 17.148438 -2.820312 18.484375 -4 C 19.816406 -5.175781 20.484375 -6.519531 20.484375 -8.03125 C 20.484375 -9.550781 19.878906 -10.910156 18.671875 -12.109375 C 17.472656 -13.316406 16.007812 -14.375 14.28125 -15.28125 C 12.550781 -16.1875 10.832031 -17.144531 9.125 -18.15625 C 7.414062 -19.175781 5.957031 -20.484375 4.75 -22.078125 C 3.550781 -23.679688 2.953125 -25.613281 2.953125 -27.875 C 2.953125 -30.144531 3.875 -32.253906 5.71875 -34.203125 C 7.5625 -36.148438 10.398438 -37.125 14.234375 -37.125 C 18.078125 -37.125 21.757812 -36.429688 25.28125 -35.046875 L 24.484375 -29.765625 C 20.535156 -31.890625 16.878906 -33.222656 13.515625 -33.765625 Z M 13.515625 -33.765625 "/></g></g></g><g fill="#000000" fill-opacity="1"><g transform="translate(1433.793709, 623.999923)"><g><path d="M 25.125 -36.953125 C 27.570312 -36.953125 29.753906 -36.046875 31.671875 -34.234375 C 33.597656 -32.421875 34.5625 -29.300781 34.5625 -24.875 L 34.5625 0 L 27.84375 0 L 27.84375 -24.078125 C 27.84375 -26.691406 27.375 -28.648438 26.4375 -29.953125 C 25.507812 -31.265625 23.722656 -31.921875 21.078125 -31.921875 C 18.441406 -31.921875 15.679688 -30.507812 12.796875 -27.6875 L 12.796875 0 L 6.078125 0 L 6.078125 -54.640625 L 12.5625 -54.640625 L 12.5625 -31.046875 C 16.769531 -34.984375 20.957031 -36.953125 25.125 -36.953125 Z M 25.125 -36.953125 "/></g></g></g><g fill="#000000" fill-opacity="1"><g transform="translate(1474.029759, 623.999923)"><g><path d="M 31.765625 -10.71875 C 31.765625 -7.039062 33.148438 -4.132812 35.921875 -2 L 31.765625 0.953125 L 25.28125 -4.875 C 23.09375 -2.800781 21.144531 -1.3125 19.4375 -0.40625 C 17.726562 0.5 15.710938 0.953125 13.390625 0.953125 C 11.078125 0.953125 8.945312 0.0625 7 -1.71875 C 5.050781 -3.507812 4.078125 -6.585938 4.078125 -10.953125 L 4.078125 -36.15625 L 10.875 -36.15625 L 10.875 -10.5625 C 10.875 -8 11.34375 -6.0625 12.28125 -4.75 C 13.21875 -3.445312 14.84375 -2.796875 17.15625 -2.796875 C 19.476562 -2.796875 22.078125 -4.503906 24.953125 -7.921875 L 24.953125 -36.15625 L 31.765625 -36.15625 Z M 31.765625 -10.71875 "/></g></g></g><g fill="#000000" fill-opacity="1"><g transform="translate(1512.426056, 623.999923)"><g><path d="M 14 -7.046875 C 14 -5.441406 14.316406 -4.238281 14.953125 -3.4375 C 15.597656 -2.632812 16.664062 -2.234375 18.15625 -2.234375 C 19.65625 -2.234375 21.441406 -2.632812 23.515625 -3.4375 L 23.515625 -1.203125 C 20.421875 0.234375 17.644531 0.953125 15.1875 0.953125 C 12.738281 0.953125 10.804688 0.273438 9.390625 -1.078125 C 7.984375 -2.441406 7.28125 -4.5625 7.28125 -7.4375 L 7.28125 -33.28125 L 0.796875 -34.5625 L 0.796875 -36.15625 L 7.28125 -36.15625 L 7.28125 -39.046875 L 14 -43.921875 L 14 -36.15625 L 23.515625 -36.15625 L 23.515625 -33.28125 L 14 -33.28125 Z M 14 -7.046875 "/></g></g></g><g fill="#000000" fill-opacity="1"><g transform="translate(1538.743528, 623.999923)"><g><path d="M 6.875 -0.40625 C 6.019531 -1.257812 5.59375 -2.296875 5.59375 -3.515625 C 5.59375 -4.742188 6.019531 -5.796875 6.875 -6.671875 C 7.726562 -7.554688 8.769531 -8 10 -8 C 11.226562 -8 12.28125 -7.554688 13.15625 -6.671875 C 14.039062 -5.796875 14.484375 -4.742188 14.484375 -3.515625 C 14.484375 -2.296875 14.039062 -1.257812 13.15625 -0.40625 C 12.28125 0.445312 11.226562 0.875 10 0.875 C 8.769531 0.875 7.726562 0.445312 6.875 -0.40625 Z M 6.875 -0.40625 "/></g></g></g><g clip-path="url(#d718f06053)"><path fill="#336666" d="M 1651.042969 673.097656 L 1647.15625 633.96875 C 1646.914062 632.117188 1641.160156 588.507812 1640.808594 586.394531 L 1640.46875 584.429688 C 1639.367188 577.96875 1635.988281 558.308594 1634.46875 547.347656 C 1633.632812 541.351562 1631.503906 532.515625 1629.457031 524.75 L 1628.960938 518.320312 L 1627.550781 506.117188 L 1623.753906 506.117188 L 1622.066406 502.820312 L 1620.96875 491.09375 L 1618.613281 478.421875 L 1634.601562 492.503906 L 1649.644531 507.058594 C 1649.644531 507.058594 1659.988281 514.570312 1658.117188 502.363281 L 1625.671875 468.09375 L 1617.199219 458.707031 L 1609.214844 451.195312 L 1596.515625 442.742188 L 1578.738281 424.601562 C 1575.113281 418.398438 1569.855469 409.363281 1569.226562 408.113281 C 1565.507812 400.832031 1557.957031 385.277344 1549.039062 362.894531 C 1539.335938 338.503906 1528.617188 328.160156 1525.949219 325.851562 L 1525.511719 323.980469 L 1518.925781 324.449219 L 1494.007812 337.125 L 1484.605469 339.945312 L 1472.613281 346.871094 C 1472.441406 347.394531 1470.316406 352.148438 1470.316406 353.203125 C 1470.316406 354.253906 1471.199219 360.59375 1471.375 361.476562 C 1471.554688 362.359375 1473.316406 366.230469 1474.023438 366.40625 C 1474.730469 366.578125 1478.964844 367.464844 1480.015625 367.640625 C 1481.070312 367.8125 1483.191406 367.464844 1485.480469 366.582031 C 1487.773438 365.699219 1491.125 364.296875 1491.832031 363.414062 C 1492.539062 362.527344 1495.53125 361.300781 1495.882812 359.363281 C 1496.234375 357.429688 1497.648438 357.957031 1498 357.429688 C 1498.351562 356.90625 1505.226562 363.234375 1505.582031 363.761719 C 1505.925781 364.292969 1508.042969 364.464844 1508.042969 364.464844 L 1541.195312 395.796875 L 1557.59375 411.113281 L 1559.53125 413.578125 L 1555.65625 414.636719 C 1555.65625 414.636719 1556.710938 421.503906 1557.0625 422.03125 C 1557.417969 422.554688 1559.707031 425.023438 1560.417969 424.664062 C 1561.121094 424.316406 1563.058594 422.03125 1563.417969 421.5 C 1563.773438 420.964844 1566.414062 421.671875 1566.414062 421.671875 L 1586.691406 442.445312 L 1589.441406 445.207031 L 1616.835938 498.730469 L 1617.195312 508.449219 L 1617.671875 523.945312 L 1620.726562 562.203125 L 1623.546875 562.441406 L 1634.128906 747.402344 L 1646.351562 750.214844 L 1632.246094 560.570312 L 1630.890625 543.136719 C 1631.203125 544.792969 1631.480469 546.351562 1631.671875 547.734375 C 1633.199219 558.738281 1636.578125 578.425781 1637.6875 584.898438 L 1638.027344 586.847656 C 1638.363281 588.90625 1644.304688 633.878906 1644.363281 634.28125 L 1648.238281 673.382812 L 1657.410156 755.765625 L 1660.21875 755.457031 Z M 1554.191406 399.558594 L 1515.636719 360.125 L 1515.636719 357.773438 L 1512.347656 351.671875 L 1509.523438 345.566406 L 1521.28125 334.300781 L 1526.523438 330.371094 C 1530.773438 334.875 1538.941406 345.15625 1546.410156 363.925781 C 1555.371094 386.425781 1562.972656 402.0625 1566.921875 409.800781 C 1567.179688 410.324219 1568.765625 413.074219 1570.683594 416.378906 Z M 1607.144531 463.054688 L 1611.554688 468.800781 L 1615.632812 490.261719 L 1595.925781 451.753906 Z M 1607.144531 463.054688 " fill-opacity="1" fill-rule="nonzero"/></g></svg>