<svg xmlns="http://www.w3.org/2000/svg" xmlns:xlink="http://www.w3.org/1999/xlink" width="2560" zoomAndPan="magnify" viewBox="0 0 1920 1079.999946" height="1440" preserveAspectRatio="xMidYMid meet" version="1.0"><defs><g/><clipPath id="3becc4c770"><path d="M 1155.066406 568 L 1327 568 L 1327 639.976562 L 1155.066406 639.976562 Z M 1155.066406 568 " clip-rule="nonzero"/></clipPath><clipPath id="3746d1c418"><path d="M 1224 468.226562 L 1313 468.226562 L 1313 583 L 1224 583 Z M 1224 468.226562 " clip-rule="nonzero"/></clipPath></defs><rect x="-192" width="2304" fill="#ffffff" y="-107.999995" height="1295.999935" fill-opacity="1"/><rect x="-192" width="2304" fill="#97b0b0" y="-107.999995" height="1295.999935" fill-opacity="1"/><g clip-path="url(#3becc4c770)"><path fill="#336666" d="M 1319.710938 622.308594 L 1277.621094 616.125 C 1286.898438 614.628906 1300.59375 614.382812 1320.835938 617.136719 C 1321.734375 617.261719 1322.636719 616.949219 1323.269531 616.296875 C 1323.898438 615.648438 1324.183594 614.738281 1324.035156 613.84375 C 1323.910156 613.109375 1320.894531 595.699219 1308.972656 583.78125 C 1308.5 583.308594 1307.875 583.015625 1307.203125 582.960938 C 1305.546875 582.816406 1268.316406 579.78125 1249.394531 593.507812 C 1260.199219 576.558594 1283.871094 573.550781 1303.984375 574.390625 C 1304.742188 574.429688 1305.484375 574.164062 1306.046875 573.652344 C 1306.605469 573.136719 1306.933594 572.421875 1306.957031 571.660156 C 1306.988281 570.90625 1306.71875 570.167969 1306.207031 569.609375 C 1305.691406 569.054688 1304.980469 568.722656 1304.222656 568.691406 C 1278.617188 567.625 1250.980469 572.96875 1241.339844 596.707031 C 1231.691406 572.945312 1204.015625 567.632812 1178.453125 568.691406 C 1176.878906 568.757812 1175.65625 570.085938 1175.722656 571.660156 C 1175.789062 573.238281 1177.117188 574.460938 1178.695312 574.394531 C 1198.863281 573.5625 1222.484375 576.570312 1233.28125 593.515625 C 1214.359375 579.78125 1177.128906 582.8125 1175.472656 582.949219 C 1174.804688 583.003906 1174.175781 583.296875 1173.703125 583.769531 C 1161.78125 595.699219 1158.765625 613.109375 1158.644531 613.84375 C 1158.492188 614.738281 1158.777344 615.648438 1159.410156 616.296875 C 1160.042969 616.949219 1160.941406 617.261719 1161.839844 617.136719 C 1182.097656 614.378906 1195.804688 614.628906 1205.078125 616.125 L 1162.964844 622.308594 C 1158.34375 622.980469 1155.144531 627.265625 1155.8125 631.882812 C 1156.480469 636.503906 1160.769531 639.703125 1165.390625 639.035156 L 1214.390625 632.039062 C 1214.710938 631.992188 1215.03125 632.085938 1215.273438 632.296875 C 1215.519531 632.507812 1215.660156 632.808594 1215.660156 633.132812 C 1215.660156 636.898438 1218.710938 639.960938 1222.480469 639.976562 L 1260.195312 639.976562 C 1263.960938 639.96875 1267.011719 636.921875 1267.015625 633.160156 C 1267.015625 632.832031 1267.160156 632.519531 1267.410156 632.304688 C 1267.980469 631.78125 1265.074219 631.582031 1317.285156 639.035156 C 1321.90625 639.707031 1326.195312 636.503906 1326.867188 631.886719 C 1327.535156 627.269531 1324.332031 622.980469 1319.710938 622.3125 Z M 1165.164062 610.960938 C 1167.300781 602.667969 1171.355469 594.996094 1177.007812 588.566406 C 1198.800781 587.191406 1236.167969 589.992188 1238.371094 612.066406 C 1238.375 612.933594 1238.417969 613.800781 1238.507812 614.667969 C 1238.527344 614.742188 1238.550781 614.816406 1238.582031 614.886719 C 1238.707031 615.453125 1238.988281 615.96875 1239.398438 616.378906 C 1239.675781 616.597656 1239.972656 616.789062 1240.285156 616.949219 C 1240.414062 616.992188 1240.542969 617.019531 1240.679688 617.039062 C 1240.992188 617.1875 1241.347656 617.222656 1241.683594 617.136719 C 1241.777344 617.136719 1241.851562 617.070312 1241.941406 617.054688 C 1242.3125 617.019531 1242.660156 616.871094 1242.9375 616.625 C 1244.363281 615.644531 1244.285156 614 1244.304688 612.0625 C 1246.507812 590 1283.84375 587.183594 1305.667969 588.5625 C 1311.3125 595 1315.367188 602.667969 1317.507812 610.957031 C 1274.078125 605.671875 1259.773438 614.414062 1255.0625 620.480469 C 1254.328125 621.214844 1253.660156 622.015625 1253.066406 622.867188 L 1229.613281 622.867188 C 1229.019531 622.011719 1228.351562 621.214844 1227.617188 620.476562 C 1222.898438 614.410156 1208.578125 605.675781 1165.164062 610.960938 Z M 1320.28125 632.746094 C 1319.679688 633.265625 1318.882812 633.5 1318.097656 633.386719 L 1269.09375 626.394531 C 1267.136719 626.125 1265.15625 626.710938 1263.664062 628.007812 C 1262.171875 629.304688 1261.3125 631.183594 1261.308594 633.160156 C 1261.308594 633.773438 1260.808594 634.269531 1260.195312 634.273438 L 1222.480469 634.273438 C 1222.179688 634.269531 1221.894531 634.148438 1221.6875 633.933594 C 1221.480469 633.71875 1221.363281 633.429688 1221.367188 633.132812 C 1221.367188 631.15625 1220.507812 629.277344 1219.015625 627.984375 C 1217.519531 626.6875 1215.539062 626.105469 1213.582031 626.382812 L 1164.59375 633.386719 C 1163.8125 633.503906 1163.015625 633.269531 1162.421875 632.746094 C 1161.613281 632.046875 1161.28125 630.9375 1161.582031 629.90625 C 1161.878906 628.875 1162.746094 628.113281 1163.808594 627.949219 L 1212.785156 620.757812 C 1216.378906 620.246094 1220.019531 621.3125 1222.769531 623.683594 C 1223.433594 624.382812 1223.941406 625.214844 1224.261719 626.125 C 1224.464844 627.519531 1225.660156 628.5625 1227.074219 628.570312 L 1255.601562 628.570312 C 1256.972656 628.527344 1258.132812 627.550781 1258.410156 626.210938 C 1258.738281 625.25 1259.277344 624.371094 1259.988281 623.644531 C 1262.722656 621.320312 1266.324219 620.269531 1269.882812 620.761719 L 1318.882812 627.949219 C 1319.9375 628.117188 1320.804688 628.875 1321.105469 629.90625 C 1321.402344 630.933594 1321.082031 632.039062 1320.277344 632.746094 Z M 1320.28125 632.746094 " fill-opacity="1" fill-rule="nonzero"/></g><g clip-path="url(#3746d1c418)"><path fill="#336666" d="M 1238.488281 580.097656 C 1238.488281 581.671875 1239.761719 582.949219 1241.339844 582.949219 C 1242.914062 582.949219 1244.191406 581.671875 1244.191406 580.097656 C 1244.191406 579.949219 1244.214844 576.179688 1244.722656 570.1875 C 1254.753906 564.183594 1262.511719 555.027344 1266.785156 544.152344 C 1275.628906 523.539062 1266.84375 519.117188 1285.546875 508.433594 C 1300.132812 500.109375 1314.328125 485.316406 1311.84375 475.945312 C 1310.988281 472.730469 1307.960938 468.894531 1298.398438 468.894531 C 1298.070312 468.894531 1297.640625 468.894531 1297.121094 468.871094 C 1269.582031 468.226562 1248.136719 478.226562 1233.324219 498.582031 C 1210.328125 530.199219 1236.847656 567.410156 1238.941406 570.25 C 1238.511719 575.855469 1238.488281 579.527344 1238.488281 580.097656 Z M 1237.941406 501.933594 C 1251.171875 483.753906 1270.253906 474.542969 1294.6875 474.542969 C 1298.113281 474.542969 1305.484375 474.222656 1306.328125 477.410156 C 1307.644531 482.363281 1297.40625 495.089844 1282.71875 503.484375 C 1261.433594 515.640625 1269.855469 522.527344 1261.542969 541.90625 C 1258.160156 550.203125 1252.617188 557.449219 1245.488281 562.882812 C 1247.898438 543.335938 1254.816406 511.824219 1274.644531 493.816406 C 1275.398438 493.128906 1275.730469 492.09375 1275.511719 491.097656 C 1275.296875 490.101562 1274.5625 489.296875 1273.59375 488.988281 C 1272.621094 488.675781 1271.558594 488.910156 1270.804688 489.59375 C 1249.773438 508.699219 1242.433594 540.78125 1239.867188 561.191406 C 1233.28125 549.925781 1221.773438 524.152344 1237.941406 501.933594 Z M 1237.941406 501.933594 " fill-opacity="1" fill-rule="nonzero"/></g><g fill="#000000" fill-opacity="1"><g transform="translate(757.140785, 581.624927)"><g><path d="M 22.4375 -39.359375 L 22.4375 0 L 10.796875 0 L 10.796875 -79.4375 L 22.4375 -79.4375 L 22.4375 -43.921875 L 58.796875 -43.921875 L 58.796875 -79.4375 L 70.4375 -79.4375 L 70.4375 0 L 58.796875 0 L 58.796875 -39.359375 Z M 22.4375 -39.359375 "/></g></g></g><g fill="#000000" fill-opacity="1"><g transform="translate(838.380817, 581.624927)"><g><path d="M 9 0 L 9 -54.234375 L 18.953125 -54.234375 L 18.953125 0 Z M 7.796875 -70.984375 C 7.796875 -72.703125 8.375 -74.160156 9.53125 -75.359375 C 10.695312 -76.554688 12.140625 -77.15625 13.859375 -77.15625 C 15.578125 -77.15625 17.054688 -76.554688 18.296875 -75.359375 C 19.535156 -74.160156 20.15625 -72.71875 20.15625 -71.03125 C 20.15625 -69.351562 19.535156 -67.875 18.296875 -66.59375 C 17.054688 -65.320312 15.597656 -64.6875 13.921875 -64.6875 C 12.242188 -64.6875 10.800781 -65.304688 9.59375 -66.546875 C 8.394531 -67.785156 7.796875 -69.265625 7.796875 -70.984375 Z M 7.796875 -70.984375 "/></g></g></g><g fill="#000000" fill-opacity="1"><g transform="translate(866.340825, 581.624927)"><g><path d="M 20.28125 -50.640625 C 18.195312 -50.640625 16.492188 -49.859375 15.171875 -48.296875 C 13.859375 -46.734375 13.203125 -44.972656 13.203125 -43.015625 C 13.203125 -41.054688 14.140625 -39.175781 16.015625 -37.375 C 17.898438 -35.582031 20.179688 -33.984375 22.859375 -32.578125 C 25.535156 -31.179688 28.191406 -29.722656 30.828125 -28.203125 C 33.472656 -26.679688 35.734375 -24.71875 37.609375 -22.3125 C 39.492188 -19.914062 40.4375 -17.238281 40.4375 -14.28125 C 40.4375 -9.800781 38.632812 -6.0625 35.03125 -3.0625 C 31.4375 -0.0625 26.539062 1.4375 20.34375 1.4375 C 14.144531 1.4375 8.484375 0 3.359375 -2.875 L 3.359375 -7.4375 C 8.796875 -4.71875 13.710938 -3.359375 18.109375 -3.359375 C 22.515625 -3.359375 25.71875 -4.238281 27.71875 -6 C 29.71875 -7.757812 30.71875 -9.78125 30.71875 -12.0625 C 30.71875 -14.34375 29.816406 -16.378906 28.015625 -18.171875 C 26.210938 -19.972656 24.007812 -21.550781 21.40625 -22.90625 C 18.8125 -24.269531 16.234375 -25.710938 13.671875 -27.234375 C 11.117188 -28.753906 8.941406 -30.710938 7.140625 -33.109375 C 5.335938 -35.515625 4.4375 -38.414062 4.4375 -41.8125 C 4.4375 -45.21875 5.816406 -48.378906 8.578125 -51.296875 C 11.335938 -54.222656 15.597656 -55.6875 21.359375 -55.6875 C 27.117188 -55.6875 32.640625 -54.644531 37.921875 -52.5625 L 36.71875 -44.640625 C 30.800781 -47.835938 25.320312 -49.835938 20.28125 -50.640625 Z M 20.28125 -50.640625 "/></g></g></g><g fill="#000000" fill-opacity="1"><g transform="translate(910.980847, 581.624927)"><g><path d="M 21 -10.5625 C 21 -8.15625 21.476562 -6.351562 22.4375 -5.15625 C 23.394531 -3.957031 24.992188 -3.359375 27.234375 -3.359375 C 29.472656 -3.359375 32.15625 -3.957031 35.28125 -5.15625 L 35.28125 -1.796875 C 30.632812 0.359375 26.472656 1.4375 22.796875 1.4375 C 19.117188 1.4375 16.21875 0.414062 14.09375 -1.625 C 11.976562 -3.664062 10.921875 -6.84375 10.921875 -11.15625 L 10.921875 -49.921875 L 1.203125 -51.84375 L 1.203125 -54.234375 L 10.921875 -54.234375 L 10.921875 -58.5625 L 21 -65.875 L 21 -54.234375 L 35.28125 -54.234375 L 35.28125 -49.921875 L 21 -49.921875 Z M 21 -10.5625 "/></g></g></g><g fill="#000000" fill-opacity="1"><g transform="translate(950.460866, 581.624927)"><g><path d="M 32.15625 -55.6875 C 39.195312 -55.6875 45.015625 -53.285156 49.609375 -48.484375 C 54.210938 -43.679688 56.515625 -37.082031 56.515625 -28.6875 C 56.515625 -23.320312 55.59375 -18.597656 53.75 -14.515625 C 51.914062 -10.441406 49.519531 -7.285156 46.5625 -5.046875 C 40.882812 -0.722656 34.546875 1.4375 27.546875 1.4375 C 20.546875 1.4375 14.742188 -0.957031 10.140625 -5.75 C 5.535156 -10.550781 3.234375 -17.15625 3.234375 -25.5625 C 3.234375 -30.914062 4.132812 -35.632812 5.9375 -39.71875 C 7.738281 -43.800781 10.117188 -46.960938 13.078125 -49.203125 C 18.753906 -53.523438 25.113281 -55.6875 32.15625 -55.6875 Z M 29.765625 -2.640625 C 33.285156 -2.640625 36.285156 -4 38.765625 -6.71875 C 43.242188 -11.519531 45.484375 -17.898438 45.484375 -25.859375 C 45.484375 -33.816406 44.117188 -40.015625 41.390625 -44.453125 C 38.671875 -48.898438 34.234375 -51.125 28.078125 -51.125 C 23.515625 -49.363281 20.050781 -46.257812 17.6875 -41.8125 C 15.332031 -37.375 14.15625 -32.015625 14.15625 -25.734375 C 14.15625 -19.453125 15.4375 -14.03125 18 -9.46875 C 20.5625 -4.914062 24.484375 -2.640625 29.765625 -2.640625 Z M 29.765625 -2.640625 "/></g></g></g><g fill="#000000" fill-opacity="1"><g transform="translate(1010.460906, 581.624927)"><g><path d="M 17.765625 0 L 7.6875 0 L 7.6875 -54.234375 L 14.640625 -54.234375 L 17.40625 -44.15625 C 19 -46.957031 21.535156 -49.597656 25.015625 -52.078125 C 28.492188 -54.554688 32.078125 -56.078125 35.765625 -56.640625 L 36.953125 -48.359375 C 33.992188 -48.359375 30.65625 -47.4375 26.9375 -45.59375 C 23.21875 -43.757812 20.160156 -41.722656 17.765625 -39.484375 Z M 17.765625 0 "/></g></g></g><g fill="#000000" fill-opacity="1"><g transform="translate(1048.620906, 581.624927)"><g><path d="M 9 0 L 9 -54.234375 L 18.953125 -54.234375 L 18.953125 0 Z M 7.796875 -70.984375 C 7.796875 -72.703125 8.375 -74.160156 9.53125 -75.359375 C 10.695312 -76.554688 12.140625 -77.15625 13.859375 -77.15625 C 15.578125 -77.15625 17.054688 -76.554688 18.296875 -75.359375 C 19.535156 -74.160156 20.15625 -72.71875 20.15625 -71.03125 C 20.15625 -69.351562 19.535156 -67.875 18.296875 -66.59375 C 17.054688 -65.320312 15.597656 -64.6875 13.921875 -64.6875 C 12.242188 -64.6875 10.800781 -65.304688 9.59375 -66.546875 C 8.394531 -67.785156 7.796875 -69.265625 7.796875 -70.984375 Z M 7.796875 -70.984375 "/></g></g></g><g fill="#000000" fill-opacity="1"><g transform="translate(1076.580926, 581.624927)"><g><path d="M 12.59375 -29.515625 C 12.59375 -20.878906 14.53125 -14.660156 18.40625 -10.859375 C 22.289062 -7.054688 27.015625 -5.15625 32.578125 -5.15625 C 38.140625 -5.15625 43.28125 -6.238281 48 -8.40625 L 48 -4.203125 C 41.4375 -0.441406 35.15625 1.4375 29.15625 1.4375 C 21.394531 1.4375 15.113281 -0.921875 10.3125 -5.640625 C 5.519531 -10.359375 3.125 -17.195312 3.125 -26.15625 C 3.125 -35.113281 5.78125 -42.273438 11.09375 -47.640625 C 16.414062 -53.003906 22.835938 -55.6875 30.359375 -55.6875 C 36.203125 -55.6875 41.082031 -53.382812 45 -48.78125 C 48.914062 -44.175781 50.875 -37.753906 50.875 -29.515625 Z M 24.234375 -50.046875 C 21.441406 -48.679688 19.046875 -46.5 17.046875 -43.5 C 15.046875 -40.5 13.722656 -37.039062 13.078125 -33.125 L 41.15625 -33.125 C 40.914062 -36.476562 40.132812 -39.351562 38.8125 -41.75 C 37.5 -44.15625 35.921875 -45.921875 34.078125 -47.046875 C 30.796875 -49.046875 27.515625 -50.046875 24.234375 -50.046875 Z M 24.234375 -50.046875 "/></g></g></g><g fill="#000000" fill-opacity="1"><g transform="translate(1132.855598, 581.624927)"><g/></g></g></svg>