<svg xmlns="http://www.w3.org/2000/svg" xmlns:xlink="http://www.w3.org/1999/xlink" width="2560" zoomAndPan="magnify" viewBox="0 0 1920 1079.999946" height="1440" preserveAspectRatio="xMidYMid meet" version="1.0"><defs><g/><clipPath id="a2f8917ecb"><path d="M 1298.363281 409.496094 L 1649.363281 409.496094 L 1649.363281 670.496094 L 1298.363281 670.496094 Z M 1298.363281 409.496094 " clip-rule="nonzero"/></clipPath></defs><rect x="-192" width="2304" fill="#ffffff" y="-107.999995" height="1295.999935" fill-opacity="1"/><rect x="-192" width="2304" fill="#97b0b0" y="-107.999995" height="1295.999935" fill-opacity="1"/><g fill="#000000" fill-opacity="1"><g transform="translate(737.453287, 581.624927)"><g><path d="M 1.203125 0 L 36.84375 -81.359375 L 38.640625 -81.359375 L 74.28125 0 L 61.203125 0 L 52.203125 -21.59375 L 16.5625 -21.59375 L 7.6875 0 Z M 18.359375 -26.15625 L 50.28125 -26.15625 L 34.4375 -65.046875 Z M 18.359375 -26.15625 "/></g></g></g><g fill="#000000" fill-opacity="1"><g transform="translate(812.933325, 581.624927)"><g><path d="M 19.078125 0 L 9 0 L 9 -81.953125 L 19.078125 -81.953125 L 19.078125 -31.203125 L 46.796875 -54.234375 L 54.71875 -54.234375 L 26.515625 -32.875 L 56.515625 0 L 44.515625 1.5625 L 19.078125 -30.125 Z M 19.078125 0 "/></g></g></g><g fill="#000000" fill-opacity="1"><g transform="translate(872.093345, 581.624927)"><g><path d="M 21 -10.5625 C 21 -8.15625 21.476562 -6.351562 22.4375 -5.15625 C 23.394531 -3.957031 24.992188 -3.359375 27.234375 -3.359375 C 29.472656 -3.359375 32.15625 -3.957031 35.28125 -5.15625 L 35.28125 -1.796875 C 30.632812 0.359375 26.472656 1.4375 22.796875 1.4375 C 19.117188 1.4375 16.21875 0.414062 14.09375 -1.625 C 11.976562 -3.664062 10.921875 -6.84375 10.921875 -11.15625 L 10.921875 -49.921875 L 1.203125 -51.84375 L 1.203125 -54.234375 L 10.921875 -54.234375 L 10.921875 -58.5625 L 21 -65.875 L 21 -54.234375 L 35.28125 -54.234375 L 35.28125 -49.921875 L 21 -49.921875 Z M 21 -10.5625 "/></g></g></g><g fill="#000000" fill-opacity="1"><g transform="translate(911.573364, 581.624927)"><g><path d="M 47.640625 -16.078125 C 47.640625 -10.554688 49.71875 -6.195312 53.875 -3 L 47.640625 1.4375 L 37.921875 -7.3125 C 34.640625 -4.195312 31.71875 -1.957031 29.15625 -0.59375 C 26.59375 0.757812 23.570312 1.4375 20.09375 1.4375 C 16.613281 1.4375 13.414062 0.0976562 10.5 -2.578125 C 7.582031 -5.253906 6.125 -9.875 6.125 -16.4375 L 6.125 -54.234375 L 16.3125 -54.234375 L 16.3125 -15.84375 C 16.3125 -12 17.007812 -9.097656 18.40625 -7.140625 C 19.8125 -5.179688 22.253906 -4.203125 25.734375 -4.203125 C 29.210938 -4.203125 33.113281 -6.757812 37.4375 -11.875 L 37.4375 -54.234375 L 47.640625 -54.234375 Z M 47.640625 -16.078125 "/></g></g></g><g fill="#000000" fill-opacity="1"><g transform="translate(969.173396, 581.624927)"><g><path d="M 12.59375 -29.515625 C 12.59375 -20.878906 14.53125 -14.660156 18.40625 -10.859375 C 22.289062 -7.054688 27.015625 -5.15625 32.578125 -5.15625 C 38.140625 -5.15625 43.28125 -6.238281 48 -8.40625 L 48 -4.203125 C 41.4375 -0.441406 35.15625 1.4375 29.15625 1.4375 C 21.394531 1.4375 15.113281 -0.921875 10.3125 -5.640625 C 5.519531 -10.359375 3.125 -17.195312 3.125 -26.15625 C 3.125 -35.113281 5.78125 -42.273438 11.09375 -47.640625 C 16.414062 -53.003906 22.835938 -55.6875 30.359375 -55.6875 C 36.203125 -55.6875 41.082031 -53.382812 45 -48.78125 C 48.914062 -44.175781 50.875 -37.753906 50.875 -29.515625 Z M 24.234375 -50.046875 C 21.441406 -48.679688 19.046875 -46.5 17.046875 -43.5 C 15.046875 -40.5 13.722656 -37.039062 13.078125 -33.125 L 41.15625 -33.125 C 40.914062 -36.476562 40.132812 -39.351562 38.8125 -41.75 C 37.5 -44.15625 35.921875 -45.921875 34.078125 -47.046875 C 30.796875 -49.046875 27.515625 -50.046875 24.234375 -50.046875 Z M 24.234375 -50.046875 "/></g></g></g><g fill="#000000" fill-opacity="1"><g transform="translate(1025.45342, 581.624927)"><g><path d="M 19.078125 -81.953125 L 19.078125 0 L 9 0 L 9 -81.953125 Z M 19.078125 -81.953125 "/></g></g></g><g fill="#000000" fill-opacity="1"><g transform="translate(1053.533442, 581.624927)"><g><path d="M 19.078125 -81.953125 L 19.078125 0 L 9 0 L 9 -81.953125 Z M 19.078125 -81.953125 "/></g></g></g><g fill="#000000" fill-opacity="1"><g transform="translate(1081.613441, 581.624927)"><g><path d="M 12.59375 -29.515625 C 12.59375 -20.878906 14.53125 -14.660156 18.40625 -10.859375 C 22.289062 -7.054688 27.015625 -5.15625 32.578125 -5.15625 C 38.140625 -5.15625 43.28125 -6.238281 48 -8.40625 L 48 -4.203125 C 41.4375 -0.441406 35.15625 1.4375 29.15625 1.4375 C 21.394531 1.4375 15.113281 -0.921875 10.3125 -5.640625 C 5.519531 -10.359375 3.125 -17.195312 3.125 -26.15625 C 3.125 -35.113281 5.78125 -42.273438 11.09375 -47.640625 C 16.414062 -53.003906 22.835938 -55.6875 30.359375 -55.6875 C 36.203125 -55.6875 41.082031 -53.382812 45 -48.78125 C 48.914062 -44.175781 50.875 -37.753906 50.875 -29.515625 Z M 24.234375 -50.046875 C 21.441406 -48.679688 19.046875 -46.5 17.046875 -43.5 C 15.046875 -40.5 13.722656 -37.039062 13.078125 -33.125 L 41.15625 -33.125 C 40.914062 -36.476562 40.132812 -39.351562 38.8125 -41.75 C 37.5 -44.15625 35.921875 -45.921875 34.078125 -47.046875 C 30.796875 -49.046875 27.515625 -50.046875 24.234375 -50.046875 Z M 24.234375 -50.046875 "/></g></g></g><g fill="#000000" fill-opacity="1"><g transform="translate(1137.893465, 581.624927)"><g><path d="M 20.28125 -50.640625 C 18.195312 -50.640625 16.492188 -49.859375 15.171875 -48.296875 C 13.859375 -46.734375 13.203125 -44.972656 13.203125 -43.015625 C 13.203125 -41.054688 14.140625 -39.175781 16.015625 -37.375 C 17.898438 -35.582031 20.179688 -33.984375 22.859375 -32.578125 C 25.535156 -31.179688 28.191406 -29.722656 30.828125 -28.203125 C 33.472656 -26.679688 35.734375 -24.71875 37.609375 -22.3125 C 39.492188 -19.914062 40.4375 -17.238281 40.4375 -14.28125 C 40.4375 -9.800781 38.632812 -6.0625 35.03125 -3.0625 C 31.4375 -0.0625 26.539062 1.4375 20.34375 1.4375 C 14.144531 1.4375 8.484375 0 3.359375 -2.875 L 3.359375 -7.4375 C 8.796875 -4.71875 13.710938 -3.359375 18.109375 -3.359375 C 22.515625 -3.359375 25.71875 -4.238281 27.71875 -6 C 29.71875 -7.757812 30.71875 -9.78125 30.71875 -12.0625 C 30.71875 -14.34375 29.816406 -16.378906 28.015625 -18.171875 C 26.210938 -19.972656 24.007812 -21.550781 21.40625 -22.90625 C 18.8125 -24.269531 16.234375 -25.710938 13.671875 -27.234375 C 11.117188 -28.753906 8.941406 -30.710938 7.140625 -33.109375 C 5.335938 -35.515625 4.4375 -38.414062 4.4375 -41.8125 C 4.4375 -45.21875 5.816406 -48.378906 8.578125 -51.296875 C 11.335938 -54.222656 15.597656 -55.6875 21.359375 -55.6875 C 27.117188 -55.6875 32.640625 -54.644531 37.921875 -52.5625 L 36.71875 -44.640625 C 30.800781 -47.835938 25.320312 -49.835938 20.28125 -50.640625 Z M 20.28125 -50.640625 "/></g></g></g><g clip-path="url(#a2f8917ecb)"><path fill="#336666" d="M 1337.988281 559.78125 L 1337.988281 627.320312 C 1337.988281 628.398438 1338.511719 629.40625 1339.390625 630.03125 C 1339.957031 630.433594 1340.632812 630.644531 1341.3125 630.644531 C 1341.679688 630.644531 1342.050781 630.582031 1342.410156 630.453125 L 1506.6875 572.875 L 1506.6875 661.058594 C 1506.6875 662.890625 1508.175781 664.375 1510.011719 664.375 L 1541.269531 664.375 C 1542.75 664.375 1544.046875 663.402344 1544.460938 661.980469 L 1570.679688 571.511719 L 1594.847656 571.511719 C 1621.535156 571.511719 1643.25 549.804688 1643.25 523.121094 C 1643.25 496.433594 1621.535156 474.722656 1594.847656 474.722656 L 1510.574219 474.722656 L 1470.128906 460.550781 C 1468.382812 459.929688 1466.5 460.855469 1465.898438 462.582031 C 1465.292969 464.3125 1466.203125 466.207031 1467.933594 466.8125 L 1506.6875 480.398438 L 1506.6875 565.835938 L 1344.632812 622.640625 L 1344.632812 423.597656 L 1410.054688 446.527344 C 1411.789062 447.148438 1413.683594 446.226562 1414.285156 444.492188 C 1414.890625 442.761719 1413.980469 440.867188 1412.253906 440.261719 L 1342.410156 415.78125 C 1341.398438 415.417969 1340.273438 415.574219 1339.390625 416.207031 C 1338.511719 416.828125 1337.988281 417.839844 1337.988281 418.914062 L 1337.988281 486.457031 C 1319.234375 488.140625 1304.476562 503.929688 1304.476562 523.121094 C 1304.476562 542.304688 1319.234375 558.09375 1337.988281 559.78125 Z M 1322.074219 484.671875 C 1328.085938 481.707031 1331.890625 475.582031 1331.890625 468.882812 L 1331.890625 418.917969 C 1331.890625 415.910156 1333.371094 412.996094 1335.84375 411.25 C 1337.472656 410.082031 1339.308594 409.492188 1341.304688 409.492188 C 1342.359375 409.492188 1343.414062 409.667969 1344.425781 410.03125 C 1349.085938 411.664062 1509.65625 467.941406 1508.78125 467.632812 C 1510.660156 468.289062 1512.625 468.625 1514.609375 468.625 L 1594.847656 468.625 C 1624.902344 468.625 1649.347656 493.074219 1649.347656 523.121094 C 1649.347656 553.164062 1624.902344 577.609375 1594.847656 577.609375 L 1588.5 577.609375 C 1580.65625 577.609375 1573.757812 582.792969 1571.578125 590.320312 L 1550.3125 663.675781 C 1549.179688 667.617188 1545.371094 670.476562 1541.269531 670.476562 L 1510.011719 670.476562 C 1504.816406 670.476562 1500.589844 666.25 1500.589844 661.058594 L 1500.589844 606.3125 C 1500.589844 600.601562 1497.820312 595.25 1493.164062 591.941406 C 1490.148438 589.808594 1486.578125 588.699219 1482.972656 588.699219 C 1477.34375 588.699219 1482.753906 588.09375 1344.40625 636.214844 C 1343.417969 636.5625 1342.375 636.738281 1341.3125 636.738281 C 1339.332031 636.738281 1337.484375 636.160156 1335.863281 635 C 1333.375 633.246094 1331.890625 630.371094 1331.890625 627.320312 L 1331.890625 577.351562 C 1331.890625 570.652344 1328.085938 564.527344 1322.074219 561.5625 C 1307.457031 554.34375 1298.378906 539.613281 1298.378906 523.121094 C 1298.378906 506.621094 1307.457031 491.890625 1322.074219 484.671875 " fill-opacity="1" fill-rule="nonzero"/></g><path fill="#336666" d="M 1538.777344 657.738281 L 1513.332031 657.738281 L 1513.332031 571.511719 L 1563.761719 571.511719 L 1538.777344 657.738281 " fill-opacity="1" fill-rule="nonzero"/><path fill="#336666" d="M 1337.988281 493.261719 L 1337.988281 552.972656 C 1322.917969 551.292969 1311.117188 538.628906 1311.117188 523.121094 C 1311.117188 507.609375 1322.917969 494.945312 1337.988281 493.261719 " fill-opacity="1" fill-rule="nonzero"/><path fill="#336666" d="M 1636.609375 523.121094 C 1636.609375 546.140625 1617.875 564.871094 1594.847656 564.871094 L 1568.253906 564.871094 C 1568.207031 564.867188 1568.152344 564.871094 1568.109375 564.871094 L 1513.332031 564.871094 L 1513.332031 481.367188 L 1594.847656 481.367188 C 1617.875 481.367188 1636.609375 500.09375 1636.609375 523.121094 " fill-opacity="1" fill-rule="nonzero"/></svg>