<svg width="642" height="460" viewBox="0 0 642 460" fill="none" xmlns="http://www.w3.org/2000/svg">
<path d="M354.701 424.278C354.701 424.278 354.551 424.227 354.257 424.128C353.985 424.028 353.591 423.879 353.209 423.683C352.415 423.29 351.489 422.703 351.111 421.934C350.902 421.55 350.919 421.119 350.867 420.644C350.815 420.171 350.793 419.654 350.77 419.095C350.737 417.976 350.759 416.691 350.913 415.25C351.198 412.367 352.106 408.864 352.299 404.852C352.383 400.839 352.322 396.314 352.341 391.376C352.341 381.502 352.341 369.98 352.339 357.638C352.307 351.466 352.274 345.087 352.239 338.607C352.197 332.128 352.151 325.544 352.107 318.962C352.022 305.796 351.937 292.631 351.858 280.287C351.826 274.115 351.757 268.15 351.782 262.492C351.786 256.834 351.791 251.486 351.797 246.548C351.806 236.672 351.813 228.444 351.818 222.683C351.819 221.243 351.821 219.958 351.822 218.839C351.802 217.72 351.83 216.768 352.07 215.995C352.289 215.222 352.629 214.63 352.895 214.228C353.177 213.828 353.39 213.622 353.39 213.622L353.581 213.62C353.581 213.62 353.797 213.824 354.082 214.222C354.354 214.618 354.701 215.207 354.927 215.978C355.177 216.748 355.217 217.699 355.209 218.818C355.222 219.936 355.238 221.222 355.257 222.662C355.329 228.422 355.43 236.65 355.554 246.524C355.615 251.462 355.682 256.81 355.753 262.467C355.843 268.124 355.842 274.09 355.882 280.26C355.945 292.604 356.011 305.771 356.079 318.936C356.11 325.52 356.142 332.103 356.173 338.583C356.214 345.063 356.254 351.44 356.291 357.612C356.434 369.955 356.566 381.474 356.681 391.35C356.757 396.286 356.747 400.811 356.878 404.823C357.117 408.834 358.066 412.324 358.385 415.202C358.554 416.642 358.591 417.927 358.571 419.046C358.555 419.606 358.538 420.123 358.491 420.598C358.446 421.072 358.467 421.503 358.262 421.89C357.894 422.663 356.974 423.26 356.186 423.664C355.805 423.866 355.414 424.02 355.143 424.123C354.85 424.226 354.701 424.278 354.701 424.278Z" fill="#231F20"/>
<path d="M356.412 404.847C356.412 404.847 356.571 404.851 356.871 404.859C357.17 404.868 357.624 404.871 358.179 404.931C359.311 405.017 360.914 405.253 362.89 405.748C364.864 406.241 367.214 406.997 369.784 408.171C372.352 409.345 375.162 410.923 377.912 413.133C378.588 413.711 379.291 414.236 379.975 414.929C380.32 415.263 380.668 415.597 381.02 415.936C381.315 416.26 381.614 416.588 381.914 416.917C383.235 418.316 384.676 420.256 385.31 422.677C385.624 423.884 385.775 425.212 385.612 426.539C385.455 427.861 385.043 429.152 384.459 430.337C383.256 432.693 381.44 434.549 379.471 435.997C375.508 438.923 370.952 440.616 366.334 441.627C361.682 442.631 357 442.907 352.276 442.708C351.039 442.677 349.992 442.597 348.887 442.531C347.638 442.423 346.548 442.293 345.37 442.155C343.052 441.828 340.73 441.38 338.418 440.747C336.106 440.077 333.799 439.227 331.555 438C329.351 436.768 327.015 435.261 325.36 432.816C324.558 431.603 323.98 430.185 323.76 428.736C323.524 427.292 323.626 425.88 323.84 424.613C324.092 423.34 324.464 422.208 324.858 421.144C325.243 420.076 325.69 419.088 326.211 418.171C327.264 416.332 328.463 414.792 329.802 413.352L330.266 412.877L330.538 412.604L330.811 412.345C331.168 411.989 331.552 411.692 331.928 411.385C332.694 410.805 333.476 410.297 334.258 409.86C337.388 408.104 340.436 407.18 343.132 406.505C345.832 405.839 348.218 405.516 350.18 405.279C352.143 405.055 353.691 404.952 354.754 404.9C355.834 404.865 356.412 404.847 356.412 404.847ZM356.419 408.871C356.419 408.871 355.9 408.88 354.922 408.901C353.927 408.936 352.459 409.009 350.6 409.192C348.743 409.375 346.496 409.689 343.974 410.201C341.471 410.736 338.639 411.495 335.999 412.949C335.336 413.305 334.719 413.737 334.122 414.195C333.838 414.435 333.538 414.667 333.282 414.933L333.08 415.127L333.002 415.203L332.892 415.324L332.452 415.82C331.428 417.027 330.418 418.46 329.754 419.985C329.048 421.48 328.604 423.192 329.098 424.649C329.58 426.12 330.638 426.893 331.644 427.596C332.134 427.964 332.714 428.353 333.326 428.74C333.987 429.101 334.691 429.456 335.495 429.749C337.082 430.34 338.88 430.803 340.759 431.184C342.654 431.552 344.632 431.843 346.651 432.085C347.646 432.197 348.735 432.32 349.671 432.4C350.755 432.496 351.895 432.619 352.854 432.665C356.898 432.912 361.044 432.956 364.943 432.644C368.836 432.336 372.664 431.661 375.656 430.109C377.152 429.348 378.382 428.377 379.191 427.3C379.967 426.212 380.344 425.047 380.194 423.769C380.056 422.469 379.398 421.232 378.356 420.009C378.074 419.671 377.792 419.335 377.512 419.003C377.246 418.725 376.979 418.452 376.716 418.181C376.223 417.627 375.595 417.115 375.042 416.597C372.736 414.571 370.247 413.133 367.983 412.027C365.702 410.935 363.602 410.217 361.858 409.748C360.114 409.276 358.72 409.049 357.803 408.965C357.335 408.903 356.998 408.9 356.766 408.887C356.535 408.875 356.419 408.871 356.419 408.871" fill="#231F20"/>
<path d="M353.188 201.187C353.188 201.187 353.424 201.403 353.866 201.808C354.309 202.258 354.961 202.915 355.788 203.754C356.657 204.591 357.481 205.654 358.542 206.858C359.061 207.462 359.613 208.103 360.194 208.782C360.737 209.482 361.308 210.218 361.904 210.987C363.082 212.531 364.412 214.175 365.724 215.97C366.984 217.798 368.312 219.726 369.686 221.72C370.37 222.719 371.066 223.735 371.77 224.763C372.425 225.822 373.086 226.891 373.753 227.97C375.082 230.131 376.433 232.326 377.784 234.52C379.18 236.688 380.374 238.968 381.605 241.18C382.829 243.398 384.033 245.578 385.198 247.69C386.352 249.806 387.529 251.819 388.469 253.819C389.45 255.796 390.377 257.667 391.232 259.394C392.086 261.119 392.87 262.7 393.565 264.103C394.237 265.516 394.926 266.695 395.27 267.78C395.99 269.934 395.617 271.551 395.617 271.551C395.617 271.551 394.06 270.9 392.708 269.08C392.014 268.18 391.446 266.948 390.676 265.595C389.928 264.231 389.082 262.692 388.161 261.014C387.241 259.335 386.244 257.518 385.189 255.595C384.166 253.654 382.922 251.703 381.733 249.631C380.521 247.572 379.269 245.444 377.996 243.282C376.717 241.126 375.464 238.904 374.069 236.778C372.708 234.631 371.345 232.483 370.004 230.368C369.336 229.311 368.673 228.262 368.018 227.224C367.326 226.215 366.642 225.218 365.97 224.238C364.625 222.276 363.325 220.382 362.092 218.583C360.842 216.803 359.582 215.187 358.461 213.658C357.896 212.896 357.353 212.168 356.837 211.475C356.29 210.815 355.772 210.188 355.285 209.6C354.302 208.447 353.473 207.343 352.761 206.588C352.049 205.8 351.49 205.182 351.108 204.759C350.684 204.335 350.456 204.108 350.456 204.108L353.188 201.187Z" fill="#231F20"/>
<path d="M386.705 220.508C386.705 220.508 387.213 221.197 388.101 222.401C388.994 223.596 390.271 225.304 391.803 227.352C393.342 229.391 395.154 231.749 397.115 234.249C398.11 235.485 399.138 236.763 400.182 238.061C401.229 239.353 402.302 240.657 403.418 241.92C404.515 243.201 405.614 244.471 406.73 245.689C407.813 246.941 408.97 248.072 410.055 249.201C411.131 250.343 412.257 251.333 413.271 252.34C414.287 253.344 415.353 254.143 416.279 254.961C417.197 255.8 418.155 256.355 418.941 256.961C419.341 257.252 419.725 257.509 420.037 257.807C420.374 258.055 420.639 258.357 420.873 258.651C421.334 259.245 421.605 259.923 421.782 260.427C421.947 260.952 422.005 261.319 422.005 261.319C422.005 261.319 421.693 261.472 421.169 261.595C420.655 261.699 419.913 261.785 419.086 261.631C418.675 261.549 418.227 261.436 417.787 261.232C417.357 261.028 416.97 260.692 416.527 260.375C415.678 259.704 414.614 259.044 413.651 258.143C412.675 257.256 411.537 256.364 410.485 255.293C409.441 254.217 408.238 253.165 407.194 251.916C406.121 250.689 404.974 249.455 403.922 248.117C402.843 246.797 401.735 245.471 400.738 244.063C399.701 242.684 398.713 241.275 397.753 239.879C396.763 238.505 395.889 237.087 395.018 235.732C394.154 234.373 393.357 233.037 392.59 231.781C391.865 230.497 391.179 229.284 390.547 228.164C388.07 223.656 386.705 220.508 386.705 220.508Z" fill="#231F20"/>
<path d="M418.705 251.703C418.705 251.703 418.346 251.161 418.442 250.243C418.542 249.327 418.69 247.983 418.878 246.274C419.23 242.854 419.73 237.969 420.331 232.106C420.599 229.173 420.89 225.995 421.197 222.634C421.346 220.954 421.501 219.229 421.659 217.463C421.769 215.701 421.882 213.899 421.997 212.069C422.25 208.387 422.414 204.691 422.735 200.667C423.145 196.71 423.929 192.73 425.155 188.869C426.353 184.999 427.986 181.255 429.938 177.743C431.926 174.253 434.275 171.018 436.895 168.185C439.522 165.358 442.434 162.97 445.391 161.025C448.349 159.07 451.362 157.579 454.217 156.429C457.079 155.291 459.786 154.497 462.205 153.926C463.407 153.593 464.559 153.439 465.61 153.217C466.661 152.979 467.646 152.911 468.541 152.905C470.33 152.863 471.761 153.309 472.727 153.709C473.693 154.099 474.205 154.478 474.205 154.478C474.205 154.478 473.737 154.939 472.867 155.486C471.999 156.055 470.73 156.65 469.118 157.139C467.501 157.582 465.498 157.805 463.261 158.366C461.021 158.897 458.53 159.633 455.913 160.675C453.31 161.743 450.563 163.073 447.853 164.802C445.142 166.527 442.495 168.675 440.046 171.191C437.582 173.694 435.334 176.589 433.39 179.761C431.483 182.955 429.842 186.403 428.602 190.009C427.362 193.61 426.383 197.329 425.843 201.053C425.375 204.723 425.014 208.627 424.594 212.286C424.393 214.125 424.195 215.934 424.002 217.705C423.765 219.465 423.533 221.187 423.307 222.865C422.851 226.215 422.422 229.383 422.025 232.309C421.166 238.147 420.45 243.011 419.95 246.417C419.686 248.117 419.479 249.453 419.338 250.363C419.191 251.273 418.705 251.703 418.705 251.703Z" fill="#231F20"/>
<path d="M439.604 297.154C439.604 297.154 439.453 297.255 439.162 297.453C438.862 297.657 438.413 297.981 437.832 298.414C436.676 299.297 434.992 300.643 432.989 302.527C430.998 304.419 428.634 306.793 426.216 309.763C423.776 312.715 421.286 316.263 418.956 320.351C414.356 328.539 410.52 339.035 409.373 350.781C408.797 356.691 408.522 362.889 408.916 369.027C409.122 372.089 409.528 375.139 410.29 378.003C411.057 380.835 412.27 383.531 414.024 385.133C415.74 386.721 418.03 387.107 420.612 386.426C421.253 386.257 421.865 386.047 422.521 385.765C423.238 385.457 424.065 385.113 424.829 384.818C426.385 384.211 427.95 383.669 429.52 383.166C435.805 381.194 442.177 379.955 448.4 379.418C454.618 378.849 460.674 378.97 466.356 379.527C472.038 380.114 477.346 381.159 482.146 382.458C484.556 383.069 486.814 383.837 488.941 384.603C489.998 385.006 491.04 385.366 492.03 385.774C493.006 386.211 493.954 386.637 494.874 387.05C498.534 388.726 501.558 390.511 503.974 392.073C506.378 393.659 508.184 395.014 509.365 396.01C510.544 397.002 511.17 397.531 511.17 397.531C511.17 397.531 510.402 397.239 508.962 396.693C508.257 396.405 507.386 396.05 506.364 395.631C505.334 395.231 504.148 394.79 502.854 394.238C501.546 393.715 500.069 393.209 498.513 392.563C496.93 391.993 495.216 391.377 493.386 390.717C489.721 389.445 485.568 388.118 480.972 386.941C476.374 385.77 471.306 384.85 465.904 384.374C460.501 383.926 454.761 383.895 448.889 384.522C443.022 385.139 437.006 386.31 431.133 388.206C429.67 388.686 428.213 389.202 426.78 389.771C426.049 390.061 425.393 390.337 424.633 390.669C423.813 391.029 422.902 391.357 421.984 391.603C420.142 392.097 418.092 392.319 416.01 391.93C413.924 391.589 411.928 390.523 410.393 389.157C407.322 386.327 406.002 382.741 405.073 379.41C404.193 376.029 403.785 372.674 403.577 369.377C403.194 362.781 403.522 356.395 404.156 350.227C404.802 344.001 406.16 338.055 407.988 332.603C409.796 327.139 412.226 322.237 414.753 317.914C419.901 309.289 425.71 303.165 430.093 299.327C432.292 297.402 434.141 296.026 435.432 295.113C436.084 294.659 436.59 294.321 436.948 294.097C437.316 293.867 437.506 293.75 437.506 293.75L439.604 297.154Z" fill="#231F20"/>
<path d="M519.171 347.306C519.171 347.306 519.399 347.498 519.84 347.87C520.284 348.24 520.936 348.796 521.764 349.541C523.432 351.022 525.827 353.244 528.756 356.184C531.696 359.114 535.151 362.78 538.952 367.133C542.755 371.484 546.956 376.474 551.383 382.076C552.501 383.466 553.62 384.908 554.732 386.404C555.861 387.885 557.004 389.4 558.109 391.001C558.671 391.792 559.237 392.592 559.808 393.396C560.351 394.232 560.897 395.073 561.448 395.922C562.585 397.58 563.581 399.448 564.62 401.312C565.125 402.262 565.525 403.366 565.977 404.402C566.473 405.504 566.684 406.4 567.037 407.448C567.681 409.489 568.283 411.565 568.812 413.716C569.843 418.013 570.613 422.569 570.54 427.365C570.457 432.122 569.549 437.238 566.973 441.774C564.492 446.342 560.516 450.064 556.115 452.613C551.708 455.233 546.901 456.849 542.083 457.944C537.253 459.064 532.365 459.585 527.504 459.792C517.628 460.244 507.932 458.969 498.643 457.008C489.367 454.972 480.523 452.168 472.087 449.304C463.652 446.413 455.648 443.35 448.027 440.604C440.421 437.814 433.227 435.25 426.512 433.14C419.816 430.965 413.593 429.269 408.033 427.949C402.475 426.616 397.563 425.726 393.496 425.128C392.477 424.98 391.515 424.837 390.608 424.705C389.697 424.604 388.844 424.508 388.049 424.418C386.461 424.216 385.107 424.073 384.004 424.002C381.799 423.826 380.623 423.732 380.623 423.732L380.627 423.201C380.627 423.201 381.812 423.172 384.033 423.116C385.148 423.07 386.52 423.07 388.135 423.106C388.943 423.122 389.811 423.141 390.737 423.161C391.663 423.213 392.645 423.269 393.684 423.328C397.844 423.537 402.881 424.092 408.616 425.009C414.353 425.922 420.767 427.305 427.687 429.069C434.592 430.884 441.997 433.092 449.753 435.578C457.493 438.101 465.615 440.817 474.005 443.485C478.199 444.832 482.472 446.112 486.808 447.329C491.147 448.526 495.564 449.574 500.016 450.546C508.916 452.386 518.124 453.52 527.151 453.058C531.727 452.858 536.263 452.289 540.627 451.37C544.984 450.445 549.187 449.057 552.812 446.953C556.461 444.893 559.485 442.088 561.415 438.652C563.393 435.242 564.328 431.258 564.501 427.194C564.684 423.124 564.129 418.994 563.285 414.986C562.853 412.982 562.337 410.992 561.783 409.041C561.235 406.956 560.58 405.358 559.848 403.648C558.963 401.936 558.143 400.229 557.103 398.592C556.608 397.768 556.117 396.949 555.632 396.138C555.107 395.34 554.587 394.548 554.071 393.762C553.059 392.181 551.993 390.66 550.939 389.168C549.904 387.668 548.856 386.213 547.803 384.802C543.645 379.124 539.629 374.045 536.041 369.562C532.472 365.066 529.359 361.138 526.864 357.837C524.351 354.553 522.424 351.924 521.132 350.11C520.484 349.204 519.991 348.506 519.668 348.026C519.34 347.552 519.171 347.306 519.171 347.306Z" fill="#231F20"/>
<path d="M501.201 234.669L501.774 314.835L501.782 315.864L500.809 315.435H500.807L499.046 314.669L497.215 314.047L495.339 313.549L493.429 313.163C492.145 312.951 490.854 312.757 489.553 312.645C488.254 312.508 486.945 312.445 485.635 312.395C480.395 312.223 475.131 312.563 469.901 313.145C464.667 313.728 459.459 314.576 454.283 315.584C449.115 316.6 443.951 317.765 438.886 319.139L437.781 319.448L437.75 318.292L435.347 227.541L435.321 226.496L436.29 226.137H436.291L440.341 224.735C441.714 224.333 443.073 223.888 444.455 223.525C445.847 223.193 447.218 222.781 448.627 222.524C450.027 222.228 451.429 221.943 452.847 221.744C454.257 221.495 455.683 221.353 457.106 221.197C458.529 221.053 459.961 220.979 461.39 220.915C462.822 220.888 464.254 220.848 465.685 220.917C467.118 220.932 468.545 221.077 469.971 221.187C471.394 221.355 472.815 221.517 474.225 221.777C475.635 222.009 477.037 222.313 478.425 222.661C481.201 223.349 483.926 224.244 486.563 225.347C489.202 226.448 491.75 227.759 494.181 229.259C496.605 230.783 498.918 232.439 501.007 234.48L501.201 234.669ZM499.873 235.267C497.929 233.489 495.686 231.939 493.386 230.572C490.994 229.173 488.493 227.963 485.913 226.957C483.334 225.949 480.675 225.148 477.977 224.547C476.629 224.243 475.269 223.981 473.899 223.791C472.534 223.572 471.157 223.448 469.782 223.319C468.401 223.248 467.023 223.139 465.639 223.157C464.258 223.124 462.877 223.196 461.497 223.253C460.118 223.349 458.739 223.453 457.367 223.627C455.998 223.809 454.626 223.977 453.27 224.253C451.905 224.475 450.557 224.785 449.21 225.103C447.855 225.383 446.537 225.816 445.199 226.168C443.87 226.549 442.563 227.015 441.245 227.433L437.353 228.887H437.351L438.294 227.483L439.543 318.255L438.407 317.409C443.569 316.052 448.746 314.924 453.967 313.935C459.189 312.959 464.442 312.141 469.733 311.591C475.021 311.04 480.35 310.735 485.691 310.948C487.025 311.011 488.361 311.081 489.693 311.235C491.026 311.359 492.354 311.565 493.678 311.795L495.655 312.209L497.611 312.743L499.534 313.413L501.403 314.243H501.405L500.441 314.844L499.873 235.267Z" fill="#231F20"/>
<path d="M500.544 235.417C500.544 235.417 480.4 214.462 439.956 230.261L438.772 318.738C438.772 318.738 483.491 305.753 501.111 314.666L500.544 235.417Z" fill="#231F20"/>
<path d="M502.427 233.363C501.961 232.283 502.511 231.87 502.893 231.451C503.282 231.008 503.689 230.587 504.106 230.179C504.918 229.334 505.805 228.578 506.675 227.799C507.587 227.079 508.457 226.294 509.421 225.639C510.365 224.956 511.303 224.264 512.306 223.67C513.29 223.046 514.275 222.419 515.317 221.895C516.349 221.356 517.355 220.758 518.437 220.318C519.507 219.859 520.554 219.332 521.649 218.93L524.957 217.791C526.069 217.44 527.211 217.195 528.337 216.892L530.033 216.468L531.755 216.175C532.905 215.99 534.051 215.768 535.203 215.612L538.682 215.323L540.423 215.199L542.166 215.22L545.649 215.266C546.81 215.272 547.957 215.459 549.113 215.548L552.566 215.919L553.157 215.724L553.745 217.363C554.03 218.155 554.001 218.924 553.926 219.691L553.711 221.991L553.281 226.592L552.418 235.794L550.697 254.198L548.974 272.6L547.123 290.995L547.907 272.524L548.818 254.063L549.73 235.602L550.185 226.371L550.413 221.755L550.526 219.448C550.562 218.679 550.642 217.912 551.037 217.168L552.214 218.612V218.611L548.874 218.374C547.762 218.307 546.653 218.139 545.539 218.154L542.202 218.163L540.534 218.166L538.877 218.312L535.557 218.563C534.457 218.703 533.367 218.908 532.271 219.076L530.629 219.339L529.015 219.734C527.946 220.014 526.857 220.236 525.799 220.562L522.65 221.614C521.598 221.96 520.594 222.431 519.563 222.834C518.519 223.218 517.551 223.756 516.554 224.238C515.545 224.703 514.594 225.271 513.638 225.835C512.665 226.368 511.754 226.999 510.835 227.62C509.895 228.214 509.051 228.934 508.158 229.591C507.313 230.303 506.443 230.996 505.655 231.768C505.247 232.142 504.853 232.526 504.478 232.924C504.07 233.327 503.878 233.774 502.695 233.576L502.427 233.363Z" fill="#231F20"/>
<path d="M500.652 313.464C500.652 313.464 503.242 312.341 507.123 310.849C509.063 310.078 511.356 309.262 513.816 308.388C516.279 307.525 518.911 306.617 521.578 305.805C524.247 304.998 526.926 304.224 529.463 303.578C530.74 303.276 531.956 302.933 533.14 302.704C534.323 302.472 535.428 302.214 536.483 302.106C537.532 301.98 538.482 301.833 539.35 301.833C540.216 301.829 540.956 301.764 541.578 301.846C542.818 301.98 543.498 302.097 543.498 302.097C543.498 302.097 542.791 302.226 541.606 302.388C541.014 302.477 540.296 302.68 539.482 302.841C538.664 302.981 537.752 303.27 536.754 303.502C535.755 303.729 534.682 304.057 533.542 304.354C532.398 304.63 531.208 305.029 529.97 305.382C527.502 306.136 524.89 307.026 522.29 307.945C519.698 308.901 517.094 309.816 514.676 310.742C512.26 311.677 510.007 312.549 508.075 313.298C504.236 314.825 501.679 315.844 501.679 315.844L500.652 313.464Z" fill="#231F20"/>
<path d="M502.362 147.105C502.256 146.197 502.45 145.453 502.649 144.668C502.826 143.885 502.99 143.102 503.105 142.309C503.256 141.522 503.308 140.722 503.396 139.929C503.49 139.136 503.468 138.336 503.51 137.542C503.538 136.746 503.456 135.954 503.436 135.164C503.417 134.372 503.242 133.596 503.157 132.813C503.09 132.025 502.838 131.274 502.668 130.512C502.57 130.133 502.496 129.748 502.382 129.376L501.98 128.277C501.704 127.549 501.488 126.8 501.086 126.129C500.717 125.448 500.393 124.741 499.996 124.081L498.652 122.19C498.252 121.526 497.622 121.038 497.118 120.457C496.57 119.91 496.113 119.282 495.466 118.833L493.654 117.373C493.086 116.844 492.348 116.524 491.698 116.096L489.696 114.882L491.25 114.805L491.246 114.809C490.18 115.553 489.144 116.214 488.064 116.869C486.992 117.52 485.9 118.142 484.786 118.733C482.557 119.91 480.252 120.982 477.781 121.8C475.313 122.59 472.682 123.252 469.717 122.968C468.248 122.813 466.666 122.34 465.298 121.385L464.454 120.756L463.726 120.193C463.224 119.782 462.825 119.585 462.377 119.266C461.43 118.674 460.41 118.105 459.322 117.509C458.25 116.928 457.1 116.257 455.982 115.512C455.425 115.132 454.877 114.708 454.332 114.294C453.817 113.834 453.276 113.396 452.786 112.91C452.317 112.41 451.813 111.925 451.374 111.402L450.098 109.806C449.337 108.704 448.576 107.593 447.953 106.44C447.258 105.304 446.749 104.129 446.157 102.966C445.62 101.796 445.137 100.613 444.634 99.4331L443.306 95.8664L443.2 94.4144L443.196 94.4345C443.154 94.6638 443.148 94.9091 443.176 95.1411L443.198 95.3398C443.218 95.4544 443.254 95.5651 443.305 95.6665C443.353 95.7838 443.334 95.7705 443.372 95.8171C443.385 95.8318 443.402 95.8451 443.421 95.8544L443.373 95.8104C443.337 95.7758 443.305 95.7398 443.274 95.6998C443.248 95.6278 443.105 95.5131 442.945 95.3958L442.51 95.0424C441.772 94.5744 441.01 94.0651 440.078 93.6531L438.73 93.0011L437.288 92.4278L435.842 91.8504L435.753 91.8145L435.514 91.7251L435.468 91.7038L435.281 91.6198L434.908 91.4504C434.766 91.3811 434.7 91.3678 434.496 91.2505L433.941 90.9265C433.146 90.4665 432.696 90.0091 432.153 89.5278C431.677 89.0265 431.209 88.5211 430.84 87.9838C430.05 86.9251 429.465 85.8198 428.97 84.7118C428.47 83.6038 428.082 82.4865 427.746 81.3691C427.409 80.2518 427.148 79.1331 426.908 78.0158C426.448 75.7811 426.176 73.5438 426.01 71.3118C425.844 69.0811 425.782 66.8558 425.808 64.6358C425.838 62.4158 425.945 60.2025 426.176 57.9945C426.289 56.8905 426.437 55.7878 426.622 54.6891C426.725 54.1385 426.829 53.5891 426.962 53.0398C427.081 52.4944 427.34 51.9331 428.022 51.5771C428.385 52.2624 428.389 52.7611 428.314 53.2905C428.248 53.8131 428.206 54.3438 428.166 54.8745C428.105 55.9411 428.08 57.0145 428.086 58.0878C428.1 60.2371 428.232 62.3891 428.438 64.5251C428.854 68.7971 429.622 73.0358 430.808 77.0371C431.12 78.0291 431.448 79.0118 431.833 79.9518C432.213 80.8931 432.632 81.8078 433.112 82.6478C433.586 83.4918 434.112 84.2771 434.697 84.9131C434.977 85.2558 435.29 85.5118 435.586 85.7811C435.885 85.9891 436.25 86.2718 436.425 86.3198C436.476 86.3464 436.525 86.3784 436.573 86.4118C436.598 86.4438 436.801 86.5011 436.906 86.5451L437.29 86.6851L437.482 86.7544L437.53 86.7718C437.708 86.8358 437.304 86.6891 437.349 86.7064L437.362 86.7104L437.388 86.7171L437.49 86.7491L439.13 87.2611L440.772 87.7758C441.321 87.9744 441.874 88.2051 442.426 88.4211C443.524 88.8144 444.654 89.4051 445.793 90.0385L446.676 90.6531C446.964 90.8504 447.258 91.0598 447.588 91.4065L448.057 91.8838C448.136 91.9691 448.206 92.0358 448.288 92.1371L448.55 92.5238C448.724 92.8064 448.868 93.0171 449.028 93.3785C449.114 93.6105 449.19 93.8544 449.248 94.0984C449.277 94.2331 449.3 94.3144 449.324 94.4944C449.354 94.7944 449.349 95.1078 449.308 95.4051L449.305 95.4304L449.198 93.9798L450.256 97.3664C450.657 98.4624 451.041 99.5744 451.466 100.654C451.934 101.7 452.338 102.806 452.878 103.79C453.364 104.828 453.946 105.766 454.521 106.717L455.469 108.046C455.793 108.481 456.162 108.864 456.502 109.28C456.861 109.678 457.26 110.03 457.634 110.413C458.049 110.758 458.45 111.112 458.888 111.446C459.777 112.108 460.709 112.732 461.758 113.376C462.786 114.014 463.874 114.694 464.966 115.465C466.126 116.274 467.136 117.21 467.874 117.816C468.49 118.309 469.304 118.642 470.26 118.8C472.186 119.114 474.473 118.754 476.677 118.158C478.9 117.556 481.11 116.677 483.269 115.682C484.349 115.181 485.418 114.646 486.473 114.082C487.521 113.521 488.585 112.918 489.564 112.312L489.566 112.309L490.402 111.772L491.122 112.232L493.286 113.613C493.99 114.102 494.765 114.473 495.393 115.076L497.36 116.745C498.049 117.264 498.566 117.974 499.153 118.606C499.693 119.28 500.348 119.856 500.776 120.618L502.181 122.794C502.596 123.549 502.926 124.352 503.298 125.126C503.704 125.889 503.916 126.728 504.182 127.542L504.569 128.769C504.677 129.182 504.736 129.606 504.82 130.025C504.957 130.868 505.174 131.697 505.202 132.549C505.248 133.396 505.38 134.24 505.352 135.085C505.328 135.929 505.362 136.774 505.284 137.612C505.193 138.449 505.164 139.29 505.017 140.117C504.877 140.944 504.772 141.774 504.566 142.586C504.398 143.406 504.181 144.213 503.948 145.016C503.72 145.809 503.444 146.633 502.764 147.258L502.362 147.105Z" fill="#231F20"/>
<path d="M445.846 27.2711C445.846 27.2711 446.021 26.5724 446.694 25.6764C447.383 24.8044 448.574 23.7844 450.013 22.5778C451.465 21.3898 453.207 20.0471 455.177 18.7538C456.149 18.0844 457.187 17.4498 458.254 16.8138C459.303 16.1471 460.435 15.5938 461.538 14.9724C462.654 14.3804 463.817 13.8858 464.941 13.3458C466.081 12.8458 467.235 12.4351 468.338 11.9938C469.451 11.5858 470.553 11.2644 471.591 10.9404C472.623 10.5964 473.633 10.3884 474.553 10.1564C475.479 9.95242 476.319 9.71909 477.082 9.60709C477.841 9.47376 478.502 9.35776 479.047 9.26309C479.591 9.16176 480.107 9.60176 480.481 10.0764C480.675 10.3711 480.825 10.5978 480.925 10.7498C481.034 10.9591 481.09 11.0671 481.09 11.0671C481.09 11.0671 481.07 11.1884 481.033 11.4244C480.987 11.6044 480.919 11.8711 480.831 12.2191C480.638 12.7991 480.323 13.3938 479.81 13.4898C479.297 13.5911 478.675 13.7151 477.959 13.8564C477.241 13.9764 476.455 14.2178 475.585 14.4298C474.722 14.6684 473.758 14.8204 472.782 15.1351C471.795 15.4164 470.754 15.7124 469.679 16.0191C468.611 16.3618 467.509 16.7151 466.389 17.0751C465.279 17.4738 464.151 17.8804 463.025 18.2858C461.917 18.7391 460.77 19.1271 459.701 19.6311C458.614 20.1044 457.547 20.5818 456.543 21.1018C454.509 22.0951 452.679 23.1658 451.138 24.1284C450.374 24.6164 449.674 25.0724 449.074 25.5018C448.466 25.9218 447.951 26.3044 447.474 26.5644C446.537 27.0938 445.846 27.2711 445.846 27.2711Z" fill="#231F20"/>
<path d="M522.412 51.1728C522.412 51.1728 522.618 51.1795 522.953 51.2715C523.301 51.3555 523.765 51.5342 524.285 51.8262C524.804 52.1248 525.364 52.5542 525.897 53.1342C526.429 53.7142 526.893 54.4648 527.358 55.3008C527.862 56.1168 528.296 57.0608 528.788 58.0408C529.208 59.0528 529.67 60.1182 530.021 61.2622C530.392 62.4022 530.722 63.5942 530.933 64.8355C531.23 66.0582 531.309 67.3368 531.424 68.6022C531.568 69.8675 531.436 71.1448 531.44 72.3875C531.36 73.6288 531.161 74.8395 531.03 76.0075C530.825 77.1675 530.528 78.2688 530.294 79.3142C530.085 80.3675 529.653 81.2982 529.38 82.1862C529.064 83.0622 528.828 83.8822 528.476 84.5528C528.152 85.2342 527.892 85.8368 527.64 86.3142C527.109 87.2635 526.462 87.6328 526.462 87.6328C526.462 87.6328 526.27 86.8755 526.537 85.8555C526.682 85.3488 526.906 84.7555 527.138 84.0648C527.41 83.3888 527.55 82.5728 527.762 81.7075C527.932 80.8315 528.252 79.9155 528.341 78.8982C528.452 77.8875 528.625 76.8328 528.709 75.7368C528.716 74.6342 528.786 73.5022 528.745 72.3568C528.618 71.2142 528.622 70.0502 528.414 68.9088C528.221 67.7662 528.065 66.6235 527.756 65.5288C527.609 64.9795 527.509 64.4248 527.332 63.8982C527.161 63.3702 526.99 62.8488 526.824 62.3355C526.5 61.3062 526.053 60.3568 525.685 59.4422C525.256 58.5515 524.885 57.6888 524.442 56.9462C524.046 56.1755 523.586 55.5355 523.313 54.8742C523.014 54.2315 522.818 53.6142 522.684 53.0742C522.55 52.5302 522.486 52.0622 522.452 51.7248C522.426 51.3648 522.412 51.1728 522.412 51.1728Z" fill="#231F20"/>
<path d="M487.177 16.8617C487.177 16.8617 486.924 15.6323 486.752 13.7257C486.659 12.771 486.62 11.6483 486.653 10.4177C486.701 9.18833 486.845 7.84433 487.271 6.487C487.483 5.80966 487.711 5.10566 488.019 4.38833C488.34 3.68566 488.721 2.947 489.26 2.31366C489.773 1.66033 490.433 1.12566 491.116 0.740331C491.803 0.360331 492.517 0.153663 493.16 0.0616628C493.489 0.00432947 493.791 -0.00633676 494.08 0.00299658C494.365 0.0176632 494.649 -0.0183365 494.888 0.0789968C495.373 0.253663 495.784 0.586997 496.051 1.02966C496.32 1.50033 496.492 1.95233 496.585 2.35766C496.681 2.73366 496.703 3.04033 496.705 3.02166C496.709 3.00166 496.576 3.287 496.381 3.62433C496.183 3.98833 495.928 4.383 495.655 4.779C495.381 5.135 495.123 5.48566 494.848 5.61366C494.587 5.74033 494.299 5.739 494.024 5.80966C493.737 5.847 493.46 5.88966 493.144 5.89766C492.835 5.919 492.465 5.895 492.068 5.983C491.248 6.08833 490.252 6.65233 489.619 7.57766C488.984 8.495 488.503 9.59766 488.133 10.6737C487.771 11.7563 487.569 12.8243 487.416 13.7457C487.135 15.5963 487.177 16.8617 487.177 16.8617Z" fill="#231F20"/>
<path d="M504.647 26.618C504.647 26.618 504.962 26.9514 505.447 27.5207C505.953 28.0794 506.53 28.938 507.311 29.9034C507.685 30.3967 508.157 30.882 508.623 31.41C509.135 31.902 509.633 32.454 510.23 32.942C510.797 33.462 511.417 33.954 512.067 34.4247C512.687 34.9314 513.411 35.322 514.079 35.7754C514.761 36.214 515.493 36.5687 516.171 36.9767C516.886 37.3247 517.587 37.6674 518.269 37.998C518.969 38.2847 519.646 38.562 520.287 38.826C520.921 39.114 521.566 39.27 522.138 39.478C523.295 39.8447 524.242 40.234 524.861 40.8207C525.49 41.3487 525.825 41.906 525.825 41.906C525.825 41.906 525.33 42.2807 524.509 42.486C524.093 42.6087 523.601 42.67 523.049 42.6634C522.49 42.6834 521.91 42.4834 521.273 42.2967C520.638 42.0914 519.93 41.938 519.222 41.6474C518.514 41.3514 517.771 41.0394 517.001 40.7154C516.258 40.3274 515.501 39.91 514.737 39.4794C514.01 38.982 513.261 38.4994 512.557 37.954C511.879 37.37 511.167 36.8394 510.562 36.2034C509.926 35.6034 509.331 34.9874 508.798 34.35C508.235 33.7447 507.781 33.082 507.314 32.49C506.893 31.8634 506.471 31.2887 506.147 30.7154C505.801 30.158 505.513 29.6287 505.289 29.1447C505.067 28.6594 504.923 28.21 504.823 27.8367C504.635 27.0794 504.647 26.618 504.647 26.618Z" fill="#231F20"/>
<path d="M505.412 19.0308C505.412 19.0308 505.773 19.3068 506.253 19.8348C506.712 20.3775 507.317 21.1762 508.128 22.0548C508.552 22.4762 508.974 22.9628 509.49 23.4068C509.978 23.8775 510.525 24.3308 511.113 24.7642C511.669 25.2348 512.334 25.5922 512.949 26.0148C513.62 26.3508 514.249 26.7642 514.933 27.0468C515.622 27.3162 516.261 27.6735 516.957 27.8348C517.298 27.9322 517.622 28.0588 517.949 28.1722C518.285 28.2375 518.617 28.3028 518.945 28.3655C519.273 28.4162 519.584 28.5335 519.901 28.5668C520.218 28.5935 520.53 28.6202 520.833 28.6455C521.137 28.6762 521.432 28.6948 521.717 28.7375C522.005 28.7255 522.285 28.7362 522.556 28.7602C523.098 28.8002 523.613 28.9628 524.088 29.0482C524.56 29.1255 524.996 29.2442 525.376 29.3855C525.752 29.5095 526.07 29.6535 526.293 29.7575C526.524 29.8775 526.646 29.9415 526.646 29.9415C526.646 29.9415 526.57 30.0482 526.428 30.2482C526.278 30.4322 526.05 30.6948 525.732 30.9695C525.418 31.2615 525.009 31.5628 524.513 31.8495C524.016 32.1268 523.404 32.2695 522.733 32.4175C522.396 32.4802 522.042 32.5322 521.674 32.5642C521.305 32.5522 520.922 32.5108 520.53 32.4815C519.742 32.4268 518.912 32.3655 518.086 32.1042C517.67 31.9922 517.25 31.8775 516.824 31.7628C516.418 31.5908 516.002 31.4322 515.598 31.2402C514.766 30.9015 514.008 30.4122 513.261 29.9215C512.52 29.4268 511.857 28.8335 511.213 28.2655C510.625 27.6335 510 27.0708 509.513 26.4255C508.993 25.8108 508.526 25.1975 508.114 24.5962C507.678 24.0162 507.344 23.4135 507.004 22.8882C506.384 21.7935 505.881 20.8855 505.638 20.1895C505.397 19.4908 505.412 19.0308 505.412 19.0308Z" fill="#231F20"/>
<path d="M513.043 8.69362C513.043 8.69362 515.606 9.61362 519.256 11.4603C520.159 11.9376 521.144 12.4456 522.166 13.027C523.198 13.5896 524.239 14.263 525.33 14.947C526.407 15.651 527.524 16.387 528.602 17.2243C529.676 18.067 530.768 18.931 531.791 19.9123C532.318 20.3763 532.819 20.883 533.298 21.4176C533.788 21.9363 534.255 22.479 534.672 23.0803L535.315 23.9523C535.52 24.251 535.688 24.591 535.874 24.907L536.407 25.871C536.543 26.203 536.678 26.5323 536.81 26.8603C537.27 28.0483 537.782 29.0963 538.04 30.463C538.182 31.1043 538.37 31.723 538.447 32.3323C538.5 32.9443 538.552 33.5363 538.602 34.1043C538.683 34.6656 538.599 35.239 538.571 35.7723C538.522 36.3083 538.526 36.8136 538.38 37.2976C538.262 37.7776 538.151 38.2283 538.05 38.6443C537.879 39.0536 537.722 39.4296 537.579 39.7696C537.36 40.503 536.638 40.8003 535.99 40.771C535.668 40.767 535.328 40.6456 535.158 40.603C534.95 40.527 534.819 40.4536 534.824 40.459C534.824 40.459 534.638 40.0936 534.287 39.4083C534.224 39.2803 534.156 39.1576 534.115 39.031C534.055 38.8963 534.007 38.7696 533.987 38.659C533.923 38.419 534.036 38.2936 534.12 38.0776C534.211 37.875 534.311 37.6496 534.422 37.4043C534.491 37.131 534.567 36.8336 534.647 36.5176C534.763 36.2136 534.75 35.8323 534.792 35.4523C534.816 35.0656 534.906 34.6723 534.839 34.2243C534.807 33.783 534.776 33.3243 534.743 32.8483C534.695 32.3763 534.547 31.9096 534.456 31.4163C534.327 30.483 533.871 29.2736 533.468 28.083L533.196 27.283L532.822 26.5323C532.69 26.2803 532.588 26.019 532.434 25.7683L531.935 25.019C531.624 24.5043 531.24 24.015 530.834 23.5296C530.458 23.027 530.051 22.535 529.602 22.067C528.755 21.0976 527.799 20.1963 526.856 19.3136C526.374 18.879 525.896 18.447 525.422 18.0216C524.935 17.607 524.452 17.1963 523.978 16.795C522.046 15.2203 520.187 13.7843 518.56 12.5923C515.3 10.2136 513.043 8.69362 513.043 8.69362Z" fill="#231F20"/>
<path d="M506.236 49.5341C506.236 49.5341 506.853 50.1875 507.623 51.1968C508.403 52.2048 509.353 53.5728 510.225 54.9368C510.656 55.6115 511.087 56.2861 511.489 56.9195C511.684 57.2421 511.873 57.5328 512.064 57.7981C512.253 58.0688 512.433 58.3181 512.531 58.6035C512.625 58.9021 512.689 59.1488 512.72 59.4048C512.747 59.6688 512.74 59.9395 512.721 60.1901C512.692 60.6808 512.589 61.1061 512.589 61.1061C512.589 61.1061 512.212 61.2181 511.705 61.1635C511.447 61.1408 511.152 61.0795 510.844 60.9635C510.537 60.8435 510.22 60.6648 509.993 60.4275C509.745 60.1941 509.552 59.8835 509.345 59.5608C509.137 59.2355 508.908 58.9008 508.74 58.5341C508.375 57.8115 507.963 57.0408 507.677 56.2368C507.035 54.6488 506.625 52.9861 506.429 51.7061C506.216 50.4288 506.236 49.5341 506.236 49.5341Z" fill="#231F20"/>
<path d="M558.193 128.718C558.193 128.718 558.685 128.42 559.668 128.162C560.657 127.94 562.116 127.664 563.996 127.4C565.874 127.142 568.173 126.918 570.844 126.834C573.512 126.756 576.56 126.819 579.894 127.327C583.213 127.854 586.852 128.84 590.388 130.779C593.917 132.698 597.289 135.647 599.71 139.423L600.594 140.856L600.621 140.902L600.708 141.062L600.75 141.147L600.834 141.316L601.004 141.656L601.345 142.336C601.8 143.247 602.258 144.163 602.72 145.086C603.625 146.947 604.629 148.735 605.401 150.804C606.224 152.818 607.053 154.847 607.885 156.884C608.329 157.903 608.654 158.927 608.994 159.956L610.017 163.042C610.668 165.107 611.453 167.138 611.99 169.223C612.56 171.3 613.129 173.368 613.693 175.422C614.292 177.463 614.738 179.527 615.188 181.562C615.638 183.596 616.084 185.606 616.522 187.58C616.885 189.574 617.241 191.534 617.59 193.452C617.95 195.366 618.284 197.244 618.505 199.098C618.746 200.942 618.982 202.738 619.21 204.474C619.389 206.222 619.473 207.938 619.6 209.567C619.656 210.398 619.712 211.212 619.765 212.007C619.77 212.774 619.776 213.523 619.78 214.254C619.79 215.716 619.801 217.102 619.81 218.404C619.809 219.712 619.853 220.914 619.812 222.064C619.75 223.222 619.718 224.283 619.646 225.239C619.557 226.198 619.446 227.039 619.244 227.778C619.021 228.523 618.762 229.136 618.546 229.624C618.138 230.606 617.601 231.063 617.638 231.046C617.638 231.046 617.492 230.487 617.214 229.439C617.101 228.93 616.969 228.315 616.894 227.615C616.794 226.906 616.665 226.076 616.633 225.166C616.598 224.252 616.609 223.244 616.596 222.147C616.572 221.044 616.457 219.811 616.385 218.516C616.3 217.216 616.212 215.832 616.116 214.375C616.069 213.646 616.021 212.898 615.972 212.132C615.877 211.4 615.78 210.652 615.682 209.888C615.469 208.331 615.301 206.714 615.03 205.038C614.714 203.36 614.388 201.628 614.052 199.846C613.756 198.06 613.345 196.239 612.905 194.38C612.48 192.52 612.044 190.622 611.601 188.69C611.082 186.774 610.556 184.828 610.024 182.856C609.48 180.89 608.988 178.884 608.348 176.904C607.128 172.927 605.954 168.867 604.508 164.912C603.798 162.94 603.166 160.895 602.402 158.99C601.641 157.079 600.882 155.176 600.129 153.288C599.458 151.398 598.432 149.526 597.546 147.675C597.092 146.75 596.638 145.83 596.19 144.918L595.58 143.68L594.886 142.542C593.917 141.062 592.82 139.711 591.601 138.515C590.368 137.332 589.037 136.295 587.66 135.36C586.253 134.472 584.813 133.678 583.354 132.992C581.878 132.352 580.42 131.739 578.958 131.279C573.117 129.343 567.76 128.894 564.072 128.788C562.217 128.736 560.753 128.783 559.754 128.819C558.753 128.819 558.193 128.718 558.193 128.718Z" fill="#231F20"/>
<path d="M617.866 238.532C617.866 238.532 618.038 239.159 617.99 240.271C617.969 241.38 617.659 242.932 616.911 244.766C616.198 246.612 615.283 248.834 614.143 251.342C612.989 253.842 611.611 256.631 609.975 259.604C606.638 265.502 602.291 272.182 596.679 278.574C593.895 281.782 590.834 284.939 587.535 287.943C584.23 290.968 580.711 293.76 576.959 296.424C573.225 298.879 569.487 301.334 565.81 303.751C561.953 305.948 558.159 308.112 554.486 310.206C550.721 312.087 547.081 313.902 543.629 315.626C540.106 317.187 536.775 318.664 533.699 320.028C530.578 321.275 527.718 322.42 525.182 323.432C522.615 324.366 520.379 325.176 518.537 325.846C516.681 326.478 515.21 326.938 514.181 327.171C513.153 327.408 512.589 327.475 512.589 327.475C512.589 327.475 513.086 327.192 514.046 326.771C514.991 326.302 516.419 325.743 518.246 325.058C520.051 324.315 522.243 323.415 524.758 322.382C527.237 321.268 530.034 320.012 533.085 318.643C536.081 317.162 539.326 315.558 542.759 313.86C546.118 312.031 549.661 310.1 553.326 308.104C556.878 305.951 560.547 303.724 564.278 301.464C567.909 298.982 571.598 296.462 575.286 293.939C577.046 292.73 578.762 291.266 580.497 289.948C581.378 289.295 582.198 288.571 583.005 287.834C583.818 287.104 584.629 286.38 585.437 285.656C588.619 282.715 591.574 279.626 594.259 276.484C596.949 273.35 599.361 270.162 601.573 267.084C603.769 263.994 605.685 260.96 607.37 258.11C609.066 255.264 610.507 252.588 611.722 250.184C612.919 247.772 613.89 245.634 614.65 243.856C615.349 242.056 616.093 240.722 616.754 239.85C617.371 238.976 617.866 238.532 617.866 238.532Z" fill="#231F20"/>
<path d="M570.219 185.212C570.194 185.219 570.686 185.198 570.822 185.378C570.9 185.571 570.983 185.868 571.108 186.252C571.354 187.02 571.711 188.148 572.167 189.582C573.062 192.458 574.342 196.566 575.876 201.496C576.639 203.964 577.391 206.66 578.195 209.51C578.596 210.935 579.008 212.398 579.428 213.895C579.824 215.399 580.164 217.004 580.539 218.603C580.718 219.408 580.896 220.219 581.076 221.038L581.347 222.268L581.414 222.576L581.448 222.731L581.466 222.808L581.472 222.847C581.482 222.956 581.467 222.659 581.495 223.1L581.482 223.72C581.447 224.012 581.406 224.31 581.354 224.604L581.271 225.039L581.183 225.366C581.064 225.799 580.955 226.252 580.816 226.659C580.559 227.5 580.274 228.316 579.984 229.13C578.807 232.372 577.486 235.558 576.148 238.74C573.467 245.098 570.531 251.322 567.855 257.186C565.131 263.026 562.588 268.476 560.411 273.148C558.26 277.83 556.53 281.755 555.418 284.535C554.872 285.926 554.462 287.028 554.25 287.784C554.127 288.166 554.091 288.45 553.948 288.626C553.816 288.804 553.655 288.903 553.655 288.903C553.655 288.903 553.528 288.788 553.464 288.558C553.374 288.319 553.452 287.996 553.555 287.604C553.735 286.795 554.09 285.66 554.564 284.222C555.532 281.358 557.052 277.328 558.948 272.526C560.871 267.738 563.114 262.151 565.516 256.166C567.946 250.207 570.536 243.85 573.128 237.492C574.404 234.319 575.667 231.132 576.75 227.995C577.015 227.212 577.275 226.432 577.495 225.667C577.622 225.278 577.698 224.914 577.796 224.543L577.866 224.266L577.896 224.086C577.918 223.971 577.951 223.859 577.988 223.744L578.003 223.123C578.032 223.538 578.007 223.216 578.012 223.299L578.003 223.263L577.987 223.188L577.955 223.042L577.891 222.746L577.635 221.571C577.466 220.79 577.298 220.014 577.131 219.244C576.527 216.179 575.811 213.154 575.164 210.268C574.514 207.391 573.9 204.671 573.38 202.147C572.282 197.108 571.364 192.91 570.724 189.97C570.4 188.5 570.144 187.346 569.97 186.558C569.887 186.163 569.808 185.864 569.78 185.656C569.808 185.435 570.244 185.206 570.219 185.212Z" fill="#231F20"/>
<path d="M551.615 314.994C551.615 314.994 551.828 315.055 552.083 315.188C552.393 315.315 552.663 315.52 552.907 315.804C553.144 316.09 553.187 316.466 553.284 316.892C553.389 317.319 553.437 317.798 553.492 318.324C553.532 318.851 553.569 319.422 553.536 320.03C553.507 320.636 553.476 321.278 553.444 321.939C553.403 323.258 553.269 324.671 553.181 326.072C553.147 326.772 553.02 327.475 552.945 328.163C552.853 328.851 552.763 329.526 552.676 330.18C552.392 331.47 552.128 332.675 551.901 333.707C551.567 334.715 551.241 335.534 551.036 336.108C550.827 336.678 550.707 337.003 550.707 337.003C550.707 337.003 550.757 336.656 550.847 336.051C550.928 335.447 551.076 334.596 551.192 333.578C551.232 332.55 551.279 331.351 551.331 330.064C551.311 329.42 551.292 328.755 551.272 328.079C551.245 327.406 551.268 326.727 551.199 326.04C551.071 324.672 551.039 323.31 550.831 322.035C550.676 320.759 550.451 319.579 550.388 318.56C550.359 318.052 550.357 317.576 550.371 317.166C550.385 316.75 550.355 316.394 550.533 316.076C550.72 315.758 550.932 315.49 551.204 315.295C551.421 315.104 551.615 314.994 551.615 314.994Z" fill="#231F20"/>
<path d="M578.807 355.421C578.807 355.421 579.501 355.537 580.77 355.854C582.045 356.158 583.909 356.622 586.242 357.344C590.926 358.741 597.466 361.189 605.073 364.769C608.865 366.581 612.907 368.712 617.021 371.306C621.102 373.94 625.342 376.949 629.034 381.098C629.946 382.144 630.813 383.272 631.581 384.51C631.967 385.128 632.321 385.781 632.646 386.457L633.513 388.3C634.65 390.794 635.753 393.308 636.779 395.92C638.818 401.125 640.653 406.657 641.062 412.716C641.225 415.737 641.026 418.92 639.951 422.037C638.946 425.156 636.867 428.081 634.243 430.085C632.929 431.125 631.555 431.853 630.043 432.525C628.91 433.018 627.191 433.6 625.927 433.952C623.213 434.737 620.557 435.281 617.947 435.774C612.731 436.728 607.709 437.43 602.933 437.965C598.161 438.506 593.653 438.948 589.485 439.269C581.154 439.954 574.201 440.244 569.337 440.468C566.905 440.581 564.993 440.622 563.686 440.657C562.381 440.685 561.683 440.701 561.683 440.701L561.541 438.581C561.541 438.581 564.291 438.242 569.107 437.653C573.923 437.077 580.794 436.16 589.017 435.028C593.123 434.434 597.574 433.817 602.25 433.042C606.922 432.257 611.847 431.436 616.833 430.318C619.317 429.756 621.826 429.128 624.242 428.378C624.849 428.186 625.455 427.994 625.97 427.792C626.246 427.686 626.497 427.609 626.795 427.484L627.725 427.077C628.667 426.622 629.714 426.054 630.518 425.361C633.946 422.689 635.099 418.012 634.981 412.966C634.853 407.913 633.739 402.608 632.213 397.51C631.439 394.964 630.55 392.433 629.587 390.002L628.85 388.174C628.618 387.644 628.361 387.117 628.065 386.604C627.479 385.573 626.781 384.585 626.018 383.641C622.935 379.853 618.969 376.834 615.118 374.217C611.241 371.594 607.351 369.4 603.718 367.453C600.087 365.493 596.674 363.837 593.627 362.409C590.574 360.976 587.914 359.726 585.723 358.697C581.322 356.613 578.807 355.421 578.807 355.421Z" fill="#231F20"/>
<path d="M446.305 214.543L449.85 214.182C451.038 214.073 452.201 213.917 453.41 213.846L457.082 213.726C458.304 213.693 459.526 213.618 460.734 213.705L464.364 213.854C465.574 213.863 466.776 214.085 467.98 214.198C469.18 214.363 470.389 214.413 471.576 214.674L475.142 215.349C476.326 215.586 477.486 215.949 478.657 216.242C479.833 216.521 480.977 216.915 482.116 217.315C483.262 217.697 484.402 218.087 485.505 218.585C486.616 219.055 487.738 219.495 488.805 220.066C489.886 220.599 490.965 221.13 491.994 221.762C493.049 222.345 494.058 222.999 495.054 223.677C496.053 224.347 497.016 225.071 497.946 225.833C498.884 226.597 499.774 227.389 500.617 228.291L500.009 228.351C500.565 227.445 501.185 226.639 501.844 225.845C502.51 225.063 503.19 224.285 503.934 223.577L505.041 222.501L506.21 221.493C506.973 220.797 507.817 220.21 508.636 219.583C509.442 218.934 510.338 218.427 511.193 217.847C512.042 217.255 512.964 216.793 513.861 216.282L515.218 215.533L516.618 214.878C517.562 214.465 518.474 213.954 519.45 213.621L522.35 212.517C523.322 212.163 524.324 211.907 525.31 211.598C526.302 211.305 527.289 210.979 528.304 210.786L531.333 210.111C532.34 209.853 533.369 209.763 534.389 209.591L537.461 209.134C539.517 208.942 541.58 208.797 543.646 208.627L543.701 212.627C541.726 212.659 539.745 212.666 537.764 212.717L534.806 212.961C533.824 213.058 532.824 213.077 531.853 213.261L528.918 213.711C527.932 213.831 526.976 214.079 526.009 214.297C525.05 214.53 524.069 214.71 523.12 214.986L520.278 215.855C519.317 216.111 518.425 216.543 517.49 216.878L516.102 217.415L514.757 218.047C513.865 218.479 512.944 218.865 512.096 219.378C511.24 219.879 510.336 220.313 509.524 220.883C508.698 221.434 507.841 221.947 507.064 222.569L505.87 223.465L504.733 224.433C503.966 225.07 503.265 225.777 502.569 226.487C501.888 227.205 501.221 227.969 500.665 228.751L500.392 229.134L500.056 228.813C499.228 228.026 498.3 227.283 497.353 226.599C496.406 225.911 495.429 225.258 494.42 224.662C493.414 224.058 492.397 223.478 491.338 222.969C490.308 222.413 489.226 221.957 488.15 221.498C487.09 221.005 485.973 220.641 484.873 220.246C483.782 219.825 482.656 219.51 481.528 219.205C480.404 218.881 479.282 218.562 478.129 218.359C476.982 218.141 475.85 217.854 474.696 217.69L471.225 217.237C470.077 217.047 468.898 217.07 467.74 216.975C466.574 216.933 465.418 216.782 464.249 216.842L460.756 216.897C459.588 216.877 458.441 217.018 457.292 217.114L453.85 217.414C452.694 217.546 451.509 217.774 450.34 217.949L446.821 218.51L446.305 214.543Z" fill="#231F20"/>
<path d="M374.934 145.727L376.94 145.807C377.601 145.899 378.268 145.979 378.928 146.09C379.577 146.251 380.234 146.386 380.877 146.574C381.508 146.799 382.154 146.987 382.77 147.25C384.004 147.776 385.2 148.398 386.314 149.152C387.426 149.908 388.484 150.759 389.417 151.74C389.894 152.223 390.356 152.719 390.757 153.271L391.381 154.079L391.928 154.946C392.313 155.512 392.612 156.128 392.906 156.75C393.233 157.355 393.433 158.018 393.669 158.666C394.106 159.967 394.368 161.326 394.482 162.808C394.545 163.523 394.496 164.076 394.509 164.719L394.502 165.056L394.476 165.303L394.42 165.796L394.308 166.783C394.218 168.103 393.837 169.407 393.554 170.718C393.106 171.999 392.706 173.303 392.024 174.512L391.552 175.432L390.97 176.298C390.586 176.876 390.201 177.456 389.713 177.962C388.822 179.036 387.768 179.98 386.64 180.798C385.509 181.619 384.284 182.302 383.012 182.839C381.74 183.384 380.42 183.803 379.08 184.075C378.41 184.222 377.738 184.35 377.057 184.411C376.38 184.51 375.7 184.555 375.017 184.57C373.653 184.638 372.281 184.531 370.906 184.36L372.942 183.602L372.938 183.606L353.732 205.939L344.129 217.104C343.71 217.583 343.37 218.008 342.886 218.528C342.414 219.052 341.893 219.534 341.33 219.963C340.208 220.827 338.924 221.49 337.548 221.883C336.174 222.274 334.704 222.402 333.257 222.174C332.537 222.043 331.821 221.86 331.146 221.559C330.81 221.415 330.474 221.262 330.125 221.038C329.96 220.936 329.769 220.826 329.628 220.727L329.262 220.447C326.845 218.62 325.734 215.571 325.912 212.776C325.986 211.367 326.346 209.995 326.934 208.742L327.416 207.824L328.01 206.912L328.58 206.186L329.213 205.444L338.817 194.278L358.022 171.944L358.025 171.942L357.897 172.559C357.697 171.834 357.454 171.107 357.289 170.378C357.114 169.643 356.912 168.939 356.773 168.164C356.628 167.407 356.445 166.627 356.389 165.903C356.357 165.504 356.281 165.236 356.286 164.728L356.317 163.564C356.308 162.784 356.49 162.02 356.572 161.246C356.745 160.488 356.89 159.716 357.14 158.976C357.393 158.238 357.632 157.491 357.988 156.791C358.289 156.066 358.692 155.394 359.092 154.718C359.49 154.043 359.98 153.423 360.448 152.794C360.976 152.212 361.454 151.58 362.05 151.063L362.914 150.256L363.85 149.531C364.454 149.019 365.165 148.659 365.824 148.218C366.532 147.87 367.218 147.46 367.962 147.186C368.701 146.891 369.442 146.604 370.217 146.42C370.968 146.18 371.79 146.059 372.605 145.926C373.428 145.788 374.106 145.799 374.864 145.728L374.934 145.727ZM375.005 148.506C374.286 148.546 373.474 148.515 372.833 148.612C372.184 148.703 371.534 148.762 370.861 148.951C370.185 149.082 369.537 149.308 368.888 149.538C368.232 149.748 367.628 150.087 366.994 150.362C366.413 150.73 365.772 151.011 365.23 151.444L364.385 152.048L363.6 152.728C363.053 153.162 362.618 153.707 362.126 154.2C361.696 154.743 361.238 155.274 360.862 155.86C360.081 157.015 359.45 158.272 358.977 159.59C358.728 160.243 358.576 160.931 358.389 161.607C358.294 162.302 358.098 162.986 358.08 163.691L357.998 164.746C357.968 164.978 358.032 165.447 358.044 165.786C358.066 166.543 358.205 167.215 358.304 167.918C358.392 168.608 358.561 169.339 358.693 170.054C358.821 170.778 359.017 171.468 359.176 172.18L359.26 172.556L359.048 172.798L359.045 172.802L340.426 195.626L331.117 207.038L330.57 207.708L330.022 208.446L329.634 209.09L329.28 209.811C328.85 210.791 328.609 211.844 328.584 212.89C328.509 214.974 329.39 217.026 330.972 218.147C332.57 219.356 334.721 219.586 336.677 218.952C337.654 218.646 338.576 218.14 339.38 217.487C339.784 217.162 340.158 216.798 340.496 216.4C340.842 216.015 341.26 215.475 341.638 215.019L350.948 203.607L369.568 180.783L369.572 180.778L370.378 179.839L371.606 180.019C372.693 180.178 373.804 180.304 374.925 180.275C375.485 180.28 376.044 180.258 376.6 180.191C377.161 180.158 377.71 180.066 378.258 179.962C379.356 179.771 380.428 179.46 381.449 179.056C382.473 178.656 383.446 178.146 384.342 177.532C385.238 176.92 386.073 176.215 386.788 175.396C387.185 175.02 387.492 174.567 387.806 174.119L388.288 173.454L388.681 172.724C389.261 171.78 389.609 170.702 390.021 169.655C390.277 168.543 390.649 167.462 390.752 166.295L390.876 165.434L390.937 165.003L390.968 164.787C390.96 164.992 390.966 164.835 390.964 164.878V164.863L390.965 164.834L390.968 164.775L390.97 164.659C390.976 164.06 391.042 163.368 390.994 162.846C390.928 161.851 390.77 160.747 390.44 159.686C390.26 159.163 390.126 158.622 389.866 158.127C389.642 157.619 389.418 157.108 389.112 156.639L388.686 155.914L388.188 155.236C387.873 154.768 387.497 154.348 387.11 153.935C386.357 153.095 385.485 152.356 384.562 151.691C383.638 151.026 382.636 150.471 381.597 149.992C381.078 149.754 380.53 149.583 379.998 149.371C379.454 149.196 378.896 149.068 378.344 148.912L376.65 148.622L374.934 148.507L375.005 148.506Z" fill="#231F20"/>
<path d="M374.53 146.957C364.698 146.957 356.729 154.928 356.729 164.759C356.729 166.52 357.647 170.573 358.133 172.209L329.19 206.763C325.938 210.644 324.341 213.225 327.739 216.072C331.138 218.92 337.058 217.911 340.31 214.029L369.519 178.029C376.925 180.531 390.651 176.956 391.846 161.263C392.593 151.459 384.362 146.957 374.53 146.957Z" fill="#231F20"/>
<path d="M10.2 252.888C1.936 252.888 0 246.818 0 231.97C0 226.545 0.257334 221.64 0.774667 217.249L6.71467 217.897C6.328 222.028 6.068 226.545 6.068 231.324C6.068 241.653 6.328 246.173 9.55467 246.173C11.3613 246.173 12.2667 244.882 12.2667 242.168V231.712C12.2667 223.32 11.7507 217.38 10.716 213.764L4.26 192.07C2.06533 184.581 0 177.221 0 169.086V159.79C0 151.785 3.35733 147.781 9.94267 147.781C17.948 147.781 19.884 154.497 19.884 170.12C19.884 175.026 19.6267 179.676 19.1107 183.806L12.912 183.162C13.5587 178.641 13.816 173.736 13.816 168.441C13.816 158.758 13.1707 154.366 10.3293 154.366C8.26267 154.366 7.61867 155.658 7.61867 158.758V166.892C7.61867 172.573 8.90933 178.772 10.8467 185.745L16.916 207.178C18.9813 214.278 19.884 222.028 19.884 230.292V240.621C19.884 248.756 16.5267 252.888 10.2 252.888Z" fill="#1C1B1C"/>
<path d="M63.1421 181.872C63.1421 177.997 62.6261 176.448 60.8181 176.448C58.8808 176.448 57.8488 178.512 57.8488 182.387V240.233C57.8488 244.623 58.7514 246.819 61.0768 246.819C62.8834 246.819 63.1421 245.268 63.1421 241.395V181.872ZM63.2714 252.631C61.0768 252.631 59.5274 251.727 58.1061 249.66H57.8488V277.679H51.1341V178.641C51.1341 176.577 50.8754 174.251 50.4874 171.669H56.8141C57.0728 172.96 57.3328 174.251 57.4594 175.672H57.7194C59.3968 172.185 61.2048 170.637 64.0448 170.637C67.9194 170.637 69.8568 174.123 69.8568 180.967V241.008C69.8568 248.756 67.7914 252.631 63.2714 252.631" fill="#1C1B1C"/>
<path d="M114.922 178.254C110.402 178.254 108.982 182.258 108.982 190.78V251.854H102.138V178.254C102.138 175.932 102.01 173.736 101.622 171.67H107.305C107.819 174.122 108.078 176.448 108.078 178.513H108.337C109.886 173.736 112.21 171.41 115.05 171.282L116.341 171.41V178.385C115.567 178.254 115.05 178.254 114.922 178.254Z" fill="#1C1B1C"/>
<path d="M156.371 181.224C156.371 178.125 155.725 176.704 153.916 176.704C151.981 176.704 151.205 178.125 151.205 181.224V208.471H156.371V181.224ZM151.205 214.537V242.043C151.205 245.139 151.852 246.56 153.659 246.56C156.241 246.56 157.016 242.816 157.016 234.94C157.016 230.937 156.759 227.063 156.113 223.189L161.665 222.671C162.311 226.417 162.697 230.551 162.697 235.197C162.697 247.077 160.116 252.631 153.531 252.631C147.333 252.631 144.363 249.143 144.363 242.043V182.128C144.363 174.251 147.333 170.637 154.047 170.637C160.245 170.637 163.215 174.38 163.215 182.128V214.537H151.205Z" fill="#1C1B1C"/>
<path d="M213.057 235.198C213.057 247.206 210.603 252.63 203.758 252.63C197.819 252.63 194.85 249.013 194.85 242.042V181.998C194.85 174.252 197.691 170.638 204.146 170.638C210.474 170.638 213.057 176.189 213.057 188.068C213.057 192.586 212.798 196.72 212.023 200.593L206.601 200.078C207.117 196.46 207.374 192.46 207.374 188.198C207.374 180.45 206.729 176.705 204.146 176.705C202.209 176.705 201.694 178.254 201.694 181.482V242.169C201.694 245.14 202.339 246.56 204.146 246.56C206.729 246.56 207.374 242.945 207.374 234.941C207.374 231.712 207.117 227.709 206.471 223.189L212.023 222.67C212.669 227.193 213.057 231.324 213.057 235.198Z" fill="#1C1B1C"/>
<path d="M256.054 251.854V180.191C256.054 177.867 255.536 176.704 254.116 176.704C252.179 176.704 250.888 179.028 250.888 183.55V251.854H244.044V148.556H250.759V175.543H251.019C252.566 172.186 254.763 170.638 257.732 170.638C261.607 170.638 262.899 173.478 262.899 179.804V251.854H256.054Z" fill="#1C1B1C"/>
<path d="M160.123 303.347H159.478L156.766 352.284H162.835L160.123 303.347ZM164.514 378.755L163.223 358.997H156.25L155.089 378.755H148.373L156.121 275.453H164.126L172.002 378.755H164.514Z" fill="#1C1B1C"/>
<path d="M213.968 378.754L210.094 340.017L208.674 341.309V378.754H201.83V275.453H208.674V332.784H209.191L213.323 298.569H220.295L215.259 332.526L220.94 378.754H213.968Z" fill="#1C1B1C"/>
<path d="M262.13 379.012C255.028 379.012 252.704 375.396 252.704 365.972V303.992H249.218V298.569H252.704V279.716C255.158 278.425 257.224 277.004 259.161 275.453L259.548 275.843V298.569H265.616V303.992H259.548V367.389C259.548 371.651 260.324 373.072 263.681 373.072C264.196 373.072 264.841 372.941 265.616 372.815V378.755C264.712 378.881 263.42 379.012 262.13 379.012Z" fill="#1C1B1C"/>
</svg>
