<svg xmlns="http://www.w3.org/2000/svg" xmlns:xlink="http://www.w3.org/1999/xlink" width="2560" zoomAndPan="magnify" viewBox="0 0 1920 1079.999946" height="1440" preserveAspectRatio="xMidYMid meet" version="1.0"><defs><g/><clipPath id="c1d09b6349"><path d="M 1442.472656 372.316406 L 1676.230469 372.316406 L 1676.230469 707.476562 L 1442.472656 707.476562 Z M 1442.472656 372.316406 " clip-rule="nonzero"/></clipPath></defs><rect x="-192" width="2304" fill="#ffffff" y="-107.999995" height="1295.999935" fill-opacity="1"/><rect x="-192" width="2304" fill="#97b0b0" y="-107.999995" height="1295.999935" fill-opacity="1"/><path fill="#336666" d="M 1653.648438 427.734375 C 1654.035156 409.074219 1639.21875 393.625 1620.566406 393.238281 C 1601.910156 392.851562 1586.46875 407.675781 1586.082031 426.367188 C 1586.082031 426.8125 1586.082031 427.257812 1586.082031 427.734375 C 1585.695312 446.394531 1600.511719 461.84375 1619.195312 462.230469 C 1637.851562 462.585938 1653.261719 447.765625 1653.648438 429.105469 C 1653.648438 428.65625 1653.648438 428.179688 1653.648438 427.734375 " fill-opacity="1" fill-rule="nonzero"/><g clip-path="url(#c1d09b6349)"><path fill="#336666" d="M 1625.296875 541.28125 L 1662.753906 513.304688 L 1667.097656 519.941406 C 1668.703125 522.203125 1671.828125 522.707031 1674.085938 521.101562 C 1676.199219 519.582031 1676.824219 516.695312 1675.484375 514.464844 L 1668.554688 503.867188 C 1669.445312 497.171875 1665.3125 490.832031 1658.824219 488.957031 L 1653.828125 481.277344 C 1657.425781 475.625 1655.761719 468.125 1650.109375 464.523438 C 1644.457031 460.921875 1636.957031 462.585938 1633.359375 468.242188 C 1629.757812 473.898438 1631.394531 481.398438 1637.078125 485.027344 C 1639.546875 486.605469 1642.523438 487.230469 1645.4375 486.785156 L 1647.875 490.476562 C 1647.550781 490.683594 1647.222656 490.890625 1646.894531 491.128906 L 1623.214844 508.839844 C 1622.140625 509.640625 1620.59375 509.433594 1619.761719 508.332031 C 1619.613281 508.152344 1619.492188 507.917969 1619.40625 507.679688 L 1610.0625 482.199219 C 1607.710938 475.742188 1603.367188 470.175781 1597.6875 466.308594 L 1463.714844 374.636719 C 1457.46875 370.441406 1449.019531 372.078125 1444.796875 378.328125 C 1440.628906 384.519531 1442.207031 392.882812 1448.335938 397.136719 L 1531.222656 453.835938 C 1534.523438 456.097656 1535.746094 460.414062 1534.109375 464.074219 L 1495.609375 549.375 C 1492.8125 555.566406 1492.664062 562.648438 1495.222656 568.929688 L 1523.277344 637.890625 L 1458.035156 676.851562 C 1450.238281 681.613281 1447.800781 691.792969 1452.558594 699.589844 C 1457.230469 707.238281 1467.199219 709.769531 1474.960938 705.246094 L 1546.277344 662.625 C 1556.777344 656.375 1561.152344 643.367188 1556.539062 632.027344 L 1540.5625 592.679688 C 1540.058594 591.429688 1540.652344 589.972656 1541.933594 589.464844 C 1542.617188 589.199219 1543.390625 589.230469 1544.046875 589.585938 L 1591.585938 615.539062 L 1633.683594 696.105469 C 1638 704.144531 1648.027344 707.148438 1656.058594 702.832031 C 1663.941406 698.578125 1667.007812 688.785156 1662.960938 680.808594 L 1620.863281 600.210938 C 1617.828125 594.40625 1613.128906 589.644531 1607.386719 586.519531 L 1573.796875 568.1875 C 1572.277344 567.351562 1571.625 565.507812 1572.339844 563.929688 L 1591.171875 522.203125 C 1591.734375 520.953125 1593.195312 520.386719 1594.445312 520.921875 C 1595.070312 521.191406 1595.542969 521.726562 1595.78125 522.351562 L 1599.949219 533.71875 C 1603.101562 542.261719 1612.59375 546.667969 1621.160156 543.511719 C 1622.648438 542.976562 1624.046875 542.203125 1625.324219 541.25 L 1625.296875 541.28125 " fill-opacity="1" fill-rule="nonzero"/></g><g fill="#000000" fill-opacity="1"><g transform="translate(484.562685, 581.624927)"><g><path d="M 21.84375 -79.4375 L 21.84375 0 L 10.796875 0 L 10.796875 -79.4375 Z M 21.84375 -79.4375 "/></g></g></g><g fill="#000000" fill-opacity="1"><g transform="translate(517.202697, 581.624927)"><g><path d="M 19.4375 -46.5625 C 22.800781 -49.757812 25.742188 -52.078125 28.265625 -53.515625 C 30.785156 -54.960938 33.765625 -55.6875 37.203125 -55.6875 C 40.640625 -55.6875 43.816406 -54.320312 46.734375 -51.59375 C 49.660156 -48.875 51.125 -44.195312 51.125 -37.5625 L 51.125 0 L 40.921875 0 L 40.921875 -36.359375 C 40.921875 -40.273438 40.21875 -43.210938 38.8125 -45.171875 C 37.414062 -47.140625 35.015625 -48.125 31.609375 -48.125 C 28.210938 -48.125 24.273438 -45.882812 19.796875 -41.40625 L 19.796875 0 L 9.59375 0 L 9.59375 -37.6875 C 9.59375 -43.125 7.554688 -47.484375 3.484375 -50.765625 L 9.59375 -55.3125 Z M 19.4375 -46.5625 "/></g></g></g><g fill="#000000" fill-opacity="1"><g transform="translate(577.202726, 581.624927)"><g><path d="M 36.953125 -54.234375 L 36.953125 -49.921875 L 22.4375 -49.921875 L 22.4375 0 L 12.359375 0 L 12.359375 -49.921875 L 2.515625 -51.84375 L 2.515625 -54.234375 L 12.484375 -54.234375 C 12.960938 -62.710938 15.21875 -69.632812 19.25 -75 C 23.289062 -80.363281 28.753906 -83.046875 35.640625 -83.046875 C 37.878906 -83.046875 40.921875 -82.5625 44.765625 -81.59375 L 43.5625 -73.796875 C 41.800781 -74.753906 39.539062 -75.59375 36.78125 -76.3125 C 34.019531 -77.039062 31.921875 -77.40625 30.484375 -77.40625 C 27.765625 -76.039062 25.785156 -73 24.546875 -68.28125 C 23.304688 -63.5625 22.601562 -58.878906 22.4375 -54.234375 Z M 36.953125 -54.234375 "/></g></g></g><g fill="#000000" fill-opacity="1"><g transform="translate(617.162744, 581.624927)"><g><path d="M 32.15625 -55.6875 C 39.195312 -55.6875 45.015625 -53.285156 49.609375 -48.484375 C 54.210938 -43.679688 56.515625 -37.082031 56.515625 -28.6875 C 56.515625 -23.320312 55.59375 -18.597656 53.75 -14.515625 C 51.914062 -10.441406 49.519531 -7.285156 46.5625 -5.046875 C 40.882812 -0.722656 34.546875 1.4375 27.546875 1.4375 C 20.546875 1.4375 14.742188 -0.957031 10.140625 -5.75 C 5.535156 -10.550781 3.234375 -17.15625 3.234375 -25.5625 C 3.234375 -30.914062 4.132812 -35.632812 5.9375 -39.71875 C 7.738281 -43.800781 10.117188 -46.960938 13.078125 -49.203125 C 18.753906 -53.523438 25.113281 -55.6875 32.15625 -55.6875 Z M 29.765625 -2.640625 C 33.285156 -2.640625 36.285156 -4 38.765625 -6.71875 C 43.242188 -11.519531 45.484375 -17.898438 45.484375 -25.859375 C 45.484375 -33.816406 44.117188 -40.015625 41.390625 -44.453125 C 38.671875 -48.898438 34.234375 -51.125 28.078125 -51.125 C 23.515625 -49.363281 20.050781 -46.257812 17.6875 -41.8125 C 15.332031 -37.375 14.15625 -32.015625 14.15625 -25.734375 C 14.15625 -19.453125 15.4375 -14.03125 18 -9.46875 C 20.5625 -4.914062 24.484375 -2.640625 29.765625 -2.640625 Z M 29.765625 -2.640625 "/></g></g></g><g fill="#000000" fill-opacity="1"><g transform="translate(677.162773, 581.624927)"><g><path d="M 20.28125 -50.640625 C 18.195312 -50.640625 16.492188 -49.859375 15.171875 -48.296875 C 13.859375 -46.734375 13.203125 -44.972656 13.203125 -43.015625 C 13.203125 -41.054688 14.140625 -39.175781 16.015625 -37.375 C 17.898438 -35.582031 20.179688 -33.984375 22.859375 -32.578125 C 25.535156 -31.179688 28.191406 -29.722656 30.828125 -28.203125 C 33.472656 -26.679688 35.734375 -24.71875 37.609375 -22.3125 C 39.492188 -19.914062 40.4375 -17.238281 40.4375 -14.28125 C 40.4375 -9.800781 38.632812 -6.0625 35.03125 -3.0625 C 31.4375 -0.0625 26.539062 1.4375 20.34375 1.4375 C 14.144531 1.4375 8.484375 0 3.359375 -2.875 L 3.359375 -7.4375 C 8.796875 -4.71875 13.710938 -3.359375 18.109375 -3.359375 C 22.515625 -3.359375 25.71875 -4.238281 27.71875 -6 C 29.71875 -7.757812 30.71875 -9.78125 30.71875 -12.0625 C 30.71875 -14.34375 29.816406 -16.378906 28.015625 -18.171875 C 26.210938 -19.972656 24.007812 -21.550781 21.40625 -22.90625 C 18.8125 -24.269531 16.234375 -25.710938 13.671875 -27.234375 C 11.117188 -28.753906 8.941406 -30.710938 7.140625 -33.109375 C 5.335938 -35.515625 4.4375 -38.414062 4.4375 -41.8125 C 4.4375 -45.21875 5.816406 -48.378906 8.578125 -51.296875 C 11.335938 -54.222656 15.597656 -55.6875 21.359375 -55.6875 C 27.117188 -55.6875 32.640625 -54.644531 37.921875 -52.5625 L 36.71875 -44.640625 C 30.800781 -47.835938 25.320312 -49.835938 20.28125 -50.640625 Z M 20.28125 -50.640625 "/></g></g></g><g fill="#000000" fill-opacity="1"><g transform="translate(721.802806, 581.624927)"><g/></g><g transform="translate(751.802803, 581.624927)"><g><path d="M 36.953125 -54.234375 L 36.953125 -49.921875 L 22.4375 -49.921875 L 22.4375 0 L 12.359375 0 L 12.359375 -49.921875 L 2.515625 -51.84375 L 2.515625 -54.234375 L 12.484375 -54.234375 C 12.960938 -62.710938 15.21875 -69.632812 19.25 -75 C 23.289062 -80.363281 28.753906 -83.046875 35.640625 -83.046875 C 37.878906 -83.046875 40.921875 -82.5625 44.765625 -81.59375 L 43.5625 -73.796875 C 41.800781 -74.753906 39.539062 -75.59375 36.78125 -76.3125 C 34.019531 -77.039062 31.921875 -77.40625 30.484375 -77.40625 C 27.765625 -76.039062 25.785156 -73 24.546875 -68.28125 C 23.304688 -63.5625 22.601562 -58.878906 22.4375 -54.234375 Z M 36.953125 -54.234375 "/></g></g></g><g fill="#000000" fill-opacity="1"><g transform="translate(791.762822, 581.624927)"><g><path d="M 47.640625 -16.078125 C 47.640625 -10.554688 49.71875 -6.195312 53.875 -3 L 47.640625 1.4375 L 37.921875 -7.3125 C 34.640625 -4.195312 31.71875 -1.957031 29.15625 -0.59375 C 26.59375 0.757812 23.570312 1.4375 20.09375 1.4375 C 16.613281 1.4375 13.414062 0.0976562 10.5 -2.578125 C 7.582031 -5.253906 6.125 -9.875 6.125 -16.4375 L 6.125 -54.234375 L 16.3125 -54.234375 L 16.3125 -15.84375 C 16.3125 -12 17.007812 -9.097656 18.40625 -7.140625 C 19.8125 -5.179688 22.253906 -4.203125 25.734375 -4.203125 C 29.210938 -4.203125 33.113281 -6.757812 37.4375 -11.875 L 37.4375 -54.234375 L 47.640625 -54.234375 Z M 34.734375 -66.65625 C 33.578125 -67.820312 33 -69.242188 33 -70.921875 C 33 -72.597656 33.578125 -74.015625 34.734375 -75.171875 C 35.898438 -76.335938 37.320312 -76.921875 39 -76.921875 C 40.675781 -76.921875 42.09375 -76.335938 43.25 -75.171875 C 44.414062 -74.015625 45 -72.597656 45 -70.921875 C 45 -69.242188 44.414062 -67.820312 43.25 -66.65625 C 42.09375 -65.5 40.675781 -64.921875 39 -64.921875 C 37.320312 -64.921875 35.898438 -65.5 34.734375 -66.65625 Z M 15.359375 -64.921875 C 12.878906 -64.921875 11.117188 -65.921875 10.078125 -67.921875 C 10.078125 -68.003906 10 -68.125 9.84375 -68.28125 C 9.519531 -69.238281 9.359375 -69.957031 9.359375 -70.4375 L 9.359375 -70.921875 C 9.359375 -73.316406 10.359375 -75.035156 12.359375 -76.078125 C 12.921875 -76.640625 13.921875 -76.921875 15.359375 -76.921875 C 17.441406 -76.921875 19.003906 -76.160156 20.046875 -74.640625 C 20.921875 -73.441406 21.359375 -72.203125 21.359375 -70.921875 L 21.359375 -70.4375 C 21.359375 -69.082031 20.597656 -67.644531 19.078125 -66.125 C 18.753906 -65.957031 18.515625 -65.796875 18.359375 -65.640625 L 17.515625 -65.28125 L 16.3125 -64.921875 Z M 15.359375 -64.921875 "/></g></g></g><g fill="#000000" fill-opacity="1"><g transform="translate(851.762862, 581.624927)"><g><path d="M 17.765625 0 L 7.6875 0 L 7.6875 -54.234375 L 14.640625 -54.234375 L 17.40625 -44.15625 C 19 -46.957031 21.535156 -49.597656 25.015625 -52.078125 C 28.492188 -54.554688 32.078125 -56.078125 35.765625 -56.640625 L 36.953125 -48.359375 C 33.992188 -48.359375 30.65625 -47.4375 26.9375 -45.59375 C 23.21875 -43.757812 20.160156 -41.722656 17.765625 -39.484375 Z M 17.765625 0 "/></g></g></g><g fill="#000000" fill-opacity="1"><g transform="translate(889.922862, 581.624927)"><g/></g><g transform="translate(919.922859, 581.624927)"><g><path d="M 64.203125 -58.796875 C 64.203125 -51.117188 61.378906 -45.300781 55.734375 -41.34375 C 50.097656 -37.382812 42.441406 -35.40625 32.765625 -35.40625 L 22.4375 -35.40625 L 22.4375 0 L 10.796875 0 L 10.796875 -79.4375 L 36.59375 -79.4375 C 44.675781 -79.4375 51.296875 -77.597656 56.453125 -73.921875 C 61.617188 -70.242188 64.203125 -65.203125 64.203125 -58.796875 Z M 22.4375 -38.875 L 33.125 -38.875 C 36.882812 -38.875 40.101562 -39.59375 42.78125 -41.03125 C 45.457031 -42.476562 47.394531 -44.320312 48.59375 -46.5625 C 50.757812 -50.5625 51.84375 -54.441406 51.84375 -58.203125 C 51.84375 -60.035156 51.363281 -62.234375 50.40625 -64.796875 C 48.476562 -70.078125 44.515625 -73.519531 38.515625 -75.125 C 32.753906 -75.125 27.394531 -74.441406 22.4375 -73.078125 Z M 22.4375 -38.875 "/></g></g></g><g fill="#000000" fill-opacity="1"><g transform="translate(985.442888, 581.624927)"><g><path d="M 32.15625 -55.6875 C 39.195312 -55.6875 45.015625 -53.285156 49.609375 -48.484375 C 54.210938 -43.679688 56.515625 -37.082031 56.515625 -28.6875 C 56.515625 -23.320312 55.59375 -18.597656 53.75 -14.515625 C 51.914062 -10.441406 49.519531 -7.285156 46.5625 -5.046875 C 40.882812 -0.722656 34.546875 1.4375 27.546875 1.4375 C 20.546875 1.4375 14.742188 -0.957031 10.140625 -5.75 C 5.535156 -10.550781 3.234375 -17.15625 3.234375 -25.5625 C 3.234375 -30.914062 4.132812 -35.632812 5.9375 -39.71875 C 7.738281 -43.800781 10.117188 -46.960938 13.078125 -49.203125 C 18.753906 -53.523438 25.113281 -55.6875 32.15625 -55.6875 Z M 29.765625 -2.640625 C 33.285156 -2.640625 36.285156 -4 38.765625 -6.71875 C 43.242188 -11.519531 45.484375 -17.898438 45.484375 -25.859375 C 45.484375 -33.816406 44.117188 -40.015625 41.390625 -44.453125 C 38.671875 -48.898438 34.234375 -51.125 28.078125 -51.125 C 23.515625 -49.363281 20.050781 -46.257812 17.6875 -41.8125 C 15.332031 -37.375 14.15625 -32.015625 14.15625 -25.734375 C 14.15625 -19.453125 15.4375 -14.03125 18 -9.46875 C 20.5625 -4.914062 24.484375 -2.640625 29.765625 -2.640625 Z M 29.765625 -2.640625 "/></g></g></g><g fill="#000000" fill-opacity="1"><g transform="translate(1045.442928, 581.624927)"><g><path d="M 12.59375 -29.515625 C 12.59375 -20.878906 14.53125 -14.660156 18.40625 -10.859375 C 22.289062 -7.054688 27.015625 -5.15625 32.578125 -5.15625 C 38.140625 -5.15625 43.28125 -6.238281 48 -8.40625 L 48 -4.203125 C 41.4375 -0.441406 35.15625 1.4375 29.15625 1.4375 C 21.394531 1.4375 15.113281 -0.921875 10.3125 -5.640625 C 5.519531 -10.359375 3.125 -17.195312 3.125 -26.15625 C 3.125 -35.113281 5.78125 -42.273438 11.09375 -47.640625 C 16.414062 -53.003906 22.835938 -55.6875 30.359375 -55.6875 C 36.203125 -55.6875 41.082031 -53.382812 45 -48.78125 C 48.914062 -44.175781 50.875 -37.753906 50.875 -29.515625 Z M 24.234375 -50.046875 C 21.441406 -48.679688 19.046875 -46.5 17.046875 -43.5 C 15.046875 -40.5 13.722656 -37.039062 13.078125 -33.125 L 41.15625 -33.125 C 40.914062 -36.476562 40.132812 -39.351562 38.8125 -41.75 C 37.5 -44.15625 35.921875 -45.921875 34.078125 -47.046875 C 30.796875 -49.046875 27.515625 -50.046875 24.234375 -50.046875 Z M 24.234375 -50.046875 "/></g></g></g><g fill="#000000" fill-opacity="1"><g transform="translate(1101.722952, 581.624927)"><g><path d="M 21 -10.5625 C 21 -8.15625 21.476562 -6.351562 22.4375 -5.15625 C 23.394531 -3.957031 24.992188 -3.359375 27.234375 -3.359375 C 29.472656 -3.359375 32.15625 -3.957031 35.28125 -5.15625 L 35.28125 -1.796875 C 30.632812 0.359375 26.472656 1.4375 22.796875 1.4375 C 19.117188 1.4375 16.21875 0.414062 14.09375 -1.625 C 11.976562 -3.664062 10.921875 -6.84375 10.921875 -11.15625 L 10.921875 -49.921875 L 1.203125 -51.84375 L 1.203125 -54.234375 L 10.921875 -54.234375 L 10.921875 -58.5625 L 21 -65.875 L 21 -54.234375 L 35.28125 -54.234375 L 35.28125 -49.921875 L 21 -49.921875 Z M 21 -10.5625 "/></g></g></g><g fill="#000000" fill-opacity="1"><g transform="translate(1141.20296, 581.624927)"><g><path d="M 7.921875 -0.59375 C 6.640625 -1.875 6 -3.4375 6 -5.28125 C 6 -7.125 6.640625 -8.703125 7.921875 -10.015625 C 9.203125 -11.335938 10.757812 -12 12.59375 -12 C 14.4375 -12 16.015625 -11.335938 17.328125 -10.015625 C 18.648438 -8.703125 19.3125 -7.125 19.3125 -5.28125 C 19.3125 -3.4375 18.648438 -1.875 17.328125 -0.59375 C 16.015625 0.675781 14.4375 1.3125 12.59375 1.3125 C 10.757812 1.3125 9.203125 0.675781 7.921875 -0.59375 Z M 7.921875 -43.671875 C 6.640625 -44.953125 6 -46.515625 6 -48.359375 C 6 -50.203125 6.640625 -51.78125 7.921875 -53.09375 C 9.203125 -54.414062 10.757812 -55.078125 12.59375 -55.078125 C 14.4375 -55.078125 16.015625 -54.414062 17.328125 -53.09375 C 18.648438 -51.78125 19.3125 -50.203125 19.3125 -48.359375 C 19.3125 -46.515625 18.648438 -44.953125 17.328125 -43.671875 C 16.015625 -42.398438 14.4375 -41.765625 12.59375 -41.765625 C 10.757812 -41.765625 9.203125 -42.398438 7.921875 -43.671875 Z M 7.921875 -43.671875 "/></g></g></g><g fill="#000000" fill-opacity="1"><g transform="translate(1166.522965, 581.624927)"><g><path d="M 21.84375 -79.4375 L 21.84375 0 L 10.796875 0 L 10.796875 -79.4375 Z M 21.84375 -79.4375 "/></g></g></g><g fill="#000000" fill-opacity="1"><g transform="translate(1199.162977, 581.624927)"><g><path d="M 19.4375 -46.5625 C 22.800781 -49.757812 25.742188 -52.078125 28.265625 -53.515625 C 30.785156 -54.960938 33.765625 -55.6875 37.203125 -55.6875 C 40.640625 -55.6875 43.816406 -54.320312 46.734375 -51.59375 C 49.660156 -48.875 51.125 -44.195312 51.125 -37.5625 L 51.125 0 L 40.921875 0 L 40.921875 -36.359375 C 40.921875 -40.273438 40.21875 -43.210938 38.8125 -45.171875 C 37.414062 -47.140625 35.015625 -48.125 31.609375 -48.125 C 28.210938 -48.125 24.273438 -45.882812 19.796875 -41.40625 L 19.796875 0 L 9.59375 0 L 9.59375 -37.6875 C 9.59375 -43.125 7.554688 -47.484375 3.484375 -50.765625 L 9.59375 -55.3125 Z M 19.4375 -46.5625 "/></g></g></g><g fill="#000000" fill-opacity="1"><g transform="translate(1259.163017, 581.624927)"><g><path d="M 19.4375 -46.5625 C 22.800781 -49.757812 25.742188 -52.078125 28.265625 -53.515625 C 30.785156 -54.960938 33.765625 -55.6875 37.203125 -55.6875 C 40.640625 -55.6875 43.816406 -54.320312 46.734375 -51.59375 C 49.660156 -48.875 51.125 -44.195312 51.125 -37.5625 L 51.125 0 L 40.921875 0 L 40.921875 -36.359375 C 40.921875 -40.273438 40.21875 -43.210938 38.8125 -45.171875 C 37.414062 -47.140625 35.015625 -48.125 31.609375 -48.125 C 28.210938 -48.125 24.273438 -45.882812 19.796875 -41.40625 L 19.796875 0 L 9.59375 0 L 9.59375 -37.6875 C 9.59375 -43.125 7.554688 -47.484375 3.484375 -50.765625 L 9.59375 -55.3125 Z M 19.4375 -46.5625 "/></g></g><g transform="translate(1319.163012, 581.624927)"><g><path d="M 12.59375 -29.515625 C 12.59375 -20.878906 14.53125 -14.660156 18.40625 -10.859375 C 22.289062 -7.054688 27.015625 -5.15625 32.578125 -5.15625 C 38.140625 -5.15625 43.28125 -6.238281 48 -8.40625 L 48 -4.203125 C 41.4375 -0.441406 35.15625 1.4375 29.15625 1.4375 C 21.394531 1.4375 15.113281 -0.921875 10.3125 -5.640625 C 5.519531 -10.359375 3.125 -17.195312 3.125 -26.15625 C 3.125 -35.113281 5.78125 -42.273438 11.09375 -47.640625 C 16.414062 -53.003906 22.835938 -55.6875 30.359375 -55.6875 C 36.203125 -55.6875 41.082031 -53.382812 45 -48.78125 C 48.914062 -44.175781 50.875 -37.753906 50.875 -29.515625 Z M 24.234375 -50.046875 C 21.441406 -48.679688 19.046875 -46.5 17.046875 -43.5 C 15.046875 -40.5 13.722656 -37.039062 13.078125 -33.125 L 41.15625 -33.125 C 40.914062 -36.476562 40.132812 -39.351562 38.8125 -41.75 C 37.5 -44.15625 35.921875 -45.921875 34.078125 -47.046875 C 30.796875 -49.046875 27.515625 -50.046875 24.234375 -50.046875 Z M 24.234375 -50.046875 "/></g></g></g><g fill="#000000" fill-opacity="1"><g transform="translate(1375.443036, 581.624927)"><g><path d="M 19.4375 -46.5625 C 22.800781 -49.757812 25.742188 -52.078125 28.265625 -53.515625 C 30.785156 -54.960938 33.765625 -55.6875 37.203125 -55.6875 C 40.640625 -55.6875 43.816406 -54.320312 46.734375 -51.59375 C 49.660156 -48.875 51.125 -44.195312 51.125 -37.5625 L 51.125 0 L 40.921875 0 L 40.921875 -36.359375 C 40.921875 -40.273438 40.21875 -43.210938 38.8125 -45.171875 C 37.414062 -47.140625 35.015625 -48.125 31.609375 -48.125 C 28.210938 -48.125 24.273438 -45.882812 19.796875 -41.40625 L 19.796875 0 L 9.59375 0 L 9.59375 -37.6875 C 9.59375 -43.125 7.554688 -47.484375 3.484375 -50.765625 L 9.59375 -55.3125 Z M 19.4375 -46.5625 "/></g></g></g></svg>